M48
INCH,TZ
T1C0.016
T2C0.040
T3C0.047
T4C0.047
T5C0.087
%
G90
G05
T1
X40700Y-23400
X41500Y-22700
X44500Y-22300
X46300Y-22300
X48000Y-21100
X50300Y-21800
X50400Y-35500
X50400Y-37800
X50600Y-43100
X52000Y-24000
X52200Y-49200
X52300Y-36100
X52400Y-21300
X52400Y-38400
X53700Y-39800
X54100Y-21300
X54100Y-36400
X54400Y-39000
X54500Y-40600
X54700Y-48700
X54800Y-40800
X55000Y-35900
X55100Y-40600
X55200Y-38900
X55200Y-47300
X55300Y-35700
X55400Y-38600
X55500Y-37200
X55500Y-37600
X55500Y-38000
X55500Y-39500
X55600Y-35500
X55600Y-40900
X55900Y-35306
X55900Y-40600
X56100Y-48700
X56300Y-35300
X56300Y-40700
X56600Y-35500
X56900Y-35700
X57500Y-20500
X57500Y-21500
X57600Y-41000
X57800Y-37700
X57900Y-36400
X58300Y-21300
X58300Y-39000
X58600Y-49100
X58700Y-37300
X59000Y-24000
X59600Y-47900
X59700Y-49900
X59800Y-39600
X60300Y-46400
X60600Y-36600
X60600Y-47100
X62200Y-21800
X65500Y-21500
X66200Y-22300
X69800Y-21300
X69800Y-22700
T2
X46650Y-45500
X46650Y-46500
X62400Y-55500
X63219Y-56074
X47900Y-56000
X48719Y-55426
X51900Y-55000
X52900Y-55000
X53900Y-55000
X54900Y-55000
X55900Y-55000
X56900Y-55000
X57900Y-55000
X58900Y-55000
T3
X54539Y-41800
X56461Y-41800
T4
X56150Y-51000
X56150Y-52000
X56150Y-53000
T5
X40500Y-24300
X44500Y-55600
X70500Y-24300
X66500Y-55600
X66500Y-48500
X44500Y-48500
T0
M30
