G04 #@! TF.GenerationSoftware,KiCad,Pcbnew,no-vcs-found-c78a2ba~59~ubuntu16.10.1*
G04 #@! TF.CreationDate,2017-09-21T00:22:34+02:00*
G04 #@! TF.ProjectId,rat_board,7261745F626F6172642E6B696361645F,rev?*
G04 #@! TF.SameCoordinates,Original
G04 #@! TF.FileFunction,Legend,Top*
G04 #@! TF.FilePolarity,Positive*
%FSLAX46Y46*%
G04 Gerber Fmt 4.6, Leading zero omitted, Abs format (unit mm)*
G04 Created by KiCad (PCBNEW no-vcs-found-c78a2ba~59~ubuntu16.10.1) date Thu Sep 21 00:22:34 2017*
%MOMM*%
%LPD*%
G01*
G04 APERTURE LIST*
%ADD10C,0.150000*%
%ADD11C,0.120000*%
%ADD12C,0.010000*%
G04 APERTURE END LIST*
D10*
X144621000Y-126230000D02*
X137121000Y-126230000D01*
X144621000Y-137930000D02*
X137121000Y-137930000D01*
X137121000Y-137930000D02*
X137121000Y-126230000D01*
X144621000Y-137930000D02*
X144621000Y-126230000D01*
X162345411Y-142115003D02*
X160888527Y-144195649D01*
X156727235Y-141281881D02*
X160888527Y-144195649D01*
X158184119Y-139201235D02*
X156727235Y-141281881D01*
X162345411Y-142115003D02*
X158184119Y-139201235D01*
X124058527Y-139014351D02*
X125515411Y-141094997D01*
X121354119Y-144008765D02*
X125515411Y-141094997D01*
X119897235Y-141928119D02*
X121354119Y-144008765D01*
X124058527Y-139014351D02*
X119897235Y-141928119D01*
X150749000Y-138430000D02*
X150749000Y-140970000D01*
X130683000Y-138430000D02*
X150749000Y-138430000D01*
X130683000Y-140970000D02*
X130683000Y-138430000D01*
X130683000Y-140970000D02*
X150749000Y-140970000D01*
D11*
X151734000Y-90516000D02*
X151034000Y-90516000D01*
X151034000Y-89316000D02*
X151734000Y-89316000D01*
X130206000Y-93888000D02*
X130906000Y-93888000D01*
X130906000Y-95088000D02*
X130206000Y-95088000D01*
X151034000Y-93888000D02*
X151734000Y-93888000D01*
X151734000Y-95088000D02*
X151034000Y-95088000D01*
X130906000Y-99660000D02*
X130206000Y-99660000D01*
X130206000Y-98460000D02*
X130906000Y-98460000D01*
X130906000Y-92040000D02*
X130206000Y-92040000D01*
X130206000Y-90840000D02*
X130906000Y-90840000D01*
X130206000Y-92364000D02*
X130906000Y-92364000D01*
X130906000Y-93564000D02*
X130206000Y-93564000D01*
D10*
X144595000Y-100457000D02*
X145970000Y-100457000D01*
X137345000Y-100907000D02*
X137870000Y-100907000D01*
X137345000Y-93657000D02*
X137870000Y-93657000D01*
X144595000Y-93657000D02*
X144070000Y-93657000D01*
X144595000Y-100907000D02*
X144070000Y-100907000D01*
X144595000Y-93657000D02*
X144595000Y-94182000D01*
X137345000Y-93657000D02*
X137345000Y-94182000D01*
X137345000Y-100907000D02*
X137345000Y-100382000D01*
X144595000Y-100907000D02*
X144595000Y-100457000D01*
D11*
X126840000Y-102817000D02*
X127290000Y-102367000D01*
X128540000Y-101567000D02*
X130540000Y-101567000D01*
X131790000Y-102367000D02*
X132240000Y-102817000D01*
X132240000Y-102817000D02*
X132240000Y-105717000D01*
X132240000Y-105717000D02*
X131790000Y-106167000D01*
X130540000Y-106967000D02*
X128540000Y-106967000D01*
X127290000Y-106167000D02*
X126840000Y-105717000D01*
X126840000Y-105717000D02*
X126840000Y-102817000D01*
X155100000Y-105717000D02*
X154650000Y-106167000D01*
X153400000Y-106967000D02*
X151400000Y-106967000D01*
X150150000Y-106167000D02*
X149700000Y-105717000D01*
X149700000Y-105717000D02*
X149700000Y-102817000D01*
X149700000Y-102817000D02*
X150150000Y-102367000D01*
X151400000Y-101567000D02*
X153400000Y-101567000D01*
X154650000Y-102367000D02*
X155100000Y-102817000D01*
X155100000Y-102817000D02*
X155100000Y-105717000D01*
X151734000Y-96612000D02*
X151034000Y-96612000D01*
X151034000Y-95412000D02*
X151734000Y-95412000D01*
X151034000Y-90840000D02*
X151734000Y-90840000D01*
X151734000Y-92040000D02*
X151034000Y-92040000D01*
X151034000Y-92364000D02*
X151734000Y-92364000D01*
X151734000Y-93564000D02*
X151034000Y-93564000D01*
X130906000Y-90770000D02*
X130206000Y-90770000D01*
X130206000Y-89570000D02*
X130906000Y-89570000D01*
X130906000Y-96612000D02*
X130206000Y-96612000D01*
X130206000Y-95412000D02*
X130906000Y-95412000D01*
X130206000Y-96936000D02*
X130906000Y-96936000D01*
X130906000Y-98136000D02*
X130206000Y-98136000D01*
X151734000Y-99660000D02*
X151034000Y-99660000D01*
X151034000Y-98460000D02*
X151734000Y-98460000D01*
X151734000Y-98136000D02*
X151034000Y-98136000D01*
X151034000Y-96936000D02*
X151734000Y-96936000D01*
X149576000Y-87130000D02*
X151676000Y-87130000D01*
X149576000Y-88130000D02*
X151676000Y-88130000D01*
X149576000Y-87130000D02*
X149576000Y-88130000D01*
X129764000Y-87130000D02*
X131864000Y-87130000D01*
X129764000Y-88130000D02*
X131864000Y-88130000D01*
X129764000Y-87130000D02*
X129764000Y-88130000D01*
D10*
X119761000Y-119380000D02*
X117221000Y-119380000D01*
X119761000Y-116840000D02*
X119761000Y-119380000D01*
X120041000Y-114020000D02*
X116941000Y-114020000D01*
X120041000Y-115570000D02*
X120041000Y-114020000D01*
X117221000Y-116840000D02*
X119761000Y-116840000D01*
X117221000Y-119380000D02*
X117221000Y-116840000D01*
X116941000Y-114020000D02*
X116941000Y-115570000D01*
D12*
G36*
X137382590Y-49176441D02*
X137433438Y-49147918D01*
X137526735Y-49100891D01*
X137663203Y-49035002D01*
X137843566Y-48949892D01*
X138068548Y-48845201D01*
X138338872Y-48720570D01*
X138513797Y-48640346D01*
X138731689Y-48540093D01*
X138934174Y-48445998D01*
X139116813Y-48360189D01*
X139275169Y-48284797D01*
X139404800Y-48221951D01*
X139501270Y-48173781D01*
X139560138Y-48142418D01*
X139577181Y-48130118D01*
X139546858Y-48114126D01*
X139481792Y-48085844D01*
X139394815Y-48050794D01*
X139374855Y-48043047D01*
X139286235Y-48007554D01*
X139218183Y-47977794D01*
X139182851Y-47959149D01*
X139180648Y-47957030D01*
X139201432Y-47945250D01*
X139264465Y-47918739D01*
X139364088Y-47879658D01*
X139494642Y-47830169D01*
X139650465Y-47772431D01*
X139825899Y-47708607D01*
X139917209Y-47675800D01*
X140099700Y-47609844D01*
X140264893Y-47548875D01*
X140407216Y-47495052D01*
X140521096Y-47450532D01*
X140600964Y-47417470D01*
X140641246Y-47398026D01*
X140644816Y-47394095D01*
X140617316Y-47382079D01*
X140547948Y-47355249D01*
X140442703Y-47315822D01*
X140307573Y-47266015D01*
X140148550Y-47208047D01*
X139971625Y-47144134D01*
X139897528Y-47117524D01*
X139716740Y-47051969D01*
X139553032Y-46991185D01*
X139412093Y-46937396D01*
X139299611Y-46892830D01*
X139221274Y-46859711D01*
X139182773Y-46840267D01*
X139179857Y-46836700D01*
X139207830Y-46819504D01*
X139271429Y-46791072D01*
X139358286Y-46756825D01*
X139382380Y-46747919D01*
X139471087Y-46713723D01*
X139537609Y-46684565D01*
X139570601Y-46665535D01*
X139572286Y-46662748D01*
X139549800Y-46649173D01*
X139485890Y-46616928D01*
X139385408Y-46568308D01*
X139253205Y-46505606D01*
X139094130Y-46431114D01*
X138913035Y-46347127D01*
X138714770Y-46255938D01*
X138626136Y-46215399D01*
X138344781Y-46086805D01*
X138106601Y-45977631D01*
X137908477Y-45886384D01*
X137747292Y-45811569D01*
X137619926Y-45751691D01*
X137523260Y-45705256D01*
X137454176Y-45670769D01*
X137409554Y-45646735D01*
X137386276Y-45631659D01*
X137381223Y-45624048D01*
X137388600Y-45622328D01*
X137418499Y-45631176D01*
X137491680Y-45656640D01*
X137603982Y-45697177D01*
X137751245Y-45751242D01*
X137929309Y-45817291D01*
X138134011Y-45893779D01*
X138361193Y-45979164D01*
X138606692Y-46071899D01*
X138866350Y-46170441D01*
X138906139Y-46185581D01*
X139166425Y-46284899D01*
X139412125Y-46379126D01*
X139639207Y-46466686D01*
X139843642Y-46546001D01*
X140021397Y-46615495D01*
X140168443Y-46673590D01*
X140280748Y-46718709D01*
X140354281Y-46749275D01*
X140385011Y-46763711D01*
X140385689Y-46764445D01*
X140363577Y-46779617D01*
X140304490Y-46806531D01*
X140219459Y-46840322D01*
X140182442Y-46854026D01*
X139979084Y-46927863D01*
X141006612Y-47287507D01*
X141388356Y-47154142D01*
X141525945Y-47105762D01*
X141652852Y-47060567D01*
X141758471Y-47022376D01*
X141832194Y-46995008D01*
X141854364Y-46986338D01*
X141938627Y-46951900D01*
X141746414Y-46880453D01*
X141657266Y-46845307D01*
X141590113Y-46815007D01*
X141556274Y-46794790D01*
X141554309Y-46791553D01*
X141577322Y-46779572D01*
X141643060Y-46751736D01*
X141746633Y-46709901D01*
X141883154Y-46655921D01*
X142047732Y-46591651D01*
X142235479Y-46518945D01*
X142441506Y-46439657D01*
X142660924Y-46355643D01*
X142888844Y-46268756D01*
X143120377Y-46180852D01*
X143350635Y-46093784D01*
X143574729Y-46009408D01*
X143787768Y-45929578D01*
X143984866Y-45856149D01*
X144161132Y-45790974D01*
X144311677Y-45735909D01*
X144431614Y-45692808D01*
X144516052Y-45663526D01*
X144560104Y-45649917D01*
X144565403Y-45649336D01*
X144545711Y-45662119D01*
X144484506Y-45693682D01*
X144386513Y-45741768D01*
X144256457Y-45804122D01*
X144099066Y-45878486D01*
X143919064Y-45962605D01*
X143721177Y-46054222D01*
X143618249Y-46101565D01*
X143405087Y-46199434D01*
X143200396Y-46293471D01*
X143010119Y-46380943D01*
X142840194Y-46459116D01*
X142696562Y-46525257D01*
X142585165Y-46576633D01*
X142511942Y-46610511D01*
X142496555Y-46617671D01*
X142334009Y-46693541D01*
X142509255Y-46760634D01*
X142602852Y-46796454D01*
X142683227Y-46827190D01*
X142733728Y-46846473D01*
X142735300Y-46847072D01*
X142753898Y-46854494D01*
X142764383Y-46861930D01*
X142762278Y-46871307D01*
X142743105Y-46884552D01*
X142702386Y-46903593D01*
X142635644Y-46930356D01*
X142538399Y-46966771D01*
X142406176Y-47014764D01*
X142234495Y-47076262D01*
X142049500Y-47142270D01*
X141876041Y-47204501D01*
X141718239Y-47261795D01*
X141582440Y-47311794D01*
X141474989Y-47352139D01*
X141402229Y-47380472D01*
X141370507Y-47394435D01*
X141369924Y-47394868D01*
X141387913Y-47407365D01*
X141448114Y-47434432D01*
X141544804Y-47473819D01*
X141672262Y-47523272D01*
X141824764Y-47580540D01*
X141996590Y-47643369D01*
X142050797Y-47662875D01*
X142228988Y-47727208D01*
X142391192Y-47786627D01*
X142531358Y-47838847D01*
X142643437Y-47881584D01*
X142721376Y-47912552D01*
X142759127Y-47929466D01*
X142761649Y-47931336D01*
X142744412Y-47947215D01*
X142689217Y-47975361D01*
X142605968Y-48011010D01*
X142553367Y-48031503D01*
X142451227Y-48070489D01*
X142390637Y-48096300D01*
X142365601Y-48113652D01*
X142370124Y-48127263D01*
X142398209Y-48141848D01*
X142407791Y-48146018D01*
X142490582Y-48182612D01*
X142606030Y-48234719D01*
X142748603Y-48299759D01*
X142912769Y-48375152D01*
X143092995Y-48458319D01*
X143283749Y-48546678D01*
X143479498Y-48637650D01*
X143674710Y-48728655D01*
X143863853Y-48817113D01*
X144041394Y-48900443D01*
X144201800Y-48976065D01*
X144339540Y-49041400D01*
X144449081Y-49093867D01*
X144524891Y-49130886D01*
X144561436Y-49149877D01*
X144563767Y-49151483D01*
X144553892Y-49155188D01*
X144505702Y-49143093D01*
X144428274Y-49117698D01*
X144386300Y-49102594D01*
X144333945Y-49083023D01*
X144240375Y-49047754D01*
X144111054Y-48998863D01*
X143951444Y-48938425D01*
X143767007Y-48868516D01*
X143563207Y-48791211D01*
X143345505Y-48708585D01*
X143119364Y-48622714D01*
X142890246Y-48535673D01*
X142663615Y-48449536D01*
X142444932Y-48366381D01*
X142239660Y-48288281D01*
X142053262Y-48217312D01*
X141891200Y-48155549D01*
X141758936Y-48105069D01*
X141661933Y-48067945D01*
X141605654Y-48046254D01*
X141598796Y-48043568D01*
X141566956Y-48019553D01*
X141585015Y-47992012D01*
X141653295Y-47960563D01*
X141675204Y-47953045D01*
X141766083Y-47920914D01*
X141855494Y-47886155D01*
X141858731Y-47884810D01*
X141947362Y-47847838D01*
X141477731Y-47682328D01*
X141008100Y-47516819D01*
X140690600Y-47626411D01*
X140550193Y-47675125D01*
X140406752Y-47725313D01*
X140277679Y-47770864D01*
X140185296Y-47803885D01*
X139997492Y-47871767D01*
X140185296Y-47942300D01*
X140276143Y-47977497D01*
X140347919Y-48007307D01*
X140387744Y-48026331D01*
X140390985Y-48028572D01*
X140370488Y-48039435D01*
X140307203Y-48066460D01*
X140205850Y-48107821D01*
X140071150Y-48161695D01*
X139907823Y-48226257D01*
X139720591Y-48299681D01*
X139514175Y-48380145D01*
X139293295Y-48465822D01*
X139062672Y-48554890D01*
X138827026Y-48645522D01*
X138591080Y-48735895D01*
X138359552Y-48824184D01*
X138137166Y-48908565D01*
X137928640Y-48987213D01*
X137738696Y-49058304D01*
X137572055Y-49120013D01*
X137477500Y-49154581D01*
X137405345Y-49179414D01*
X137373467Y-49186820D01*
X137382590Y-49176441D01*
X137382590Y-49176441D01*
G37*
X137382590Y-49176441D02*
X137433438Y-49147918D01*
X137526735Y-49100891D01*
X137663203Y-49035002D01*
X137843566Y-48949892D01*
X138068548Y-48845201D01*
X138338872Y-48720570D01*
X138513797Y-48640346D01*
X138731689Y-48540093D01*
X138934174Y-48445998D01*
X139116813Y-48360189D01*
X139275169Y-48284797D01*
X139404800Y-48221951D01*
X139501270Y-48173781D01*
X139560138Y-48142418D01*
X139577181Y-48130118D01*
X139546858Y-48114126D01*
X139481792Y-48085844D01*
X139394815Y-48050794D01*
X139374855Y-48043047D01*
X139286235Y-48007554D01*
X139218183Y-47977794D01*
X139182851Y-47959149D01*
X139180648Y-47957030D01*
X139201432Y-47945250D01*
X139264465Y-47918739D01*
X139364088Y-47879658D01*
X139494642Y-47830169D01*
X139650465Y-47772431D01*
X139825899Y-47708607D01*
X139917209Y-47675800D01*
X140099700Y-47609844D01*
X140264893Y-47548875D01*
X140407216Y-47495052D01*
X140521096Y-47450532D01*
X140600964Y-47417470D01*
X140641246Y-47398026D01*
X140644816Y-47394095D01*
X140617316Y-47382079D01*
X140547948Y-47355249D01*
X140442703Y-47315822D01*
X140307573Y-47266015D01*
X140148550Y-47208047D01*
X139971625Y-47144134D01*
X139897528Y-47117524D01*
X139716740Y-47051969D01*
X139553032Y-46991185D01*
X139412093Y-46937396D01*
X139299611Y-46892830D01*
X139221274Y-46859711D01*
X139182773Y-46840267D01*
X139179857Y-46836700D01*
X139207830Y-46819504D01*
X139271429Y-46791072D01*
X139358286Y-46756825D01*
X139382380Y-46747919D01*
X139471087Y-46713723D01*
X139537609Y-46684565D01*
X139570601Y-46665535D01*
X139572286Y-46662748D01*
X139549800Y-46649173D01*
X139485890Y-46616928D01*
X139385408Y-46568308D01*
X139253205Y-46505606D01*
X139094130Y-46431114D01*
X138913035Y-46347127D01*
X138714770Y-46255938D01*
X138626136Y-46215399D01*
X138344781Y-46086805D01*
X138106601Y-45977631D01*
X137908477Y-45886384D01*
X137747292Y-45811569D01*
X137619926Y-45751691D01*
X137523260Y-45705256D01*
X137454176Y-45670769D01*
X137409554Y-45646735D01*
X137386276Y-45631659D01*
X137381223Y-45624048D01*
X137388600Y-45622328D01*
X137418499Y-45631176D01*
X137491680Y-45656640D01*
X137603982Y-45697177D01*
X137751245Y-45751242D01*
X137929309Y-45817291D01*
X138134011Y-45893779D01*
X138361193Y-45979164D01*
X138606692Y-46071899D01*
X138866350Y-46170441D01*
X138906139Y-46185581D01*
X139166425Y-46284899D01*
X139412125Y-46379126D01*
X139639207Y-46466686D01*
X139843642Y-46546001D01*
X140021397Y-46615495D01*
X140168443Y-46673590D01*
X140280748Y-46718709D01*
X140354281Y-46749275D01*
X140385011Y-46763711D01*
X140385689Y-46764445D01*
X140363577Y-46779617D01*
X140304490Y-46806531D01*
X140219459Y-46840322D01*
X140182442Y-46854026D01*
X139979084Y-46927863D01*
X141006612Y-47287507D01*
X141388356Y-47154142D01*
X141525945Y-47105762D01*
X141652852Y-47060567D01*
X141758471Y-47022376D01*
X141832194Y-46995008D01*
X141854364Y-46986338D01*
X141938627Y-46951900D01*
X141746414Y-46880453D01*
X141657266Y-46845307D01*
X141590113Y-46815007D01*
X141556274Y-46794790D01*
X141554309Y-46791553D01*
X141577322Y-46779572D01*
X141643060Y-46751736D01*
X141746633Y-46709901D01*
X141883154Y-46655921D01*
X142047732Y-46591651D01*
X142235479Y-46518945D01*
X142441506Y-46439657D01*
X142660924Y-46355643D01*
X142888844Y-46268756D01*
X143120377Y-46180852D01*
X143350635Y-46093784D01*
X143574729Y-46009408D01*
X143787768Y-45929578D01*
X143984866Y-45856149D01*
X144161132Y-45790974D01*
X144311677Y-45735909D01*
X144431614Y-45692808D01*
X144516052Y-45663526D01*
X144560104Y-45649917D01*
X144565403Y-45649336D01*
X144545711Y-45662119D01*
X144484506Y-45693682D01*
X144386513Y-45741768D01*
X144256457Y-45804122D01*
X144099066Y-45878486D01*
X143919064Y-45962605D01*
X143721177Y-46054222D01*
X143618249Y-46101565D01*
X143405087Y-46199434D01*
X143200396Y-46293471D01*
X143010119Y-46380943D01*
X142840194Y-46459116D01*
X142696562Y-46525257D01*
X142585165Y-46576633D01*
X142511942Y-46610511D01*
X142496555Y-46617671D01*
X142334009Y-46693541D01*
X142509255Y-46760634D01*
X142602852Y-46796454D01*
X142683227Y-46827190D01*
X142733728Y-46846473D01*
X142735300Y-46847072D01*
X142753898Y-46854494D01*
X142764383Y-46861930D01*
X142762278Y-46871307D01*
X142743105Y-46884552D01*
X142702386Y-46903593D01*
X142635644Y-46930356D01*
X142538399Y-46966771D01*
X142406176Y-47014764D01*
X142234495Y-47076262D01*
X142049500Y-47142270D01*
X141876041Y-47204501D01*
X141718239Y-47261795D01*
X141582440Y-47311794D01*
X141474989Y-47352139D01*
X141402229Y-47380472D01*
X141370507Y-47394435D01*
X141369924Y-47394868D01*
X141387913Y-47407365D01*
X141448114Y-47434432D01*
X141544804Y-47473819D01*
X141672262Y-47523272D01*
X141824764Y-47580540D01*
X141996590Y-47643369D01*
X142050797Y-47662875D01*
X142228988Y-47727208D01*
X142391192Y-47786627D01*
X142531358Y-47838847D01*
X142643437Y-47881584D01*
X142721376Y-47912552D01*
X142759127Y-47929466D01*
X142761649Y-47931336D01*
X142744412Y-47947215D01*
X142689217Y-47975361D01*
X142605968Y-48011010D01*
X142553367Y-48031503D01*
X142451227Y-48070489D01*
X142390637Y-48096300D01*
X142365601Y-48113652D01*
X142370124Y-48127263D01*
X142398209Y-48141848D01*
X142407791Y-48146018D01*
X142490582Y-48182612D01*
X142606030Y-48234719D01*
X142748603Y-48299759D01*
X142912769Y-48375152D01*
X143092995Y-48458319D01*
X143283749Y-48546678D01*
X143479498Y-48637650D01*
X143674710Y-48728655D01*
X143863853Y-48817113D01*
X144041394Y-48900443D01*
X144201800Y-48976065D01*
X144339540Y-49041400D01*
X144449081Y-49093867D01*
X144524891Y-49130886D01*
X144561436Y-49149877D01*
X144563767Y-49151483D01*
X144553892Y-49155188D01*
X144505702Y-49143093D01*
X144428274Y-49117698D01*
X144386300Y-49102594D01*
X144333945Y-49083023D01*
X144240375Y-49047754D01*
X144111054Y-48998863D01*
X143951444Y-48938425D01*
X143767007Y-48868516D01*
X143563207Y-48791211D01*
X143345505Y-48708585D01*
X143119364Y-48622714D01*
X142890246Y-48535673D01*
X142663615Y-48449536D01*
X142444932Y-48366381D01*
X142239660Y-48288281D01*
X142053262Y-48217312D01*
X141891200Y-48155549D01*
X141758936Y-48105069D01*
X141661933Y-48067945D01*
X141605654Y-48046254D01*
X141598796Y-48043568D01*
X141566956Y-48019553D01*
X141585015Y-47992012D01*
X141653295Y-47960563D01*
X141675204Y-47953045D01*
X141766083Y-47920914D01*
X141855494Y-47886155D01*
X141858731Y-47884810D01*
X141947362Y-47847838D01*
X141477731Y-47682328D01*
X141008100Y-47516819D01*
X140690600Y-47626411D01*
X140550193Y-47675125D01*
X140406752Y-47725313D01*
X140277679Y-47770864D01*
X140185296Y-47803885D01*
X139997492Y-47871767D01*
X140185296Y-47942300D01*
X140276143Y-47977497D01*
X140347919Y-48007307D01*
X140387744Y-48026331D01*
X140390985Y-48028572D01*
X140370488Y-48039435D01*
X140307203Y-48066460D01*
X140205850Y-48107821D01*
X140071150Y-48161695D01*
X139907823Y-48226257D01*
X139720591Y-48299681D01*
X139514175Y-48380145D01*
X139293295Y-48465822D01*
X139062672Y-48554890D01*
X138827026Y-48645522D01*
X138591080Y-48735895D01*
X138359552Y-48824184D01*
X138137166Y-48908565D01*
X137928640Y-48987213D01*
X137738696Y-49058304D01*
X137572055Y-49120013D01*
X137477500Y-49154581D01*
X137405345Y-49179414D01*
X137373467Y-49186820D01*
X137382590Y-49176441D01*
G36*
X140721101Y-52928384D02*
X140566322Y-52920434D01*
X140471654Y-52909348D01*
X140182345Y-52843249D01*
X139913760Y-52743415D01*
X139670909Y-52613321D01*
X139458798Y-52456440D01*
X139282437Y-52276246D01*
X139146833Y-52076215D01*
X139087531Y-51949173D01*
X139060812Y-51870028D01*
X139042240Y-51784149D01*
X139029900Y-51678347D01*
X139021878Y-51539434D01*
X139019801Y-51482505D01*
X139026847Y-51158716D01*
X139070658Y-50832128D01*
X139153044Y-50490403D01*
X139177270Y-50409559D01*
X139210363Y-50291204D01*
X139221768Y-50206119D01*
X139209314Y-50140672D01*
X139170831Y-50081232D01*
X139116089Y-50025300D01*
X139025192Y-49924180D01*
X138981120Y-49834320D01*
X138982192Y-49751885D01*
X138988500Y-49733927D01*
X139024811Y-49665313D01*
X139077592Y-49602238D01*
X139153178Y-49540198D01*
X139257908Y-49474689D01*
X139398118Y-49401208D01*
X139573000Y-49318518D01*
X139684699Y-49264214D01*
X139787911Y-49208451D01*
X139867845Y-49159480D01*
X139897964Y-49137228D01*
X139994163Y-49028858D01*
X140057942Y-48900496D01*
X140081000Y-48769012D01*
X140081265Y-48722489D01*
X140087646Y-48691956D01*
X140108527Y-48675315D01*
X140152290Y-48670467D01*
X140227317Y-48675314D01*
X140341990Y-48687757D01*
X140385800Y-48692705D01*
X140458827Y-48698143D01*
X140573011Y-48703213D01*
X140718711Y-48707648D01*
X140886282Y-48711180D01*
X141066084Y-48713542D01*
X141163604Y-48714232D01*
X141776308Y-48717200D01*
X141792927Y-48821131D01*
X141826278Y-48951674D01*
X141885455Y-49070662D01*
X141975418Y-49183620D01*
X142101129Y-49296073D01*
X142267551Y-49413548D01*
X142396446Y-49493163D01*
X142548800Y-49584300D01*
X142662654Y-49655058D01*
X142743578Y-49710324D01*
X142797141Y-49754986D01*
X142828914Y-49793932D01*
X142844467Y-49832049D01*
X142849370Y-49874225D01*
X142849600Y-49890809D01*
X142845804Y-49940772D01*
X141208008Y-49940772D01*
X141201152Y-49847180D01*
X141175170Y-49799074D01*
X141138132Y-49764619D01*
X141101550Y-49766812D01*
X141057405Y-49795893D01*
X140974462Y-49830749D01*
X140878576Y-49818073D01*
X140818398Y-49790350D01*
X140764044Y-49762710D01*
X140733543Y-49761829D01*
X140707065Y-49788535D01*
X140702040Y-49795205D01*
X140672159Y-49874525D01*
X140674147Y-49980057D01*
X140705145Y-50100936D01*
X140762297Y-50226297D01*
X140842745Y-50345274D01*
X140848537Y-50352317D01*
X140909308Y-50425334D01*
X141013257Y-50307242D01*
X141111895Y-50177602D01*
X141177534Y-50053179D01*
X141208008Y-49940772D01*
X142845804Y-49940772D01*
X142845292Y-49947505D01*
X142827000Y-49995523D01*
X142786677Y-50048402D01*
X142716273Y-50119683D01*
X142709900Y-50125818D01*
X142652324Y-50182653D01*
X142611075Y-50231981D01*
X142585178Y-50282478D01*
X142573655Y-50342816D01*
X142575528Y-50421671D01*
X142589820Y-50527716D01*
X142594380Y-50552865D01*
X142290243Y-50552865D01*
X142273846Y-50439053D01*
X142229088Y-50328907D01*
X142164847Y-50241131D01*
X142128208Y-50211486D01*
X142034231Y-50178163D01*
X141912535Y-50172914D01*
X141777215Y-50194960D01*
X141655024Y-50237673D01*
X141509432Y-50317514D01*
X141381177Y-50415159D01*
X141277636Y-50522680D01*
X141206188Y-50632147D01*
X141174211Y-50735633D01*
X141173200Y-50755435D01*
X141176404Y-50771475D01*
X140599857Y-50771475D01*
X140585263Y-50672143D01*
X140526422Y-50564505D01*
X140453751Y-50476493D01*
X140332700Y-50366667D01*
X140196348Y-50278533D01*
X140053618Y-50214718D01*
X139913436Y-50177849D01*
X139784725Y-50170550D01*
X139676411Y-50195450D01*
X139620038Y-50231147D01*
X139548996Y-50326029D01*
X139506697Y-50452660D01*
X139496800Y-50559146D01*
X139517434Y-50696283D01*
X139581014Y-50815934D01*
X139690059Y-50921511D01*
X139827000Y-51006199D01*
X139897210Y-51037406D01*
X139970440Y-51055750D01*
X140063811Y-51064300D01*
X140161601Y-51066143D01*
X140303391Y-51060291D01*
X140406481Y-51038386D01*
X140481813Y-50995152D01*
X140540332Y-50925317D01*
X140571970Y-50868362D01*
X140599857Y-50771475D01*
X141176404Y-50771475D01*
X141195744Y-50868281D01*
X141259095Y-50959696D01*
X141356838Y-51026968D01*
X141482555Y-51067385D01*
X141629830Y-51078235D01*
X141792246Y-51056807D01*
X141850234Y-51041551D01*
X142006287Y-50975263D01*
X142134213Y-50880834D01*
X142227748Y-50765222D01*
X142280629Y-50635383D01*
X142290243Y-50552865D01*
X142594380Y-50552865D01*
X142615553Y-50669625D01*
X142636461Y-50777557D01*
X142686078Y-51089431D01*
X142705618Y-51364150D01*
X142695082Y-51605500D01*
X142654469Y-51817264D01*
X142636577Y-51875127D01*
X142547701Y-52090378D01*
X142434058Y-52273948D01*
X142284452Y-52443108D01*
X142242800Y-52482698D01*
X142087212Y-52604214D01*
X141898017Y-52716723D01*
X141692410Y-52811051D01*
X141516100Y-52870489D01*
X141401560Y-52893329D01*
X141250607Y-52911066D01*
X141077426Y-52923173D01*
X140896196Y-52929121D01*
X140721101Y-52928384D01*
X140721101Y-52928384D01*
G37*
X140721101Y-52928384D02*
X140566322Y-52920434D01*
X140471654Y-52909348D01*
X140182345Y-52843249D01*
X139913760Y-52743415D01*
X139670909Y-52613321D01*
X139458798Y-52456440D01*
X139282437Y-52276246D01*
X139146833Y-52076215D01*
X139087531Y-51949173D01*
X139060812Y-51870028D01*
X139042240Y-51784149D01*
X139029900Y-51678347D01*
X139021878Y-51539434D01*
X139019801Y-51482505D01*
X139026847Y-51158716D01*
X139070658Y-50832128D01*
X139153044Y-50490403D01*
X139177270Y-50409559D01*
X139210363Y-50291204D01*
X139221768Y-50206119D01*
X139209314Y-50140672D01*
X139170831Y-50081232D01*
X139116089Y-50025300D01*
X139025192Y-49924180D01*
X138981120Y-49834320D01*
X138982192Y-49751885D01*
X138988500Y-49733927D01*
X139024811Y-49665313D01*
X139077592Y-49602238D01*
X139153178Y-49540198D01*
X139257908Y-49474689D01*
X139398118Y-49401208D01*
X139573000Y-49318518D01*
X139684699Y-49264214D01*
X139787911Y-49208451D01*
X139867845Y-49159480D01*
X139897964Y-49137228D01*
X139994163Y-49028858D01*
X140057942Y-48900496D01*
X140081000Y-48769012D01*
X140081265Y-48722489D01*
X140087646Y-48691956D01*
X140108527Y-48675315D01*
X140152290Y-48670467D01*
X140227317Y-48675314D01*
X140341990Y-48687757D01*
X140385800Y-48692705D01*
X140458827Y-48698143D01*
X140573011Y-48703213D01*
X140718711Y-48707648D01*
X140886282Y-48711180D01*
X141066084Y-48713542D01*
X141163604Y-48714232D01*
X141776308Y-48717200D01*
X141792927Y-48821131D01*
X141826278Y-48951674D01*
X141885455Y-49070662D01*
X141975418Y-49183620D01*
X142101129Y-49296073D01*
X142267551Y-49413548D01*
X142396446Y-49493163D01*
X142548800Y-49584300D01*
X142662654Y-49655058D01*
X142743578Y-49710324D01*
X142797141Y-49754986D01*
X142828914Y-49793932D01*
X142844467Y-49832049D01*
X142849370Y-49874225D01*
X142849600Y-49890809D01*
X142845804Y-49940772D01*
X141208008Y-49940772D01*
X141201152Y-49847180D01*
X141175170Y-49799074D01*
X141138132Y-49764619D01*
X141101550Y-49766812D01*
X141057405Y-49795893D01*
X140974462Y-49830749D01*
X140878576Y-49818073D01*
X140818398Y-49790350D01*
X140764044Y-49762710D01*
X140733543Y-49761829D01*
X140707065Y-49788535D01*
X140702040Y-49795205D01*
X140672159Y-49874525D01*
X140674147Y-49980057D01*
X140705145Y-50100936D01*
X140762297Y-50226297D01*
X140842745Y-50345274D01*
X140848537Y-50352317D01*
X140909308Y-50425334D01*
X141013257Y-50307242D01*
X141111895Y-50177602D01*
X141177534Y-50053179D01*
X141208008Y-49940772D01*
X142845804Y-49940772D01*
X142845292Y-49947505D01*
X142827000Y-49995523D01*
X142786677Y-50048402D01*
X142716273Y-50119683D01*
X142709900Y-50125818D01*
X142652324Y-50182653D01*
X142611075Y-50231981D01*
X142585178Y-50282478D01*
X142573655Y-50342816D01*
X142575528Y-50421671D01*
X142589820Y-50527716D01*
X142594380Y-50552865D01*
X142290243Y-50552865D01*
X142273846Y-50439053D01*
X142229088Y-50328907D01*
X142164847Y-50241131D01*
X142128208Y-50211486D01*
X142034231Y-50178163D01*
X141912535Y-50172914D01*
X141777215Y-50194960D01*
X141655024Y-50237673D01*
X141509432Y-50317514D01*
X141381177Y-50415159D01*
X141277636Y-50522680D01*
X141206188Y-50632147D01*
X141174211Y-50735633D01*
X141173200Y-50755435D01*
X141176404Y-50771475D01*
X140599857Y-50771475D01*
X140585263Y-50672143D01*
X140526422Y-50564505D01*
X140453751Y-50476493D01*
X140332700Y-50366667D01*
X140196348Y-50278533D01*
X140053618Y-50214718D01*
X139913436Y-50177849D01*
X139784725Y-50170550D01*
X139676411Y-50195450D01*
X139620038Y-50231147D01*
X139548996Y-50326029D01*
X139506697Y-50452660D01*
X139496800Y-50559146D01*
X139517434Y-50696283D01*
X139581014Y-50815934D01*
X139690059Y-50921511D01*
X139827000Y-51006199D01*
X139897210Y-51037406D01*
X139970440Y-51055750D01*
X140063811Y-51064300D01*
X140161601Y-51066143D01*
X140303391Y-51060291D01*
X140406481Y-51038386D01*
X140481813Y-50995152D01*
X140540332Y-50925317D01*
X140571970Y-50868362D01*
X140599857Y-50771475D01*
X141176404Y-50771475D01*
X141195744Y-50868281D01*
X141259095Y-50959696D01*
X141356838Y-51026968D01*
X141482555Y-51067385D01*
X141629830Y-51078235D01*
X141792246Y-51056807D01*
X141850234Y-51041551D01*
X142006287Y-50975263D01*
X142134213Y-50880834D01*
X142227748Y-50765222D01*
X142280629Y-50635383D01*
X142290243Y-50552865D01*
X142594380Y-50552865D01*
X142615553Y-50669625D01*
X142636461Y-50777557D01*
X142686078Y-51089431D01*
X142705618Y-51364150D01*
X142695082Y-51605500D01*
X142654469Y-51817264D01*
X142636577Y-51875127D01*
X142547701Y-52090378D01*
X142434058Y-52273948D01*
X142284452Y-52443108D01*
X142242800Y-52482698D01*
X142087212Y-52604214D01*
X141898017Y-52716723D01*
X141692410Y-52811051D01*
X141516100Y-52870489D01*
X141401560Y-52893329D01*
X141250607Y-52911066D01*
X141077426Y-52923173D01*
X140896196Y-52929121D01*
X140721101Y-52928384D01*
D10*
X136271000Y-107172760D02*
X136070340Y-106771440D01*
X136070340Y-106771440D02*
X135968740Y-106172000D01*
X135968740Y-106172000D02*
X136070340Y-105671620D01*
X136070340Y-105671620D02*
X136469120Y-104973120D01*
X136469120Y-104973120D02*
X137071100Y-104571800D01*
X137071100Y-104571800D02*
X137670540Y-104371140D01*
X137670540Y-104371140D02*
X144269460Y-104371140D01*
X144269460Y-104371140D02*
X144970500Y-104571800D01*
X144970500Y-104571800D02*
X145369280Y-104871520D01*
X145369280Y-104871520D02*
X145770600Y-105371900D01*
X145770600Y-105371900D02*
X145971260Y-105971340D01*
X145971260Y-105971340D02*
X145971260Y-106471720D01*
X145971260Y-106471720D02*
X145770600Y-106972100D01*
X145770600Y-106972100D02*
X145270220Y-107571540D01*
X145270220Y-107571540D02*
X144769840Y-107871260D01*
X144769840Y-107871260D02*
X144269460Y-107972860D01*
X144170400Y-107972860D02*
X137568940Y-107972860D01*
X137568940Y-107972860D02*
X137170160Y-107871260D01*
X137170160Y-107871260D02*
X136669780Y-107571540D01*
X136669780Y-107571540D02*
X136169400Y-107071160D01*
X144160240Y-108501180D02*
X144619980Y-108452920D01*
X144619980Y-108452920D02*
X145018760Y-108341160D01*
X145018760Y-108341160D02*
X145450560Y-108122720D01*
X145450560Y-108122720D02*
X145740120Y-107891580D01*
X145740120Y-107891580D02*
X146070320Y-107541060D01*
X146070320Y-107541060D02*
X146359880Y-107002580D01*
X146359880Y-107002580D02*
X146489420Y-106403140D01*
X146489420Y-106403140D02*
X146489420Y-105892600D01*
X146489420Y-105892600D02*
X146319240Y-105191560D01*
X146319240Y-105191560D02*
X145920460Y-104602280D01*
X145920460Y-104602280D02*
X145460720Y-104231440D01*
X145460720Y-104231440D02*
X145039080Y-104023160D01*
X145039080Y-104023160D02*
X144589500Y-103863140D01*
X144589500Y-103863140D02*
X144150080Y-103832660D01*
X136809480Y-104051100D02*
X136431020Y-104272080D01*
X136431020Y-104272080D02*
X136110980Y-104551480D01*
X136110980Y-104551480D02*
X135859520Y-104881680D01*
X135859520Y-104881680D02*
X135559800Y-105432860D01*
X135559800Y-105432860D02*
X135450580Y-105902760D01*
X135450580Y-105902760D02*
X135430260Y-106362500D01*
X135430260Y-106362500D02*
X135519160Y-106822240D01*
X135519160Y-106822240D02*
X135709660Y-107271820D01*
X135709660Y-107271820D02*
X136070340Y-107741720D01*
X136070340Y-107741720D02*
X136420860Y-108061760D01*
X136420860Y-108061760D02*
X136809480Y-108292900D01*
X136809480Y-108292900D02*
X137238740Y-108432600D01*
X137238740Y-108432600D02*
X137680700Y-108501180D01*
X144170400Y-103842820D02*
X137718800Y-103842820D01*
X137718800Y-103842820D02*
X137299700Y-103880920D01*
X137299700Y-103880920D02*
X136809480Y-104051100D01*
X144170400Y-108501180D02*
X137718800Y-108501180D01*
D11*
X136390000Y-58322000D02*
X135390000Y-58322000D01*
X136390000Y-54962000D02*
X135390000Y-54962000D01*
X145550000Y-54962000D02*
X146550000Y-54962000D01*
X145550000Y-58322000D02*
X146550000Y-58322000D01*
D10*
X139517380Y-134460952D02*
X138517380Y-134460952D01*
X138517380Y-134222857D01*
X138565000Y-134080000D01*
X138660238Y-133984761D01*
X138755476Y-133937142D01*
X138945952Y-133889523D01*
X139088809Y-133889523D01*
X139279285Y-133937142D01*
X139374523Y-133984761D01*
X139469761Y-134080000D01*
X139517380Y-134222857D01*
X139517380Y-134460952D01*
X139422142Y-132889523D02*
X139469761Y-132937142D01*
X139517380Y-133080000D01*
X139517380Y-133175238D01*
X139469761Y-133318095D01*
X139374523Y-133413333D01*
X139279285Y-133460952D01*
X139088809Y-133508571D01*
X138945952Y-133508571D01*
X138755476Y-133460952D01*
X138660238Y-133413333D01*
X138565000Y-133318095D01*
X138517380Y-133175238D01*
X138517380Y-133080000D01*
X138565000Y-132937142D01*
X138612619Y-132889523D01*
X139136428Y-132460952D02*
X139136428Y-131699047D01*
X139517380Y-131222857D02*
X138517380Y-131222857D01*
X138517380Y-130984761D01*
X138565000Y-130841904D01*
X138660238Y-130746666D01*
X138755476Y-130699047D01*
X138945952Y-130651428D01*
X139088809Y-130651428D01*
X139279285Y-130699047D01*
X139374523Y-130746666D01*
X139469761Y-130841904D01*
X139517380Y-130984761D01*
X139517380Y-131222857D01*
X139422142Y-129651428D02*
X139469761Y-129699047D01*
X139517380Y-129841904D01*
X139517380Y-129937142D01*
X139469761Y-130080000D01*
X139374523Y-130175238D01*
X139279285Y-130222857D01*
X139088809Y-130270476D01*
X138945952Y-130270476D01*
X138755476Y-130222857D01*
X138660238Y-130175238D01*
X138565000Y-130080000D01*
X138517380Y-129937142D01*
X138517380Y-129841904D01*
X138565000Y-129699047D01*
X138612619Y-129651428D01*
X161708608Y-141040061D02*
X162282185Y-140220909D01*
X162145538Y-140997210D01*
X162828286Y-140603294D01*
X162254709Y-141422446D01*
X163374387Y-140985678D02*
X163530416Y-141094931D01*
X163581118Y-141188564D01*
X163604506Y-141321205D01*
X163534260Y-141504547D01*
X163343068Y-141777598D01*
X163194808Y-141906314D01*
X163062167Y-141929702D01*
X162956840Y-141914083D01*
X162800811Y-141804830D01*
X162750110Y-141711196D01*
X162726721Y-141578556D01*
X162796967Y-141395213D01*
X162988159Y-141122163D01*
X163136419Y-140993447D01*
X163269060Y-140970059D01*
X163374387Y-140985678D01*
X163959496Y-141395375D02*
X164427583Y-141723133D01*
X163619963Y-142378406D02*
X164193539Y-141559254D01*
X164856662Y-142023578D02*
X165012691Y-142132831D01*
X165063393Y-142226464D01*
X165086781Y-142359105D01*
X165016535Y-142542447D01*
X164825343Y-142815498D01*
X164677083Y-142944214D01*
X164544443Y-142967602D01*
X164439115Y-142951983D01*
X164283086Y-142842730D01*
X164232385Y-142749097D01*
X164208997Y-142616456D01*
X164279242Y-142433114D01*
X164470434Y-142160063D01*
X164618694Y-142031347D01*
X164751335Y-142007959D01*
X164856662Y-142023578D01*
X165453303Y-143662125D02*
X165453384Y-143080861D01*
X164985216Y-143334367D02*
X165558793Y-142515215D01*
X165870851Y-142733720D01*
X165921552Y-142827354D01*
X165933246Y-142893674D01*
X165917627Y-142999002D01*
X165835687Y-143116024D01*
X165742054Y-143166725D01*
X165675734Y-143178419D01*
X165570406Y-143162800D01*
X165258348Y-142944295D01*
X166284311Y-143139493D02*
X166350632Y-143127799D01*
X166455959Y-143143418D01*
X166650995Y-143279984D01*
X166701697Y-143373617D01*
X166713391Y-143439938D01*
X166697772Y-143545265D01*
X166643145Y-143623280D01*
X166522199Y-143712988D01*
X165726354Y-143853317D01*
X166233448Y-144208388D01*
X115872558Y-144181075D02*
X115298982Y-143361923D01*
X115981730Y-143755840D01*
X115845083Y-142979539D01*
X116418660Y-143798691D01*
X116391185Y-142597155D02*
X116547213Y-142487902D01*
X116652541Y-142472283D01*
X116785182Y-142495671D01*
X116933442Y-142624387D01*
X117124634Y-142897437D01*
X117194879Y-143080780D01*
X117171491Y-143213420D01*
X117120790Y-143307054D01*
X116964761Y-143416307D01*
X116859433Y-143431926D01*
X116726793Y-143408538D01*
X116578533Y-143279822D01*
X116387340Y-143006771D01*
X116317095Y-142823429D01*
X116340483Y-142690788D01*
X116391185Y-142597155D01*
X116976293Y-142187457D02*
X117444380Y-141859699D01*
X117783913Y-142842730D02*
X117210337Y-142023578D01*
X117873460Y-141559254D02*
X118029489Y-141450002D01*
X118134816Y-141434383D01*
X118267457Y-141457771D01*
X118415717Y-141586487D01*
X118606909Y-141859537D01*
X118677155Y-142042879D01*
X118653766Y-142175520D01*
X118603065Y-142269154D01*
X118447036Y-142378406D01*
X118341708Y-142394025D01*
X118209068Y-142370637D01*
X118060808Y-142241922D01*
X117869616Y-141968871D01*
X117799370Y-141785529D01*
X117822758Y-141652888D01*
X117873460Y-141559254D01*
X119617253Y-141559011D02*
X119071071Y-141360131D01*
X119149166Y-141886769D02*
X118575590Y-141067617D01*
X118887648Y-140849112D01*
X118992976Y-140833493D01*
X119059296Y-140845187D01*
X119152930Y-140895888D01*
X119234869Y-141012910D01*
X119250488Y-141118238D01*
X119238794Y-141184558D01*
X119188093Y-141278192D01*
X118876035Y-141496697D01*
X120397398Y-141012748D02*
X119929311Y-141340506D01*
X120163355Y-141176627D02*
X119589778Y-140357475D01*
X119593703Y-140529123D01*
X119570315Y-140661764D01*
X119519614Y-140755398D01*
X154265333Y-90368380D02*
X153932000Y-89892190D01*
X153693904Y-90368380D02*
X153693904Y-89368380D01*
X154074857Y-89368380D01*
X154170095Y-89416000D01*
X154217714Y-89463619D01*
X154265333Y-89558857D01*
X154265333Y-89701714D01*
X154217714Y-89796952D01*
X154170095Y-89844571D01*
X154074857Y-89892190D01*
X153693904Y-89892190D01*
X155217714Y-90368380D02*
X154646285Y-90368380D01*
X154932000Y-90368380D02*
X154932000Y-89368380D01*
X154836761Y-89511238D01*
X154741523Y-89606476D01*
X154646285Y-89654095D01*
X127341333Y-94940380D02*
X127008000Y-94464190D01*
X126769904Y-94940380D02*
X126769904Y-93940380D01*
X127150857Y-93940380D01*
X127246095Y-93988000D01*
X127293714Y-94035619D01*
X127341333Y-94130857D01*
X127341333Y-94273714D01*
X127293714Y-94368952D01*
X127246095Y-94416571D01*
X127150857Y-94464190D01*
X126769904Y-94464190D01*
X127722285Y-94035619D02*
X127769904Y-93988000D01*
X127865142Y-93940380D01*
X128103238Y-93940380D01*
X128198476Y-93988000D01*
X128246095Y-94035619D01*
X128293714Y-94130857D01*
X128293714Y-94226095D01*
X128246095Y-94368952D01*
X127674666Y-94940380D01*
X128293714Y-94940380D01*
X154265333Y-94940380D02*
X153932000Y-94464190D01*
X153693904Y-94940380D02*
X153693904Y-93940380D01*
X154074857Y-93940380D01*
X154170095Y-93988000D01*
X154217714Y-94035619D01*
X154265333Y-94130857D01*
X154265333Y-94273714D01*
X154217714Y-94368952D01*
X154170095Y-94416571D01*
X154074857Y-94464190D01*
X153693904Y-94464190D01*
X155122476Y-93940380D02*
X154932000Y-93940380D01*
X154836761Y-93988000D01*
X154789142Y-94035619D01*
X154693904Y-94178476D01*
X154646285Y-94368952D01*
X154646285Y-94749904D01*
X154693904Y-94845142D01*
X154741523Y-94892761D01*
X154836761Y-94940380D01*
X155027238Y-94940380D01*
X155122476Y-94892761D01*
X155170095Y-94845142D01*
X155217714Y-94749904D01*
X155217714Y-94511809D01*
X155170095Y-94416571D01*
X155122476Y-94368952D01*
X155027238Y-94321333D01*
X154836761Y-94321333D01*
X154741523Y-94368952D01*
X154693904Y-94416571D01*
X154646285Y-94511809D01*
X127341333Y-99512380D02*
X127008000Y-99036190D01*
X126769904Y-99512380D02*
X126769904Y-98512380D01*
X127150857Y-98512380D01*
X127246095Y-98560000D01*
X127293714Y-98607619D01*
X127341333Y-98702857D01*
X127341333Y-98845714D01*
X127293714Y-98940952D01*
X127246095Y-98988571D01*
X127150857Y-99036190D01*
X126769904Y-99036190D01*
X127912761Y-98940952D02*
X127817523Y-98893333D01*
X127769904Y-98845714D01*
X127722285Y-98750476D01*
X127722285Y-98702857D01*
X127769904Y-98607619D01*
X127817523Y-98560000D01*
X127912761Y-98512380D01*
X128103238Y-98512380D01*
X128198476Y-98560000D01*
X128246095Y-98607619D01*
X128293714Y-98702857D01*
X128293714Y-98750476D01*
X128246095Y-98845714D01*
X128198476Y-98893333D01*
X128103238Y-98940952D01*
X127912761Y-98940952D01*
X127817523Y-98988571D01*
X127769904Y-99036190D01*
X127722285Y-99131428D01*
X127722285Y-99321904D01*
X127769904Y-99417142D01*
X127817523Y-99464761D01*
X127912761Y-99512380D01*
X128103238Y-99512380D01*
X128198476Y-99464761D01*
X128246095Y-99417142D01*
X128293714Y-99321904D01*
X128293714Y-99131428D01*
X128246095Y-99036190D01*
X128198476Y-98988571D01*
X128103238Y-98940952D01*
X127341333Y-92146380D02*
X127008000Y-91670190D01*
X126769904Y-92146380D02*
X126769904Y-91146380D01*
X127150857Y-91146380D01*
X127246095Y-91194000D01*
X127293714Y-91241619D01*
X127341333Y-91336857D01*
X127341333Y-91479714D01*
X127293714Y-91574952D01*
X127246095Y-91622571D01*
X127150857Y-91670190D01*
X126769904Y-91670190D01*
X127817523Y-92146380D02*
X128008000Y-92146380D01*
X128103238Y-92098761D01*
X128150857Y-92051142D01*
X128246095Y-91908285D01*
X128293714Y-91717809D01*
X128293714Y-91336857D01*
X128246095Y-91241619D01*
X128198476Y-91194000D01*
X128103238Y-91146380D01*
X127912761Y-91146380D01*
X127817523Y-91194000D01*
X127769904Y-91241619D01*
X127722285Y-91336857D01*
X127722285Y-91574952D01*
X127769904Y-91670190D01*
X127817523Y-91717809D01*
X127912761Y-91765428D01*
X128103238Y-91765428D01*
X128198476Y-91717809D01*
X128246095Y-91670190D01*
X128293714Y-91574952D01*
X126357142Y-93416380D02*
X126023809Y-92940190D01*
X125785714Y-93416380D02*
X125785714Y-92416380D01*
X126166666Y-92416380D01*
X126261904Y-92464000D01*
X126309523Y-92511619D01*
X126357142Y-92606857D01*
X126357142Y-92749714D01*
X126309523Y-92844952D01*
X126261904Y-92892571D01*
X126166666Y-92940190D01*
X125785714Y-92940190D01*
X127309523Y-93416380D02*
X126738095Y-93416380D01*
X127023809Y-93416380D02*
X127023809Y-92416380D01*
X126928571Y-92559238D01*
X126833333Y-92654476D01*
X126738095Y-92702095D01*
X127928571Y-92416380D02*
X128023809Y-92416380D01*
X128119047Y-92464000D01*
X128166666Y-92511619D01*
X128214285Y-92606857D01*
X128261904Y-92797333D01*
X128261904Y-93035428D01*
X128214285Y-93225904D01*
X128166666Y-93321142D01*
X128119047Y-93368761D01*
X128023809Y-93416380D01*
X127928571Y-93416380D01*
X127833333Y-93368761D01*
X127785714Y-93321142D01*
X127738095Y-93225904D01*
X127690476Y-93035428D01*
X127690476Y-92797333D01*
X127738095Y-92606857D01*
X127785714Y-92511619D01*
X127833333Y-92464000D01*
X127928571Y-92416380D01*
X125880761Y-106116190D02*
X125928380Y-105973333D01*
X125928380Y-105735238D01*
X125880761Y-105640000D01*
X125833142Y-105592380D01*
X125737904Y-105544761D01*
X125642666Y-105544761D01*
X125547428Y-105592380D01*
X125499809Y-105640000D01*
X125452190Y-105735238D01*
X125404571Y-105925714D01*
X125356952Y-106020952D01*
X125309333Y-106068571D01*
X125214095Y-106116190D01*
X125118857Y-106116190D01*
X125023619Y-106068571D01*
X124976000Y-106020952D01*
X124928380Y-105925714D01*
X124928380Y-105687619D01*
X124976000Y-105544761D01*
X124928380Y-105259047D02*
X124928380Y-104687619D01*
X125928380Y-104973333D02*
X124928380Y-104973333D01*
X125642666Y-104401904D02*
X125642666Y-103925714D01*
X125928380Y-104497142D02*
X124928380Y-104163809D01*
X125928380Y-103830476D01*
X125928380Y-102925714D02*
X125452190Y-103259047D01*
X125928380Y-103497142D02*
X124928380Y-103497142D01*
X124928380Y-103116190D01*
X124976000Y-103020952D01*
X125023619Y-102973333D01*
X125118857Y-102925714D01*
X125261714Y-102925714D01*
X125356952Y-102973333D01*
X125404571Y-103020952D01*
X125452190Y-103116190D01*
X125452190Y-103497142D01*
X124928380Y-102640000D02*
X124928380Y-102068571D01*
X125928380Y-102354285D02*
X124928380Y-102354285D01*
X157043380Y-105592380D02*
X156567190Y-105925714D01*
X157043380Y-106163809D02*
X156043380Y-106163809D01*
X156043380Y-105782857D01*
X156091000Y-105687619D01*
X156138619Y-105640000D01*
X156233857Y-105592380D01*
X156376714Y-105592380D01*
X156471952Y-105640000D01*
X156519571Y-105687619D01*
X156567190Y-105782857D01*
X156567190Y-106163809D01*
X156519571Y-105163809D02*
X156519571Y-104830476D01*
X157043380Y-104687619D02*
X157043380Y-105163809D01*
X156043380Y-105163809D01*
X156043380Y-104687619D01*
X156995761Y-104306666D02*
X157043380Y-104163809D01*
X157043380Y-103925714D01*
X156995761Y-103830476D01*
X156948142Y-103782857D01*
X156852904Y-103735238D01*
X156757666Y-103735238D01*
X156662428Y-103782857D01*
X156614809Y-103830476D01*
X156567190Y-103925714D01*
X156519571Y-104116190D01*
X156471952Y-104211428D01*
X156424333Y-104259047D01*
X156329095Y-104306666D01*
X156233857Y-104306666D01*
X156138619Y-104259047D01*
X156091000Y-104211428D01*
X156043380Y-104116190D01*
X156043380Y-103878095D01*
X156091000Y-103735238D01*
X156519571Y-103306666D02*
X156519571Y-102973333D01*
X157043380Y-102830476D02*
X157043380Y-103306666D01*
X156043380Y-103306666D01*
X156043380Y-102830476D01*
X156043380Y-102544761D02*
X156043380Y-101973333D01*
X157043380Y-102259047D02*
X156043380Y-102259047D01*
X154265333Y-96369142D02*
X154217714Y-96416761D01*
X154074857Y-96464380D01*
X153979619Y-96464380D01*
X153836761Y-96416761D01*
X153741523Y-96321523D01*
X153693904Y-96226285D01*
X153646285Y-96035809D01*
X153646285Y-95892952D01*
X153693904Y-95702476D01*
X153741523Y-95607238D01*
X153836761Y-95512000D01*
X153979619Y-95464380D01*
X154074857Y-95464380D01*
X154217714Y-95512000D01*
X154265333Y-95559619D01*
X155217714Y-96464380D02*
X154646285Y-96464380D01*
X154932000Y-96464380D02*
X154932000Y-95464380D01*
X154836761Y-95607238D01*
X154741523Y-95702476D01*
X154646285Y-95750095D01*
X154265333Y-91797142D02*
X154217714Y-91844761D01*
X154074857Y-91892380D01*
X153979619Y-91892380D01*
X153836761Y-91844761D01*
X153741523Y-91749523D01*
X153693904Y-91654285D01*
X153646285Y-91463809D01*
X153646285Y-91320952D01*
X153693904Y-91130476D01*
X153741523Y-91035238D01*
X153836761Y-90940000D01*
X153979619Y-90892380D01*
X154074857Y-90892380D01*
X154217714Y-90940000D01*
X154265333Y-90987619D01*
X154646285Y-90987619D02*
X154693904Y-90940000D01*
X154789142Y-90892380D01*
X155027238Y-90892380D01*
X155122476Y-90940000D01*
X155170095Y-90987619D01*
X155217714Y-91082857D01*
X155217714Y-91178095D01*
X155170095Y-91320952D01*
X154598666Y-91892380D01*
X155217714Y-91892380D01*
X154265333Y-93321142D02*
X154217714Y-93368761D01*
X154074857Y-93416380D01*
X153979619Y-93416380D01*
X153836761Y-93368761D01*
X153741523Y-93273523D01*
X153693904Y-93178285D01*
X153646285Y-92987809D01*
X153646285Y-92844952D01*
X153693904Y-92654476D01*
X153741523Y-92559238D01*
X153836761Y-92464000D01*
X153979619Y-92416380D01*
X154074857Y-92416380D01*
X154217714Y-92464000D01*
X154265333Y-92511619D01*
X154598666Y-92416380D02*
X155217714Y-92416380D01*
X154884380Y-92797333D01*
X155027238Y-92797333D01*
X155122476Y-92844952D01*
X155170095Y-92892571D01*
X155217714Y-92987809D01*
X155217714Y-93225904D01*
X155170095Y-93321142D01*
X155122476Y-93368761D01*
X155027238Y-93416380D01*
X154741523Y-93416380D01*
X154646285Y-93368761D01*
X154598666Y-93321142D01*
X127341333Y-90527142D02*
X127293714Y-90574761D01*
X127150857Y-90622380D01*
X127055619Y-90622380D01*
X126912761Y-90574761D01*
X126817523Y-90479523D01*
X126769904Y-90384285D01*
X126722285Y-90193809D01*
X126722285Y-90050952D01*
X126769904Y-89860476D01*
X126817523Y-89765238D01*
X126912761Y-89670000D01*
X127055619Y-89622380D01*
X127150857Y-89622380D01*
X127293714Y-89670000D01*
X127341333Y-89717619D01*
X128198476Y-89955714D02*
X128198476Y-90622380D01*
X127960380Y-89574761D02*
X127722285Y-90289047D01*
X128341333Y-90289047D01*
X127341333Y-96369142D02*
X127293714Y-96416761D01*
X127150857Y-96464380D01*
X127055619Y-96464380D01*
X126912761Y-96416761D01*
X126817523Y-96321523D01*
X126769904Y-96226285D01*
X126722285Y-96035809D01*
X126722285Y-95892952D01*
X126769904Y-95702476D01*
X126817523Y-95607238D01*
X126912761Y-95512000D01*
X127055619Y-95464380D01*
X127150857Y-95464380D01*
X127293714Y-95512000D01*
X127341333Y-95559619D01*
X128246095Y-95464380D02*
X127769904Y-95464380D01*
X127722285Y-95940571D01*
X127769904Y-95892952D01*
X127865142Y-95845333D01*
X128103238Y-95845333D01*
X128198476Y-95892952D01*
X128246095Y-95940571D01*
X128293714Y-96035809D01*
X128293714Y-96273904D01*
X128246095Y-96369142D01*
X128198476Y-96416761D01*
X128103238Y-96464380D01*
X127865142Y-96464380D01*
X127769904Y-96416761D01*
X127722285Y-96369142D01*
X127341333Y-97893142D02*
X127293714Y-97940761D01*
X127150857Y-97988380D01*
X127055619Y-97988380D01*
X126912761Y-97940761D01*
X126817523Y-97845523D01*
X126769904Y-97750285D01*
X126722285Y-97559809D01*
X126722285Y-97416952D01*
X126769904Y-97226476D01*
X126817523Y-97131238D01*
X126912761Y-97036000D01*
X127055619Y-96988380D01*
X127150857Y-96988380D01*
X127293714Y-97036000D01*
X127341333Y-97083619D01*
X128198476Y-96988380D02*
X128008000Y-96988380D01*
X127912761Y-97036000D01*
X127865142Y-97083619D01*
X127769904Y-97226476D01*
X127722285Y-97416952D01*
X127722285Y-97797904D01*
X127769904Y-97893142D01*
X127817523Y-97940761D01*
X127912761Y-97988380D01*
X128103238Y-97988380D01*
X128198476Y-97940761D01*
X128246095Y-97893142D01*
X128293714Y-97797904D01*
X128293714Y-97559809D01*
X128246095Y-97464571D01*
X128198476Y-97416952D01*
X128103238Y-97369333D01*
X127912761Y-97369333D01*
X127817523Y-97416952D01*
X127769904Y-97464571D01*
X127722285Y-97559809D01*
X154265333Y-99417142D02*
X154217714Y-99464761D01*
X154074857Y-99512380D01*
X153979619Y-99512380D01*
X153836761Y-99464761D01*
X153741523Y-99369523D01*
X153693904Y-99274285D01*
X153646285Y-99083809D01*
X153646285Y-98940952D01*
X153693904Y-98750476D01*
X153741523Y-98655238D01*
X153836761Y-98560000D01*
X153979619Y-98512380D01*
X154074857Y-98512380D01*
X154217714Y-98560000D01*
X154265333Y-98607619D01*
X154598666Y-98512380D02*
X155265333Y-98512380D01*
X154836761Y-99512380D01*
X154265333Y-97893142D02*
X154217714Y-97940761D01*
X154074857Y-97988380D01*
X153979619Y-97988380D01*
X153836761Y-97940761D01*
X153741523Y-97845523D01*
X153693904Y-97750285D01*
X153646285Y-97559809D01*
X153646285Y-97416952D01*
X153693904Y-97226476D01*
X153741523Y-97131238D01*
X153836761Y-97036000D01*
X153979619Y-96988380D01*
X154074857Y-96988380D01*
X154217714Y-97036000D01*
X154265333Y-97083619D01*
X154836761Y-97416952D02*
X154741523Y-97369333D01*
X154693904Y-97321714D01*
X154646285Y-97226476D01*
X154646285Y-97178857D01*
X154693904Y-97083619D01*
X154741523Y-97036000D01*
X154836761Y-96988380D01*
X155027238Y-96988380D01*
X155122476Y-97036000D01*
X155170095Y-97083619D01*
X155217714Y-97178857D01*
X155217714Y-97226476D01*
X155170095Y-97321714D01*
X155122476Y-97369333D01*
X155027238Y-97416952D01*
X154836761Y-97416952D01*
X154741523Y-97464571D01*
X154693904Y-97512190D01*
X154646285Y-97607428D01*
X154646285Y-97797904D01*
X154693904Y-97893142D01*
X154741523Y-97940761D01*
X154836761Y-97988380D01*
X155027238Y-97988380D01*
X155122476Y-97940761D01*
X155170095Y-97893142D01*
X155217714Y-97797904D01*
X155217714Y-97607428D01*
X155170095Y-97512190D01*
X155122476Y-97464571D01*
X155027238Y-97416952D01*
X149836476Y-86177380D02*
X149836476Y-85177380D01*
X150217428Y-85177380D01*
X150312666Y-85225000D01*
X150360285Y-85272619D01*
X150407904Y-85367857D01*
X150407904Y-85510714D01*
X150360285Y-85605952D01*
X150312666Y-85653571D01*
X150217428Y-85701190D01*
X149836476Y-85701190D01*
X151026952Y-85177380D02*
X151217428Y-85177380D01*
X151312666Y-85225000D01*
X151407904Y-85320238D01*
X151455523Y-85510714D01*
X151455523Y-85844047D01*
X151407904Y-86034523D01*
X151312666Y-86129761D01*
X151217428Y-86177380D01*
X151026952Y-86177380D01*
X150931714Y-86129761D01*
X150836476Y-86034523D01*
X150788857Y-85844047D01*
X150788857Y-85510714D01*
X150836476Y-85320238D01*
X150931714Y-85225000D01*
X151026952Y-85177380D01*
X151788857Y-85177380D02*
X152026952Y-86177380D01*
X152217428Y-85463095D01*
X152407904Y-86177380D01*
X152646000Y-85177380D01*
X153026952Y-85653571D02*
X153360285Y-85653571D01*
X153503142Y-86177380D02*
X153026952Y-86177380D01*
X153026952Y-85177380D01*
X153503142Y-85177380D01*
X154503142Y-86177380D02*
X154169809Y-85701190D01*
X153931714Y-86177380D02*
X153931714Y-85177380D01*
X154312666Y-85177380D01*
X154407904Y-85225000D01*
X154455523Y-85272619D01*
X154503142Y-85367857D01*
X154503142Y-85510714D01*
X154455523Y-85605952D01*
X154407904Y-85653571D01*
X154312666Y-85701190D01*
X153931714Y-85701190D01*
X129278142Y-86177380D02*
X128801952Y-86177380D01*
X128801952Y-85177380D01*
X129611476Y-85653571D02*
X129944809Y-85653571D01*
X130087666Y-86177380D02*
X129611476Y-86177380D01*
X129611476Y-85177380D01*
X130087666Y-85177380D01*
X130516238Y-86177380D02*
X130516238Y-85177380D01*
X130754333Y-85177380D01*
X130897190Y-85225000D01*
X130992428Y-85320238D01*
X131040047Y-85415476D01*
X131087666Y-85605952D01*
X131087666Y-85748809D01*
X131040047Y-85939285D01*
X130992428Y-86034523D01*
X130897190Y-86129761D01*
X130754333Y-86177380D01*
X130516238Y-86177380D01*
X121091000Y-115498571D02*
X121233857Y-115546190D01*
X121281476Y-115593809D01*
X121329095Y-115689047D01*
X121329095Y-115831904D01*
X121281476Y-115927142D01*
X121233857Y-115974761D01*
X121138619Y-116022380D01*
X120757666Y-116022380D01*
X120757666Y-115022380D01*
X121091000Y-115022380D01*
X121186238Y-115070000D01*
X121233857Y-115117619D01*
X121281476Y-115212857D01*
X121281476Y-115308095D01*
X121233857Y-115403333D01*
X121186238Y-115450952D01*
X121091000Y-115498571D01*
X120757666Y-115498571D01*
X121710047Y-115736666D02*
X122186238Y-115736666D01*
X121614809Y-116022380D02*
X121948142Y-115022380D01*
X122281476Y-116022380D01*
X122471952Y-115022380D02*
X123043380Y-115022380D01*
X122757666Y-116022380D02*
X122757666Y-115022380D01*
X123233857Y-115022380D02*
X123805285Y-115022380D01*
X123519571Y-116022380D02*
X123519571Y-115022380D01*
X124138619Y-115498571D02*
X124471952Y-115498571D01*
X124614809Y-116022380D02*
X124138619Y-116022380D01*
X124138619Y-115022380D01*
X124614809Y-115022380D01*
X125614809Y-116022380D02*
X125281476Y-115546190D01*
X125043380Y-116022380D02*
X125043380Y-115022380D01*
X125424333Y-115022380D01*
X125519571Y-115070000D01*
X125567190Y-115117619D01*
X125614809Y-115212857D01*
X125614809Y-115355714D01*
X125567190Y-115450952D01*
X125519571Y-115498571D01*
X125424333Y-115546190D01*
X125043380Y-115546190D01*
X126233857Y-115546190D02*
X126233857Y-116022380D01*
X125900523Y-115022380D02*
X126233857Y-115546190D01*
X126567190Y-115022380D01*
M02*
