G04 #@! TF.GenerationSoftware,KiCad,Pcbnew,no-vcs-found-c78a2ba~59~ubuntu16.10.1*
G04 #@! TF.CreationDate,2017-09-21T00:22:34+02:00*
G04 #@! TF.ProjectId,rat_board,7261745F626F6172642E6B696361645F,rev?*
G04 #@! TF.SameCoordinates,Original
G04 #@! TF.FileFunction,Copper,L1,Top,Signal*
G04 #@! TF.FilePolarity,Positive*
%FSLAX46Y46*%
G04 Gerber Fmt 4.6, Leading zero omitted, Abs format (unit mm)*
G04 Created by KiCad (PCBNEW no-vcs-found-c78a2ba~59~ubuntu16.10.1) date Thu Sep 21 00:22:34 2017*
%MOMM*%
%LPD*%
G01*
G04 APERTURE LIST*
%ADD10R,2.000000X2.000000*%
%ADD11C,2.000000*%
%ADD12C,2.032000*%
%ADD13C,2.032000*%
%ADD14O,1.727200X2.032000*%
%ADD15R,1.727200X2.032000*%
%ADD16C,3.500000*%
%ADD17R,1.200000X0.750000*%
%ADD18R,0.250000X1.300000*%
%ADD19R,1.300000X0.250000*%
%ADD20R,1.100000X1.800000*%
%ADD21R,0.800000X0.800000*%
%ADD22O,2.032000X2.032000*%
%ADD23R,2.032000X2.032000*%
%ADD24O,1.998980X2.499360*%
%ADD25R,0.800000X0.500000*%
%ADD26R,0.800000X0.400000*%
%ADD27C,0.600000*%
%ADD28C,0.250000*%
%ADD29C,1.000000*%
%ADD30C,0.254000*%
G04 APERTURE END LIST*
D10*
X142621000Y-129540000D03*
D11*
X142621000Y-132080000D03*
X142621000Y-134620000D03*
D12*
X160576646Y-142426884D03*
D13*
X160576646Y-142426884D02*
X160576646Y-142426884D01*
D12*
X158496000Y-140970000D03*
X123746646Y-140783116D03*
D13*
X123746646Y-140783116D02*
X123746646Y-140783116D01*
D12*
X121666000Y-142240000D03*
D14*
X149606000Y-139700000D03*
X147066000Y-139700000D03*
X144526000Y-139700000D03*
X141986000Y-139700000D03*
X139446000Y-139700000D03*
X136906000Y-139700000D03*
X134366000Y-139700000D03*
D15*
X131826000Y-139700000D03*
D16*
X113030000Y-141224000D03*
X168910000Y-141224000D03*
X168910000Y-123190000D03*
X113030000Y-123190000D03*
D17*
X152334000Y-89916000D03*
X150434000Y-89916000D03*
X129606000Y-94488000D03*
X131506000Y-94488000D03*
X150434000Y-94488000D03*
X152334000Y-94488000D03*
X131506000Y-99060000D03*
X129606000Y-99060000D03*
X131506000Y-91440000D03*
X129606000Y-91440000D03*
X129606000Y-92964000D03*
X131506000Y-92964000D03*
D18*
X143720000Y-101632000D03*
X143220000Y-101632000D03*
X142720000Y-101632000D03*
X142220000Y-101632000D03*
X141720000Y-101632000D03*
X141220000Y-101632000D03*
X140720000Y-101632000D03*
X140220000Y-101632000D03*
X139720000Y-101632000D03*
X139220000Y-101632000D03*
X138720000Y-101632000D03*
X138220000Y-101632000D03*
D19*
X136620000Y-100032000D03*
X136620000Y-99532000D03*
X136620000Y-99032000D03*
X136620000Y-98532000D03*
X136620000Y-98032000D03*
X136620000Y-97532000D03*
X136620000Y-97032000D03*
X136620000Y-96532000D03*
X136620000Y-96032000D03*
X136620000Y-95532000D03*
X136620000Y-95032000D03*
X136620000Y-94532000D03*
D18*
X138220000Y-92932000D03*
X138720000Y-92932000D03*
X139220000Y-92932000D03*
X139720000Y-92932000D03*
X140220000Y-92932000D03*
X140720000Y-92932000D03*
X141220000Y-92932000D03*
X141720000Y-92932000D03*
X142220000Y-92932000D03*
X142720000Y-92932000D03*
X143220000Y-92932000D03*
X143720000Y-92932000D03*
D19*
X145320000Y-94532000D03*
X145320000Y-95032000D03*
X145320000Y-95532000D03*
X145320000Y-96032000D03*
X145320000Y-96532000D03*
X145320000Y-97032000D03*
X145320000Y-97532000D03*
X145320000Y-98032000D03*
X145320000Y-98532000D03*
X145320000Y-99032000D03*
X145320000Y-99532000D03*
X145320000Y-100032000D03*
D20*
X131390000Y-101167000D03*
X131390000Y-107367000D03*
X127690000Y-101167000D03*
X127690000Y-107367000D03*
X150550000Y-107367000D03*
X150550000Y-101167000D03*
X154250000Y-107367000D03*
X154250000Y-101167000D03*
D17*
X152334000Y-96012000D03*
X150434000Y-96012000D03*
X150434000Y-91440000D03*
X152334000Y-91440000D03*
X150434000Y-92964000D03*
X152334000Y-92964000D03*
X131506000Y-90170000D03*
X129606000Y-90170000D03*
X131506000Y-96012000D03*
X129606000Y-96012000D03*
X129606000Y-97536000D03*
X131506000Y-97536000D03*
X152334000Y-99060000D03*
X150434000Y-99060000D03*
X152334000Y-97536000D03*
X150434000Y-97536000D03*
D21*
X150076000Y-87630000D03*
X151676000Y-87630000D03*
X130264000Y-87630000D03*
X131864000Y-87630000D03*
D22*
X118491000Y-118110000D03*
D23*
X118491000Y-115570000D03*
D24*
X143410940Y-106172000D03*
X138529060Y-106172000D03*
D25*
X134990000Y-55442000D03*
D26*
X134990000Y-57042000D03*
X134990000Y-56242000D03*
D25*
X134990000Y-57842000D03*
D26*
X136790000Y-56242000D03*
D25*
X136790000Y-55442000D03*
D26*
X136790000Y-57042000D03*
D25*
X136790000Y-57842000D03*
X146950000Y-57842000D03*
D26*
X146950000Y-56242000D03*
X146950000Y-57042000D03*
D25*
X146950000Y-55442000D03*
D26*
X145150000Y-57042000D03*
D25*
X145150000Y-57842000D03*
D26*
X145150000Y-56242000D03*
D25*
X145150000Y-55442000D03*
D16*
X102870000Y-61722000D03*
X179070000Y-61722000D03*
D27*
X149860000Y-60960000D03*
X132080000Y-60960000D03*
X140716000Y-98044000D03*
X148082000Y-99060000D03*
X133096000Y-97536000D03*
X137414000Y-92456000D03*
X146812000Y-95758000D03*
X153924000Y-92964000D03*
X136398000Y-101092000D03*
X128016000Y-96012000D03*
X128016000Y-90170000D03*
X128524000Y-109474000D03*
X146050000Y-54610000D03*
X148844000Y-124714000D03*
X140208000Y-120142000D03*
X132588000Y-124968000D03*
X142494000Y-123698000D03*
X138938000Y-123698000D03*
X166370000Y-54610000D03*
X177292000Y-54102000D03*
X146050000Y-52070000D03*
X133096000Y-54102000D03*
X121920000Y-53594000D03*
X113030000Y-56642000D03*
X103378000Y-59436000D03*
X151384000Y-121666000D03*
X151892000Y-100584000D03*
X149098000Y-94742000D03*
X140462000Y-90678000D03*
X141224000Y-90170000D03*
X141986000Y-89677240D03*
X143002000Y-89662000D03*
X151638000Y-126746000D03*
X140970000Y-100330000D03*
X146304000Y-104140000D03*
X138176000Y-99060000D03*
X117602000Y-56642000D03*
X127762000Y-55372000D03*
X137414000Y-54102000D03*
X148082000Y-54102000D03*
X132842000Y-91694000D03*
X140970000Y-94488000D03*
X140208000Y-98806000D03*
X138430000Y-103124000D03*
X139192000Y-103632000D03*
X139954000Y-103124000D03*
X141986000Y-103124000D03*
X141224000Y-103886000D03*
X143002000Y-103378000D03*
X153924000Y-119634000D03*
X140970000Y-96520000D03*
X153162000Y-117856000D03*
X140970000Y-95504000D03*
X139700000Y-91186000D03*
X105410000Y-57658000D03*
X143764000Y-90170000D03*
X157988000Y-55372000D03*
X144526000Y-90678000D03*
X168148000Y-56642000D03*
X147066000Y-92456000D03*
X177292000Y-57658000D03*
D28*
X145150000Y-57842000D02*
X149860000Y-60960000D01*
X136790000Y-57842000D02*
X132080000Y-60960000D01*
X143720000Y-101632000D02*
X143720000Y-100540000D01*
X141224000Y-98044000D02*
X140716000Y-98044000D01*
X143720000Y-100540000D02*
X141224000Y-98044000D01*
X143720000Y-101632000D02*
X143720000Y-101810000D01*
X145320000Y-100032000D02*
X147110000Y-100032000D01*
X147110000Y-100032000D02*
X148082000Y-99060000D01*
X131506000Y-97536000D02*
X133096000Y-97536000D01*
X138220000Y-92932000D02*
X137890000Y-92932000D01*
X137890000Y-92932000D02*
X137414000Y-92456000D01*
X145320000Y-96032000D02*
X146538000Y-96032000D01*
X146538000Y-96032000D02*
X146812000Y-95758000D01*
X152334000Y-92964000D02*
X153924000Y-92964000D01*
X152334000Y-91440000D02*
X152146000Y-91440000D01*
X152146000Y-91440000D02*
X150622000Y-89916000D01*
X150622000Y-89916000D02*
X150434000Y-89916000D01*
X152334000Y-94488000D02*
X152334000Y-92964000D01*
X152334000Y-91440000D02*
X152334000Y-92964000D01*
X136620000Y-100032000D02*
X136620000Y-100870000D01*
X136620000Y-100870000D02*
X136398000Y-101092000D01*
X129606000Y-96012000D02*
X128016000Y-96012000D01*
X129606000Y-90170000D02*
X128016000Y-90170000D01*
X127690000Y-107367000D02*
X127690000Y-108640000D01*
X127690000Y-108640000D02*
X128524000Y-109474000D01*
X127690000Y-101167000D02*
X127690000Y-107367000D01*
X136790000Y-57842000D02*
X136722000Y-57842000D01*
X136790000Y-56242000D02*
X136790000Y-55442000D01*
X136790000Y-57042000D02*
X136790000Y-56242000D01*
X136790000Y-57842000D02*
X136790000Y-57042000D01*
X145150000Y-55442000D02*
X145218000Y-55442000D01*
X145218000Y-55442000D02*
X146050000Y-54610000D01*
X145150000Y-56242000D02*
X145150000Y-55442000D01*
X145150000Y-56242000D02*
X145150000Y-57042000D01*
X145150000Y-57842000D02*
X145150000Y-57042000D01*
X129606000Y-97536000D02*
X129794000Y-97536000D01*
X129794000Y-97536000D02*
X131318000Y-96012000D01*
X131318000Y-96012000D02*
X131506000Y-96012000D01*
X131318000Y-96012000D02*
X131506000Y-96012000D01*
X142621000Y-134620000D02*
X142748000Y-134620000D01*
X142748000Y-134620000D02*
X151384000Y-125984000D01*
X151384000Y-125984000D02*
X151384000Y-121666000D01*
D29*
X118491000Y-118110000D02*
X118491000Y-119761000D01*
X140208000Y-134620000D02*
X142621000Y-134620000D01*
X125984000Y-120396000D02*
X140208000Y-134620000D01*
X119126000Y-120396000D02*
X125984000Y-120396000D01*
X118491000Y-119761000D02*
X119126000Y-120396000D01*
D28*
X150550000Y-101167000D02*
X150550000Y-107367000D01*
X150434000Y-94488000D02*
X149352000Y-94488000D01*
X151309000Y-101167000D02*
X150550000Y-101167000D01*
X151892000Y-100584000D02*
X151309000Y-101167000D01*
X149352000Y-94488000D02*
X149098000Y-94742000D01*
X145320000Y-97032000D02*
X148586000Y-97032000D01*
X149606000Y-96012000D02*
X150434000Y-96012000D01*
X148586000Y-97032000D02*
X149606000Y-96012000D01*
X150284000Y-94488000D02*
X150284000Y-95862000D01*
X150284000Y-95862000D02*
X150434000Y-96012000D01*
X143410940Y-106172000D02*
X143410940Y-106083060D01*
X143410940Y-106083060D02*
X150434000Y-99060000D01*
X145320000Y-98032000D02*
X148578000Y-98032000D01*
X149606000Y-99060000D02*
X150434000Y-99060000D01*
X148578000Y-98032000D02*
X149606000Y-99060000D01*
X129606000Y-94488000D02*
X128270000Y-94488000D01*
X131864000Y-88100000D02*
X131864000Y-87630000D01*
X131064000Y-88900000D02*
X131864000Y-88100000D01*
X128270000Y-88900000D02*
X131064000Y-88900000D01*
X127254000Y-89916000D02*
X128270000Y-88900000D01*
X127254000Y-93472000D02*
X127254000Y-89916000D01*
X128270000Y-94488000D02*
X127254000Y-93472000D01*
X138529060Y-106172000D02*
X141224000Y-106172000D01*
X144530000Y-97532000D02*
X145320000Y-97532000D01*
X144018000Y-98044000D02*
X144530000Y-97532000D01*
X144018000Y-100076000D02*
X144018000Y-98044000D01*
X144526000Y-100584000D02*
X144018000Y-100076000D01*
X144780000Y-100584000D02*
X144526000Y-100584000D01*
X146304000Y-102108000D02*
X144780000Y-100584000D01*
X146304000Y-102362000D02*
X146304000Y-102108000D01*
X144020768Y-104625612D02*
X146304000Y-102362000D01*
X142875000Y-104470200D02*
X144020768Y-104625612D01*
X141224000Y-106172000D02*
X142875000Y-104470200D01*
X145320000Y-97532000D02*
X150430000Y-97532000D01*
X150430000Y-97532000D02*
X150434000Y-97536000D01*
X141220000Y-92932000D02*
X141224000Y-91440000D01*
X141224000Y-91440000D02*
X140462000Y-90678000D01*
X141720000Y-92932000D02*
X141732000Y-90932000D01*
X141732000Y-90932000D02*
X141224000Y-90170000D01*
X141986000Y-89677240D02*
X142240000Y-90424000D01*
X142240000Y-90424000D02*
X142220000Y-92932000D01*
X142720000Y-92932000D02*
X142748000Y-90424000D01*
X142748000Y-90424000D02*
X143002000Y-89662000D01*
X138220000Y-101632000D02*
X138220000Y-100540000D01*
X137922000Y-136144000D02*
X134366000Y-139700000D01*
X143510000Y-136144000D02*
X137922000Y-136144000D01*
X144272000Y-135382000D02*
X143510000Y-136144000D01*
X144272000Y-134112000D02*
X144272000Y-135382000D01*
X151638000Y-126746000D02*
X144272000Y-134112000D01*
X138430000Y-100330000D02*
X140970000Y-100330000D01*
X138220000Y-100540000D02*
X138430000Y-100330000D01*
X136906000Y-139700000D02*
X136906000Y-139192000D01*
X136906000Y-139192000D02*
X139192000Y-136906000D01*
X139192000Y-136906000D02*
X144272000Y-136906000D01*
X144272000Y-136906000D02*
X152400000Y-128778000D01*
X152400000Y-128778000D02*
X152400000Y-112014000D01*
X152400000Y-112014000D02*
X146304000Y-105918000D01*
X146304000Y-105918000D02*
X146304000Y-104140000D01*
X138176000Y-99060000D02*
X138148000Y-99032000D01*
X138148000Y-99032000D02*
X136620000Y-99032000D01*
X136620000Y-94532000D02*
X131550000Y-94532000D01*
X131550000Y-94532000D02*
X131506000Y-94488000D01*
X131506000Y-99060000D02*
X134366000Y-99060000D01*
X134844002Y-98581998D02*
X136620000Y-98581998D01*
X134366000Y-99060000D02*
X134844002Y-98581998D01*
X136620000Y-98581998D02*
X136620000Y-98532000D01*
X131656000Y-99060000D02*
X131656000Y-100901000D01*
X131656000Y-100901000D02*
X131390000Y-101167000D01*
X131390000Y-107367000D02*
X131390000Y-101167000D01*
X131656000Y-101536000D02*
X131390000Y-101802000D01*
X134990000Y-57042000D02*
X118002000Y-57042000D01*
X118002000Y-57042000D02*
X117602000Y-56642000D01*
X134990000Y-56242000D02*
X128632000Y-56242000D01*
X128632000Y-56242000D02*
X127762000Y-55372000D01*
X142240000Y-92912000D02*
X142220000Y-92932000D01*
X142240000Y-92912000D02*
X142220000Y-92932000D01*
X134990000Y-55442000D02*
X134990000Y-55002000D01*
X134990000Y-55002000D02*
X135890000Y-54102000D01*
X135890000Y-54102000D02*
X137414000Y-54102000D01*
X146950000Y-55442000D02*
X147758000Y-55442000D01*
X148082000Y-55118000D02*
X148082000Y-54102000D01*
X147758000Y-55442000D02*
X148082000Y-55118000D01*
X146950000Y-55442000D02*
X146996000Y-55442000D01*
X140220000Y-92932000D02*
X140220000Y-93738000D01*
X132588000Y-91440000D02*
X131656000Y-91440000D01*
X132842000Y-91694000D02*
X132588000Y-91440000D01*
X140220000Y-93738000D02*
X140970000Y-94488000D01*
X141720000Y-101632000D02*
X141720000Y-100064000D01*
X136652000Y-92964000D02*
X131506000Y-92964000D01*
X138176000Y-94488000D02*
X136652000Y-92964000D01*
X138176000Y-97790000D02*
X138176000Y-94488000D01*
X139954000Y-99568000D02*
X138176000Y-97790000D01*
X141224000Y-99568000D02*
X139954000Y-99568000D01*
X141720000Y-100064000D02*
X141224000Y-99568000D01*
X142220000Y-99802000D02*
X142220000Y-101632000D01*
X141224000Y-98806000D02*
X142220000Y-99802000D01*
X140208000Y-98806000D02*
X141224000Y-98806000D01*
X138430000Y-103124000D02*
X138720000Y-102834000D01*
X138720000Y-102834000D02*
X138720000Y-101632000D01*
X139192000Y-103632000D02*
X139220000Y-103604000D01*
X139220000Y-103604000D02*
X139220000Y-101632000D01*
X139954000Y-103124000D02*
X139720000Y-102890000D01*
X139720000Y-102890000D02*
X139720000Y-101632000D01*
X141986000Y-103124000D02*
X141478000Y-103124000D01*
X141478000Y-103124000D02*
X141224000Y-102870000D01*
X141224000Y-102870000D02*
X141224000Y-101636000D01*
X141224000Y-101636000D02*
X141220000Y-101632000D01*
X141224000Y-103886000D02*
X140720000Y-103382000D01*
X140720000Y-103382000D02*
X140720000Y-101632000D01*
X142720000Y-101632000D02*
X142720000Y-103350000D01*
X142720000Y-103350000D02*
X143002000Y-103378000D01*
X139220000Y-92932000D02*
X139220000Y-94770000D01*
X144526000Y-138430000D02*
X144526000Y-139700000D01*
X153924000Y-129032000D02*
X144526000Y-138430000D01*
X153924000Y-128270000D02*
X153924000Y-129032000D01*
X153924000Y-119634000D02*
X153924000Y-128270000D01*
X139220000Y-94770000D02*
X140970000Y-96520000D01*
X144780000Y-139827000D02*
X144780000Y-139700000D01*
X141986000Y-139700000D02*
X142240000Y-139700000D01*
X142240000Y-139700000D02*
X153162000Y-128778000D01*
X153162000Y-128778000D02*
X153162000Y-117856000D01*
X140970000Y-95504000D02*
X139720000Y-94254000D01*
X139720000Y-94254000D02*
X139720000Y-92932000D01*
X142240000Y-139192000D02*
X142240000Y-139827000D01*
X142240000Y-139827000D02*
X142240000Y-139700000D01*
X152334000Y-89916000D02*
X152334000Y-88288000D01*
X152334000Y-88288000D02*
X151676000Y-87630000D01*
X140716000Y-91694000D02*
X139700000Y-91186000D01*
X140720000Y-92932000D02*
X140716000Y-91694000D01*
X134990000Y-57842000D02*
X105594000Y-57842000D01*
X105594000Y-57842000D02*
X105410000Y-57658000D01*
X143256000Y-90932000D02*
X143764000Y-90170000D01*
X143220000Y-92932000D02*
X143256000Y-90932000D01*
X146950000Y-56242000D02*
X157118000Y-56242000D01*
X157118000Y-56242000D02*
X157988000Y-55372000D01*
X143720000Y-92932000D02*
X143764000Y-91440000D01*
X143764000Y-91440000D02*
X144526000Y-90678000D01*
X146950000Y-57042000D02*
X167748000Y-57042000D01*
X167748000Y-57042000D02*
X168148000Y-56642000D01*
X145320000Y-94532000D02*
X147066000Y-92456000D01*
X146950000Y-57842000D02*
X177108000Y-57842000D01*
X177108000Y-57842000D02*
X177292000Y-57658000D01*
D30*
G36*
X148393216Y-45844723D02*
X149265929Y-46427851D01*
X149855175Y-47309719D01*
X150035995Y-47972151D01*
X150246495Y-49463192D01*
X150252884Y-49481450D01*
X150254239Y-49500748D01*
X150320540Y-49743641D01*
X150342350Y-49787351D01*
X150361044Y-49832482D01*
X150577817Y-50156906D01*
X150661691Y-50240780D01*
X150986114Y-50457553D01*
X151018211Y-50470848D01*
X151095701Y-50502945D01*
X151478384Y-50579065D01*
X151508325Y-50579065D01*
X151537691Y-50584906D01*
X176597729Y-50584906D01*
X177657106Y-50795629D01*
X178529819Y-51378757D01*
X179123584Y-52267389D01*
X179245899Y-52637924D01*
X182580644Y-65976906D01*
X180101702Y-65976906D01*
X176498348Y-62133328D01*
X176992640Y-62133328D01*
X177308178Y-62896989D01*
X177891938Y-63481768D01*
X178655047Y-63798639D01*
X179481328Y-63799360D01*
X180244989Y-63483822D01*
X180829768Y-62900062D01*
X181146639Y-62136953D01*
X181147360Y-61310672D01*
X180831822Y-60547011D01*
X180248062Y-59962232D01*
X179484953Y-59645361D01*
X178658672Y-59644640D01*
X177895011Y-59960178D01*
X177310232Y-60543938D01*
X176993361Y-61307047D01*
X176992640Y-62133328D01*
X176498348Y-62133328D01*
X172898978Y-58294000D01*
X177108000Y-58294000D01*
X177162544Y-58283151D01*
X177166735Y-58284891D01*
X177416171Y-58285109D01*
X177646703Y-58189855D01*
X177823235Y-58013631D01*
X177918891Y-57783265D01*
X177919109Y-57533829D01*
X177823855Y-57303297D01*
X177647631Y-57126765D01*
X177417265Y-57031109D01*
X177167829Y-57030891D01*
X176937297Y-57126145D01*
X176760765Y-57302369D01*
X176724378Y-57390000D01*
X168025127Y-57390000D01*
X168067612Y-57361612D01*
X168160213Y-57269011D01*
X168272171Y-57269109D01*
X168502703Y-57173855D01*
X168679235Y-56997631D01*
X168774891Y-56767265D01*
X168775109Y-56517829D01*
X168679855Y-56287297D01*
X168503631Y-56110765D01*
X168273265Y-56015109D01*
X168023829Y-56014891D01*
X167793297Y-56110145D01*
X167616765Y-56286369D01*
X167521109Y-56516735D01*
X167521045Y-56590000D01*
X157395127Y-56590000D01*
X157437612Y-56561612D01*
X158000213Y-55999011D01*
X158112171Y-55999109D01*
X158342703Y-55903855D01*
X158519235Y-55727631D01*
X158614891Y-55497265D01*
X158615109Y-55247829D01*
X158519855Y-55017297D01*
X158343631Y-54840765D01*
X158113265Y-54745109D01*
X157863829Y-54744891D01*
X157633297Y-54840145D01*
X157456765Y-55016369D01*
X157361109Y-55246735D01*
X157361010Y-55359766D01*
X156930776Y-55790000D01*
X148035127Y-55790000D01*
X148077612Y-55761612D01*
X148401612Y-55437612D01*
X148499594Y-55290973D01*
X148510351Y-55236891D01*
X148534000Y-55118000D01*
X148534000Y-54536728D01*
X148613235Y-54457631D01*
X148708891Y-54227265D01*
X148709109Y-53977829D01*
X148613855Y-53747297D01*
X148437631Y-53570765D01*
X148207265Y-53475109D01*
X147957829Y-53474891D01*
X147727297Y-53570145D01*
X147550765Y-53746369D01*
X147455109Y-53976735D01*
X147454891Y-54226171D01*
X147550145Y-54456703D01*
X147630000Y-54536698D01*
X147630000Y-54930776D01*
X147593275Y-54967501D01*
X147585754Y-54956246D01*
X147477589Y-54883973D01*
X147350000Y-54858594D01*
X146625680Y-54858594D01*
X146676891Y-54735265D01*
X146677109Y-54485829D01*
X146581855Y-54255297D01*
X146405631Y-54078765D01*
X146175265Y-53983109D01*
X145925829Y-53982891D01*
X145695297Y-54078145D01*
X145518765Y-54254369D01*
X145423109Y-54484735D01*
X145423010Y-54597766D01*
X145162182Y-54858594D01*
X144750000Y-54858594D01*
X144622411Y-54883973D01*
X144514246Y-54956246D01*
X144441973Y-55064411D01*
X144416594Y-55192000D01*
X144416594Y-55692000D01*
X144441973Y-55819589D01*
X144473652Y-55867000D01*
X144441973Y-55914411D01*
X144416594Y-56042000D01*
X144416594Y-56442000D01*
X144441973Y-56569589D01*
X144490356Y-56642000D01*
X144441973Y-56714411D01*
X144416594Y-56842000D01*
X144416594Y-57242000D01*
X144441973Y-57369589D01*
X144473652Y-57417000D01*
X144441973Y-57464411D01*
X144416594Y-57592000D01*
X144416594Y-58092000D01*
X144441973Y-58219589D01*
X144514246Y-58327754D01*
X144622411Y-58400027D01*
X144750000Y-58425406D01*
X145212445Y-58425406D01*
X149234457Y-61087961D01*
X149328145Y-61314703D01*
X149504369Y-61491235D01*
X149734735Y-61586891D01*
X149984171Y-61587109D01*
X150214703Y-61491855D01*
X150391235Y-61315631D01*
X150486891Y-61085265D01*
X150487109Y-60835829D01*
X150391855Y-60605297D01*
X150215631Y-60428765D01*
X149985265Y-60333109D01*
X149735829Y-60332891D01*
X149733187Y-60333982D01*
X146850122Y-58425406D01*
X147350000Y-58425406D01*
X147477589Y-58400027D01*
X147585754Y-58327754D01*
X147608308Y-58294000D01*
X152125700Y-58294000D01*
X151947876Y-58452914D01*
X151876551Y-58547689D01*
X151876550Y-58547691D01*
X151707259Y-58899228D01*
X151677631Y-59014083D01*
X151655753Y-59403650D01*
X151659939Y-59433298D01*
X151658260Y-59463192D01*
X158668985Y-109122496D01*
X158670257Y-109126131D01*
X158670137Y-109129977D01*
X158689789Y-109181952D01*
X158708161Y-109234455D01*
X158710728Y-109237327D01*
X158712088Y-109240925D01*
X158750142Y-109281432D01*
X158787200Y-109322899D01*
X158790668Y-109324569D01*
X158793304Y-109327375D01*
X172666000Y-119236444D01*
X172666000Y-144776000D01*
X160667421Y-144776000D01*
X155711375Y-141235967D01*
X157152767Y-141235967D01*
X157356796Y-141729755D01*
X157734258Y-142107876D01*
X158227689Y-142312766D01*
X158761967Y-142313233D01*
X159247710Y-142112528D01*
X159243922Y-142121138D01*
X159232501Y-142645026D01*
X159422431Y-143133406D01*
X159784799Y-143511928D01*
X159827905Y-143542110D01*
X160307544Y-143753146D01*
X160831432Y-143764567D01*
X161319812Y-143574637D01*
X161698334Y-143212268D01*
X161909370Y-142732630D01*
X161920791Y-142208742D01*
X161730861Y-141720362D01*
X161649456Y-141635328D01*
X166832640Y-141635328D01*
X167148178Y-142398989D01*
X167731938Y-142983768D01*
X168495047Y-143300639D01*
X169321328Y-143301360D01*
X170084989Y-142985822D01*
X170669768Y-142402062D01*
X170986639Y-141638953D01*
X170987360Y-140812672D01*
X170671822Y-140049011D01*
X170088062Y-139464232D01*
X169324953Y-139147361D01*
X168498672Y-139146640D01*
X167735011Y-139462178D01*
X167150232Y-140045938D01*
X166833361Y-140809047D01*
X166832640Y-141635328D01*
X161649456Y-141635328D01*
X161368492Y-141341840D01*
X161325387Y-141311658D01*
X160845748Y-141100622D01*
X160321860Y-141089201D01*
X159833480Y-141279131D01*
X159814120Y-141297664D01*
X159838766Y-141238311D01*
X159839233Y-140704033D01*
X159635204Y-140210245D01*
X159257742Y-139832124D01*
X158764311Y-139627234D01*
X158230033Y-139626767D01*
X157736245Y-139830796D01*
X157358124Y-140208258D01*
X157153234Y-140701689D01*
X157152767Y-141235967D01*
X155711375Y-141235967D01*
X155146696Y-140832625D01*
X155115130Y-140818381D01*
X155086336Y-140799141D01*
X155061582Y-140794217D01*
X155038579Y-140783837D01*
X155003968Y-140782757D01*
X154970000Y-140776000D01*
X150364957Y-140776000D01*
X150447881Y-140720592D01*
X150705971Y-140334334D01*
X150796600Y-139878711D01*
X150796600Y-139521289D01*
X150705971Y-139065666D01*
X150447881Y-138679408D01*
X150061623Y-138421318D01*
X149606000Y-138330689D01*
X149150377Y-138421318D01*
X148764119Y-138679408D01*
X148506029Y-139065666D01*
X148415400Y-139521289D01*
X148415400Y-139878711D01*
X148506029Y-140334334D01*
X148764119Y-140720592D01*
X148847043Y-140776000D01*
X147888084Y-140776000D01*
X147928104Y-140750425D01*
X148206140Y-140352154D01*
X148310600Y-139877800D01*
X148310600Y-139725400D01*
X147091400Y-139725400D01*
X147091400Y-139745400D01*
X147040600Y-139745400D01*
X147040600Y-139725400D01*
X145821400Y-139725400D01*
X145821400Y-139877800D01*
X145925860Y-140352154D01*
X146203896Y-140750425D01*
X146243916Y-140776000D01*
X145284957Y-140776000D01*
X145367881Y-140720592D01*
X145625971Y-140334334D01*
X145716600Y-139878711D01*
X145716600Y-139522200D01*
X145821400Y-139522200D01*
X145821400Y-139674600D01*
X147040600Y-139674600D01*
X147040600Y-138398531D01*
X147091400Y-138398531D01*
X147091400Y-139674600D01*
X148310600Y-139674600D01*
X148310600Y-139522200D01*
X148206140Y-139047846D01*
X147928104Y-138649575D01*
X147518821Y-138388020D01*
X147285745Y-138322552D01*
X147091400Y-138398531D01*
X147040600Y-138398531D01*
X146846255Y-138322552D01*
X146613179Y-138388020D01*
X146203896Y-138649575D01*
X145925860Y-139047846D01*
X145821400Y-139522200D01*
X145716600Y-139522200D01*
X145716600Y-139521289D01*
X145625971Y-139065666D01*
X145367881Y-138679408D01*
X145096888Y-138498336D01*
X154243612Y-129351612D01*
X154341594Y-129204973D01*
X154376000Y-129032000D01*
X154376000Y-123601328D01*
X166832640Y-123601328D01*
X167148178Y-124364989D01*
X167731938Y-124949768D01*
X168495047Y-125266639D01*
X169321328Y-125267360D01*
X170084989Y-124951822D01*
X170669768Y-124368062D01*
X170986639Y-123604953D01*
X170987360Y-122778672D01*
X170671822Y-122015011D01*
X170088062Y-121430232D01*
X169324953Y-121113361D01*
X168498672Y-121112640D01*
X167735011Y-121428178D01*
X167150232Y-122011938D01*
X166833361Y-122775047D01*
X166832640Y-123601328D01*
X154376000Y-123601328D01*
X154376000Y-120068728D01*
X154455235Y-119989631D01*
X154550891Y-119759265D01*
X154551109Y-119509829D01*
X154455855Y-119279297D01*
X154279631Y-119102765D01*
X154049265Y-119007109D01*
X153799829Y-119006891D01*
X153614000Y-119083674D01*
X153614000Y-118290728D01*
X153693235Y-118211631D01*
X153788891Y-117981265D01*
X153789109Y-117731829D01*
X153693855Y-117501297D01*
X153517631Y-117324765D01*
X153287265Y-117229109D01*
X153037829Y-117228891D01*
X152852000Y-117305674D01*
X152852000Y-112014000D01*
X152817594Y-111841027D01*
X152719612Y-111694388D01*
X146756000Y-105730776D01*
X146756000Y-104574728D01*
X146835235Y-104495631D01*
X146930891Y-104265265D01*
X146931109Y-104015829D01*
X146835855Y-103785297D01*
X146659631Y-103608765D01*
X146564119Y-103569105D01*
X149666594Y-100466630D01*
X149666594Y-102067000D01*
X149691973Y-102194589D01*
X149764246Y-102302754D01*
X149872411Y-102375027D01*
X150000000Y-102400406D01*
X150098000Y-102400406D01*
X150098000Y-106133594D01*
X150000000Y-106133594D01*
X149872411Y-106158973D01*
X149764246Y-106231246D01*
X149691973Y-106339411D01*
X149666594Y-106467000D01*
X149666594Y-108267000D01*
X149691973Y-108394589D01*
X149764246Y-108502754D01*
X149872411Y-108575027D01*
X150000000Y-108600406D01*
X151100000Y-108600406D01*
X151227589Y-108575027D01*
X151335754Y-108502754D01*
X151408027Y-108394589D01*
X151433406Y-108267000D01*
X151433406Y-107487650D01*
X153319000Y-107487650D01*
X153319000Y-108342786D01*
X153377004Y-108482820D01*
X153484181Y-108589996D01*
X153624215Y-108648000D01*
X154129350Y-108648000D01*
X154224600Y-108552750D01*
X154224600Y-107392400D01*
X154275400Y-107392400D01*
X154275400Y-108552750D01*
X154370650Y-108648000D01*
X154875785Y-108648000D01*
X155015819Y-108589996D01*
X155122996Y-108482820D01*
X155181000Y-108342786D01*
X155181000Y-107487650D01*
X155085750Y-107392400D01*
X154275400Y-107392400D01*
X154224600Y-107392400D01*
X153414250Y-107392400D01*
X153319000Y-107487650D01*
X151433406Y-107487650D01*
X151433406Y-106467000D01*
X151418332Y-106391214D01*
X153319000Y-106391214D01*
X153319000Y-107246350D01*
X153414250Y-107341600D01*
X154224600Y-107341600D01*
X154224600Y-106181250D01*
X154275400Y-106181250D01*
X154275400Y-107341600D01*
X155085750Y-107341600D01*
X155181000Y-107246350D01*
X155181000Y-106391214D01*
X155122996Y-106251180D01*
X155015819Y-106144004D01*
X154875785Y-106086000D01*
X154370650Y-106086000D01*
X154275400Y-106181250D01*
X154224600Y-106181250D01*
X154129350Y-106086000D01*
X153624215Y-106086000D01*
X153484181Y-106144004D01*
X153377004Y-106251180D01*
X153319000Y-106391214D01*
X151418332Y-106391214D01*
X151408027Y-106339411D01*
X151335754Y-106231246D01*
X151227589Y-106158973D01*
X151100000Y-106133594D01*
X151002000Y-106133594D01*
X151002000Y-102400406D01*
X151100000Y-102400406D01*
X151227589Y-102375027D01*
X151335754Y-102302754D01*
X151408027Y-102194589D01*
X151433406Y-102067000D01*
X151433406Y-101594254D01*
X151481973Y-101584594D01*
X151628612Y-101486612D01*
X151827574Y-101287650D01*
X153319000Y-101287650D01*
X153319000Y-102142786D01*
X153377004Y-102282820D01*
X153484181Y-102389996D01*
X153624215Y-102448000D01*
X154129350Y-102448000D01*
X154224600Y-102352750D01*
X154224600Y-101192400D01*
X154275400Y-101192400D01*
X154275400Y-102352750D01*
X154370650Y-102448000D01*
X154875785Y-102448000D01*
X155015819Y-102389996D01*
X155122996Y-102282820D01*
X155181000Y-102142786D01*
X155181000Y-101287650D01*
X155085750Y-101192400D01*
X154275400Y-101192400D01*
X154224600Y-101192400D01*
X153414250Y-101192400D01*
X153319000Y-101287650D01*
X151827574Y-101287650D01*
X151904213Y-101211011D01*
X152016171Y-101211109D01*
X152246703Y-101115855D01*
X152423235Y-100939631D01*
X152518891Y-100709265D01*
X152519109Y-100459829D01*
X152423855Y-100229297D01*
X152385839Y-100191214D01*
X153319000Y-100191214D01*
X153319000Y-101046350D01*
X153414250Y-101141600D01*
X154224600Y-101141600D01*
X154224600Y-99981250D01*
X154275400Y-99981250D01*
X154275400Y-101141600D01*
X155085750Y-101141600D01*
X155181000Y-101046350D01*
X155181000Y-100191214D01*
X155122996Y-100051180D01*
X155015819Y-99944004D01*
X154875785Y-99886000D01*
X154370650Y-99886000D01*
X154275400Y-99981250D01*
X154224600Y-99981250D01*
X154129350Y-99886000D01*
X153624215Y-99886000D01*
X153484181Y-99944004D01*
X153377004Y-100051180D01*
X153319000Y-100191214D01*
X152385839Y-100191214D01*
X152247631Y-100052765D01*
X152017265Y-99957109D01*
X151767829Y-99956891D01*
X151537297Y-100052145D01*
X151414960Y-100174268D01*
X151408027Y-100139411D01*
X151335754Y-100031246D01*
X151227589Y-99958973D01*
X151100000Y-99933594D01*
X150199630Y-99933594D01*
X150364818Y-99768406D01*
X151034000Y-99768406D01*
X151161589Y-99743027D01*
X151269754Y-99670754D01*
X151342027Y-99562589D01*
X151353000Y-99507424D01*
X151353000Y-99510785D01*
X151411004Y-99650819D01*
X151518180Y-99757996D01*
X151658214Y-99816000D01*
X152213350Y-99816000D01*
X152308600Y-99720750D01*
X152308600Y-99085400D01*
X152359400Y-99085400D01*
X152359400Y-99720750D01*
X152454650Y-99816000D01*
X153009786Y-99816000D01*
X153149820Y-99757996D01*
X153256996Y-99650819D01*
X153315000Y-99510785D01*
X153315000Y-99180650D01*
X153219750Y-99085400D01*
X152359400Y-99085400D01*
X152308600Y-99085400D01*
X152288600Y-99085400D01*
X152288600Y-99034600D01*
X152308600Y-99034600D01*
X152308600Y-98399250D01*
X152359400Y-98399250D01*
X152359400Y-99034600D01*
X153219750Y-99034600D01*
X153315000Y-98939350D01*
X153315000Y-98609215D01*
X153256996Y-98469181D01*
X153149820Y-98362004D01*
X153009786Y-98304000D01*
X152454650Y-98304000D01*
X152359400Y-98399250D01*
X152308600Y-98399250D01*
X152213350Y-98304000D01*
X151658214Y-98304000D01*
X151518180Y-98362004D01*
X151411004Y-98469181D01*
X151353000Y-98609215D01*
X151353000Y-98612576D01*
X151342027Y-98557411D01*
X151269754Y-98449246D01*
X151161589Y-98376973D01*
X151034000Y-98351594D01*
X149834000Y-98351594D01*
X149706411Y-98376973D01*
X149619961Y-98434736D01*
X149169224Y-97984000D01*
X149515115Y-97984000D01*
X149525973Y-98038589D01*
X149598246Y-98146754D01*
X149706411Y-98219027D01*
X149834000Y-98244406D01*
X151034000Y-98244406D01*
X151161589Y-98219027D01*
X151269754Y-98146754D01*
X151342027Y-98038589D01*
X151353000Y-97983424D01*
X151353000Y-97986785D01*
X151411004Y-98126819D01*
X151518180Y-98233996D01*
X151658214Y-98292000D01*
X152213350Y-98292000D01*
X152308600Y-98196750D01*
X152308600Y-97561400D01*
X152359400Y-97561400D01*
X152359400Y-98196750D01*
X152454650Y-98292000D01*
X153009786Y-98292000D01*
X153149820Y-98233996D01*
X153256996Y-98126819D01*
X153315000Y-97986785D01*
X153315000Y-97656650D01*
X153219750Y-97561400D01*
X152359400Y-97561400D01*
X152308600Y-97561400D01*
X152288600Y-97561400D01*
X152288600Y-97510600D01*
X152308600Y-97510600D01*
X152308600Y-96875250D01*
X152359400Y-96875250D01*
X152359400Y-97510600D01*
X153219750Y-97510600D01*
X153315000Y-97415350D01*
X153315000Y-97085215D01*
X153256996Y-96945181D01*
X153149820Y-96838004D01*
X153009786Y-96780000D01*
X152454650Y-96780000D01*
X152359400Y-96875250D01*
X152308600Y-96875250D01*
X152213350Y-96780000D01*
X151658214Y-96780000D01*
X151518180Y-96838004D01*
X151411004Y-96945181D01*
X151353000Y-97085215D01*
X151353000Y-97088576D01*
X151342027Y-97033411D01*
X151269754Y-96925246D01*
X151161589Y-96852973D01*
X151034000Y-96827594D01*
X149834000Y-96827594D01*
X149706411Y-96852973D01*
X149598246Y-96925246D01*
X149525973Y-97033411D01*
X149516706Y-97080000D01*
X149177224Y-97080000D01*
X149619961Y-96637263D01*
X149706411Y-96695027D01*
X149834000Y-96720406D01*
X151034000Y-96720406D01*
X151161589Y-96695027D01*
X151269754Y-96622754D01*
X151342027Y-96514589D01*
X151353000Y-96459424D01*
X151353000Y-96462785D01*
X151411004Y-96602819D01*
X151518180Y-96709996D01*
X151658214Y-96768000D01*
X152213350Y-96768000D01*
X152308600Y-96672750D01*
X152308600Y-96037400D01*
X152359400Y-96037400D01*
X152359400Y-96672750D01*
X152454650Y-96768000D01*
X153009786Y-96768000D01*
X153149820Y-96709996D01*
X153256996Y-96602819D01*
X153315000Y-96462785D01*
X153315000Y-96132650D01*
X153219750Y-96037400D01*
X152359400Y-96037400D01*
X152308600Y-96037400D01*
X152288600Y-96037400D01*
X152288600Y-95986600D01*
X152308600Y-95986600D01*
X152308600Y-95351250D01*
X152359400Y-95351250D01*
X152359400Y-95986600D01*
X153219750Y-95986600D01*
X153315000Y-95891350D01*
X153315000Y-95561215D01*
X153256996Y-95421181D01*
X153149820Y-95314004D01*
X153009786Y-95256000D01*
X152454650Y-95256000D01*
X152359400Y-95351250D01*
X152308600Y-95351250D01*
X152213350Y-95256000D01*
X151658214Y-95256000D01*
X151518180Y-95314004D01*
X151411004Y-95421181D01*
X151353000Y-95561215D01*
X151353000Y-95564576D01*
X151342027Y-95509411D01*
X151269754Y-95401246D01*
X151161589Y-95328973D01*
X151034000Y-95303594D01*
X150736000Y-95303594D01*
X150736000Y-95196406D01*
X151034000Y-95196406D01*
X151161589Y-95171027D01*
X151269754Y-95098754D01*
X151342027Y-94990589D01*
X151367406Y-94863000D01*
X151367406Y-94113000D01*
X151342027Y-93985411D01*
X151269754Y-93877246D01*
X151161589Y-93804973D01*
X151034000Y-93779594D01*
X149834000Y-93779594D01*
X149706411Y-93804973D01*
X149598246Y-93877246D01*
X149525973Y-93985411D01*
X149515910Y-94036000D01*
X149352000Y-94036000D01*
X149179027Y-94070406D01*
X149112270Y-94115012D01*
X148973829Y-94114891D01*
X148743297Y-94210145D01*
X148566765Y-94386369D01*
X148471109Y-94616735D01*
X148470891Y-94866171D01*
X148566145Y-95096703D01*
X148742369Y-95273235D01*
X148972735Y-95368891D01*
X149222171Y-95369109D01*
X149452703Y-95273855D01*
X149616136Y-95110707D01*
X149706411Y-95171027D01*
X149832000Y-95196008D01*
X149832000Y-95303992D01*
X149706411Y-95328973D01*
X149598246Y-95401246D01*
X149525973Y-95509411D01*
X149512199Y-95578658D01*
X149433027Y-95594406D01*
X149286388Y-95692388D01*
X148398776Y-96580000D01*
X146278350Y-96580000D01*
X146255750Y-96557400D01*
X145345400Y-96557400D01*
X145345400Y-96573594D01*
X145294600Y-96573594D01*
X145294600Y-96557400D01*
X144384250Y-96557400D01*
X144289000Y-96652650D01*
X144289000Y-96732785D01*
X144344565Y-96866930D01*
X144336594Y-96907000D01*
X144336594Y-97128059D01*
X144210387Y-97212388D01*
X143698388Y-97724388D01*
X143600406Y-97871027D01*
X143566000Y-98044000D01*
X143566000Y-99746776D01*
X141543612Y-97724388D01*
X141396973Y-97626406D01*
X141224000Y-97592000D01*
X141150728Y-97592000D01*
X141071631Y-97512765D01*
X140841265Y-97417109D01*
X140591829Y-97416891D01*
X140361297Y-97512145D01*
X140184765Y-97688369D01*
X140089109Y-97918735D01*
X140088891Y-98168171D01*
X140093324Y-98178899D01*
X140083829Y-98178891D01*
X139853297Y-98274145D01*
X139676765Y-98450369D01*
X139617740Y-98592516D01*
X138628000Y-97602776D01*
X138628000Y-94488000D01*
X138593594Y-94315027D01*
X138552817Y-94254000D01*
X138495612Y-94168387D01*
X138242631Y-93915406D01*
X138345000Y-93915406D01*
X138385070Y-93907435D01*
X138519215Y-93963000D01*
X138599350Y-93963000D01*
X138694600Y-93867750D01*
X138694600Y-92957400D01*
X138678406Y-92957400D01*
X138678406Y-92906600D01*
X138694600Y-92906600D01*
X138694600Y-91996250D01*
X138599350Y-91901000D01*
X138519215Y-91901000D01*
X138385070Y-91956565D01*
X138345000Y-91948594D01*
X138095000Y-91948594D01*
X137967411Y-91973973D01*
X137878235Y-92033558D01*
X137769631Y-91924765D01*
X137539265Y-91829109D01*
X137289829Y-91828891D01*
X137059297Y-91924145D01*
X136882765Y-92100369D01*
X136787109Y-92330735D01*
X136786927Y-92538838D01*
X136652000Y-92512000D01*
X132424090Y-92512000D01*
X132414027Y-92461411D01*
X132341754Y-92353246D01*
X132233589Y-92280973D01*
X132106000Y-92255594D01*
X130906000Y-92255594D01*
X130778411Y-92280973D01*
X130670246Y-92353246D01*
X130597973Y-92461411D01*
X130587000Y-92516576D01*
X130587000Y-92513215D01*
X130528996Y-92373181D01*
X130421820Y-92266004D01*
X130281786Y-92208000D01*
X129726650Y-92208000D01*
X129631400Y-92303250D01*
X129631400Y-92938600D01*
X129651400Y-92938600D01*
X129651400Y-92989400D01*
X129631400Y-92989400D01*
X129631400Y-93624750D01*
X129726650Y-93720000D01*
X130281786Y-93720000D01*
X130421820Y-93661996D01*
X130528996Y-93554819D01*
X130587000Y-93414785D01*
X130587000Y-93411424D01*
X130597973Y-93466589D01*
X130670246Y-93574754D01*
X130778411Y-93647027D01*
X130906000Y-93672406D01*
X132106000Y-93672406D01*
X132233589Y-93647027D01*
X132341754Y-93574754D01*
X132414027Y-93466589D01*
X132424090Y-93416000D01*
X136464776Y-93416000D01*
X137122369Y-94073594D01*
X135970000Y-94073594D01*
X135937795Y-94080000D01*
X132432842Y-94080000D01*
X132414027Y-93985411D01*
X132341754Y-93877246D01*
X132233589Y-93804973D01*
X132106000Y-93779594D01*
X130906000Y-93779594D01*
X130778411Y-93804973D01*
X130670246Y-93877246D01*
X130597973Y-93985411D01*
X130572594Y-94113000D01*
X130572594Y-94863000D01*
X130597973Y-94990589D01*
X130670246Y-95098754D01*
X130778411Y-95171027D01*
X130906000Y-95196406D01*
X132106000Y-95196406D01*
X132233589Y-95171027D01*
X132341754Y-95098754D01*
X132414027Y-94990589D01*
X132415338Y-94984000D01*
X135636594Y-94984000D01*
X135636594Y-95157000D01*
X135661458Y-95282000D01*
X135636594Y-95407000D01*
X135636594Y-95657000D01*
X135661458Y-95782000D01*
X135636594Y-95907000D01*
X135636594Y-96157000D01*
X135661458Y-96282000D01*
X135636594Y-96407000D01*
X135636594Y-96657000D01*
X135661458Y-96782000D01*
X135636594Y-96907000D01*
X135636594Y-97157000D01*
X135661458Y-97282000D01*
X135636594Y-97407000D01*
X135636594Y-97657000D01*
X135661458Y-97782000D01*
X135636594Y-97907000D01*
X135636594Y-98129998D01*
X134844002Y-98129998D01*
X134671029Y-98164404D01*
X134524390Y-98262386D01*
X134178776Y-98608000D01*
X132424090Y-98608000D01*
X132414027Y-98557411D01*
X132341754Y-98449246D01*
X132233589Y-98376973D01*
X132106000Y-98351594D01*
X130906000Y-98351594D01*
X130778411Y-98376973D01*
X130670246Y-98449246D01*
X130597973Y-98557411D01*
X130587000Y-98612576D01*
X130587000Y-98609215D01*
X130528996Y-98469181D01*
X130421820Y-98362004D01*
X130281786Y-98304000D01*
X129726650Y-98304000D01*
X129631400Y-98399250D01*
X129631400Y-99034600D01*
X129651400Y-99034600D01*
X129651400Y-99085400D01*
X129631400Y-99085400D01*
X129631400Y-99720750D01*
X129726650Y-99816000D01*
X130281786Y-99816000D01*
X130421820Y-99757996D01*
X130528996Y-99650819D01*
X130587000Y-99510785D01*
X130587000Y-99507424D01*
X130597973Y-99562589D01*
X130670246Y-99670754D01*
X130778411Y-99743027D01*
X130906000Y-99768406D01*
X131204000Y-99768406D01*
X131204000Y-99933594D01*
X130840000Y-99933594D01*
X130712411Y-99958973D01*
X130604246Y-100031246D01*
X130531973Y-100139411D01*
X130506594Y-100267000D01*
X130506594Y-102067000D01*
X130531973Y-102194589D01*
X130604246Y-102302754D01*
X130712411Y-102375027D01*
X130840000Y-102400406D01*
X130938000Y-102400406D01*
X130938000Y-106133594D01*
X130840000Y-106133594D01*
X130712411Y-106158973D01*
X130604246Y-106231246D01*
X130531973Y-106339411D01*
X130506594Y-106467000D01*
X130506594Y-108267000D01*
X130531973Y-108394589D01*
X130604246Y-108502754D01*
X130712411Y-108575027D01*
X130840000Y-108600406D01*
X131940000Y-108600406D01*
X132067589Y-108575027D01*
X132175754Y-108502754D01*
X132248027Y-108394589D01*
X132273406Y-108267000D01*
X132273406Y-106467000D01*
X132248027Y-106339411D01*
X132175754Y-106231246D01*
X132067589Y-106158973D01*
X131940000Y-106133594D01*
X131842000Y-106133594D01*
X131842000Y-102400406D01*
X131940000Y-102400406D01*
X132067589Y-102375027D01*
X132175754Y-102302754D01*
X132248027Y-102194589D01*
X132273406Y-102067000D01*
X132273406Y-100267000D01*
X132248027Y-100139411D01*
X132175754Y-100031246D01*
X132108000Y-99985975D01*
X132108000Y-99768008D01*
X132233589Y-99743027D01*
X132341754Y-99670754D01*
X132353850Y-99652650D01*
X135589000Y-99652650D01*
X135589000Y-99732785D01*
X135644565Y-99866930D01*
X135636594Y-99907000D01*
X135636594Y-100157000D01*
X135661973Y-100284589D01*
X135734246Y-100392754D01*
X135842411Y-100465027D01*
X135970000Y-100490406D01*
X136168000Y-100490406D01*
X136168000Y-100508619D01*
X136043297Y-100560145D01*
X135866765Y-100736369D01*
X135771109Y-100966735D01*
X135770891Y-101216171D01*
X135866145Y-101446703D01*
X136042369Y-101623235D01*
X136272735Y-101718891D01*
X136522171Y-101719109D01*
X136752703Y-101623855D01*
X136929235Y-101447631D01*
X137024891Y-101217265D01*
X137025027Y-101061781D01*
X137037594Y-101042973D01*
X137038981Y-101035999D01*
X137072000Y-100870000D01*
X137072000Y-100490406D01*
X137270000Y-100490406D01*
X137397589Y-100465027D01*
X137505754Y-100392754D01*
X137578027Y-100284589D01*
X137603406Y-100157000D01*
X137603406Y-99907000D01*
X137595435Y-99866930D01*
X137651000Y-99732785D01*
X137651000Y-99652650D01*
X137555750Y-99557400D01*
X136645400Y-99557400D01*
X136645400Y-99573594D01*
X136594600Y-99573594D01*
X136594600Y-99557400D01*
X135684250Y-99557400D01*
X135589000Y-99652650D01*
X132353850Y-99652650D01*
X132414027Y-99562589D01*
X132424090Y-99512000D01*
X134366000Y-99512000D01*
X134538973Y-99477594D01*
X134685612Y-99379612D01*
X135031226Y-99033998D01*
X135636594Y-99033998D01*
X135636594Y-99157000D01*
X135644565Y-99197070D01*
X135589000Y-99331215D01*
X135589000Y-99411350D01*
X135684250Y-99506600D01*
X136594600Y-99506600D01*
X136594600Y-99490406D01*
X136645400Y-99490406D01*
X136645400Y-99506600D01*
X137555750Y-99506600D01*
X137578350Y-99484000D01*
X137713321Y-99484000D01*
X137820369Y-99591235D01*
X138050735Y-99686891D01*
X138300171Y-99687109D01*
X138530703Y-99591855D01*
X138707235Y-99415631D01*
X138802891Y-99185265D01*
X138803004Y-99056228D01*
X139624776Y-99878000D01*
X138430000Y-99878000D01*
X138257027Y-99912406D01*
X138110388Y-100010388D01*
X137900388Y-100220388D01*
X137802406Y-100367027D01*
X137768000Y-100540000D01*
X137768000Y-100949795D01*
X137761594Y-100982000D01*
X137761594Y-102282000D01*
X137786973Y-102409589D01*
X137859246Y-102517754D01*
X137967411Y-102590027D01*
X138059141Y-102608273D01*
X137898765Y-102768369D01*
X137803109Y-102998735D01*
X137802891Y-103248171D01*
X137898145Y-103478703D01*
X138074369Y-103655235D01*
X138304735Y-103750891D01*
X138554171Y-103751109D01*
X138564899Y-103746676D01*
X138564891Y-103756171D01*
X138660145Y-103986703D01*
X138836369Y-104163235D01*
X139066735Y-104258891D01*
X139316171Y-104259109D01*
X139546703Y-104163855D01*
X139723235Y-103987631D01*
X139818891Y-103757265D01*
X139818900Y-103746807D01*
X139828735Y-103750891D01*
X140078171Y-103751109D01*
X140308703Y-103655855D01*
X140345362Y-103619260D01*
X140400388Y-103701612D01*
X140596989Y-103898213D01*
X140596891Y-104010171D01*
X140692145Y-104240703D01*
X140868369Y-104417235D01*
X141098735Y-104512891D01*
X141348171Y-104513109D01*
X141578703Y-104417855D01*
X141755235Y-104241631D01*
X141850891Y-104011265D01*
X141851109Y-103761829D01*
X141843660Y-103743801D01*
X141860735Y-103750891D01*
X142110171Y-103751109D01*
X142340703Y-103655855D01*
X142366811Y-103629792D01*
X142370373Y-103636469D01*
X142387832Y-103650820D01*
X142400388Y-103669612D01*
X142455452Y-103706405D01*
X142461247Y-103711169D01*
X142470145Y-103732703D01*
X142646369Y-103909235D01*
X142876735Y-104004891D01*
X143126171Y-104005109D01*
X143356703Y-103909855D01*
X143533235Y-103733631D01*
X143628891Y-103503265D01*
X143629109Y-103253829D01*
X143533855Y-103023297D01*
X143357631Y-102846765D01*
X143172000Y-102769685D01*
X143172000Y-102590350D01*
X143194600Y-102567750D01*
X143194600Y-101657400D01*
X143178406Y-101657400D01*
X143178406Y-101606600D01*
X143194600Y-101606600D01*
X143194600Y-101586600D01*
X143245400Y-101586600D01*
X143245400Y-101606600D01*
X143261594Y-101606600D01*
X143261594Y-101657400D01*
X143245400Y-101657400D01*
X143245400Y-102567750D01*
X143340650Y-102663000D01*
X143420785Y-102663000D01*
X143554930Y-102607435D01*
X143595000Y-102615406D01*
X143845000Y-102615406D01*
X143972589Y-102590027D01*
X144080754Y-102517754D01*
X144153027Y-102409589D01*
X144178406Y-102282000D01*
X144178406Y-100982000D01*
X144172000Y-100949795D01*
X144172000Y-100869225D01*
X144206387Y-100903612D01*
X144353026Y-101001594D01*
X144381724Y-101007302D01*
X144526000Y-101036000D01*
X144592776Y-101036000D01*
X145790941Y-102234166D01*
X143860753Y-104147768D01*
X142935753Y-104022301D01*
X142901704Y-104024399D01*
X142868152Y-104018252D01*
X142814500Y-104029771D01*
X142759725Y-104033146D01*
X142729073Y-104048113D01*
X142695720Y-104055274D01*
X142650556Y-104086452D01*
X142601247Y-104110529D01*
X142578655Y-104136087D01*
X142550583Y-104155466D01*
X141032751Y-105720000D01*
X139821552Y-105720000D01*
X139754577Y-105383295D01*
X139467030Y-104952951D01*
X139036686Y-104665404D01*
X138529060Y-104564431D01*
X138021434Y-104665404D01*
X137591090Y-104952951D01*
X137303543Y-105383295D01*
X137202570Y-105890921D01*
X137202570Y-106453079D01*
X137303543Y-106960705D01*
X137591090Y-107391049D01*
X138021434Y-107678596D01*
X138529060Y-107779569D01*
X139036686Y-107678596D01*
X139467030Y-107391049D01*
X139754577Y-106960705D01*
X139821552Y-106624000D01*
X141224000Y-106624000D01*
X141227419Y-106623320D01*
X141230848Y-106623948D01*
X141313793Y-106606139D01*
X141396973Y-106589594D01*
X141399870Y-106587658D01*
X141403280Y-106586926D01*
X141473128Y-106538708D01*
X141543612Y-106491612D01*
X141545547Y-106488716D01*
X141548418Y-106486734D01*
X142084450Y-105934208D01*
X142084450Y-106453079D01*
X142185423Y-106960705D01*
X142472970Y-107391049D01*
X142903314Y-107678596D01*
X143410940Y-107779569D01*
X143918566Y-107678596D01*
X144348910Y-107391049D01*
X144636457Y-106960705D01*
X144737430Y-106453079D01*
X144737430Y-105890921D01*
X144655283Y-105477941D01*
X145733076Y-104400148D01*
X145772145Y-104494703D01*
X145852000Y-104574698D01*
X145852000Y-105918000D01*
X145886406Y-106090973D01*
X145984388Y-106237612D01*
X151948000Y-112201224D01*
X151948000Y-121389094D01*
X151915855Y-121311297D01*
X151739631Y-121134765D01*
X151509265Y-121039109D01*
X151259829Y-121038891D01*
X151029297Y-121134145D01*
X150852765Y-121310369D01*
X150757109Y-121540735D01*
X150756891Y-121790171D01*
X150852145Y-122020703D01*
X150932000Y-122100698D01*
X150932000Y-125796776D01*
X143274339Y-133454437D01*
X143091855Y-133378662D01*
X143378244Y-133267099D01*
X143427950Y-133233885D01*
X143531159Y-133026080D01*
X142621000Y-132115921D01*
X141710841Y-133026080D01*
X141814050Y-133233885D01*
X142146864Y-133380094D01*
X141870297Y-133494369D01*
X141571145Y-133793000D01*
X140550555Y-133793000D01*
X139082874Y-132325319D01*
X141234480Y-132325319D01*
X141433901Y-132837244D01*
X141467115Y-132886950D01*
X141674920Y-132990159D01*
X142585079Y-132080000D01*
X142656921Y-132080000D01*
X143567080Y-132990159D01*
X143774885Y-132886950D01*
X143995857Y-132383953D01*
X144007520Y-131834681D01*
X143808099Y-131322756D01*
X143774885Y-131273050D01*
X143567080Y-131169841D01*
X142656921Y-132080000D01*
X142585079Y-132080000D01*
X141674920Y-131169841D01*
X141467115Y-131273050D01*
X141246143Y-131776047D01*
X141234480Y-132325319D01*
X139082874Y-132325319D01*
X135297555Y-128540000D01*
X141287594Y-128540000D01*
X141287594Y-130540000D01*
X141312973Y-130667589D01*
X141385246Y-130775754D01*
X141493411Y-130848027D01*
X141621000Y-130873406D01*
X141913801Y-130873406D01*
X141863756Y-130892901D01*
X141814050Y-130926115D01*
X141710841Y-131133920D01*
X142621000Y-132044079D01*
X143531159Y-131133920D01*
X143427950Y-130926115D01*
X143307969Y-130873406D01*
X143621000Y-130873406D01*
X143748589Y-130848027D01*
X143856754Y-130775754D01*
X143929027Y-130667589D01*
X143954406Y-130540000D01*
X143954406Y-128540000D01*
X143929027Y-128412411D01*
X143856754Y-128304246D01*
X143748589Y-128231973D01*
X143621000Y-128206594D01*
X141621000Y-128206594D01*
X141493411Y-128231973D01*
X141385246Y-128304246D01*
X141312973Y-128412411D01*
X141287594Y-128540000D01*
X135297555Y-128540000D01*
X126568777Y-119811223D01*
X126300479Y-119631952D01*
X125984000Y-119569000D01*
X119468555Y-119569000D01*
X119318000Y-119418446D01*
X119318000Y-119167903D01*
X119440644Y-119085955D01*
X119731770Y-118650255D01*
X119834000Y-118136311D01*
X119834000Y-118083689D01*
X119731770Y-117569745D01*
X119440644Y-117134045D01*
X119190644Y-116967000D01*
X119582785Y-116967000D01*
X119722819Y-116908996D01*
X119829996Y-116801820D01*
X119888000Y-116661786D01*
X119888000Y-115690650D01*
X119792750Y-115595400D01*
X118516400Y-115595400D01*
X118516400Y-115615400D01*
X118465600Y-115615400D01*
X118465600Y-115595400D01*
X117189250Y-115595400D01*
X117094000Y-115690650D01*
X117094000Y-116661786D01*
X117152004Y-116801820D01*
X117259181Y-116908996D01*
X117399215Y-116967000D01*
X117791356Y-116967000D01*
X117541356Y-117134045D01*
X117250230Y-117569745D01*
X117148000Y-118083689D01*
X117148000Y-118136311D01*
X117250230Y-118650255D01*
X117541356Y-119085955D01*
X117664000Y-119167903D01*
X117664000Y-119761000D01*
X117726952Y-120077479D01*
X117906223Y-120345777D01*
X118541223Y-120980778D01*
X118738570Y-121112640D01*
X118809521Y-121160048D01*
X119126000Y-121223000D01*
X125641446Y-121223000D01*
X139623223Y-135204778D01*
X139891521Y-135384048D01*
X140208000Y-135447000D01*
X141571533Y-135447000D01*
X141816106Y-135692000D01*
X137922000Y-135692000D01*
X137749027Y-135726406D01*
X137602387Y-135824388D01*
X134931824Y-138494952D01*
X134821623Y-138421318D01*
X134366000Y-138330689D01*
X133910377Y-138421318D01*
X133524119Y-138679408D01*
X133266029Y-139065666D01*
X133175400Y-139521289D01*
X133175400Y-139878711D01*
X133266029Y-140334334D01*
X133524119Y-140720592D01*
X133607043Y-140776000D01*
X133070600Y-140776000D01*
X133070600Y-139820650D01*
X132975350Y-139725400D01*
X131851400Y-139725400D01*
X131851400Y-139745400D01*
X131800600Y-139745400D01*
X131800600Y-139725400D01*
X130676650Y-139725400D01*
X130581400Y-139820650D01*
X130581400Y-140776000D01*
X126970000Y-140776000D01*
X126936032Y-140782757D01*
X126901420Y-140783837D01*
X126878417Y-140794217D01*
X126853664Y-140799141D01*
X126824872Y-140818380D01*
X126793303Y-140832625D01*
X121272579Y-144776000D01*
X109274000Y-144776000D01*
X109274000Y-141635328D01*
X110952640Y-141635328D01*
X111268178Y-142398989D01*
X111851938Y-142983768D01*
X112615047Y-143300639D01*
X113441328Y-143301360D01*
X114204989Y-142985822D01*
X114685681Y-142505967D01*
X120322767Y-142505967D01*
X120526796Y-142999755D01*
X120904258Y-143377876D01*
X121397689Y-143582766D01*
X121931967Y-143583233D01*
X122425755Y-143379204D01*
X122803876Y-143001742D01*
X123008766Y-142508311D01*
X123009233Y-141974033D01*
X122983491Y-141911733D01*
X123003480Y-141930869D01*
X123491860Y-142120799D01*
X124015748Y-142109378D01*
X124495387Y-141898342D01*
X124538492Y-141868160D01*
X124900861Y-141489638D01*
X125090791Y-141001258D01*
X125079370Y-140477370D01*
X124868334Y-139997732D01*
X124489812Y-139635363D01*
X124001432Y-139445433D01*
X123477544Y-139456854D01*
X122997905Y-139667890D01*
X122954799Y-139698072D01*
X122592431Y-140076594D01*
X122402501Y-140564974D01*
X122413922Y-141088862D01*
X122417972Y-141098067D01*
X121934311Y-140897234D01*
X121400033Y-140896767D01*
X120906245Y-141100796D01*
X120528124Y-141478258D01*
X120323234Y-141971689D01*
X120322767Y-142505967D01*
X114685681Y-142505967D01*
X114789768Y-142402062D01*
X115106639Y-141638953D01*
X115107360Y-140812672D01*
X114791822Y-140049011D01*
X114208062Y-139464232D01*
X113444953Y-139147361D01*
X112618672Y-139146640D01*
X111855011Y-139462178D01*
X111270232Y-140045938D01*
X110953361Y-140809047D01*
X110952640Y-141635328D01*
X109274000Y-141635328D01*
X109274000Y-138608215D01*
X130581400Y-138608215D01*
X130581400Y-139579350D01*
X130676650Y-139674600D01*
X131800600Y-139674600D01*
X131800600Y-138398250D01*
X131851400Y-138398250D01*
X131851400Y-139674600D01*
X132975350Y-139674600D01*
X133070600Y-139579350D01*
X133070600Y-138608215D01*
X133012596Y-138468181D01*
X132905420Y-138361004D01*
X132765386Y-138303000D01*
X131946650Y-138303000D01*
X131851400Y-138398250D01*
X131800600Y-138398250D01*
X131705350Y-138303000D01*
X130886614Y-138303000D01*
X130746580Y-138361004D01*
X130639404Y-138468181D01*
X130581400Y-138608215D01*
X109274000Y-138608215D01*
X109274000Y-123601328D01*
X110952640Y-123601328D01*
X111268178Y-124364989D01*
X111851938Y-124949768D01*
X112615047Y-125266639D01*
X113441328Y-125267360D01*
X114204989Y-124951822D01*
X114789768Y-124368062D01*
X115106639Y-123604953D01*
X115107360Y-122778672D01*
X114791822Y-122015011D01*
X114208062Y-121430232D01*
X113444953Y-121113361D01*
X112618672Y-121112640D01*
X111855011Y-121428178D01*
X111270232Y-122011938D01*
X110953361Y-122775047D01*
X110952640Y-123601328D01*
X109274000Y-123601328D01*
X109274000Y-119236444D01*
X115935522Y-114478214D01*
X117094000Y-114478214D01*
X117094000Y-115449350D01*
X117189250Y-115544600D01*
X118465600Y-115544600D01*
X118465600Y-114268250D01*
X118516400Y-114268250D01*
X118516400Y-115544600D01*
X119792750Y-115544600D01*
X119888000Y-115449350D01*
X119888000Y-114478214D01*
X119829996Y-114338180D01*
X119722819Y-114231004D01*
X119582785Y-114173000D01*
X118611650Y-114173000D01*
X118516400Y-114268250D01*
X118465600Y-114268250D01*
X118370350Y-114173000D01*
X117399215Y-114173000D01*
X117259181Y-114231004D01*
X117152004Y-114338180D01*
X117094000Y-114478214D01*
X115935522Y-114478214D01*
X123146697Y-109327375D01*
X123149334Y-109324568D01*
X123152800Y-109322899D01*
X123189838Y-109281453D01*
X123227913Y-109240925D01*
X123229274Y-109237325D01*
X123231839Y-109234455D01*
X123250205Y-109181968D01*
X123269863Y-109129977D01*
X123269743Y-109126131D01*
X123271015Y-109122496D01*
X124521202Y-100267000D01*
X126806594Y-100267000D01*
X126806594Y-102067000D01*
X126831973Y-102194589D01*
X126904246Y-102302754D01*
X127012411Y-102375027D01*
X127140000Y-102400406D01*
X127238000Y-102400406D01*
X127238000Y-106133594D01*
X127140000Y-106133594D01*
X127012411Y-106158973D01*
X126904246Y-106231246D01*
X126831973Y-106339411D01*
X126806594Y-106467000D01*
X126806594Y-108267000D01*
X126831973Y-108394589D01*
X126904246Y-108502754D01*
X127012411Y-108575027D01*
X127140000Y-108600406D01*
X127238000Y-108600406D01*
X127238000Y-108640000D01*
X127272406Y-108812973D01*
X127370388Y-108959612D01*
X127896989Y-109486213D01*
X127896891Y-109598171D01*
X127992145Y-109828703D01*
X128168369Y-110005235D01*
X128398735Y-110100891D01*
X128648171Y-110101109D01*
X128878703Y-110005855D01*
X129055235Y-109829631D01*
X129150891Y-109599265D01*
X129151109Y-109349829D01*
X129055855Y-109119297D01*
X128879631Y-108942765D01*
X128649265Y-108847109D01*
X128536234Y-108847010D01*
X128281396Y-108592172D01*
X128367589Y-108575027D01*
X128475754Y-108502754D01*
X128548027Y-108394589D01*
X128573406Y-108267000D01*
X128573406Y-106467000D01*
X128548027Y-106339411D01*
X128475754Y-106231246D01*
X128367589Y-106158973D01*
X128240000Y-106133594D01*
X128142000Y-106133594D01*
X128142000Y-102400406D01*
X128240000Y-102400406D01*
X128367589Y-102375027D01*
X128475754Y-102302754D01*
X128548027Y-102194589D01*
X128573406Y-102067000D01*
X128573406Y-100267000D01*
X128548027Y-100139411D01*
X128475754Y-100031246D01*
X128367589Y-99958973D01*
X128240000Y-99933594D01*
X127140000Y-99933594D01*
X127012411Y-99958973D01*
X126904246Y-100031246D01*
X126831973Y-100139411D01*
X126806594Y-100267000D01*
X124521202Y-100267000D01*
X124674568Y-99180650D01*
X128625000Y-99180650D01*
X128625000Y-99510785D01*
X128683004Y-99650819D01*
X128790180Y-99757996D01*
X128930214Y-99816000D01*
X129485350Y-99816000D01*
X129580600Y-99720750D01*
X129580600Y-99085400D01*
X128720250Y-99085400D01*
X128625000Y-99180650D01*
X124674568Y-99180650D01*
X124755241Y-98609215D01*
X128625000Y-98609215D01*
X128625000Y-98939350D01*
X128720250Y-99034600D01*
X129580600Y-99034600D01*
X129580600Y-98399250D01*
X129485350Y-98304000D01*
X128930214Y-98304000D01*
X128790180Y-98362004D01*
X128683004Y-98469181D01*
X128625000Y-98609215D01*
X124755241Y-98609215D01*
X124889720Y-97656650D01*
X128625000Y-97656650D01*
X128625000Y-97986785D01*
X128683004Y-98126819D01*
X128790180Y-98233996D01*
X128930214Y-98292000D01*
X129485350Y-98292000D01*
X129580600Y-98196750D01*
X129580600Y-97561400D01*
X128720250Y-97561400D01*
X128625000Y-97656650D01*
X124889720Y-97656650D01*
X124970393Y-97085215D01*
X128625000Y-97085215D01*
X128625000Y-97415350D01*
X128720250Y-97510600D01*
X129580600Y-97510600D01*
X129580600Y-96875250D01*
X129631400Y-96875250D01*
X129631400Y-97510600D01*
X129651400Y-97510600D01*
X129651400Y-97561400D01*
X129631400Y-97561400D01*
X129631400Y-98196750D01*
X129726650Y-98292000D01*
X130281786Y-98292000D01*
X130421820Y-98233996D01*
X130528996Y-98126819D01*
X130587000Y-97986785D01*
X130587000Y-97983424D01*
X130597973Y-98038589D01*
X130670246Y-98146754D01*
X130778411Y-98219027D01*
X130906000Y-98244406D01*
X132106000Y-98244406D01*
X132233589Y-98219027D01*
X132341754Y-98146754D01*
X132414027Y-98038589D01*
X132424090Y-97988000D01*
X132661272Y-97988000D01*
X132740369Y-98067235D01*
X132970735Y-98162891D01*
X133220171Y-98163109D01*
X133450703Y-98067855D01*
X133627235Y-97891631D01*
X133722891Y-97661265D01*
X133723109Y-97411829D01*
X133627855Y-97181297D01*
X133451631Y-97004765D01*
X133221265Y-96909109D01*
X132971829Y-96908891D01*
X132741297Y-97004145D01*
X132661302Y-97084000D01*
X132424090Y-97084000D01*
X132414027Y-97033411D01*
X132341754Y-96925246D01*
X132233589Y-96852973D01*
X132106000Y-96827594D01*
X130906000Y-96827594D01*
X130778411Y-96852973D01*
X130670246Y-96925246D01*
X130597973Y-97033411D01*
X130587000Y-97088576D01*
X130587000Y-97085215D01*
X130528996Y-96945181D01*
X130421820Y-96838004D01*
X130281786Y-96780000D01*
X129726650Y-96780000D01*
X129631400Y-96875250D01*
X129580600Y-96875250D01*
X129485350Y-96780000D01*
X128930214Y-96780000D01*
X128790180Y-96838004D01*
X128683004Y-96945181D01*
X128625000Y-97085215D01*
X124970393Y-97085215D01*
X125104377Y-96136171D01*
X127388891Y-96136171D01*
X127484145Y-96366703D01*
X127660369Y-96543235D01*
X127890735Y-96638891D01*
X128140171Y-96639109D01*
X128370703Y-96543855D01*
X128450698Y-96464000D01*
X128687910Y-96464000D01*
X128697973Y-96514589D01*
X128770246Y-96622754D01*
X128878411Y-96695027D01*
X129006000Y-96720406D01*
X130206000Y-96720406D01*
X130333589Y-96695027D01*
X130441754Y-96622754D01*
X130514027Y-96514589D01*
X130525000Y-96459424D01*
X130525000Y-96462785D01*
X130583004Y-96602819D01*
X130690180Y-96709996D01*
X130830214Y-96768000D01*
X131385350Y-96768000D01*
X131480600Y-96672750D01*
X131480600Y-96037400D01*
X131531400Y-96037400D01*
X131531400Y-96672750D01*
X131626650Y-96768000D01*
X132181786Y-96768000D01*
X132321820Y-96709996D01*
X132428996Y-96602819D01*
X132487000Y-96462785D01*
X132487000Y-96132650D01*
X132391750Y-96037400D01*
X131531400Y-96037400D01*
X131480600Y-96037400D01*
X131460600Y-96037400D01*
X131460600Y-95986600D01*
X131480600Y-95986600D01*
X131480600Y-95351250D01*
X131531400Y-95351250D01*
X131531400Y-95986600D01*
X132391750Y-95986600D01*
X132487000Y-95891350D01*
X132487000Y-95561215D01*
X132428996Y-95421181D01*
X132321820Y-95314004D01*
X132181786Y-95256000D01*
X131626650Y-95256000D01*
X131531400Y-95351250D01*
X131480600Y-95351250D01*
X131385350Y-95256000D01*
X130830214Y-95256000D01*
X130690180Y-95314004D01*
X130583004Y-95421181D01*
X130525000Y-95561215D01*
X130525000Y-95564576D01*
X130514027Y-95509411D01*
X130441754Y-95401246D01*
X130333589Y-95328973D01*
X130206000Y-95303594D01*
X129006000Y-95303594D01*
X128878411Y-95328973D01*
X128770246Y-95401246D01*
X128697973Y-95509411D01*
X128687910Y-95560000D01*
X128450728Y-95560000D01*
X128371631Y-95480765D01*
X128141265Y-95385109D01*
X127891829Y-95384891D01*
X127661297Y-95480145D01*
X127484765Y-95656369D01*
X127389109Y-95886735D01*
X127388891Y-96136171D01*
X125104377Y-96136171D01*
X125982520Y-89916000D01*
X126802000Y-89916000D01*
X126802000Y-93472000D01*
X126836406Y-93644973D01*
X126934388Y-93791612D01*
X127950388Y-94807612D01*
X128097027Y-94905594D01*
X128270000Y-94940000D01*
X128687910Y-94940000D01*
X128697973Y-94990589D01*
X128770246Y-95098754D01*
X128878411Y-95171027D01*
X129006000Y-95196406D01*
X130206000Y-95196406D01*
X130333589Y-95171027D01*
X130441754Y-95098754D01*
X130514027Y-94990589D01*
X130539406Y-94863000D01*
X130539406Y-94113000D01*
X130514027Y-93985411D01*
X130441754Y-93877246D01*
X130333589Y-93804973D01*
X130206000Y-93779594D01*
X129006000Y-93779594D01*
X128878411Y-93804973D01*
X128770246Y-93877246D01*
X128697973Y-93985411D01*
X128687910Y-94036000D01*
X128457224Y-94036000D01*
X127706000Y-93284776D01*
X127706000Y-93084650D01*
X128625000Y-93084650D01*
X128625000Y-93414785D01*
X128683004Y-93554819D01*
X128790180Y-93661996D01*
X128930214Y-93720000D01*
X129485350Y-93720000D01*
X129580600Y-93624750D01*
X129580600Y-92989400D01*
X128720250Y-92989400D01*
X128625000Y-93084650D01*
X127706000Y-93084650D01*
X127706000Y-92513215D01*
X128625000Y-92513215D01*
X128625000Y-92843350D01*
X128720250Y-92938600D01*
X129580600Y-92938600D01*
X129580600Y-92303250D01*
X129485350Y-92208000D01*
X128930214Y-92208000D01*
X128790180Y-92266004D01*
X128683004Y-92373181D01*
X128625000Y-92513215D01*
X127706000Y-92513215D01*
X127706000Y-91560650D01*
X128625000Y-91560650D01*
X128625000Y-91890785D01*
X128683004Y-92030819D01*
X128790180Y-92137996D01*
X128930214Y-92196000D01*
X129485350Y-92196000D01*
X129580600Y-92100750D01*
X129580600Y-91465400D01*
X128720250Y-91465400D01*
X128625000Y-91560650D01*
X127706000Y-91560650D01*
X127706000Y-90720183D01*
X127890735Y-90796891D01*
X128140171Y-90797109D01*
X128370703Y-90701855D01*
X128450698Y-90622000D01*
X128687910Y-90622000D01*
X128697973Y-90672589D01*
X128762710Y-90769475D01*
X128683004Y-90849181D01*
X128625000Y-90989215D01*
X128625000Y-91319350D01*
X128720250Y-91414600D01*
X129580600Y-91414600D01*
X129580600Y-91394600D01*
X129631400Y-91394600D01*
X129631400Y-91414600D01*
X129651400Y-91414600D01*
X129651400Y-91465400D01*
X129631400Y-91465400D01*
X129631400Y-92100750D01*
X129726650Y-92196000D01*
X130281786Y-92196000D01*
X130421820Y-92137996D01*
X130528996Y-92030819D01*
X130587000Y-91890785D01*
X130587000Y-91887424D01*
X130597973Y-91942589D01*
X130670246Y-92050754D01*
X130778411Y-92123027D01*
X130906000Y-92148406D01*
X132106000Y-92148406D01*
X132233589Y-92123027D01*
X132324021Y-92062603D01*
X132486369Y-92225235D01*
X132716735Y-92320891D01*
X132966171Y-92321109D01*
X133196703Y-92225855D01*
X133373235Y-92049631D01*
X133468891Y-91819265D01*
X133469109Y-91569829D01*
X133373855Y-91339297D01*
X133197631Y-91162765D01*
X132967265Y-91067109D01*
X132827693Y-91066987D01*
X132760973Y-91022406D01*
X132588000Y-90988000D01*
X132424090Y-90988000D01*
X132414027Y-90937411D01*
X132349290Y-90840525D01*
X132428996Y-90760819D01*
X132487000Y-90620785D01*
X132487000Y-90290650D01*
X132391750Y-90195400D01*
X131531400Y-90195400D01*
X131531400Y-90215400D01*
X131480600Y-90215400D01*
X131480600Y-90195400D01*
X131460600Y-90195400D01*
X131460600Y-90144600D01*
X131480600Y-90144600D01*
X131480600Y-89509250D01*
X131531400Y-89509250D01*
X131531400Y-90144600D01*
X132391750Y-90144600D01*
X132487000Y-90049350D01*
X132487000Y-89719215D01*
X132428996Y-89579181D01*
X132321820Y-89472004D01*
X132181786Y-89414000D01*
X131626650Y-89414000D01*
X131531400Y-89509250D01*
X131480600Y-89509250D01*
X131385350Y-89414000D01*
X130830214Y-89414000D01*
X130690180Y-89472004D01*
X130583004Y-89579181D01*
X130525000Y-89719215D01*
X130525000Y-89722576D01*
X130514027Y-89667411D01*
X130441754Y-89559246D01*
X130333589Y-89486973D01*
X130206000Y-89461594D01*
X129006000Y-89461594D01*
X128878411Y-89486973D01*
X128770246Y-89559246D01*
X128697973Y-89667411D01*
X128687910Y-89718000D01*
X128450728Y-89718000D01*
X128371631Y-89638765D01*
X128229484Y-89579740D01*
X128457224Y-89352000D01*
X131064000Y-89352000D01*
X131236973Y-89317594D01*
X131383612Y-89219612D01*
X132183612Y-88419612D01*
X132221168Y-88363406D01*
X132264000Y-88363406D01*
X132391589Y-88338027D01*
X132499754Y-88265754D01*
X132572027Y-88157589D01*
X132591697Y-88058699D01*
X133720699Y-88058699D01*
X133725793Y-88098842D01*
X133725793Y-88139307D01*
X133801913Y-88521990D01*
X133847305Y-88631576D01*
X134064078Y-88956000D01*
X134147952Y-89039874D01*
X134472375Y-89256647D01*
X134503529Y-89269551D01*
X134581962Y-89302039D01*
X134964645Y-89378159D01*
X134994586Y-89378159D01*
X135023952Y-89384000D01*
X141428858Y-89384000D01*
X141360801Y-89547899D01*
X141349265Y-89543109D01*
X141099829Y-89542891D01*
X140869297Y-89638145D01*
X140692765Y-89814369D01*
X140597109Y-90044735D01*
X140597100Y-90055193D01*
X140587265Y-90051109D01*
X140337829Y-90050891D01*
X140107297Y-90146145D01*
X139930765Y-90322369D01*
X139835109Y-90552735D01*
X139835100Y-90563193D01*
X139825265Y-90559109D01*
X139575829Y-90558891D01*
X139345297Y-90654145D01*
X139168765Y-90830369D01*
X139073109Y-91060735D01*
X139072891Y-91310171D01*
X139168145Y-91540703D01*
X139344369Y-91717235D01*
X139574735Y-91812891D01*
X139824171Y-91813109D01*
X139889516Y-91786109D01*
X140214486Y-91948594D01*
X140095000Y-91948594D01*
X139970000Y-91973458D01*
X139845000Y-91948594D01*
X139595000Y-91948594D01*
X139470000Y-91973458D01*
X139345000Y-91948594D01*
X139095000Y-91948594D01*
X139054930Y-91956565D01*
X138920785Y-91901000D01*
X138840650Y-91901000D01*
X138745400Y-91996250D01*
X138745400Y-92906600D01*
X138761594Y-92906600D01*
X138761594Y-92957400D01*
X138745400Y-92957400D01*
X138745400Y-93867750D01*
X138768000Y-93890350D01*
X138768000Y-94770000D01*
X138802406Y-94942973D01*
X138900388Y-95089612D01*
X140342989Y-96532213D01*
X140342891Y-96644171D01*
X140438145Y-96874703D01*
X140614369Y-97051235D01*
X140844735Y-97146891D01*
X141094171Y-97147109D01*
X141324703Y-97051855D01*
X141501235Y-96875631D01*
X141596891Y-96645265D01*
X141597109Y-96395829D01*
X141570412Y-96331215D01*
X144289000Y-96331215D01*
X144289000Y-96411350D01*
X144384250Y-96506600D01*
X145294600Y-96506600D01*
X145294600Y-96490406D01*
X145345400Y-96490406D01*
X145345400Y-96506600D01*
X146255750Y-96506600D01*
X146278350Y-96484000D01*
X146538000Y-96484000D01*
X146710973Y-96449594D01*
X146807649Y-96384997D01*
X146936171Y-96385109D01*
X147166703Y-96289855D01*
X147343235Y-96113631D01*
X147438891Y-95883265D01*
X147439109Y-95633829D01*
X147343855Y-95403297D01*
X147167631Y-95226765D01*
X146937265Y-95131109D01*
X146687829Y-95130891D01*
X146457297Y-95226145D01*
X146298887Y-95384279D01*
X146278542Y-95282000D01*
X146303406Y-95157000D01*
X146303406Y-94907000D01*
X146278542Y-94782000D01*
X146303406Y-94657000D01*
X146303406Y-94407000D01*
X146278027Y-94279411D01*
X146209412Y-94176721D01*
X147127888Y-93084650D01*
X149453000Y-93084650D01*
X149453000Y-93414785D01*
X149511004Y-93554819D01*
X149618180Y-93661996D01*
X149758214Y-93720000D01*
X150313350Y-93720000D01*
X150408600Y-93624750D01*
X150408600Y-92989400D01*
X149548250Y-92989400D01*
X149453000Y-93084650D01*
X147127888Y-93084650D01*
X147129229Y-93083056D01*
X147190171Y-93083109D01*
X147420703Y-92987855D01*
X147597235Y-92811631D01*
X147692891Y-92581265D01*
X147692950Y-92513215D01*
X149453000Y-92513215D01*
X149453000Y-92843350D01*
X149548250Y-92938600D01*
X150408600Y-92938600D01*
X150408600Y-92303250D01*
X150313350Y-92208000D01*
X149758214Y-92208000D01*
X149618180Y-92266004D01*
X149511004Y-92373181D01*
X149453000Y-92513215D01*
X147692950Y-92513215D01*
X147693109Y-92331829D01*
X147597855Y-92101297D01*
X147421631Y-91924765D01*
X147191265Y-91829109D01*
X146941829Y-91828891D01*
X146711297Y-91924145D01*
X146534765Y-92100369D01*
X146439109Y-92330735D01*
X146438962Y-92499315D01*
X145114930Y-94073594D01*
X144670000Y-94073594D01*
X144542411Y-94098973D01*
X144434246Y-94171246D01*
X144361973Y-94279411D01*
X144336594Y-94407000D01*
X144336594Y-94657000D01*
X144361458Y-94782000D01*
X144336594Y-94907000D01*
X144336594Y-95157000D01*
X144361458Y-95282000D01*
X144336594Y-95407000D01*
X144336594Y-95657000D01*
X144361458Y-95782000D01*
X144336594Y-95907000D01*
X144336594Y-96157000D01*
X144344565Y-96197070D01*
X144289000Y-96331215D01*
X141570412Y-96331215D01*
X141501855Y-96165297D01*
X141348713Y-96011887D01*
X141501235Y-95859631D01*
X141596891Y-95629265D01*
X141597109Y-95379829D01*
X141501855Y-95149297D01*
X141348713Y-94995887D01*
X141501235Y-94843631D01*
X141596891Y-94613265D01*
X141597109Y-94363829D01*
X141501855Y-94133297D01*
X141325631Y-93956765D01*
X141226027Y-93915406D01*
X141345000Y-93915406D01*
X141470000Y-93890542D01*
X141595000Y-93915406D01*
X141845000Y-93915406D01*
X141970000Y-93890542D01*
X142095000Y-93915406D01*
X142345000Y-93915406D01*
X142470000Y-93890542D01*
X142595000Y-93915406D01*
X142845000Y-93915406D01*
X142970000Y-93890542D01*
X143095000Y-93915406D01*
X143345000Y-93915406D01*
X143470000Y-93890542D01*
X143595000Y-93915406D01*
X143845000Y-93915406D01*
X143972589Y-93890027D01*
X144080754Y-93817754D01*
X144153027Y-93709589D01*
X144178406Y-93582000D01*
X144178406Y-92721456D01*
X144210514Y-91632710D01*
X144282574Y-91560650D01*
X149453000Y-91560650D01*
X149453000Y-91890785D01*
X149511004Y-92030819D01*
X149618180Y-92137996D01*
X149758214Y-92196000D01*
X150313350Y-92196000D01*
X150408600Y-92100750D01*
X150408600Y-91465400D01*
X149548250Y-91465400D01*
X149453000Y-91560650D01*
X144282574Y-91560650D01*
X144538213Y-91305011D01*
X144650171Y-91305109D01*
X144880703Y-91209855D01*
X145057235Y-91033631D01*
X145075678Y-90989215D01*
X149453000Y-90989215D01*
X149453000Y-91319350D01*
X149548250Y-91414600D01*
X150408600Y-91414600D01*
X150408600Y-90779250D01*
X150313350Y-90684000D01*
X149758214Y-90684000D01*
X149618180Y-90742004D01*
X149511004Y-90849181D01*
X149453000Y-90989215D01*
X145075678Y-90989215D01*
X145152891Y-90803265D01*
X145153109Y-90553829D01*
X145057855Y-90323297D01*
X144881631Y-90146765D01*
X144651265Y-90051109D01*
X144401829Y-90050891D01*
X144391101Y-90055324D01*
X144391109Y-90045829D01*
X144295855Y-89815297D01*
X144119631Y-89638765D01*
X143889265Y-89543109D01*
X143639829Y-89542891D01*
X143629101Y-89547324D01*
X143629106Y-89541000D01*
X149500594Y-89541000D01*
X149500594Y-90291000D01*
X149525973Y-90418589D01*
X149598246Y-90526754D01*
X149706411Y-90599027D01*
X149834000Y-90624406D01*
X150691182Y-90624406D01*
X150750776Y-90684000D01*
X150554650Y-90684000D01*
X150459400Y-90779250D01*
X150459400Y-91414600D01*
X150479400Y-91414600D01*
X150479400Y-91465400D01*
X150459400Y-91465400D01*
X150459400Y-92100750D01*
X150554650Y-92196000D01*
X151109786Y-92196000D01*
X151249820Y-92137996D01*
X151356996Y-92030819D01*
X151415000Y-91890785D01*
X151415000Y-91887424D01*
X151425973Y-91942589D01*
X151498246Y-92050754D01*
X151606411Y-92123027D01*
X151734000Y-92148406D01*
X151882000Y-92148406D01*
X151882000Y-92255594D01*
X151734000Y-92255594D01*
X151606411Y-92280973D01*
X151498246Y-92353246D01*
X151425973Y-92461411D01*
X151415000Y-92516576D01*
X151415000Y-92513215D01*
X151356996Y-92373181D01*
X151249820Y-92266004D01*
X151109786Y-92208000D01*
X150554650Y-92208000D01*
X150459400Y-92303250D01*
X150459400Y-92938600D01*
X150479400Y-92938600D01*
X150479400Y-92989400D01*
X150459400Y-92989400D01*
X150459400Y-93624750D01*
X150554650Y-93720000D01*
X151109786Y-93720000D01*
X151249820Y-93661996D01*
X151356996Y-93554819D01*
X151415000Y-93414785D01*
X151415000Y-93411424D01*
X151425973Y-93466589D01*
X151498246Y-93574754D01*
X151606411Y-93647027D01*
X151734000Y-93672406D01*
X151882000Y-93672406D01*
X151882000Y-93779594D01*
X151734000Y-93779594D01*
X151606411Y-93804973D01*
X151498246Y-93877246D01*
X151425973Y-93985411D01*
X151400594Y-94113000D01*
X151400594Y-94863000D01*
X151425973Y-94990589D01*
X151498246Y-95098754D01*
X151606411Y-95171027D01*
X151734000Y-95196406D01*
X152934000Y-95196406D01*
X153061589Y-95171027D01*
X153169754Y-95098754D01*
X153242027Y-94990589D01*
X153267406Y-94863000D01*
X153267406Y-94113000D01*
X153242027Y-93985411D01*
X153169754Y-93877246D01*
X153061589Y-93804973D01*
X152934000Y-93779594D01*
X152786000Y-93779594D01*
X152786000Y-93672406D01*
X152934000Y-93672406D01*
X153061589Y-93647027D01*
X153169754Y-93574754D01*
X153242027Y-93466589D01*
X153252090Y-93416000D01*
X153489272Y-93416000D01*
X153568369Y-93495235D01*
X153798735Y-93590891D01*
X154048171Y-93591109D01*
X154278703Y-93495855D01*
X154455235Y-93319631D01*
X154550891Y-93089265D01*
X154551109Y-92839829D01*
X154455855Y-92609297D01*
X154279631Y-92432765D01*
X154049265Y-92337109D01*
X153799829Y-92336891D01*
X153569297Y-92432145D01*
X153489302Y-92512000D01*
X153252090Y-92512000D01*
X153242027Y-92461411D01*
X153169754Y-92353246D01*
X153061589Y-92280973D01*
X152934000Y-92255594D01*
X152786000Y-92255594D01*
X152786000Y-92148406D01*
X152934000Y-92148406D01*
X153061589Y-92123027D01*
X153169754Y-92050754D01*
X153242027Y-91942589D01*
X153267406Y-91815000D01*
X153267406Y-91065000D01*
X153242027Y-90937411D01*
X153169754Y-90829246D01*
X153061589Y-90756973D01*
X152934000Y-90731594D01*
X152076819Y-90731594D01*
X151969631Y-90624406D01*
X152934000Y-90624406D01*
X153061589Y-90599027D01*
X153169754Y-90526754D01*
X153242027Y-90418589D01*
X153267406Y-90291000D01*
X153267406Y-89541000D01*
X153242027Y-89413411D01*
X153169754Y-89305246D01*
X153061589Y-89232973D01*
X152934000Y-89207594D01*
X152786000Y-89207594D01*
X152786000Y-88288000D01*
X152751594Y-88115027D01*
X152743626Y-88103102D01*
X152653613Y-87968388D01*
X152409406Y-87724181D01*
X152409406Y-87230000D01*
X152384027Y-87102411D01*
X152311754Y-86994246D01*
X152203589Y-86921973D01*
X152076000Y-86896594D01*
X151276000Y-86896594D01*
X151148411Y-86921973D01*
X151040246Y-86994246D01*
X150967973Y-87102411D01*
X150942594Y-87230000D01*
X150942594Y-88030000D01*
X150967973Y-88157589D01*
X151040246Y-88265754D01*
X151148411Y-88338027D01*
X151276000Y-88363406D01*
X151770181Y-88363406D01*
X151882000Y-88475225D01*
X151882000Y-89207594D01*
X151734000Y-89207594D01*
X151606411Y-89232973D01*
X151498246Y-89305246D01*
X151425973Y-89413411D01*
X151400594Y-89541000D01*
X151400594Y-90055370D01*
X151367406Y-90022182D01*
X151367406Y-89541000D01*
X151342027Y-89413411D01*
X151269754Y-89305246D01*
X151161589Y-89232973D01*
X151034000Y-89207594D01*
X149834000Y-89207594D01*
X149706411Y-89232973D01*
X149598246Y-89305246D01*
X149525973Y-89413411D01*
X149500594Y-89541000D01*
X143629106Y-89541000D01*
X143629109Y-89537829D01*
X143565548Y-89384000D01*
X146916048Y-89384000D01*
X146926637Y-89381894D01*
X146937349Y-89383253D01*
X147077138Y-89373434D01*
X147116174Y-89362778D01*
X147156242Y-89357122D01*
X147524527Y-89228254D01*
X147566427Y-89203538D01*
X147626693Y-89167988D01*
X147917628Y-88907992D01*
X147988953Y-88813217D01*
X147988954Y-88813215D01*
X148158245Y-88461678D01*
X148161773Y-88448000D01*
X148187873Y-88346823D01*
X148209751Y-87957256D01*
X148205565Y-87927608D01*
X148207244Y-87897714D01*
X148186483Y-87750650D01*
X149295000Y-87750650D01*
X149295000Y-88105785D01*
X149353004Y-88245819D01*
X149460180Y-88352996D01*
X149600214Y-88411000D01*
X149955350Y-88411000D01*
X150050600Y-88315750D01*
X150050600Y-87655400D01*
X150101400Y-87655400D01*
X150101400Y-88315750D01*
X150196650Y-88411000D01*
X150551786Y-88411000D01*
X150691820Y-88352996D01*
X150798996Y-88245819D01*
X150857000Y-88105785D01*
X150857000Y-87750650D01*
X150761750Y-87655400D01*
X150101400Y-87655400D01*
X150050600Y-87655400D01*
X149390250Y-87655400D01*
X149295000Y-87750650D01*
X148186483Y-87750650D01*
X148102281Y-87154215D01*
X149295000Y-87154215D01*
X149295000Y-87509350D01*
X149390250Y-87604600D01*
X150050600Y-87604600D01*
X150050600Y-86944250D01*
X150101400Y-86944250D01*
X150101400Y-87604600D01*
X150761750Y-87604600D01*
X150857000Y-87509350D01*
X150857000Y-87154215D01*
X150798996Y-87014181D01*
X150691820Y-86907004D01*
X150551786Y-86849000D01*
X150196650Y-86849000D01*
X150101400Y-86944250D01*
X150050600Y-86944250D01*
X149955350Y-86849000D01*
X149600214Y-86849000D01*
X149460180Y-86907004D01*
X149353004Y-87014181D01*
X149295000Y-87154215D01*
X148102281Y-87154215D01*
X143442538Y-54147714D01*
X143436148Y-54129453D01*
X143434793Y-54110157D01*
X143368493Y-53867265D01*
X143346681Y-53823550D01*
X143327989Y-53778423D01*
X143111216Y-53454000D01*
X143027342Y-53370126D01*
X142702918Y-53153353D01*
X142593332Y-53107961D01*
X142210649Y-53031841D01*
X142180708Y-53031841D01*
X142151342Y-53026000D01*
X139788658Y-53026000D01*
X139769683Y-53029774D01*
X139750387Y-53028419D01*
X139500610Y-53060116D01*
X139454277Y-53075603D01*
X139406980Y-53087803D01*
X139055443Y-53257094D01*
X139055441Y-53257095D01*
X138960666Y-53328420D01*
X138700670Y-53619355D01*
X138677351Y-53658887D01*
X138640404Y-53721521D01*
X138511536Y-54089806D01*
X138507351Y-54119453D01*
X138497462Y-54147714D01*
X133732756Y-87897714D01*
X133733361Y-87908494D01*
X133730518Y-87918910D01*
X133720699Y-88058699D01*
X132591697Y-88058699D01*
X132597406Y-88030000D01*
X132597406Y-87230000D01*
X132572027Y-87102411D01*
X132499754Y-86994246D01*
X132391589Y-86921973D01*
X132264000Y-86896594D01*
X131464000Y-86896594D01*
X131336411Y-86921973D01*
X131228246Y-86994246D01*
X131155973Y-87102411D01*
X131130594Y-87230000D01*
X131130594Y-88030000D01*
X131155973Y-88157589D01*
X131160465Y-88164311D01*
X130876776Y-88448000D01*
X128270000Y-88448000D01*
X128097027Y-88482406D01*
X127950388Y-88580388D01*
X126934388Y-89596388D01*
X126836406Y-89743027D01*
X126802000Y-89916000D01*
X125982520Y-89916000D01*
X126288216Y-87750650D01*
X129483000Y-87750650D01*
X129483000Y-88105785D01*
X129541004Y-88245819D01*
X129648180Y-88352996D01*
X129788214Y-88411000D01*
X130143350Y-88411000D01*
X130238600Y-88315750D01*
X130238600Y-87655400D01*
X130289400Y-87655400D01*
X130289400Y-88315750D01*
X130384650Y-88411000D01*
X130739786Y-88411000D01*
X130879820Y-88352996D01*
X130986996Y-88245819D01*
X131045000Y-88105785D01*
X131045000Y-87750650D01*
X130949750Y-87655400D01*
X130289400Y-87655400D01*
X130238600Y-87655400D01*
X129578250Y-87655400D01*
X129483000Y-87750650D01*
X126288216Y-87750650D01*
X126372418Y-87154215D01*
X129483000Y-87154215D01*
X129483000Y-87509350D01*
X129578250Y-87604600D01*
X130238600Y-87604600D01*
X130238600Y-86944250D01*
X130289400Y-86944250D01*
X130289400Y-87604600D01*
X130949750Y-87604600D01*
X131045000Y-87509350D01*
X131045000Y-87154215D01*
X130986996Y-87014181D01*
X130879820Y-86907004D01*
X130739786Y-86849000D01*
X130384650Y-86849000D01*
X130289400Y-86944250D01*
X130238600Y-86944250D01*
X130143350Y-86849000D01*
X129788214Y-86849000D01*
X129648180Y-86907004D01*
X129541004Y-87014181D01*
X129483000Y-87154215D01*
X126372418Y-87154215D01*
X130281740Y-59463192D01*
X130281135Y-59452413D01*
X130283978Y-59441997D01*
X130293797Y-59302207D01*
X130288703Y-59262064D01*
X130288703Y-59221599D01*
X130212583Y-58838916D01*
X130167191Y-58729330D01*
X130167191Y-58729329D01*
X129950418Y-58404906D01*
X129866544Y-58321032D01*
X129826088Y-58294000D01*
X134331692Y-58294000D01*
X134354246Y-58327754D01*
X134462411Y-58400027D01*
X134590000Y-58425406D01*
X135089878Y-58425406D01*
X132207027Y-60333841D01*
X132205265Y-60333109D01*
X131955829Y-60332891D01*
X131725297Y-60428145D01*
X131548765Y-60604369D01*
X131453109Y-60834735D01*
X131452891Y-61084171D01*
X131548145Y-61314703D01*
X131724369Y-61491235D01*
X131954735Y-61586891D01*
X132204171Y-61587109D01*
X132434703Y-61491855D01*
X132611235Y-61315631D01*
X132705858Y-61087752D01*
X136727556Y-58425406D01*
X137190000Y-58425406D01*
X137317589Y-58400027D01*
X137425754Y-58327754D01*
X137498027Y-58219589D01*
X137523406Y-58092000D01*
X137523406Y-57592000D01*
X137498027Y-57464411D01*
X137466348Y-57417000D01*
X137498027Y-57369589D01*
X137523406Y-57242000D01*
X137523406Y-56842000D01*
X137498027Y-56714411D01*
X137449644Y-56642000D01*
X137498027Y-56569589D01*
X137523406Y-56442000D01*
X137523406Y-56042000D01*
X137498027Y-55914411D01*
X137466348Y-55867000D01*
X137498027Y-55819589D01*
X137523406Y-55692000D01*
X137523406Y-55192000D01*
X137498027Y-55064411D01*
X137425754Y-54956246D01*
X137317589Y-54883973D01*
X137190000Y-54858594D01*
X136390000Y-54858594D01*
X136262411Y-54883973D01*
X136154246Y-54956246D01*
X136081973Y-55064411D01*
X136056594Y-55192000D01*
X136056594Y-55692000D01*
X136081973Y-55819589D01*
X136113652Y-55867000D01*
X136081973Y-55914411D01*
X136056594Y-56042000D01*
X136056594Y-56442000D01*
X136081973Y-56569589D01*
X136130356Y-56642000D01*
X136081973Y-56714411D01*
X136056594Y-56842000D01*
X136056594Y-57242000D01*
X136081973Y-57369589D01*
X136113652Y-57417000D01*
X136081973Y-57464411D01*
X136056594Y-57592000D01*
X136056594Y-57785444D01*
X135723406Y-58006013D01*
X135723406Y-57592000D01*
X135698027Y-57464411D01*
X135666348Y-57417000D01*
X135698027Y-57369589D01*
X135723406Y-57242000D01*
X135723406Y-56842000D01*
X135698027Y-56714411D01*
X135649644Y-56642000D01*
X135698027Y-56569589D01*
X135723406Y-56442000D01*
X135723406Y-56042000D01*
X135698027Y-55914411D01*
X135666348Y-55867000D01*
X135698027Y-55819589D01*
X135723406Y-55692000D01*
X135723406Y-55192000D01*
X135698027Y-55064411D01*
X135645470Y-54985754D01*
X136077224Y-54554000D01*
X136979272Y-54554000D01*
X137058369Y-54633235D01*
X137288735Y-54728891D01*
X137538171Y-54729109D01*
X137768703Y-54633855D01*
X137945235Y-54457631D01*
X138040891Y-54227265D01*
X138041109Y-53977829D01*
X137945855Y-53747297D01*
X137769631Y-53570765D01*
X137539265Y-53475109D01*
X137289829Y-53474891D01*
X137059297Y-53570145D01*
X136979302Y-53650000D01*
X135890000Y-53650000D01*
X135722396Y-53683338D01*
X135717027Y-53684406D01*
X135570388Y-53782388D01*
X134670388Y-54682388D01*
X134572406Y-54829027D01*
X134565558Y-54863456D01*
X134462411Y-54883973D01*
X134354246Y-54956246D01*
X134281973Y-55064411D01*
X134256594Y-55192000D01*
X134256594Y-55692000D01*
X134276087Y-55790000D01*
X128819224Y-55790000D01*
X128389011Y-55359787D01*
X128389109Y-55247829D01*
X128293855Y-55017297D01*
X128117631Y-54840765D01*
X127887265Y-54745109D01*
X127637829Y-54744891D01*
X127407297Y-54840145D01*
X127230765Y-55016369D01*
X127135109Y-55246735D01*
X127134891Y-55496171D01*
X127230145Y-55726703D01*
X127406369Y-55903235D01*
X127636735Y-55998891D01*
X127749766Y-55998990D01*
X128312388Y-56561612D01*
X128354873Y-56590000D01*
X118229046Y-56590000D01*
X118229109Y-56517829D01*
X118133855Y-56287297D01*
X117957631Y-56110765D01*
X117727265Y-56015109D01*
X117477829Y-56014891D01*
X117247297Y-56110145D01*
X117070765Y-56286369D01*
X116975109Y-56516735D01*
X116974891Y-56766171D01*
X117070145Y-56996703D01*
X117246369Y-57173235D01*
X117476735Y-57268891D01*
X117589765Y-57268990D01*
X117682387Y-57361612D01*
X117724873Y-57390000D01*
X105977680Y-57390000D01*
X105941855Y-57303297D01*
X105765631Y-57126765D01*
X105535265Y-57031109D01*
X105285829Y-57030891D01*
X105055297Y-57126145D01*
X104878765Y-57302369D01*
X104783109Y-57532735D01*
X104782891Y-57782171D01*
X104878145Y-58012703D01*
X105054369Y-58189235D01*
X105284735Y-58284891D01*
X105534171Y-58285109D01*
X105539088Y-58283077D01*
X105594000Y-58294000D01*
X109041022Y-58294000D01*
X101838298Y-65976906D01*
X99359356Y-65976906D01*
X100320250Y-62133328D01*
X100792640Y-62133328D01*
X101108178Y-62896989D01*
X101691938Y-63481768D01*
X102455047Y-63798639D01*
X103281328Y-63799360D01*
X104044989Y-63483822D01*
X104629768Y-62900062D01*
X104946639Y-62136953D01*
X104947360Y-61310672D01*
X104631822Y-60547011D01*
X104048062Y-59962232D01*
X103284953Y-59645361D01*
X102458672Y-59644640D01*
X101695011Y-59960178D01*
X101110232Y-60543938D01*
X100793361Y-61307047D01*
X100792640Y-62133328D01*
X100320250Y-62133328D01*
X102689564Y-52656073D01*
X103150930Y-51679439D01*
X103928311Y-50974212D01*
X104934421Y-50613700D01*
X105323558Y-50584906D01*
X130402309Y-50584906D01*
X130421284Y-50581132D01*
X130440580Y-50582487D01*
X130690357Y-50550790D01*
X130736685Y-50535305D01*
X130783987Y-50523103D01*
X131135524Y-50353812D01*
X131135526Y-50353811D01*
X131230301Y-50282486D01*
X131490297Y-49991551D01*
X131531983Y-49920882D01*
X131550563Y-49889385D01*
X131679430Y-49521101D01*
X131683615Y-49491456D01*
X131693505Y-49463192D01*
X131902505Y-47982776D01*
X132259250Y-46963254D01*
X132958648Y-46180628D01*
X133914231Y-45720444D01*
X134595427Y-45634000D01*
X147333839Y-45634000D01*
X148393216Y-45844723D01*
X148393216Y-45844723D01*
G37*
X148393216Y-45844723D02*
X149265929Y-46427851D01*
X149855175Y-47309719D01*
X150035995Y-47972151D01*
X150246495Y-49463192D01*
X150252884Y-49481450D01*
X150254239Y-49500748D01*
X150320540Y-49743641D01*
X150342350Y-49787351D01*
X150361044Y-49832482D01*
X150577817Y-50156906D01*
X150661691Y-50240780D01*
X150986114Y-50457553D01*
X151018211Y-50470848D01*
X151095701Y-50502945D01*
X151478384Y-50579065D01*
X151508325Y-50579065D01*
X151537691Y-50584906D01*
X176597729Y-50584906D01*
X177657106Y-50795629D01*
X178529819Y-51378757D01*
X179123584Y-52267389D01*
X179245899Y-52637924D01*
X182580644Y-65976906D01*
X180101702Y-65976906D01*
X176498348Y-62133328D01*
X176992640Y-62133328D01*
X177308178Y-62896989D01*
X177891938Y-63481768D01*
X178655047Y-63798639D01*
X179481328Y-63799360D01*
X180244989Y-63483822D01*
X180829768Y-62900062D01*
X181146639Y-62136953D01*
X181147360Y-61310672D01*
X180831822Y-60547011D01*
X180248062Y-59962232D01*
X179484953Y-59645361D01*
X178658672Y-59644640D01*
X177895011Y-59960178D01*
X177310232Y-60543938D01*
X176993361Y-61307047D01*
X176992640Y-62133328D01*
X176498348Y-62133328D01*
X172898978Y-58294000D01*
X177108000Y-58294000D01*
X177162544Y-58283151D01*
X177166735Y-58284891D01*
X177416171Y-58285109D01*
X177646703Y-58189855D01*
X177823235Y-58013631D01*
X177918891Y-57783265D01*
X177919109Y-57533829D01*
X177823855Y-57303297D01*
X177647631Y-57126765D01*
X177417265Y-57031109D01*
X177167829Y-57030891D01*
X176937297Y-57126145D01*
X176760765Y-57302369D01*
X176724378Y-57390000D01*
X168025127Y-57390000D01*
X168067612Y-57361612D01*
X168160213Y-57269011D01*
X168272171Y-57269109D01*
X168502703Y-57173855D01*
X168679235Y-56997631D01*
X168774891Y-56767265D01*
X168775109Y-56517829D01*
X168679855Y-56287297D01*
X168503631Y-56110765D01*
X168273265Y-56015109D01*
X168023829Y-56014891D01*
X167793297Y-56110145D01*
X167616765Y-56286369D01*
X167521109Y-56516735D01*
X167521045Y-56590000D01*
X157395127Y-56590000D01*
X157437612Y-56561612D01*
X158000213Y-55999011D01*
X158112171Y-55999109D01*
X158342703Y-55903855D01*
X158519235Y-55727631D01*
X158614891Y-55497265D01*
X158615109Y-55247829D01*
X158519855Y-55017297D01*
X158343631Y-54840765D01*
X158113265Y-54745109D01*
X157863829Y-54744891D01*
X157633297Y-54840145D01*
X157456765Y-55016369D01*
X157361109Y-55246735D01*
X157361010Y-55359766D01*
X156930776Y-55790000D01*
X148035127Y-55790000D01*
X148077612Y-55761612D01*
X148401612Y-55437612D01*
X148499594Y-55290973D01*
X148510351Y-55236891D01*
X148534000Y-55118000D01*
X148534000Y-54536728D01*
X148613235Y-54457631D01*
X148708891Y-54227265D01*
X148709109Y-53977829D01*
X148613855Y-53747297D01*
X148437631Y-53570765D01*
X148207265Y-53475109D01*
X147957829Y-53474891D01*
X147727297Y-53570145D01*
X147550765Y-53746369D01*
X147455109Y-53976735D01*
X147454891Y-54226171D01*
X147550145Y-54456703D01*
X147630000Y-54536698D01*
X147630000Y-54930776D01*
X147593275Y-54967501D01*
X147585754Y-54956246D01*
X147477589Y-54883973D01*
X147350000Y-54858594D01*
X146625680Y-54858594D01*
X146676891Y-54735265D01*
X146677109Y-54485829D01*
X146581855Y-54255297D01*
X146405631Y-54078765D01*
X146175265Y-53983109D01*
X145925829Y-53982891D01*
X145695297Y-54078145D01*
X145518765Y-54254369D01*
X145423109Y-54484735D01*
X145423010Y-54597766D01*
X145162182Y-54858594D01*
X144750000Y-54858594D01*
X144622411Y-54883973D01*
X144514246Y-54956246D01*
X144441973Y-55064411D01*
X144416594Y-55192000D01*
X144416594Y-55692000D01*
X144441973Y-55819589D01*
X144473652Y-55867000D01*
X144441973Y-55914411D01*
X144416594Y-56042000D01*
X144416594Y-56442000D01*
X144441973Y-56569589D01*
X144490356Y-56642000D01*
X144441973Y-56714411D01*
X144416594Y-56842000D01*
X144416594Y-57242000D01*
X144441973Y-57369589D01*
X144473652Y-57417000D01*
X144441973Y-57464411D01*
X144416594Y-57592000D01*
X144416594Y-58092000D01*
X144441973Y-58219589D01*
X144514246Y-58327754D01*
X144622411Y-58400027D01*
X144750000Y-58425406D01*
X145212445Y-58425406D01*
X149234457Y-61087961D01*
X149328145Y-61314703D01*
X149504369Y-61491235D01*
X149734735Y-61586891D01*
X149984171Y-61587109D01*
X150214703Y-61491855D01*
X150391235Y-61315631D01*
X150486891Y-61085265D01*
X150487109Y-60835829D01*
X150391855Y-60605297D01*
X150215631Y-60428765D01*
X149985265Y-60333109D01*
X149735829Y-60332891D01*
X149733187Y-60333982D01*
X146850122Y-58425406D01*
X147350000Y-58425406D01*
X147477589Y-58400027D01*
X147585754Y-58327754D01*
X147608308Y-58294000D01*
X152125700Y-58294000D01*
X151947876Y-58452914D01*
X151876551Y-58547689D01*
X151876550Y-58547691D01*
X151707259Y-58899228D01*
X151677631Y-59014083D01*
X151655753Y-59403650D01*
X151659939Y-59433298D01*
X151658260Y-59463192D01*
X158668985Y-109122496D01*
X158670257Y-109126131D01*
X158670137Y-109129977D01*
X158689789Y-109181952D01*
X158708161Y-109234455D01*
X158710728Y-109237327D01*
X158712088Y-109240925D01*
X158750142Y-109281432D01*
X158787200Y-109322899D01*
X158790668Y-109324569D01*
X158793304Y-109327375D01*
X172666000Y-119236444D01*
X172666000Y-144776000D01*
X160667421Y-144776000D01*
X155711375Y-141235967D01*
X157152767Y-141235967D01*
X157356796Y-141729755D01*
X157734258Y-142107876D01*
X158227689Y-142312766D01*
X158761967Y-142313233D01*
X159247710Y-142112528D01*
X159243922Y-142121138D01*
X159232501Y-142645026D01*
X159422431Y-143133406D01*
X159784799Y-143511928D01*
X159827905Y-143542110D01*
X160307544Y-143753146D01*
X160831432Y-143764567D01*
X161319812Y-143574637D01*
X161698334Y-143212268D01*
X161909370Y-142732630D01*
X161920791Y-142208742D01*
X161730861Y-141720362D01*
X161649456Y-141635328D01*
X166832640Y-141635328D01*
X167148178Y-142398989D01*
X167731938Y-142983768D01*
X168495047Y-143300639D01*
X169321328Y-143301360D01*
X170084989Y-142985822D01*
X170669768Y-142402062D01*
X170986639Y-141638953D01*
X170987360Y-140812672D01*
X170671822Y-140049011D01*
X170088062Y-139464232D01*
X169324953Y-139147361D01*
X168498672Y-139146640D01*
X167735011Y-139462178D01*
X167150232Y-140045938D01*
X166833361Y-140809047D01*
X166832640Y-141635328D01*
X161649456Y-141635328D01*
X161368492Y-141341840D01*
X161325387Y-141311658D01*
X160845748Y-141100622D01*
X160321860Y-141089201D01*
X159833480Y-141279131D01*
X159814120Y-141297664D01*
X159838766Y-141238311D01*
X159839233Y-140704033D01*
X159635204Y-140210245D01*
X159257742Y-139832124D01*
X158764311Y-139627234D01*
X158230033Y-139626767D01*
X157736245Y-139830796D01*
X157358124Y-140208258D01*
X157153234Y-140701689D01*
X157152767Y-141235967D01*
X155711375Y-141235967D01*
X155146696Y-140832625D01*
X155115130Y-140818381D01*
X155086336Y-140799141D01*
X155061582Y-140794217D01*
X155038579Y-140783837D01*
X155003968Y-140782757D01*
X154970000Y-140776000D01*
X150364957Y-140776000D01*
X150447881Y-140720592D01*
X150705971Y-140334334D01*
X150796600Y-139878711D01*
X150796600Y-139521289D01*
X150705971Y-139065666D01*
X150447881Y-138679408D01*
X150061623Y-138421318D01*
X149606000Y-138330689D01*
X149150377Y-138421318D01*
X148764119Y-138679408D01*
X148506029Y-139065666D01*
X148415400Y-139521289D01*
X148415400Y-139878711D01*
X148506029Y-140334334D01*
X148764119Y-140720592D01*
X148847043Y-140776000D01*
X147888084Y-140776000D01*
X147928104Y-140750425D01*
X148206140Y-140352154D01*
X148310600Y-139877800D01*
X148310600Y-139725400D01*
X147091400Y-139725400D01*
X147091400Y-139745400D01*
X147040600Y-139745400D01*
X147040600Y-139725400D01*
X145821400Y-139725400D01*
X145821400Y-139877800D01*
X145925860Y-140352154D01*
X146203896Y-140750425D01*
X146243916Y-140776000D01*
X145284957Y-140776000D01*
X145367881Y-140720592D01*
X145625971Y-140334334D01*
X145716600Y-139878711D01*
X145716600Y-139522200D01*
X145821400Y-139522200D01*
X145821400Y-139674600D01*
X147040600Y-139674600D01*
X147040600Y-138398531D01*
X147091400Y-138398531D01*
X147091400Y-139674600D01*
X148310600Y-139674600D01*
X148310600Y-139522200D01*
X148206140Y-139047846D01*
X147928104Y-138649575D01*
X147518821Y-138388020D01*
X147285745Y-138322552D01*
X147091400Y-138398531D01*
X147040600Y-138398531D01*
X146846255Y-138322552D01*
X146613179Y-138388020D01*
X146203896Y-138649575D01*
X145925860Y-139047846D01*
X145821400Y-139522200D01*
X145716600Y-139522200D01*
X145716600Y-139521289D01*
X145625971Y-139065666D01*
X145367881Y-138679408D01*
X145096888Y-138498336D01*
X154243612Y-129351612D01*
X154341594Y-129204973D01*
X154376000Y-129032000D01*
X154376000Y-123601328D01*
X166832640Y-123601328D01*
X167148178Y-124364989D01*
X167731938Y-124949768D01*
X168495047Y-125266639D01*
X169321328Y-125267360D01*
X170084989Y-124951822D01*
X170669768Y-124368062D01*
X170986639Y-123604953D01*
X170987360Y-122778672D01*
X170671822Y-122015011D01*
X170088062Y-121430232D01*
X169324953Y-121113361D01*
X168498672Y-121112640D01*
X167735011Y-121428178D01*
X167150232Y-122011938D01*
X166833361Y-122775047D01*
X166832640Y-123601328D01*
X154376000Y-123601328D01*
X154376000Y-120068728D01*
X154455235Y-119989631D01*
X154550891Y-119759265D01*
X154551109Y-119509829D01*
X154455855Y-119279297D01*
X154279631Y-119102765D01*
X154049265Y-119007109D01*
X153799829Y-119006891D01*
X153614000Y-119083674D01*
X153614000Y-118290728D01*
X153693235Y-118211631D01*
X153788891Y-117981265D01*
X153789109Y-117731829D01*
X153693855Y-117501297D01*
X153517631Y-117324765D01*
X153287265Y-117229109D01*
X153037829Y-117228891D01*
X152852000Y-117305674D01*
X152852000Y-112014000D01*
X152817594Y-111841027D01*
X152719612Y-111694388D01*
X146756000Y-105730776D01*
X146756000Y-104574728D01*
X146835235Y-104495631D01*
X146930891Y-104265265D01*
X146931109Y-104015829D01*
X146835855Y-103785297D01*
X146659631Y-103608765D01*
X146564119Y-103569105D01*
X149666594Y-100466630D01*
X149666594Y-102067000D01*
X149691973Y-102194589D01*
X149764246Y-102302754D01*
X149872411Y-102375027D01*
X150000000Y-102400406D01*
X150098000Y-102400406D01*
X150098000Y-106133594D01*
X150000000Y-106133594D01*
X149872411Y-106158973D01*
X149764246Y-106231246D01*
X149691973Y-106339411D01*
X149666594Y-106467000D01*
X149666594Y-108267000D01*
X149691973Y-108394589D01*
X149764246Y-108502754D01*
X149872411Y-108575027D01*
X150000000Y-108600406D01*
X151100000Y-108600406D01*
X151227589Y-108575027D01*
X151335754Y-108502754D01*
X151408027Y-108394589D01*
X151433406Y-108267000D01*
X151433406Y-107487650D01*
X153319000Y-107487650D01*
X153319000Y-108342786D01*
X153377004Y-108482820D01*
X153484181Y-108589996D01*
X153624215Y-108648000D01*
X154129350Y-108648000D01*
X154224600Y-108552750D01*
X154224600Y-107392400D01*
X154275400Y-107392400D01*
X154275400Y-108552750D01*
X154370650Y-108648000D01*
X154875785Y-108648000D01*
X155015819Y-108589996D01*
X155122996Y-108482820D01*
X155181000Y-108342786D01*
X155181000Y-107487650D01*
X155085750Y-107392400D01*
X154275400Y-107392400D01*
X154224600Y-107392400D01*
X153414250Y-107392400D01*
X153319000Y-107487650D01*
X151433406Y-107487650D01*
X151433406Y-106467000D01*
X151418332Y-106391214D01*
X153319000Y-106391214D01*
X153319000Y-107246350D01*
X153414250Y-107341600D01*
X154224600Y-107341600D01*
X154224600Y-106181250D01*
X154275400Y-106181250D01*
X154275400Y-107341600D01*
X155085750Y-107341600D01*
X155181000Y-107246350D01*
X155181000Y-106391214D01*
X155122996Y-106251180D01*
X155015819Y-106144004D01*
X154875785Y-106086000D01*
X154370650Y-106086000D01*
X154275400Y-106181250D01*
X154224600Y-106181250D01*
X154129350Y-106086000D01*
X153624215Y-106086000D01*
X153484181Y-106144004D01*
X153377004Y-106251180D01*
X153319000Y-106391214D01*
X151418332Y-106391214D01*
X151408027Y-106339411D01*
X151335754Y-106231246D01*
X151227589Y-106158973D01*
X151100000Y-106133594D01*
X151002000Y-106133594D01*
X151002000Y-102400406D01*
X151100000Y-102400406D01*
X151227589Y-102375027D01*
X151335754Y-102302754D01*
X151408027Y-102194589D01*
X151433406Y-102067000D01*
X151433406Y-101594254D01*
X151481973Y-101584594D01*
X151628612Y-101486612D01*
X151827574Y-101287650D01*
X153319000Y-101287650D01*
X153319000Y-102142786D01*
X153377004Y-102282820D01*
X153484181Y-102389996D01*
X153624215Y-102448000D01*
X154129350Y-102448000D01*
X154224600Y-102352750D01*
X154224600Y-101192400D01*
X154275400Y-101192400D01*
X154275400Y-102352750D01*
X154370650Y-102448000D01*
X154875785Y-102448000D01*
X155015819Y-102389996D01*
X155122996Y-102282820D01*
X155181000Y-102142786D01*
X155181000Y-101287650D01*
X155085750Y-101192400D01*
X154275400Y-101192400D01*
X154224600Y-101192400D01*
X153414250Y-101192400D01*
X153319000Y-101287650D01*
X151827574Y-101287650D01*
X151904213Y-101211011D01*
X152016171Y-101211109D01*
X152246703Y-101115855D01*
X152423235Y-100939631D01*
X152518891Y-100709265D01*
X152519109Y-100459829D01*
X152423855Y-100229297D01*
X152385839Y-100191214D01*
X153319000Y-100191214D01*
X153319000Y-101046350D01*
X153414250Y-101141600D01*
X154224600Y-101141600D01*
X154224600Y-99981250D01*
X154275400Y-99981250D01*
X154275400Y-101141600D01*
X155085750Y-101141600D01*
X155181000Y-101046350D01*
X155181000Y-100191214D01*
X155122996Y-100051180D01*
X155015819Y-99944004D01*
X154875785Y-99886000D01*
X154370650Y-99886000D01*
X154275400Y-99981250D01*
X154224600Y-99981250D01*
X154129350Y-99886000D01*
X153624215Y-99886000D01*
X153484181Y-99944004D01*
X153377004Y-100051180D01*
X153319000Y-100191214D01*
X152385839Y-100191214D01*
X152247631Y-100052765D01*
X152017265Y-99957109D01*
X151767829Y-99956891D01*
X151537297Y-100052145D01*
X151414960Y-100174268D01*
X151408027Y-100139411D01*
X151335754Y-100031246D01*
X151227589Y-99958973D01*
X151100000Y-99933594D01*
X150199630Y-99933594D01*
X150364818Y-99768406D01*
X151034000Y-99768406D01*
X151161589Y-99743027D01*
X151269754Y-99670754D01*
X151342027Y-99562589D01*
X151353000Y-99507424D01*
X151353000Y-99510785D01*
X151411004Y-99650819D01*
X151518180Y-99757996D01*
X151658214Y-99816000D01*
X152213350Y-99816000D01*
X152308600Y-99720750D01*
X152308600Y-99085400D01*
X152359400Y-99085400D01*
X152359400Y-99720750D01*
X152454650Y-99816000D01*
X153009786Y-99816000D01*
X153149820Y-99757996D01*
X153256996Y-99650819D01*
X153315000Y-99510785D01*
X153315000Y-99180650D01*
X153219750Y-99085400D01*
X152359400Y-99085400D01*
X152308600Y-99085400D01*
X152288600Y-99085400D01*
X152288600Y-99034600D01*
X152308600Y-99034600D01*
X152308600Y-98399250D01*
X152359400Y-98399250D01*
X152359400Y-99034600D01*
X153219750Y-99034600D01*
X153315000Y-98939350D01*
X153315000Y-98609215D01*
X153256996Y-98469181D01*
X153149820Y-98362004D01*
X153009786Y-98304000D01*
X152454650Y-98304000D01*
X152359400Y-98399250D01*
X152308600Y-98399250D01*
X152213350Y-98304000D01*
X151658214Y-98304000D01*
X151518180Y-98362004D01*
X151411004Y-98469181D01*
X151353000Y-98609215D01*
X151353000Y-98612576D01*
X151342027Y-98557411D01*
X151269754Y-98449246D01*
X151161589Y-98376973D01*
X151034000Y-98351594D01*
X149834000Y-98351594D01*
X149706411Y-98376973D01*
X149619961Y-98434736D01*
X149169224Y-97984000D01*
X149515115Y-97984000D01*
X149525973Y-98038589D01*
X149598246Y-98146754D01*
X149706411Y-98219027D01*
X149834000Y-98244406D01*
X151034000Y-98244406D01*
X151161589Y-98219027D01*
X151269754Y-98146754D01*
X151342027Y-98038589D01*
X151353000Y-97983424D01*
X151353000Y-97986785D01*
X151411004Y-98126819D01*
X151518180Y-98233996D01*
X151658214Y-98292000D01*
X152213350Y-98292000D01*
X152308600Y-98196750D01*
X152308600Y-97561400D01*
X152359400Y-97561400D01*
X152359400Y-98196750D01*
X152454650Y-98292000D01*
X153009786Y-98292000D01*
X153149820Y-98233996D01*
X153256996Y-98126819D01*
X153315000Y-97986785D01*
X153315000Y-97656650D01*
X153219750Y-97561400D01*
X152359400Y-97561400D01*
X152308600Y-97561400D01*
X152288600Y-97561400D01*
X152288600Y-97510600D01*
X152308600Y-97510600D01*
X152308600Y-96875250D01*
X152359400Y-96875250D01*
X152359400Y-97510600D01*
X153219750Y-97510600D01*
X153315000Y-97415350D01*
X153315000Y-97085215D01*
X153256996Y-96945181D01*
X153149820Y-96838004D01*
X153009786Y-96780000D01*
X152454650Y-96780000D01*
X152359400Y-96875250D01*
X152308600Y-96875250D01*
X152213350Y-96780000D01*
X151658214Y-96780000D01*
X151518180Y-96838004D01*
X151411004Y-96945181D01*
X151353000Y-97085215D01*
X151353000Y-97088576D01*
X151342027Y-97033411D01*
X151269754Y-96925246D01*
X151161589Y-96852973D01*
X151034000Y-96827594D01*
X149834000Y-96827594D01*
X149706411Y-96852973D01*
X149598246Y-96925246D01*
X149525973Y-97033411D01*
X149516706Y-97080000D01*
X149177224Y-97080000D01*
X149619961Y-96637263D01*
X149706411Y-96695027D01*
X149834000Y-96720406D01*
X151034000Y-96720406D01*
X151161589Y-96695027D01*
X151269754Y-96622754D01*
X151342027Y-96514589D01*
X151353000Y-96459424D01*
X151353000Y-96462785D01*
X151411004Y-96602819D01*
X151518180Y-96709996D01*
X151658214Y-96768000D01*
X152213350Y-96768000D01*
X152308600Y-96672750D01*
X152308600Y-96037400D01*
X152359400Y-96037400D01*
X152359400Y-96672750D01*
X152454650Y-96768000D01*
X153009786Y-96768000D01*
X153149820Y-96709996D01*
X153256996Y-96602819D01*
X153315000Y-96462785D01*
X153315000Y-96132650D01*
X153219750Y-96037400D01*
X152359400Y-96037400D01*
X152308600Y-96037400D01*
X152288600Y-96037400D01*
X152288600Y-95986600D01*
X152308600Y-95986600D01*
X152308600Y-95351250D01*
X152359400Y-95351250D01*
X152359400Y-95986600D01*
X153219750Y-95986600D01*
X153315000Y-95891350D01*
X153315000Y-95561215D01*
X153256996Y-95421181D01*
X153149820Y-95314004D01*
X153009786Y-95256000D01*
X152454650Y-95256000D01*
X152359400Y-95351250D01*
X152308600Y-95351250D01*
X152213350Y-95256000D01*
X151658214Y-95256000D01*
X151518180Y-95314004D01*
X151411004Y-95421181D01*
X151353000Y-95561215D01*
X151353000Y-95564576D01*
X151342027Y-95509411D01*
X151269754Y-95401246D01*
X151161589Y-95328973D01*
X151034000Y-95303594D01*
X150736000Y-95303594D01*
X150736000Y-95196406D01*
X151034000Y-95196406D01*
X151161589Y-95171027D01*
X151269754Y-95098754D01*
X151342027Y-94990589D01*
X151367406Y-94863000D01*
X151367406Y-94113000D01*
X151342027Y-93985411D01*
X151269754Y-93877246D01*
X151161589Y-93804973D01*
X151034000Y-93779594D01*
X149834000Y-93779594D01*
X149706411Y-93804973D01*
X149598246Y-93877246D01*
X149525973Y-93985411D01*
X149515910Y-94036000D01*
X149352000Y-94036000D01*
X149179027Y-94070406D01*
X149112270Y-94115012D01*
X148973829Y-94114891D01*
X148743297Y-94210145D01*
X148566765Y-94386369D01*
X148471109Y-94616735D01*
X148470891Y-94866171D01*
X148566145Y-95096703D01*
X148742369Y-95273235D01*
X148972735Y-95368891D01*
X149222171Y-95369109D01*
X149452703Y-95273855D01*
X149616136Y-95110707D01*
X149706411Y-95171027D01*
X149832000Y-95196008D01*
X149832000Y-95303992D01*
X149706411Y-95328973D01*
X149598246Y-95401246D01*
X149525973Y-95509411D01*
X149512199Y-95578658D01*
X149433027Y-95594406D01*
X149286388Y-95692388D01*
X148398776Y-96580000D01*
X146278350Y-96580000D01*
X146255750Y-96557400D01*
X145345400Y-96557400D01*
X145345400Y-96573594D01*
X145294600Y-96573594D01*
X145294600Y-96557400D01*
X144384250Y-96557400D01*
X144289000Y-96652650D01*
X144289000Y-96732785D01*
X144344565Y-96866930D01*
X144336594Y-96907000D01*
X144336594Y-97128059D01*
X144210387Y-97212388D01*
X143698388Y-97724388D01*
X143600406Y-97871027D01*
X143566000Y-98044000D01*
X143566000Y-99746776D01*
X141543612Y-97724388D01*
X141396973Y-97626406D01*
X141224000Y-97592000D01*
X141150728Y-97592000D01*
X141071631Y-97512765D01*
X140841265Y-97417109D01*
X140591829Y-97416891D01*
X140361297Y-97512145D01*
X140184765Y-97688369D01*
X140089109Y-97918735D01*
X140088891Y-98168171D01*
X140093324Y-98178899D01*
X140083829Y-98178891D01*
X139853297Y-98274145D01*
X139676765Y-98450369D01*
X139617740Y-98592516D01*
X138628000Y-97602776D01*
X138628000Y-94488000D01*
X138593594Y-94315027D01*
X138552817Y-94254000D01*
X138495612Y-94168387D01*
X138242631Y-93915406D01*
X138345000Y-93915406D01*
X138385070Y-93907435D01*
X138519215Y-93963000D01*
X138599350Y-93963000D01*
X138694600Y-93867750D01*
X138694600Y-92957400D01*
X138678406Y-92957400D01*
X138678406Y-92906600D01*
X138694600Y-92906600D01*
X138694600Y-91996250D01*
X138599350Y-91901000D01*
X138519215Y-91901000D01*
X138385070Y-91956565D01*
X138345000Y-91948594D01*
X138095000Y-91948594D01*
X137967411Y-91973973D01*
X137878235Y-92033558D01*
X137769631Y-91924765D01*
X137539265Y-91829109D01*
X137289829Y-91828891D01*
X137059297Y-91924145D01*
X136882765Y-92100369D01*
X136787109Y-92330735D01*
X136786927Y-92538838D01*
X136652000Y-92512000D01*
X132424090Y-92512000D01*
X132414027Y-92461411D01*
X132341754Y-92353246D01*
X132233589Y-92280973D01*
X132106000Y-92255594D01*
X130906000Y-92255594D01*
X130778411Y-92280973D01*
X130670246Y-92353246D01*
X130597973Y-92461411D01*
X130587000Y-92516576D01*
X130587000Y-92513215D01*
X130528996Y-92373181D01*
X130421820Y-92266004D01*
X130281786Y-92208000D01*
X129726650Y-92208000D01*
X129631400Y-92303250D01*
X129631400Y-92938600D01*
X129651400Y-92938600D01*
X129651400Y-92989400D01*
X129631400Y-92989400D01*
X129631400Y-93624750D01*
X129726650Y-93720000D01*
X130281786Y-93720000D01*
X130421820Y-93661996D01*
X130528996Y-93554819D01*
X130587000Y-93414785D01*
X130587000Y-93411424D01*
X130597973Y-93466589D01*
X130670246Y-93574754D01*
X130778411Y-93647027D01*
X130906000Y-93672406D01*
X132106000Y-93672406D01*
X132233589Y-93647027D01*
X132341754Y-93574754D01*
X132414027Y-93466589D01*
X132424090Y-93416000D01*
X136464776Y-93416000D01*
X137122369Y-94073594D01*
X135970000Y-94073594D01*
X135937795Y-94080000D01*
X132432842Y-94080000D01*
X132414027Y-93985411D01*
X132341754Y-93877246D01*
X132233589Y-93804973D01*
X132106000Y-93779594D01*
X130906000Y-93779594D01*
X130778411Y-93804973D01*
X130670246Y-93877246D01*
X130597973Y-93985411D01*
X130572594Y-94113000D01*
X130572594Y-94863000D01*
X130597973Y-94990589D01*
X130670246Y-95098754D01*
X130778411Y-95171027D01*
X130906000Y-95196406D01*
X132106000Y-95196406D01*
X132233589Y-95171027D01*
X132341754Y-95098754D01*
X132414027Y-94990589D01*
X132415338Y-94984000D01*
X135636594Y-94984000D01*
X135636594Y-95157000D01*
X135661458Y-95282000D01*
X135636594Y-95407000D01*
X135636594Y-95657000D01*
X135661458Y-95782000D01*
X135636594Y-95907000D01*
X135636594Y-96157000D01*
X135661458Y-96282000D01*
X135636594Y-96407000D01*
X135636594Y-96657000D01*
X135661458Y-96782000D01*
X135636594Y-96907000D01*
X135636594Y-97157000D01*
X135661458Y-97282000D01*
X135636594Y-97407000D01*
X135636594Y-97657000D01*
X135661458Y-97782000D01*
X135636594Y-97907000D01*
X135636594Y-98129998D01*
X134844002Y-98129998D01*
X134671029Y-98164404D01*
X134524390Y-98262386D01*
X134178776Y-98608000D01*
X132424090Y-98608000D01*
X132414027Y-98557411D01*
X132341754Y-98449246D01*
X132233589Y-98376973D01*
X132106000Y-98351594D01*
X130906000Y-98351594D01*
X130778411Y-98376973D01*
X130670246Y-98449246D01*
X130597973Y-98557411D01*
X130587000Y-98612576D01*
X130587000Y-98609215D01*
X130528996Y-98469181D01*
X130421820Y-98362004D01*
X130281786Y-98304000D01*
X129726650Y-98304000D01*
X129631400Y-98399250D01*
X129631400Y-99034600D01*
X129651400Y-99034600D01*
X129651400Y-99085400D01*
X129631400Y-99085400D01*
X129631400Y-99720750D01*
X129726650Y-99816000D01*
X130281786Y-99816000D01*
X130421820Y-99757996D01*
X130528996Y-99650819D01*
X130587000Y-99510785D01*
X130587000Y-99507424D01*
X130597973Y-99562589D01*
X130670246Y-99670754D01*
X130778411Y-99743027D01*
X130906000Y-99768406D01*
X131204000Y-99768406D01*
X131204000Y-99933594D01*
X130840000Y-99933594D01*
X130712411Y-99958973D01*
X130604246Y-100031246D01*
X130531973Y-100139411D01*
X130506594Y-100267000D01*
X130506594Y-102067000D01*
X130531973Y-102194589D01*
X130604246Y-102302754D01*
X130712411Y-102375027D01*
X130840000Y-102400406D01*
X130938000Y-102400406D01*
X130938000Y-106133594D01*
X130840000Y-106133594D01*
X130712411Y-106158973D01*
X130604246Y-106231246D01*
X130531973Y-106339411D01*
X130506594Y-106467000D01*
X130506594Y-108267000D01*
X130531973Y-108394589D01*
X130604246Y-108502754D01*
X130712411Y-108575027D01*
X130840000Y-108600406D01*
X131940000Y-108600406D01*
X132067589Y-108575027D01*
X132175754Y-108502754D01*
X132248027Y-108394589D01*
X132273406Y-108267000D01*
X132273406Y-106467000D01*
X132248027Y-106339411D01*
X132175754Y-106231246D01*
X132067589Y-106158973D01*
X131940000Y-106133594D01*
X131842000Y-106133594D01*
X131842000Y-102400406D01*
X131940000Y-102400406D01*
X132067589Y-102375027D01*
X132175754Y-102302754D01*
X132248027Y-102194589D01*
X132273406Y-102067000D01*
X132273406Y-100267000D01*
X132248027Y-100139411D01*
X132175754Y-100031246D01*
X132108000Y-99985975D01*
X132108000Y-99768008D01*
X132233589Y-99743027D01*
X132341754Y-99670754D01*
X132353850Y-99652650D01*
X135589000Y-99652650D01*
X135589000Y-99732785D01*
X135644565Y-99866930D01*
X135636594Y-99907000D01*
X135636594Y-100157000D01*
X135661973Y-100284589D01*
X135734246Y-100392754D01*
X135842411Y-100465027D01*
X135970000Y-100490406D01*
X136168000Y-100490406D01*
X136168000Y-100508619D01*
X136043297Y-100560145D01*
X135866765Y-100736369D01*
X135771109Y-100966735D01*
X135770891Y-101216171D01*
X135866145Y-101446703D01*
X136042369Y-101623235D01*
X136272735Y-101718891D01*
X136522171Y-101719109D01*
X136752703Y-101623855D01*
X136929235Y-101447631D01*
X137024891Y-101217265D01*
X137025027Y-101061781D01*
X137037594Y-101042973D01*
X137038981Y-101035999D01*
X137072000Y-100870000D01*
X137072000Y-100490406D01*
X137270000Y-100490406D01*
X137397589Y-100465027D01*
X137505754Y-100392754D01*
X137578027Y-100284589D01*
X137603406Y-100157000D01*
X137603406Y-99907000D01*
X137595435Y-99866930D01*
X137651000Y-99732785D01*
X137651000Y-99652650D01*
X137555750Y-99557400D01*
X136645400Y-99557400D01*
X136645400Y-99573594D01*
X136594600Y-99573594D01*
X136594600Y-99557400D01*
X135684250Y-99557400D01*
X135589000Y-99652650D01*
X132353850Y-99652650D01*
X132414027Y-99562589D01*
X132424090Y-99512000D01*
X134366000Y-99512000D01*
X134538973Y-99477594D01*
X134685612Y-99379612D01*
X135031226Y-99033998D01*
X135636594Y-99033998D01*
X135636594Y-99157000D01*
X135644565Y-99197070D01*
X135589000Y-99331215D01*
X135589000Y-99411350D01*
X135684250Y-99506600D01*
X136594600Y-99506600D01*
X136594600Y-99490406D01*
X136645400Y-99490406D01*
X136645400Y-99506600D01*
X137555750Y-99506600D01*
X137578350Y-99484000D01*
X137713321Y-99484000D01*
X137820369Y-99591235D01*
X138050735Y-99686891D01*
X138300171Y-99687109D01*
X138530703Y-99591855D01*
X138707235Y-99415631D01*
X138802891Y-99185265D01*
X138803004Y-99056228D01*
X139624776Y-99878000D01*
X138430000Y-99878000D01*
X138257027Y-99912406D01*
X138110388Y-100010388D01*
X137900388Y-100220388D01*
X137802406Y-100367027D01*
X137768000Y-100540000D01*
X137768000Y-100949795D01*
X137761594Y-100982000D01*
X137761594Y-102282000D01*
X137786973Y-102409589D01*
X137859246Y-102517754D01*
X137967411Y-102590027D01*
X138059141Y-102608273D01*
X137898765Y-102768369D01*
X137803109Y-102998735D01*
X137802891Y-103248171D01*
X137898145Y-103478703D01*
X138074369Y-103655235D01*
X138304735Y-103750891D01*
X138554171Y-103751109D01*
X138564899Y-103746676D01*
X138564891Y-103756171D01*
X138660145Y-103986703D01*
X138836369Y-104163235D01*
X139066735Y-104258891D01*
X139316171Y-104259109D01*
X139546703Y-104163855D01*
X139723235Y-103987631D01*
X139818891Y-103757265D01*
X139818900Y-103746807D01*
X139828735Y-103750891D01*
X140078171Y-103751109D01*
X140308703Y-103655855D01*
X140345362Y-103619260D01*
X140400388Y-103701612D01*
X140596989Y-103898213D01*
X140596891Y-104010171D01*
X140692145Y-104240703D01*
X140868369Y-104417235D01*
X141098735Y-104512891D01*
X141348171Y-104513109D01*
X141578703Y-104417855D01*
X141755235Y-104241631D01*
X141850891Y-104011265D01*
X141851109Y-103761829D01*
X141843660Y-103743801D01*
X141860735Y-103750891D01*
X142110171Y-103751109D01*
X142340703Y-103655855D01*
X142366811Y-103629792D01*
X142370373Y-103636469D01*
X142387832Y-103650820D01*
X142400388Y-103669612D01*
X142455452Y-103706405D01*
X142461247Y-103711169D01*
X142470145Y-103732703D01*
X142646369Y-103909235D01*
X142876735Y-104004891D01*
X143126171Y-104005109D01*
X143356703Y-103909855D01*
X143533235Y-103733631D01*
X143628891Y-103503265D01*
X143629109Y-103253829D01*
X143533855Y-103023297D01*
X143357631Y-102846765D01*
X143172000Y-102769685D01*
X143172000Y-102590350D01*
X143194600Y-102567750D01*
X143194600Y-101657400D01*
X143178406Y-101657400D01*
X143178406Y-101606600D01*
X143194600Y-101606600D01*
X143194600Y-101586600D01*
X143245400Y-101586600D01*
X143245400Y-101606600D01*
X143261594Y-101606600D01*
X143261594Y-101657400D01*
X143245400Y-101657400D01*
X143245400Y-102567750D01*
X143340650Y-102663000D01*
X143420785Y-102663000D01*
X143554930Y-102607435D01*
X143595000Y-102615406D01*
X143845000Y-102615406D01*
X143972589Y-102590027D01*
X144080754Y-102517754D01*
X144153027Y-102409589D01*
X144178406Y-102282000D01*
X144178406Y-100982000D01*
X144172000Y-100949795D01*
X144172000Y-100869225D01*
X144206387Y-100903612D01*
X144353026Y-101001594D01*
X144381724Y-101007302D01*
X144526000Y-101036000D01*
X144592776Y-101036000D01*
X145790941Y-102234166D01*
X143860753Y-104147768D01*
X142935753Y-104022301D01*
X142901704Y-104024399D01*
X142868152Y-104018252D01*
X142814500Y-104029771D01*
X142759725Y-104033146D01*
X142729073Y-104048113D01*
X142695720Y-104055274D01*
X142650556Y-104086452D01*
X142601247Y-104110529D01*
X142578655Y-104136087D01*
X142550583Y-104155466D01*
X141032751Y-105720000D01*
X139821552Y-105720000D01*
X139754577Y-105383295D01*
X139467030Y-104952951D01*
X139036686Y-104665404D01*
X138529060Y-104564431D01*
X138021434Y-104665404D01*
X137591090Y-104952951D01*
X137303543Y-105383295D01*
X137202570Y-105890921D01*
X137202570Y-106453079D01*
X137303543Y-106960705D01*
X137591090Y-107391049D01*
X138021434Y-107678596D01*
X138529060Y-107779569D01*
X139036686Y-107678596D01*
X139467030Y-107391049D01*
X139754577Y-106960705D01*
X139821552Y-106624000D01*
X141224000Y-106624000D01*
X141227419Y-106623320D01*
X141230848Y-106623948D01*
X141313793Y-106606139D01*
X141396973Y-106589594D01*
X141399870Y-106587658D01*
X141403280Y-106586926D01*
X141473128Y-106538708D01*
X141543612Y-106491612D01*
X141545547Y-106488716D01*
X141548418Y-106486734D01*
X142084450Y-105934208D01*
X142084450Y-106453079D01*
X142185423Y-106960705D01*
X142472970Y-107391049D01*
X142903314Y-107678596D01*
X143410940Y-107779569D01*
X143918566Y-107678596D01*
X144348910Y-107391049D01*
X144636457Y-106960705D01*
X144737430Y-106453079D01*
X144737430Y-105890921D01*
X144655283Y-105477941D01*
X145733076Y-104400148D01*
X145772145Y-104494703D01*
X145852000Y-104574698D01*
X145852000Y-105918000D01*
X145886406Y-106090973D01*
X145984388Y-106237612D01*
X151948000Y-112201224D01*
X151948000Y-121389094D01*
X151915855Y-121311297D01*
X151739631Y-121134765D01*
X151509265Y-121039109D01*
X151259829Y-121038891D01*
X151029297Y-121134145D01*
X150852765Y-121310369D01*
X150757109Y-121540735D01*
X150756891Y-121790171D01*
X150852145Y-122020703D01*
X150932000Y-122100698D01*
X150932000Y-125796776D01*
X143274339Y-133454437D01*
X143091855Y-133378662D01*
X143378244Y-133267099D01*
X143427950Y-133233885D01*
X143531159Y-133026080D01*
X142621000Y-132115921D01*
X141710841Y-133026080D01*
X141814050Y-133233885D01*
X142146864Y-133380094D01*
X141870297Y-133494369D01*
X141571145Y-133793000D01*
X140550555Y-133793000D01*
X139082874Y-132325319D01*
X141234480Y-132325319D01*
X141433901Y-132837244D01*
X141467115Y-132886950D01*
X141674920Y-132990159D01*
X142585079Y-132080000D01*
X142656921Y-132080000D01*
X143567080Y-132990159D01*
X143774885Y-132886950D01*
X143995857Y-132383953D01*
X144007520Y-131834681D01*
X143808099Y-131322756D01*
X143774885Y-131273050D01*
X143567080Y-131169841D01*
X142656921Y-132080000D01*
X142585079Y-132080000D01*
X141674920Y-131169841D01*
X141467115Y-131273050D01*
X141246143Y-131776047D01*
X141234480Y-132325319D01*
X139082874Y-132325319D01*
X135297555Y-128540000D01*
X141287594Y-128540000D01*
X141287594Y-130540000D01*
X141312973Y-130667589D01*
X141385246Y-130775754D01*
X141493411Y-130848027D01*
X141621000Y-130873406D01*
X141913801Y-130873406D01*
X141863756Y-130892901D01*
X141814050Y-130926115D01*
X141710841Y-131133920D01*
X142621000Y-132044079D01*
X143531159Y-131133920D01*
X143427950Y-130926115D01*
X143307969Y-130873406D01*
X143621000Y-130873406D01*
X143748589Y-130848027D01*
X143856754Y-130775754D01*
X143929027Y-130667589D01*
X143954406Y-130540000D01*
X143954406Y-128540000D01*
X143929027Y-128412411D01*
X143856754Y-128304246D01*
X143748589Y-128231973D01*
X143621000Y-128206594D01*
X141621000Y-128206594D01*
X141493411Y-128231973D01*
X141385246Y-128304246D01*
X141312973Y-128412411D01*
X141287594Y-128540000D01*
X135297555Y-128540000D01*
X126568777Y-119811223D01*
X126300479Y-119631952D01*
X125984000Y-119569000D01*
X119468555Y-119569000D01*
X119318000Y-119418446D01*
X119318000Y-119167903D01*
X119440644Y-119085955D01*
X119731770Y-118650255D01*
X119834000Y-118136311D01*
X119834000Y-118083689D01*
X119731770Y-117569745D01*
X119440644Y-117134045D01*
X119190644Y-116967000D01*
X119582785Y-116967000D01*
X119722819Y-116908996D01*
X119829996Y-116801820D01*
X119888000Y-116661786D01*
X119888000Y-115690650D01*
X119792750Y-115595400D01*
X118516400Y-115595400D01*
X118516400Y-115615400D01*
X118465600Y-115615400D01*
X118465600Y-115595400D01*
X117189250Y-115595400D01*
X117094000Y-115690650D01*
X117094000Y-116661786D01*
X117152004Y-116801820D01*
X117259181Y-116908996D01*
X117399215Y-116967000D01*
X117791356Y-116967000D01*
X117541356Y-117134045D01*
X117250230Y-117569745D01*
X117148000Y-118083689D01*
X117148000Y-118136311D01*
X117250230Y-118650255D01*
X117541356Y-119085955D01*
X117664000Y-119167903D01*
X117664000Y-119761000D01*
X117726952Y-120077479D01*
X117906223Y-120345777D01*
X118541223Y-120980778D01*
X118738570Y-121112640D01*
X118809521Y-121160048D01*
X119126000Y-121223000D01*
X125641446Y-121223000D01*
X139623223Y-135204778D01*
X139891521Y-135384048D01*
X140208000Y-135447000D01*
X141571533Y-135447000D01*
X141816106Y-135692000D01*
X137922000Y-135692000D01*
X137749027Y-135726406D01*
X137602387Y-135824388D01*
X134931824Y-138494952D01*
X134821623Y-138421318D01*
X134366000Y-138330689D01*
X133910377Y-138421318D01*
X133524119Y-138679408D01*
X133266029Y-139065666D01*
X133175400Y-139521289D01*
X133175400Y-139878711D01*
X133266029Y-140334334D01*
X133524119Y-140720592D01*
X133607043Y-140776000D01*
X133070600Y-140776000D01*
X133070600Y-139820650D01*
X132975350Y-139725400D01*
X131851400Y-139725400D01*
X131851400Y-139745400D01*
X131800600Y-139745400D01*
X131800600Y-139725400D01*
X130676650Y-139725400D01*
X130581400Y-139820650D01*
X130581400Y-140776000D01*
X126970000Y-140776000D01*
X126936032Y-140782757D01*
X126901420Y-140783837D01*
X126878417Y-140794217D01*
X126853664Y-140799141D01*
X126824872Y-140818380D01*
X126793303Y-140832625D01*
X121272579Y-144776000D01*
X109274000Y-144776000D01*
X109274000Y-141635328D01*
X110952640Y-141635328D01*
X111268178Y-142398989D01*
X111851938Y-142983768D01*
X112615047Y-143300639D01*
X113441328Y-143301360D01*
X114204989Y-142985822D01*
X114685681Y-142505967D01*
X120322767Y-142505967D01*
X120526796Y-142999755D01*
X120904258Y-143377876D01*
X121397689Y-143582766D01*
X121931967Y-143583233D01*
X122425755Y-143379204D01*
X122803876Y-143001742D01*
X123008766Y-142508311D01*
X123009233Y-141974033D01*
X122983491Y-141911733D01*
X123003480Y-141930869D01*
X123491860Y-142120799D01*
X124015748Y-142109378D01*
X124495387Y-141898342D01*
X124538492Y-141868160D01*
X124900861Y-141489638D01*
X125090791Y-141001258D01*
X125079370Y-140477370D01*
X124868334Y-139997732D01*
X124489812Y-139635363D01*
X124001432Y-139445433D01*
X123477544Y-139456854D01*
X122997905Y-139667890D01*
X122954799Y-139698072D01*
X122592431Y-140076594D01*
X122402501Y-140564974D01*
X122413922Y-141088862D01*
X122417972Y-141098067D01*
X121934311Y-140897234D01*
X121400033Y-140896767D01*
X120906245Y-141100796D01*
X120528124Y-141478258D01*
X120323234Y-141971689D01*
X120322767Y-142505967D01*
X114685681Y-142505967D01*
X114789768Y-142402062D01*
X115106639Y-141638953D01*
X115107360Y-140812672D01*
X114791822Y-140049011D01*
X114208062Y-139464232D01*
X113444953Y-139147361D01*
X112618672Y-139146640D01*
X111855011Y-139462178D01*
X111270232Y-140045938D01*
X110953361Y-140809047D01*
X110952640Y-141635328D01*
X109274000Y-141635328D01*
X109274000Y-138608215D01*
X130581400Y-138608215D01*
X130581400Y-139579350D01*
X130676650Y-139674600D01*
X131800600Y-139674600D01*
X131800600Y-138398250D01*
X131851400Y-138398250D01*
X131851400Y-139674600D01*
X132975350Y-139674600D01*
X133070600Y-139579350D01*
X133070600Y-138608215D01*
X133012596Y-138468181D01*
X132905420Y-138361004D01*
X132765386Y-138303000D01*
X131946650Y-138303000D01*
X131851400Y-138398250D01*
X131800600Y-138398250D01*
X131705350Y-138303000D01*
X130886614Y-138303000D01*
X130746580Y-138361004D01*
X130639404Y-138468181D01*
X130581400Y-138608215D01*
X109274000Y-138608215D01*
X109274000Y-123601328D01*
X110952640Y-123601328D01*
X111268178Y-124364989D01*
X111851938Y-124949768D01*
X112615047Y-125266639D01*
X113441328Y-125267360D01*
X114204989Y-124951822D01*
X114789768Y-124368062D01*
X115106639Y-123604953D01*
X115107360Y-122778672D01*
X114791822Y-122015011D01*
X114208062Y-121430232D01*
X113444953Y-121113361D01*
X112618672Y-121112640D01*
X111855011Y-121428178D01*
X111270232Y-122011938D01*
X110953361Y-122775047D01*
X110952640Y-123601328D01*
X109274000Y-123601328D01*
X109274000Y-119236444D01*
X115935522Y-114478214D01*
X117094000Y-114478214D01*
X117094000Y-115449350D01*
X117189250Y-115544600D01*
X118465600Y-115544600D01*
X118465600Y-114268250D01*
X118516400Y-114268250D01*
X118516400Y-115544600D01*
X119792750Y-115544600D01*
X119888000Y-115449350D01*
X119888000Y-114478214D01*
X119829996Y-114338180D01*
X119722819Y-114231004D01*
X119582785Y-114173000D01*
X118611650Y-114173000D01*
X118516400Y-114268250D01*
X118465600Y-114268250D01*
X118370350Y-114173000D01*
X117399215Y-114173000D01*
X117259181Y-114231004D01*
X117152004Y-114338180D01*
X117094000Y-114478214D01*
X115935522Y-114478214D01*
X123146697Y-109327375D01*
X123149334Y-109324568D01*
X123152800Y-109322899D01*
X123189838Y-109281453D01*
X123227913Y-109240925D01*
X123229274Y-109237325D01*
X123231839Y-109234455D01*
X123250205Y-109181968D01*
X123269863Y-109129977D01*
X123269743Y-109126131D01*
X123271015Y-109122496D01*
X124521202Y-100267000D01*
X126806594Y-100267000D01*
X126806594Y-102067000D01*
X126831973Y-102194589D01*
X126904246Y-102302754D01*
X127012411Y-102375027D01*
X127140000Y-102400406D01*
X127238000Y-102400406D01*
X127238000Y-106133594D01*
X127140000Y-106133594D01*
X127012411Y-106158973D01*
X126904246Y-106231246D01*
X126831973Y-106339411D01*
X126806594Y-106467000D01*
X126806594Y-108267000D01*
X126831973Y-108394589D01*
X126904246Y-108502754D01*
X127012411Y-108575027D01*
X127140000Y-108600406D01*
X127238000Y-108600406D01*
X127238000Y-108640000D01*
X127272406Y-108812973D01*
X127370388Y-108959612D01*
X127896989Y-109486213D01*
X127896891Y-109598171D01*
X127992145Y-109828703D01*
X128168369Y-110005235D01*
X128398735Y-110100891D01*
X128648171Y-110101109D01*
X128878703Y-110005855D01*
X129055235Y-109829631D01*
X129150891Y-109599265D01*
X129151109Y-109349829D01*
X129055855Y-109119297D01*
X128879631Y-108942765D01*
X128649265Y-108847109D01*
X128536234Y-108847010D01*
X128281396Y-108592172D01*
X128367589Y-108575027D01*
X128475754Y-108502754D01*
X128548027Y-108394589D01*
X128573406Y-108267000D01*
X128573406Y-106467000D01*
X128548027Y-106339411D01*
X128475754Y-106231246D01*
X128367589Y-106158973D01*
X128240000Y-106133594D01*
X128142000Y-106133594D01*
X128142000Y-102400406D01*
X128240000Y-102400406D01*
X128367589Y-102375027D01*
X128475754Y-102302754D01*
X128548027Y-102194589D01*
X128573406Y-102067000D01*
X128573406Y-100267000D01*
X128548027Y-100139411D01*
X128475754Y-100031246D01*
X128367589Y-99958973D01*
X128240000Y-99933594D01*
X127140000Y-99933594D01*
X127012411Y-99958973D01*
X126904246Y-100031246D01*
X126831973Y-100139411D01*
X126806594Y-100267000D01*
X124521202Y-100267000D01*
X124674568Y-99180650D01*
X128625000Y-99180650D01*
X128625000Y-99510785D01*
X128683004Y-99650819D01*
X128790180Y-99757996D01*
X128930214Y-99816000D01*
X129485350Y-99816000D01*
X129580600Y-99720750D01*
X129580600Y-99085400D01*
X128720250Y-99085400D01*
X128625000Y-99180650D01*
X124674568Y-99180650D01*
X124755241Y-98609215D01*
X128625000Y-98609215D01*
X128625000Y-98939350D01*
X128720250Y-99034600D01*
X129580600Y-99034600D01*
X129580600Y-98399250D01*
X129485350Y-98304000D01*
X128930214Y-98304000D01*
X128790180Y-98362004D01*
X128683004Y-98469181D01*
X128625000Y-98609215D01*
X124755241Y-98609215D01*
X124889720Y-97656650D01*
X128625000Y-97656650D01*
X128625000Y-97986785D01*
X128683004Y-98126819D01*
X128790180Y-98233996D01*
X128930214Y-98292000D01*
X129485350Y-98292000D01*
X129580600Y-98196750D01*
X129580600Y-97561400D01*
X128720250Y-97561400D01*
X128625000Y-97656650D01*
X124889720Y-97656650D01*
X124970393Y-97085215D01*
X128625000Y-97085215D01*
X128625000Y-97415350D01*
X128720250Y-97510600D01*
X129580600Y-97510600D01*
X129580600Y-96875250D01*
X129631400Y-96875250D01*
X129631400Y-97510600D01*
X129651400Y-97510600D01*
X129651400Y-97561400D01*
X129631400Y-97561400D01*
X129631400Y-98196750D01*
X129726650Y-98292000D01*
X130281786Y-98292000D01*
X130421820Y-98233996D01*
X130528996Y-98126819D01*
X130587000Y-97986785D01*
X130587000Y-97983424D01*
X130597973Y-98038589D01*
X130670246Y-98146754D01*
X130778411Y-98219027D01*
X130906000Y-98244406D01*
X132106000Y-98244406D01*
X132233589Y-98219027D01*
X132341754Y-98146754D01*
X132414027Y-98038589D01*
X132424090Y-97988000D01*
X132661272Y-97988000D01*
X132740369Y-98067235D01*
X132970735Y-98162891D01*
X133220171Y-98163109D01*
X133450703Y-98067855D01*
X133627235Y-97891631D01*
X133722891Y-97661265D01*
X133723109Y-97411829D01*
X133627855Y-97181297D01*
X133451631Y-97004765D01*
X133221265Y-96909109D01*
X132971829Y-96908891D01*
X132741297Y-97004145D01*
X132661302Y-97084000D01*
X132424090Y-97084000D01*
X132414027Y-97033411D01*
X132341754Y-96925246D01*
X132233589Y-96852973D01*
X132106000Y-96827594D01*
X130906000Y-96827594D01*
X130778411Y-96852973D01*
X130670246Y-96925246D01*
X130597973Y-97033411D01*
X130587000Y-97088576D01*
X130587000Y-97085215D01*
X130528996Y-96945181D01*
X130421820Y-96838004D01*
X130281786Y-96780000D01*
X129726650Y-96780000D01*
X129631400Y-96875250D01*
X129580600Y-96875250D01*
X129485350Y-96780000D01*
X128930214Y-96780000D01*
X128790180Y-96838004D01*
X128683004Y-96945181D01*
X128625000Y-97085215D01*
X124970393Y-97085215D01*
X125104377Y-96136171D01*
X127388891Y-96136171D01*
X127484145Y-96366703D01*
X127660369Y-96543235D01*
X127890735Y-96638891D01*
X128140171Y-96639109D01*
X128370703Y-96543855D01*
X128450698Y-96464000D01*
X128687910Y-96464000D01*
X128697973Y-96514589D01*
X128770246Y-96622754D01*
X128878411Y-96695027D01*
X129006000Y-96720406D01*
X130206000Y-96720406D01*
X130333589Y-96695027D01*
X130441754Y-96622754D01*
X130514027Y-96514589D01*
X130525000Y-96459424D01*
X130525000Y-96462785D01*
X130583004Y-96602819D01*
X130690180Y-96709996D01*
X130830214Y-96768000D01*
X131385350Y-96768000D01*
X131480600Y-96672750D01*
X131480600Y-96037400D01*
X131531400Y-96037400D01*
X131531400Y-96672750D01*
X131626650Y-96768000D01*
X132181786Y-96768000D01*
X132321820Y-96709996D01*
X132428996Y-96602819D01*
X132487000Y-96462785D01*
X132487000Y-96132650D01*
X132391750Y-96037400D01*
X131531400Y-96037400D01*
X131480600Y-96037400D01*
X131460600Y-96037400D01*
X131460600Y-95986600D01*
X131480600Y-95986600D01*
X131480600Y-95351250D01*
X131531400Y-95351250D01*
X131531400Y-95986600D01*
X132391750Y-95986600D01*
X132487000Y-95891350D01*
X132487000Y-95561215D01*
X132428996Y-95421181D01*
X132321820Y-95314004D01*
X132181786Y-95256000D01*
X131626650Y-95256000D01*
X131531400Y-95351250D01*
X131480600Y-95351250D01*
X131385350Y-95256000D01*
X130830214Y-95256000D01*
X130690180Y-95314004D01*
X130583004Y-95421181D01*
X130525000Y-95561215D01*
X130525000Y-95564576D01*
X130514027Y-95509411D01*
X130441754Y-95401246D01*
X130333589Y-95328973D01*
X130206000Y-95303594D01*
X129006000Y-95303594D01*
X128878411Y-95328973D01*
X128770246Y-95401246D01*
X128697973Y-95509411D01*
X128687910Y-95560000D01*
X128450728Y-95560000D01*
X128371631Y-95480765D01*
X128141265Y-95385109D01*
X127891829Y-95384891D01*
X127661297Y-95480145D01*
X127484765Y-95656369D01*
X127389109Y-95886735D01*
X127388891Y-96136171D01*
X125104377Y-96136171D01*
X125982520Y-89916000D01*
X126802000Y-89916000D01*
X126802000Y-93472000D01*
X126836406Y-93644973D01*
X126934388Y-93791612D01*
X127950388Y-94807612D01*
X128097027Y-94905594D01*
X128270000Y-94940000D01*
X128687910Y-94940000D01*
X128697973Y-94990589D01*
X128770246Y-95098754D01*
X128878411Y-95171027D01*
X129006000Y-95196406D01*
X130206000Y-95196406D01*
X130333589Y-95171027D01*
X130441754Y-95098754D01*
X130514027Y-94990589D01*
X130539406Y-94863000D01*
X130539406Y-94113000D01*
X130514027Y-93985411D01*
X130441754Y-93877246D01*
X130333589Y-93804973D01*
X130206000Y-93779594D01*
X129006000Y-93779594D01*
X128878411Y-93804973D01*
X128770246Y-93877246D01*
X128697973Y-93985411D01*
X128687910Y-94036000D01*
X128457224Y-94036000D01*
X127706000Y-93284776D01*
X127706000Y-93084650D01*
X128625000Y-93084650D01*
X128625000Y-93414785D01*
X128683004Y-93554819D01*
X128790180Y-93661996D01*
X128930214Y-93720000D01*
X129485350Y-93720000D01*
X129580600Y-93624750D01*
X129580600Y-92989400D01*
X128720250Y-92989400D01*
X128625000Y-93084650D01*
X127706000Y-93084650D01*
X127706000Y-92513215D01*
X128625000Y-92513215D01*
X128625000Y-92843350D01*
X128720250Y-92938600D01*
X129580600Y-92938600D01*
X129580600Y-92303250D01*
X129485350Y-92208000D01*
X128930214Y-92208000D01*
X128790180Y-92266004D01*
X128683004Y-92373181D01*
X128625000Y-92513215D01*
X127706000Y-92513215D01*
X127706000Y-91560650D01*
X128625000Y-91560650D01*
X128625000Y-91890785D01*
X128683004Y-92030819D01*
X128790180Y-92137996D01*
X128930214Y-92196000D01*
X129485350Y-92196000D01*
X129580600Y-92100750D01*
X129580600Y-91465400D01*
X128720250Y-91465400D01*
X128625000Y-91560650D01*
X127706000Y-91560650D01*
X127706000Y-90720183D01*
X127890735Y-90796891D01*
X128140171Y-90797109D01*
X128370703Y-90701855D01*
X128450698Y-90622000D01*
X128687910Y-90622000D01*
X128697973Y-90672589D01*
X128762710Y-90769475D01*
X128683004Y-90849181D01*
X128625000Y-90989215D01*
X128625000Y-91319350D01*
X128720250Y-91414600D01*
X129580600Y-91414600D01*
X129580600Y-91394600D01*
X129631400Y-91394600D01*
X129631400Y-91414600D01*
X129651400Y-91414600D01*
X129651400Y-91465400D01*
X129631400Y-91465400D01*
X129631400Y-92100750D01*
X129726650Y-92196000D01*
X130281786Y-92196000D01*
X130421820Y-92137996D01*
X130528996Y-92030819D01*
X130587000Y-91890785D01*
X130587000Y-91887424D01*
X130597973Y-91942589D01*
X130670246Y-92050754D01*
X130778411Y-92123027D01*
X130906000Y-92148406D01*
X132106000Y-92148406D01*
X132233589Y-92123027D01*
X132324021Y-92062603D01*
X132486369Y-92225235D01*
X132716735Y-92320891D01*
X132966171Y-92321109D01*
X133196703Y-92225855D01*
X133373235Y-92049631D01*
X133468891Y-91819265D01*
X133469109Y-91569829D01*
X133373855Y-91339297D01*
X133197631Y-91162765D01*
X132967265Y-91067109D01*
X132827693Y-91066987D01*
X132760973Y-91022406D01*
X132588000Y-90988000D01*
X132424090Y-90988000D01*
X132414027Y-90937411D01*
X132349290Y-90840525D01*
X132428996Y-90760819D01*
X132487000Y-90620785D01*
X132487000Y-90290650D01*
X132391750Y-90195400D01*
X131531400Y-90195400D01*
X131531400Y-90215400D01*
X131480600Y-90215400D01*
X131480600Y-90195400D01*
X131460600Y-90195400D01*
X131460600Y-90144600D01*
X131480600Y-90144600D01*
X131480600Y-89509250D01*
X131531400Y-89509250D01*
X131531400Y-90144600D01*
X132391750Y-90144600D01*
X132487000Y-90049350D01*
X132487000Y-89719215D01*
X132428996Y-89579181D01*
X132321820Y-89472004D01*
X132181786Y-89414000D01*
X131626650Y-89414000D01*
X131531400Y-89509250D01*
X131480600Y-89509250D01*
X131385350Y-89414000D01*
X130830214Y-89414000D01*
X130690180Y-89472004D01*
X130583004Y-89579181D01*
X130525000Y-89719215D01*
X130525000Y-89722576D01*
X130514027Y-89667411D01*
X130441754Y-89559246D01*
X130333589Y-89486973D01*
X130206000Y-89461594D01*
X129006000Y-89461594D01*
X128878411Y-89486973D01*
X128770246Y-89559246D01*
X128697973Y-89667411D01*
X128687910Y-89718000D01*
X128450728Y-89718000D01*
X128371631Y-89638765D01*
X128229484Y-89579740D01*
X128457224Y-89352000D01*
X131064000Y-89352000D01*
X131236973Y-89317594D01*
X131383612Y-89219612D01*
X132183612Y-88419612D01*
X132221168Y-88363406D01*
X132264000Y-88363406D01*
X132391589Y-88338027D01*
X132499754Y-88265754D01*
X132572027Y-88157589D01*
X132591697Y-88058699D01*
X133720699Y-88058699D01*
X133725793Y-88098842D01*
X133725793Y-88139307D01*
X133801913Y-88521990D01*
X133847305Y-88631576D01*
X134064078Y-88956000D01*
X134147952Y-89039874D01*
X134472375Y-89256647D01*
X134503529Y-89269551D01*
X134581962Y-89302039D01*
X134964645Y-89378159D01*
X134994586Y-89378159D01*
X135023952Y-89384000D01*
X141428858Y-89384000D01*
X141360801Y-89547899D01*
X141349265Y-89543109D01*
X141099829Y-89542891D01*
X140869297Y-89638145D01*
X140692765Y-89814369D01*
X140597109Y-90044735D01*
X140597100Y-90055193D01*
X140587265Y-90051109D01*
X140337829Y-90050891D01*
X140107297Y-90146145D01*
X139930765Y-90322369D01*
X139835109Y-90552735D01*
X139835100Y-90563193D01*
X139825265Y-90559109D01*
X139575829Y-90558891D01*
X139345297Y-90654145D01*
X139168765Y-90830369D01*
X139073109Y-91060735D01*
X139072891Y-91310171D01*
X139168145Y-91540703D01*
X139344369Y-91717235D01*
X139574735Y-91812891D01*
X139824171Y-91813109D01*
X139889516Y-91786109D01*
X140214486Y-91948594D01*
X140095000Y-91948594D01*
X139970000Y-91973458D01*
X139845000Y-91948594D01*
X139595000Y-91948594D01*
X139470000Y-91973458D01*
X139345000Y-91948594D01*
X139095000Y-91948594D01*
X139054930Y-91956565D01*
X138920785Y-91901000D01*
X138840650Y-91901000D01*
X138745400Y-91996250D01*
X138745400Y-92906600D01*
X138761594Y-92906600D01*
X138761594Y-92957400D01*
X138745400Y-92957400D01*
X138745400Y-93867750D01*
X138768000Y-93890350D01*
X138768000Y-94770000D01*
X138802406Y-94942973D01*
X138900388Y-95089612D01*
X140342989Y-96532213D01*
X140342891Y-96644171D01*
X140438145Y-96874703D01*
X140614369Y-97051235D01*
X140844735Y-97146891D01*
X141094171Y-97147109D01*
X141324703Y-97051855D01*
X141501235Y-96875631D01*
X141596891Y-96645265D01*
X141597109Y-96395829D01*
X141570412Y-96331215D01*
X144289000Y-96331215D01*
X144289000Y-96411350D01*
X144384250Y-96506600D01*
X145294600Y-96506600D01*
X145294600Y-96490406D01*
X145345400Y-96490406D01*
X145345400Y-96506600D01*
X146255750Y-96506600D01*
X146278350Y-96484000D01*
X146538000Y-96484000D01*
X146710973Y-96449594D01*
X146807649Y-96384997D01*
X146936171Y-96385109D01*
X147166703Y-96289855D01*
X147343235Y-96113631D01*
X147438891Y-95883265D01*
X147439109Y-95633829D01*
X147343855Y-95403297D01*
X147167631Y-95226765D01*
X146937265Y-95131109D01*
X146687829Y-95130891D01*
X146457297Y-95226145D01*
X146298887Y-95384279D01*
X146278542Y-95282000D01*
X146303406Y-95157000D01*
X146303406Y-94907000D01*
X146278542Y-94782000D01*
X146303406Y-94657000D01*
X146303406Y-94407000D01*
X146278027Y-94279411D01*
X146209412Y-94176721D01*
X147127888Y-93084650D01*
X149453000Y-93084650D01*
X149453000Y-93414785D01*
X149511004Y-93554819D01*
X149618180Y-93661996D01*
X149758214Y-93720000D01*
X150313350Y-93720000D01*
X150408600Y-93624750D01*
X150408600Y-92989400D01*
X149548250Y-92989400D01*
X149453000Y-93084650D01*
X147127888Y-93084650D01*
X147129229Y-93083056D01*
X147190171Y-93083109D01*
X147420703Y-92987855D01*
X147597235Y-92811631D01*
X147692891Y-92581265D01*
X147692950Y-92513215D01*
X149453000Y-92513215D01*
X149453000Y-92843350D01*
X149548250Y-92938600D01*
X150408600Y-92938600D01*
X150408600Y-92303250D01*
X150313350Y-92208000D01*
X149758214Y-92208000D01*
X149618180Y-92266004D01*
X149511004Y-92373181D01*
X149453000Y-92513215D01*
X147692950Y-92513215D01*
X147693109Y-92331829D01*
X147597855Y-92101297D01*
X147421631Y-91924765D01*
X147191265Y-91829109D01*
X146941829Y-91828891D01*
X146711297Y-91924145D01*
X146534765Y-92100369D01*
X146439109Y-92330735D01*
X146438962Y-92499315D01*
X145114930Y-94073594D01*
X144670000Y-94073594D01*
X144542411Y-94098973D01*
X144434246Y-94171246D01*
X144361973Y-94279411D01*
X144336594Y-94407000D01*
X144336594Y-94657000D01*
X144361458Y-94782000D01*
X144336594Y-94907000D01*
X144336594Y-95157000D01*
X144361458Y-95282000D01*
X144336594Y-95407000D01*
X144336594Y-95657000D01*
X144361458Y-95782000D01*
X144336594Y-95907000D01*
X144336594Y-96157000D01*
X144344565Y-96197070D01*
X144289000Y-96331215D01*
X141570412Y-96331215D01*
X141501855Y-96165297D01*
X141348713Y-96011887D01*
X141501235Y-95859631D01*
X141596891Y-95629265D01*
X141597109Y-95379829D01*
X141501855Y-95149297D01*
X141348713Y-94995887D01*
X141501235Y-94843631D01*
X141596891Y-94613265D01*
X141597109Y-94363829D01*
X141501855Y-94133297D01*
X141325631Y-93956765D01*
X141226027Y-93915406D01*
X141345000Y-93915406D01*
X141470000Y-93890542D01*
X141595000Y-93915406D01*
X141845000Y-93915406D01*
X141970000Y-93890542D01*
X142095000Y-93915406D01*
X142345000Y-93915406D01*
X142470000Y-93890542D01*
X142595000Y-93915406D01*
X142845000Y-93915406D01*
X142970000Y-93890542D01*
X143095000Y-93915406D01*
X143345000Y-93915406D01*
X143470000Y-93890542D01*
X143595000Y-93915406D01*
X143845000Y-93915406D01*
X143972589Y-93890027D01*
X144080754Y-93817754D01*
X144153027Y-93709589D01*
X144178406Y-93582000D01*
X144178406Y-92721456D01*
X144210514Y-91632710D01*
X144282574Y-91560650D01*
X149453000Y-91560650D01*
X149453000Y-91890785D01*
X149511004Y-92030819D01*
X149618180Y-92137996D01*
X149758214Y-92196000D01*
X150313350Y-92196000D01*
X150408600Y-92100750D01*
X150408600Y-91465400D01*
X149548250Y-91465400D01*
X149453000Y-91560650D01*
X144282574Y-91560650D01*
X144538213Y-91305011D01*
X144650171Y-91305109D01*
X144880703Y-91209855D01*
X145057235Y-91033631D01*
X145075678Y-90989215D01*
X149453000Y-90989215D01*
X149453000Y-91319350D01*
X149548250Y-91414600D01*
X150408600Y-91414600D01*
X150408600Y-90779250D01*
X150313350Y-90684000D01*
X149758214Y-90684000D01*
X149618180Y-90742004D01*
X149511004Y-90849181D01*
X149453000Y-90989215D01*
X145075678Y-90989215D01*
X145152891Y-90803265D01*
X145153109Y-90553829D01*
X145057855Y-90323297D01*
X144881631Y-90146765D01*
X144651265Y-90051109D01*
X144401829Y-90050891D01*
X144391101Y-90055324D01*
X144391109Y-90045829D01*
X144295855Y-89815297D01*
X144119631Y-89638765D01*
X143889265Y-89543109D01*
X143639829Y-89542891D01*
X143629101Y-89547324D01*
X143629106Y-89541000D01*
X149500594Y-89541000D01*
X149500594Y-90291000D01*
X149525973Y-90418589D01*
X149598246Y-90526754D01*
X149706411Y-90599027D01*
X149834000Y-90624406D01*
X150691182Y-90624406D01*
X150750776Y-90684000D01*
X150554650Y-90684000D01*
X150459400Y-90779250D01*
X150459400Y-91414600D01*
X150479400Y-91414600D01*
X150479400Y-91465400D01*
X150459400Y-91465400D01*
X150459400Y-92100750D01*
X150554650Y-92196000D01*
X151109786Y-92196000D01*
X151249820Y-92137996D01*
X151356996Y-92030819D01*
X151415000Y-91890785D01*
X151415000Y-91887424D01*
X151425973Y-91942589D01*
X151498246Y-92050754D01*
X151606411Y-92123027D01*
X151734000Y-92148406D01*
X151882000Y-92148406D01*
X151882000Y-92255594D01*
X151734000Y-92255594D01*
X151606411Y-92280973D01*
X151498246Y-92353246D01*
X151425973Y-92461411D01*
X151415000Y-92516576D01*
X151415000Y-92513215D01*
X151356996Y-92373181D01*
X151249820Y-92266004D01*
X151109786Y-92208000D01*
X150554650Y-92208000D01*
X150459400Y-92303250D01*
X150459400Y-92938600D01*
X150479400Y-92938600D01*
X150479400Y-92989400D01*
X150459400Y-92989400D01*
X150459400Y-93624750D01*
X150554650Y-93720000D01*
X151109786Y-93720000D01*
X151249820Y-93661996D01*
X151356996Y-93554819D01*
X151415000Y-93414785D01*
X151415000Y-93411424D01*
X151425973Y-93466589D01*
X151498246Y-93574754D01*
X151606411Y-93647027D01*
X151734000Y-93672406D01*
X151882000Y-93672406D01*
X151882000Y-93779594D01*
X151734000Y-93779594D01*
X151606411Y-93804973D01*
X151498246Y-93877246D01*
X151425973Y-93985411D01*
X151400594Y-94113000D01*
X151400594Y-94863000D01*
X151425973Y-94990589D01*
X151498246Y-95098754D01*
X151606411Y-95171027D01*
X151734000Y-95196406D01*
X152934000Y-95196406D01*
X153061589Y-95171027D01*
X153169754Y-95098754D01*
X153242027Y-94990589D01*
X153267406Y-94863000D01*
X153267406Y-94113000D01*
X153242027Y-93985411D01*
X153169754Y-93877246D01*
X153061589Y-93804973D01*
X152934000Y-93779594D01*
X152786000Y-93779594D01*
X152786000Y-93672406D01*
X152934000Y-93672406D01*
X153061589Y-93647027D01*
X153169754Y-93574754D01*
X153242027Y-93466589D01*
X153252090Y-93416000D01*
X153489272Y-93416000D01*
X153568369Y-93495235D01*
X153798735Y-93590891D01*
X154048171Y-93591109D01*
X154278703Y-93495855D01*
X154455235Y-93319631D01*
X154550891Y-93089265D01*
X154551109Y-92839829D01*
X154455855Y-92609297D01*
X154279631Y-92432765D01*
X154049265Y-92337109D01*
X153799829Y-92336891D01*
X153569297Y-92432145D01*
X153489302Y-92512000D01*
X153252090Y-92512000D01*
X153242027Y-92461411D01*
X153169754Y-92353246D01*
X153061589Y-92280973D01*
X152934000Y-92255594D01*
X152786000Y-92255594D01*
X152786000Y-92148406D01*
X152934000Y-92148406D01*
X153061589Y-92123027D01*
X153169754Y-92050754D01*
X153242027Y-91942589D01*
X153267406Y-91815000D01*
X153267406Y-91065000D01*
X153242027Y-90937411D01*
X153169754Y-90829246D01*
X153061589Y-90756973D01*
X152934000Y-90731594D01*
X152076819Y-90731594D01*
X151969631Y-90624406D01*
X152934000Y-90624406D01*
X153061589Y-90599027D01*
X153169754Y-90526754D01*
X153242027Y-90418589D01*
X153267406Y-90291000D01*
X153267406Y-89541000D01*
X153242027Y-89413411D01*
X153169754Y-89305246D01*
X153061589Y-89232973D01*
X152934000Y-89207594D01*
X152786000Y-89207594D01*
X152786000Y-88288000D01*
X152751594Y-88115027D01*
X152743626Y-88103102D01*
X152653613Y-87968388D01*
X152409406Y-87724181D01*
X152409406Y-87230000D01*
X152384027Y-87102411D01*
X152311754Y-86994246D01*
X152203589Y-86921973D01*
X152076000Y-86896594D01*
X151276000Y-86896594D01*
X151148411Y-86921973D01*
X151040246Y-86994246D01*
X150967973Y-87102411D01*
X150942594Y-87230000D01*
X150942594Y-88030000D01*
X150967973Y-88157589D01*
X151040246Y-88265754D01*
X151148411Y-88338027D01*
X151276000Y-88363406D01*
X151770181Y-88363406D01*
X151882000Y-88475225D01*
X151882000Y-89207594D01*
X151734000Y-89207594D01*
X151606411Y-89232973D01*
X151498246Y-89305246D01*
X151425973Y-89413411D01*
X151400594Y-89541000D01*
X151400594Y-90055370D01*
X151367406Y-90022182D01*
X151367406Y-89541000D01*
X151342027Y-89413411D01*
X151269754Y-89305246D01*
X151161589Y-89232973D01*
X151034000Y-89207594D01*
X149834000Y-89207594D01*
X149706411Y-89232973D01*
X149598246Y-89305246D01*
X149525973Y-89413411D01*
X149500594Y-89541000D01*
X143629106Y-89541000D01*
X143629109Y-89537829D01*
X143565548Y-89384000D01*
X146916048Y-89384000D01*
X146926637Y-89381894D01*
X146937349Y-89383253D01*
X147077138Y-89373434D01*
X147116174Y-89362778D01*
X147156242Y-89357122D01*
X147524527Y-89228254D01*
X147566427Y-89203538D01*
X147626693Y-89167988D01*
X147917628Y-88907992D01*
X147988953Y-88813217D01*
X147988954Y-88813215D01*
X148158245Y-88461678D01*
X148161773Y-88448000D01*
X148187873Y-88346823D01*
X148209751Y-87957256D01*
X148205565Y-87927608D01*
X148207244Y-87897714D01*
X148186483Y-87750650D01*
X149295000Y-87750650D01*
X149295000Y-88105785D01*
X149353004Y-88245819D01*
X149460180Y-88352996D01*
X149600214Y-88411000D01*
X149955350Y-88411000D01*
X150050600Y-88315750D01*
X150050600Y-87655400D01*
X150101400Y-87655400D01*
X150101400Y-88315750D01*
X150196650Y-88411000D01*
X150551786Y-88411000D01*
X150691820Y-88352996D01*
X150798996Y-88245819D01*
X150857000Y-88105785D01*
X150857000Y-87750650D01*
X150761750Y-87655400D01*
X150101400Y-87655400D01*
X150050600Y-87655400D01*
X149390250Y-87655400D01*
X149295000Y-87750650D01*
X148186483Y-87750650D01*
X148102281Y-87154215D01*
X149295000Y-87154215D01*
X149295000Y-87509350D01*
X149390250Y-87604600D01*
X150050600Y-87604600D01*
X150050600Y-86944250D01*
X150101400Y-86944250D01*
X150101400Y-87604600D01*
X150761750Y-87604600D01*
X150857000Y-87509350D01*
X150857000Y-87154215D01*
X150798996Y-87014181D01*
X150691820Y-86907004D01*
X150551786Y-86849000D01*
X150196650Y-86849000D01*
X150101400Y-86944250D01*
X150050600Y-86944250D01*
X149955350Y-86849000D01*
X149600214Y-86849000D01*
X149460180Y-86907004D01*
X149353004Y-87014181D01*
X149295000Y-87154215D01*
X148102281Y-87154215D01*
X143442538Y-54147714D01*
X143436148Y-54129453D01*
X143434793Y-54110157D01*
X143368493Y-53867265D01*
X143346681Y-53823550D01*
X143327989Y-53778423D01*
X143111216Y-53454000D01*
X143027342Y-53370126D01*
X142702918Y-53153353D01*
X142593332Y-53107961D01*
X142210649Y-53031841D01*
X142180708Y-53031841D01*
X142151342Y-53026000D01*
X139788658Y-53026000D01*
X139769683Y-53029774D01*
X139750387Y-53028419D01*
X139500610Y-53060116D01*
X139454277Y-53075603D01*
X139406980Y-53087803D01*
X139055443Y-53257094D01*
X139055441Y-53257095D01*
X138960666Y-53328420D01*
X138700670Y-53619355D01*
X138677351Y-53658887D01*
X138640404Y-53721521D01*
X138511536Y-54089806D01*
X138507351Y-54119453D01*
X138497462Y-54147714D01*
X133732756Y-87897714D01*
X133733361Y-87908494D01*
X133730518Y-87918910D01*
X133720699Y-88058699D01*
X132591697Y-88058699D01*
X132597406Y-88030000D01*
X132597406Y-87230000D01*
X132572027Y-87102411D01*
X132499754Y-86994246D01*
X132391589Y-86921973D01*
X132264000Y-86896594D01*
X131464000Y-86896594D01*
X131336411Y-86921973D01*
X131228246Y-86994246D01*
X131155973Y-87102411D01*
X131130594Y-87230000D01*
X131130594Y-88030000D01*
X131155973Y-88157589D01*
X131160465Y-88164311D01*
X130876776Y-88448000D01*
X128270000Y-88448000D01*
X128097027Y-88482406D01*
X127950388Y-88580388D01*
X126934388Y-89596388D01*
X126836406Y-89743027D01*
X126802000Y-89916000D01*
X125982520Y-89916000D01*
X126288216Y-87750650D01*
X129483000Y-87750650D01*
X129483000Y-88105785D01*
X129541004Y-88245819D01*
X129648180Y-88352996D01*
X129788214Y-88411000D01*
X130143350Y-88411000D01*
X130238600Y-88315750D01*
X130238600Y-87655400D01*
X130289400Y-87655400D01*
X130289400Y-88315750D01*
X130384650Y-88411000D01*
X130739786Y-88411000D01*
X130879820Y-88352996D01*
X130986996Y-88245819D01*
X131045000Y-88105785D01*
X131045000Y-87750650D01*
X130949750Y-87655400D01*
X130289400Y-87655400D01*
X130238600Y-87655400D01*
X129578250Y-87655400D01*
X129483000Y-87750650D01*
X126288216Y-87750650D01*
X126372418Y-87154215D01*
X129483000Y-87154215D01*
X129483000Y-87509350D01*
X129578250Y-87604600D01*
X130238600Y-87604600D01*
X130238600Y-86944250D01*
X130289400Y-86944250D01*
X130289400Y-87604600D01*
X130949750Y-87604600D01*
X131045000Y-87509350D01*
X131045000Y-87154215D01*
X130986996Y-87014181D01*
X130879820Y-86907004D01*
X130739786Y-86849000D01*
X130384650Y-86849000D01*
X130289400Y-86944250D01*
X130238600Y-86944250D01*
X130143350Y-86849000D01*
X129788214Y-86849000D01*
X129648180Y-86907004D01*
X129541004Y-87014181D01*
X129483000Y-87154215D01*
X126372418Y-87154215D01*
X130281740Y-59463192D01*
X130281135Y-59452413D01*
X130283978Y-59441997D01*
X130293797Y-59302207D01*
X130288703Y-59262064D01*
X130288703Y-59221599D01*
X130212583Y-58838916D01*
X130167191Y-58729330D01*
X130167191Y-58729329D01*
X129950418Y-58404906D01*
X129866544Y-58321032D01*
X129826088Y-58294000D01*
X134331692Y-58294000D01*
X134354246Y-58327754D01*
X134462411Y-58400027D01*
X134590000Y-58425406D01*
X135089878Y-58425406D01*
X132207027Y-60333841D01*
X132205265Y-60333109D01*
X131955829Y-60332891D01*
X131725297Y-60428145D01*
X131548765Y-60604369D01*
X131453109Y-60834735D01*
X131452891Y-61084171D01*
X131548145Y-61314703D01*
X131724369Y-61491235D01*
X131954735Y-61586891D01*
X132204171Y-61587109D01*
X132434703Y-61491855D01*
X132611235Y-61315631D01*
X132705858Y-61087752D01*
X136727556Y-58425406D01*
X137190000Y-58425406D01*
X137317589Y-58400027D01*
X137425754Y-58327754D01*
X137498027Y-58219589D01*
X137523406Y-58092000D01*
X137523406Y-57592000D01*
X137498027Y-57464411D01*
X137466348Y-57417000D01*
X137498027Y-57369589D01*
X137523406Y-57242000D01*
X137523406Y-56842000D01*
X137498027Y-56714411D01*
X137449644Y-56642000D01*
X137498027Y-56569589D01*
X137523406Y-56442000D01*
X137523406Y-56042000D01*
X137498027Y-55914411D01*
X137466348Y-55867000D01*
X137498027Y-55819589D01*
X137523406Y-55692000D01*
X137523406Y-55192000D01*
X137498027Y-55064411D01*
X137425754Y-54956246D01*
X137317589Y-54883973D01*
X137190000Y-54858594D01*
X136390000Y-54858594D01*
X136262411Y-54883973D01*
X136154246Y-54956246D01*
X136081973Y-55064411D01*
X136056594Y-55192000D01*
X136056594Y-55692000D01*
X136081973Y-55819589D01*
X136113652Y-55867000D01*
X136081973Y-55914411D01*
X136056594Y-56042000D01*
X136056594Y-56442000D01*
X136081973Y-56569589D01*
X136130356Y-56642000D01*
X136081973Y-56714411D01*
X136056594Y-56842000D01*
X136056594Y-57242000D01*
X136081973Y-57369589D01*
X136113652Y-57417000D01*
X136081973Y-57464411D01*
X136056594Y-57592000D01*
X136056594Y-57785444D01*
X135723406Y-58006013D01*
X135723406Y-57592000D01*
X135698027Y-57464411D01*
X135666348Y-57417000D01*
X135698027Y-57369589D01*
X135723406Y-57242000D01*
X135723406Y-56842000D01*
X135698027Y-56714411D01*
X135649644Y-56642000D01*
X135698027Y-56569589D01*
X135723406Y-56442000D01*
X135723406Y-56042000D01*
X135698027Y-55914411D01*
X135666348Y-55867000D01*
X135698027Y-55819589D01*
X135723406Y-55692000D01*
X135723406Y-55192000D01*
X135698027Y-55064411D01*
X135645470Y-54985754D01*
X136077224Y-54554000D01*
X136979272Y-54554000D01*
X137058369Y-54633235D01*
X137288735Y-54728891D01*
X137538171Y-54729109D01*
X137768703Y-54633855D01*
X137945235Y-54457631D01*
X138040891Y-54227265D01*
X138041109Y-53977829D01*
X137945855Y-53747297D01*
X137769631Y-53570765D01*
X137539265Y-53475109D01*
X137289829Y-53474891D01*
X137059297Y-53570145D01*
X136979302Y-53650000D01*
X135890000Y-53650000D01*
X135722396Y-53683338D01*
X135717027Y-53684406D01*
X135570388Y-53782388D01*
X134670388Y-54682388D01*
X134572406Y-54829027D01*
X134565558Y-54863456D01*
X134462411Y-54883973D01*
X134354246Y-54956246D01*
X134281973Y-55064411D01*
X134256594Y-55192000D01*
X134256594Y-55692000D01*
X134276087Y-55790000D01*
X128819224Y-55790000D01*
X128389011Y-55359787D01*
X128389109Y-55247829D01*
X128293855Y-55017297D01*
X128117631Y-54840765D01*
X127887265Y-54745109D01*
X127637829Y-54744891D01*
X127407297Y-54840145D01*
X127230765Y-55016369D01*
X127135109Y-55246735D01*
X127134891Y-55496171D01*
X127230145Y-55726703D01*
X127406369Y-55903235D01*
X127636735Y-55998891D01*
X127749766Y-55998990D01*
X128312388Y-56561612D01*
X128354873Y-56590000D01*
X118229046Y-56590000D01*
X118229109Y-56517829D01*
X118133855Y-56287297D01*
X117957631Y-56110765D01*
X117727265Y-56015109D01*
X117477829Y-56014891D01*
X117247297Y-56110145D01*
X117070765Y-56286369D01*
X116975109Y-56516735D01*
X116974891Y-56766171D01*
X117070145Y-56996703D01*
X117246369Y-57173235D01*
X117476735Y-57268891D01*
X117589765Y-57268990D01*
X117682387Y-57361612D01*
X117724873Y-57390000D01*
X105977680Y-57390000D01*
X105941855Y-57303297D01*
X105765631Y-57126765D01*
X105535265Y-57031109D01*
X105285829Y-57030891D01*
X105055297Y-57126145D01*
X104878765Y-57302369D01*
X104783109Y-57532735D01*
X104782891Y-57782171D01*
X104878145Y-58012703D01*
X105054369Y-58189235D01*
X105284735Y-58284891D01*
X105534171Y-58285109D01*
X105539088Y-58283077D01*
X105594000Y-58294000D01*
X109041022Y-58294000D01*
X101838298Y-65976906D01*
X99359356Y-65976906D01*
X100320250Y-62133328D01*
X100792640Y-62133328D01*
X101108178Y-62896989D01*
X101691938Y-63481768D01*
X102455047Y-63798639D01*
X103281328Y-63799360D01*
X104044989Y-63483822D01*
X104629768Y-62900062D01*
X104946639Y-62136953D01*
X104947360Y-61310672D01*
X104631822Y-60547011D01*
X104048062Y-59962232D01*
X103284953Y-59645361D01*
X102458672Y-59644640D01*
X101695011Y-59960178D01*
X101110232Y-60543938D01*
X100793361Y-61307047D01*
X100792640Y-62133328D01*
X100320250Y-62133328D01*
X102689564Y-52656073D01*
X103150930Y-51679439D01*
X103928311Y-50974212D01*
X104934421Y-50613700D01*
X105323558Y-50584906D01*
X130402309Y-50584906D01*
X130421284Y-50581132D01*
X130440580Y-50582487D01*
X130690357Y-50550790D01*
X130736685Y-50535305D01*
X130783987Y-50523103D01*
X131135524Y-50353812D01*
X131135526Y-50353811D01*
X131230301Y-50282486D01*
X131490297Y-49991551D01*
X131531983Y-49920882D01*
X131550563Y-49889385D01*
X131679430Y-49521101D01*
X131683615Y-49491456D01*
X131693505Y-49463192D01*
X131902505Y-47982776D01*
X132259250Y-46963254D01*
X132958648Y-46180628D01*
X133914231Y-45720444D01*
X134595427Y-45634000D01*
X147333839Y-45634000D01*
X148393216Y-45844723D01*
M02*
