G04 #@! TF.GenerationSoftware,KiCad,Pcbnew,no-vcs-found-c78a2ba~59~ubuntu16.10.1*
G04 #@! TF.CreationDate,2017-09-21T00:22:34+02:00*
G04 #@! TF.ProjectId,rat_board,7261745F626F6172642E6B696361645F,rev?*
G04 #@! TF.SameCoordinates,Original
G04 #@! TF.FileFunction,Copper,L2,Bot,Signal*
G04 #@! TF.FilePolarity,Positive*
%FSLAX46Y46*%
G04 Gerber Fmt 4.6, Leading zero omitted, Abs format (unit mm)*
G04 Created by KiCad (PCBNEW no-vcs-found-c78a2ba~59~ubuntu16.10.1) date Thu Sep 21 00:22:34 2017*
%MOMM*%
%LPD*%
G01*
G04 APERTURE LIST*
%ADD10R,2.000000X2.000000*%
%ADD11C,2.000000*%
%ADD12R,1.100000X1.750000*%
%ADD13R,0.450000X1.750000*%
%ADD14C,2.032000*%
%ADD15C,2.032000*%
%ADD16O,1.727200X2.032000*%
%ADD17R,1.727200X2.032000*%
%ADD18C,3.500000*%
%ADD19R,0.750000X1.200000*%
%ADD20R,1.100000X1.000000*%
%ADD21R,2.032000X1.524000*%
%ADD22O,2.032000X2.032000*%
%ADD23R,2.032000X2.032000*%
%ADD24O,1.998980X2.499360*%
%ADD25C,0.600000*%
%ADD26C,0.250000*%
%ADD27C,1.000000*%
%ADD28C,0.254000*%
G04 APERTURE END LIST*
D10*
X142621000Y-129540000D03*
D11*
X142621000Y-132080000D03*
X142621000Y-134620000D03*
D12*
X137464800Y-118325900D03*
D13*
X144291000Y-118320000D03*
X143641000Y-118320000D03*
X142991000Y-118320000D03*
X142341000Y-118320000D03*
X141691000Y-118320000D03*
X141041000Y-118320000D03*
X140391000Y-118320000D03*
X139741000Y-118320000D03*
X139091000Y-118320000D03*
X138441000Y-118320000D03*
X137141000Y-118320000D03*
X137791000Y-125520000D03*
X139091000Y-125520000D03*
X140391000Y-125520000D03*
X141691000Y-125520000D03*
X142991000Y-125520000D03*
X144291000Y-125520000D03*
D12*
X137464800Y-125526800D03*
X140070840Y-125521720D03*
X141366240Y-125521720D03*
X143967200Y-125521720D03*
D13*
X138440760Y-125530160D03*
X142340760Y-125530160D03*
D14*
X160576646Y-142426884D03*
D15*
X160576646Y-142426884D02*
X160576646Y-142426884D01*
D14*
X158496000Y-140970000D03*
X123746646Y-140783116D03*
D15*
X123746646Y-140783116D02*
X123746646Y-140783116D01*
D14*
X121666000Y-142240000D03*
D16*
X149606000Y-139700000D03*
X147066000Y-139700000D03*
X144526000Y-139700000D03*
X141986000Y-139700000D03*
X139446000Y-139700000D03*
X136906000Y-139700000D03*
X134366000Y-139700000D03*
D17*
X131826000Y-139700000D03*
D18*
X113030000Y-141224000D03*
X168910000Y-141224000D03*
X168910000Y-123190000D03*
X113030000Y-123190000D03*
D19*
X110490000Y-56322000D03*
X110490000Y-54422000D03*
X130810000Y-53782000D03*
X130810000Y-51882000D03*
X151130000Y-51882000D03*
X151130000Y-53782000D03*
X171450000Y-54422000D03*
X171450000Y-56322000D03*
D20*
X103460000Y-55742000D03*
X107360000Y-55742000D03*
X107360000Y-57542000D03*
X103460000Y-57542000D03*
X123780000Y-51932000D03*
X127680000Y-51932000D03*
X127680000Y-53732000D03*
X123780000Y-53732000D03*
X144100000Y-50662000D03*
X148000000Y-50662000D03*
X148000000Y-52462000D03*
X144100000Y-52462000D03*
X164420000Y-53202000D03*
X168320000Y-53202000D03*
X168320000Y-55002000D03*
X164420000Y-55002000D03*
X113620000Y-53202000D03*
X117520000Y-53202000D03*
X117520000Y-55002000D03*
X113620000Y-55002000D03*
X133940000Y-50662000D03*
X137840000Y-50662000D03*
X137840000Y-52462000D03*
X133940000Y-52462000D03*
D19*
X131826000Y-122870000D03*
X131826000Y-120970000D03*
D21*
X134366000Y-123571000D03*
X134366000Y-120269000D03*
D19*
X149606000Y-122870000D03*
X149606000Y-120970000D03*
D21*
X147066000Y-123571000D03*
X147066000Y-120269000D03*
D22*
X118491000Y-118110000D03*
D23*
X118491000Y-115570000D03*
D24*
X143410940Y-106172000D03*
X138529060Y-106172000D03*
D20*
X154260000Y-53732000D03*
X158160000Y-53732000D03*
X158160000Y-51932000D03*
X154260000Y-51932000D03*
X174580000Y-57542000D03*
X178480000Y-57542000D03*
X178480000Y-55742000D03*
X174580000Y-55742000D03*
D18*
X102870000Y-61722000D03*
X179070000Y-61722000D03*
D25*
X149860000Y-60960000D03*
X132080000Y-60960000D03*
X140716000Y-98044000D03*
X148082000Y-99060000D03*
X133096000Y-97536000D03*
X137414000Y-92456000D03*
X146812000Y-95758000D03*
X153924000Y-92964000D03*
X136398000Y-101092000D03*
X128016000Y-96012000D03*
X128016000Y-90170000D03*
X128524000Y-109474000D03*
X146050000Y-54610000D03*
X148844000Y-124714000D03*
X140208000Y-120142000D03*
X132588000Y-124968000D03*
X142494000Y-123698000D03*
X138938000Y-123698000D03*
X166370000Y-54610000D03*
X177292000Y-54102000D03*
X146050000Y-52070000D03*
X133096000Y-54102000D03*
X121920000Y-53594000D03*
X113030000Y-56642000D03*
X103378000Y-59436000D03*
X151384000Y-121666000D03*
X151892000Y-100584000D03*
X149098000Y-94742000D03*
X140462000Y-90678000D03*
X141224000Y-90170000D03*
X141986000Y-89677240D03*
X143002000Y-89662000D03*
X151638000Y-126746000D03*
X140970000Y-100330000D03*
X146304000Y-104140000D03*
X138176000Y-99060000D03*
X117602000Y-56642000D03*
X127762000Y-55372000D03*
X137414000Y-54102000D03*
X148082000Y-54102000D03*
X132842000Y-91694000D03*
X140970000Y-94488000D03*
X140208000Y-98806000D03*
X138430000Y-103124000D03*
X139192000Y-103632000D03*
X139954000Y-103124000D03*
X141986000Y-103124000D03*
X141224000Y-103886000D03*
X143002000Y-103378000D03*
X153924000Y-119634000D03*
X140970000Y-96520000D03*
X153162000Y-117856000D03*
X140970000Y-95504000D03*
X139700000Y-91186000D03*
X105410000Y-57658000D03*
X143764000Y-90170000D03*
X157988000Y-55372000D03*
X144526000Y-90678000D03*
X168148000Y-56642000D03*
X147066000Y-92456000D03*
X177292000Y-57658000D03*
D26*
X147066000Y-123571000D02*
X148905000Y-123571000D01*
X148905000Y-123571000D02*
X149606000Y-122870000D01*
X147066000Y-123571000D02*
X147701000Y-123571000D01*
X147701000Y-123571000D02*
X148844000Y-124714000D01*
X140391000Y-118320000D02*
X140391000Y-119959000D01*
X140391000Y-119959000D02*
X140208000Y-120142000D01*
X134366000Y-123571000D02*
X133985000Y-123571000D01*
X133985000Y-123571000D02*
X132588000Y-124968000D01*
X134366000Y-123571000D02*
X132527000Y-123571000D01*
X132527000Y-123571000D02*
X131826000Y-122870000D01*
X142340760Y-125530160D02*
X142340760Y-123851240D01*
X142340760Y-123851240D02*
X142494000Y-123698000D01*
X139091000Y-125520000D02*
X139091000Y-123851000D01*
X139091000Y-123851000D02*
X138938000Y-123698000D01*
X142991000Y-125520000D02*
X142350920Y-125520000D01*
X142350920Y-125520000D02*
X142340760Y-125530160D01*
X139091000Y-125520000D02*
X138450920Y-125520000D01*
X138450920Y-125520000D02*
X138440760Y-125530160D01*
X164420000Y-55002000D02*
X165978000Y-55002000D01*
X165978000Y-55002000D02*
X166370000Y-54610000D01*
X158160000Y-51932000D02*
X159374000Y-51932000D01*
X162444000Y-55002000D02*
X164420000Y-55002000D01*
X159374000Y-51932000D02*
X162444000Y-55002000D01*
X178480000Y-55742000D02*
X178480000Y-55290000D01*
X178480000Y-55290000D02*
X177292000Y-54102000D01*
X174580000Y-57542000D02*
X175376000Y-57542000D01*
X177176000Y-55742000D02*
X178480000Y-55742000D01*
X175376000Y-57542000D02*
X177176000Y-55742000D01*
X144100000Y-52462000D02*
X145658000Y-52462000D01*
X145658000Y-52462000D02*
X146050000Y-52070000D01*
X154260000Y-53732000D02*
X155056000Y-53732000D01*
X156856000Y-51932000D02*
X158160000Y-51932000D01*
X155056000Y-53732000D02*
X156856000Y-51932000D01*
X137840000Y-50662000D02*
X142300000Y-50662000D01*
X142300000Y-50662000D02*
X144100000Y-52462000D01*
X133940000Y-52462000D02*
X133940000Y-53258000D01*
X133940000Y-53258000D02*
X133096000Y-54102000D01*
X133940000Y-52462000D02*
X135244000Y-52462000D01*
X137044000Y-50662000D02*
X137840000Y-50662000D01*
X135244000Y-52462000D02*
X137044000Y-50662000D01*
X123780000Y-53732000D02*
X122058000Y-53732000D01*
X122058000Y-53732000D02*
X121920000Y-53594000D01*
X117520000Y-53202000D02*
X116724000Y-53202000D01*
X114924000Y-55002000D02*
X113620000Y-55002000D01*
X116724000Y-53202000D02*
X114924000Y-55002000D01*
X113620000Y-55002000D02*
X113620000Y-56052000D01*
X113620000Y-56052000D02*
X113030000Y-56642000D01*
X103460000Y-57542000D02*
X103460000Y-59354000D01*
X103460000Y-59354000D02*
X103378000Y-59436000D01*
X150688000Y-120970000D02*
X149606000Y-120970000D01*
X151384000Y-121666000D02*
X150688000Y-120970000D01*
X147066000Y-120269000D02*
X148905000Y-120269000D01*
X148905000Y-120269000D02*
X149606000Y-120970000D01*
X144291000Y-118320000D02*
X145117000Y-118320000D01*
X145117000Y-118320000D02*
X147066000Y-120269000D01*
D27*
X118491000Y-118110000D02*
X137248900Y-118110000D01*
X137248900Y-118110000D02*
X137464800Y-118325900D01*
D26*
X151892000Y-98552000D02*
X151892000Y-100584000D01*
X149098000Y-95758000D02*
X151892000Y-98552000D01*
X149098000Y-94742000D02*
X149098000Y-95758000D01*
X118872000Y-56134000D02*
X117520000Y-55002000D01*
X140462000Y-90678000D02*
X139954000Y-90424000D01*
X139954000Y-90424000D02*
X133858000Y-90424000D01*
X133858000Y-90424000D02*
X132588000Y-89154000D01*
X132588000Y-89154000D02*
X132588000Y-88138000D01*
X132588000Y-88138000D02*
X136398000Y-60960000D01*
X136398000Y-60960000D02*
X136144000Y-60452000D01*
X136144000Y-60452000D02*
X134620000Y-60452000D01*
X134620000Y-60452000D02*
X129540000Y-56134000D01*
X129540000Y-56134000D02*
X118872000Y-56134000D01*
X141224000Y-90170000D02*
X140716000Y-89916000D01*
X140716000Y-89916000D02*
X134112000Y-89916000D01*
X134112000Y-89916000D02*
X133096000Y-88900000D01*
X133096000Y-88900000D02*
X133096000Y-88138000D01*
X133096000Y-88138000D02*
X136906000Y-60579000D01*
X136906000Y-60579000D02*
X136652000Y-59944000D01*
X136652000Y-59944000D02*
X134874000Y-59944000D01*
X134874000Y-59944000D02*
X127680000Y-53732000D01*
X137840000Y-52462000D02*
X138430000Y-53086000D01*
X138430000Y-53086000D02*
X133604000Y-88138000D01*
X133604000Y-88138000D02*
X133604000Y-88646000D01*
X133604000Y-88646000D02*
X134366000Y-89408000D01*
X134366000Y-89408000D02*
X141478000Y-89408000D01*
X141478000Y-89408000D02*
X141986000Y-89677240D01*
X143002000Y-89662000D02*
X143510000Y-89408000D01*
X143510000Y-89408000D02*
X147574000Y-89408000D01*
X147574000Y-89408000D02*
X148336000Y-88646000D01*
X148336000Y-88646000D02*
X148336000Y-88138000D01*
X148336000Y-88138000D02*
X143764000Y-55372000D01*
X143764000Y-55372000D02*
X143764000Y-54610000D01*
X143764000Y-54610000D02*
X144272000Y-54102000D01*
X144272000Y-54102000D02*
X148000000Y-52462000D01*
X141691000Y-125520000D02*
X141367960Y-125520000D01*
X141367960Y-125520000D02*
X141366240Y-125521720D01*
D27*
X141366240Y-125521720D02*
X141366240Y-127142240D01*
X158496000Y-138176000D02*
X158496000Y-140970000D01*
X147828000Y-127508000D02*
X158496000Y-138176000D01*
X141732000Y-127508000D02*
X147828000Y-127508000D01*
X141366240Y-127142240D02*
X141732000Y-127508000D01*
D26*
X144291000Y-125520000D02*
X143968920Y-125520000D01*
X143968920Y-125520000D02*
X143967200Y-125521720D01*
D27*
X143967200Y-125521720D02*
X148127720Y-125521720D01*
X160576646Y-137970646D02*
X160576646Y-142426884D01*
X148127720Y-125521720D02*
X160576646Y-137970646D01*
D26*
X140391000Y-125520000D02*
X140072560Y-125520000D01*
X140072560Y-125520000D02*
X140070840Y-125521720D01*
D27*
X140070840Y-125521720D02*
X140070840Y-127645160D01*
X123746646Y-138889354D02*
X123746646Y-140783116D01*
X134366000Y-128270000D02*
X123746646Y-138889354D01*
X139446000Y-128270000D02*
X134366000Y-128270000D01*
X140070840Y-127645160D02*
X139446000Y-128270000D01*
D26*
X137791000Y-125520000D02*
X137471600Y-125520000D01*
X137471600Y-125520000D02*
X137464800Y-125526800D01*
D27*
X137464800Y-125526800D02*
X134569200Y-125526800D01*
X121666000Y-138430000D02*
X121666000Y-142240000D01*
X134569200Y-125526800D02*
X121666000Y-138430000D01*
D26*
X152654000Y-125730000D02*
X151638000Y-126746000D01*
X152654000Y-119380000D02*
X152654000Y-125730000D01*
X146558000Y-113284000D02*
X152654000Y-119380000D01*
X146558000Y-105664000D02*
X146558000Y-113284000D01*
X143764000Y-102870000D02*
X146558000Y-105664000D01*
X143764000Y-101346000D02*
X143764000Y-102870000D01*
X142748000Y-100330000D02*
X143764000Y-101346000D01*
X140970000Y-100330000D02*
X142748000Y-100330000D01*
X146304000Y-104140000D02*
X146304000Y-102870000D01*
X146304000Y-102870000D02*
X142748000Y-99314000D01*
X142748000Y-99314000D02*
X142748000Y-99060000D01*
X142748000Y-99060000D02*
X140970000Y-97282000D01*
X140970000Y-97282000D02*
X139954000Y-97282000D01*
X139954000Y-97282000D02*
X138176000Y-99060000D01*
X137160000Y-139827000D02*
X137160000Y-139700000D01*
X117520000Y-56560000D02*
X117520000Y-55002000D01*
X117602000Y-56642000D02*
X117520000Y-56560000D01*
X127680000Y-55290000D02*
X127680000Y-53732000D01*
X127762000Y-55372000D02*
X127680000Y-55290000D01*
X127680000Y-54020000D02*
X127680000Y-53732000D01*
X127680000Y-54020000D02*
X127680000Y-53732000D01*
X137840000Y-52462000D02*
X138060000Y-52462000D01*
X137840000Y-52462000D02*
X137840000Y-52496000D01*
X137414000Y-54102000D02*
X137840000Y-53676000D01*
X137840000Y-53676000D02*
X137840000Y-52462000D01*
X148000000Y-54020000D02*
X148000000Y-52462000D01*
X148082000Y-54102000D02*
X148000000Y-54020000D01*
X139192000Y-91694000D02*
X132842000Y-91694000D01*
X141224000Y-93726000D02*
X139192000Y-91694000D01*
X141224000Y-94234000D02*
X141224000Y-93726000D01*
X140970000Y-94488000D02*
X141224000Y-94234000D01*
X138441000Y-118320000D02*
X138441000Y-115051000D01*
X136906000Y-102108000D02*
X140208000Y-98806000D01*
X136906000Y-106934000D02*
X136906000Y-102108000D01*
X140208000Y-110236000D02*
X136906000Y-106934000D01*
X140208000Y-113284000D02*
X140208000Y-110236000D01*
X138441000Y-115051000D02*
X140208000Y-113284000D01*
X139091000Y-118320000D02*
X139091000Y-115163000D01*
X139091000Y-115163000D02*
X140716000Y-113538000D01*
X140716000Y-113538000D02*
X140716000Y-108966000D01*
X140716000Y-108966000D02*
X139954000Y-108204000D01*
X139954000Y-108204000D02*
X139954000Y-105156000D01*
X139954000Y-105156000D02*
X139192000Y-104394000D01*
X139192000Y-104394000D02*
X138684000Y-104394000D01*
X138684000Y-104394000D02*
X138430000Y-104140000D01*
X138430000Y-104140000D02*
X138430000Y-103124000D01*
X139741000Y-118320000D02*
X139741000Y-115275000D01*
X139741000Y-115275000D02*
X141224000Y-113792000D01*
X141224000Y-113792000D02*
X141224000Y-108712000D01*
X141224000Y-108712000D02*
X140462000Y-107950000D01*
X140462000Y-107950000D02*
X140462000Y-104902000D01*
X140462000Y-104902000D02*
X139192000Y-103632000D01*
X141041000Y-118320000D02*
X141041000Y-114737000D01*
X141041000Y-114737000D02*
X141732000Y-114046000D01*
X141732000Y-114046000D02*
X141732000Y-108458000D01*
X141732000Y-108458000D02*
X140970000Y-107696000D01*
X140970000Y-107696000D02*
X140970000Y-104648000D01*
X140970000Y-104648000D02*
X139954000Y-103632000D01*
X139954000Y-103632000D02*
X139954000Y-103124000D01*
X142991000Y-118320000D02*
X142991000Y-108193000D01*
X142991000Y-108193000D02*
X141986000Y-107188000D01*
X141986000Y-107188000D02*
X141986000Y-103124000D01*
X142341000Y-118320000D02*
X142341000Y-108305000D01*
X142341000Y-108305000D02*
X141478000Y-107442000D01*
X141478000Y-107442000D02*
X141478000Y-104140000D01*
X141478000Y-104140000D02*
X141224000Y-103886000D01*
X143641000Y-108327000D02*
X143641000Y-118320000D01*
X144780000Y-107188000D02*
X143641000Y-108327000D01*
X144780000Y-105156000D02*
X144780000Y-107188000D01*
X143002000Y-103378000D02*
X144780000Y-105156000D01*
X147066000Y-112776000D02*
X153924000Y-119634000D01*
X147066000Y-102616000D02*
X147066000Y-112776000D01*
X140970000Y-96520000D02*
X147066000Y-102616000D01*
X153162000Y-117856000D02*
X147574000Y-112268000D01*
X147574000Y-112268000D02*
X147574000Y-102108000D01*
X147574000Y-102108000D02*
X140970000Y-95504000D01*
X142240000Y-139827000D02*
X142367000Y-139827000D01*
X110490000Y-54272000D02*
X111336000Y-54272000D01*
X112406000Y-53202000D02*
X113620000Y-53202000D01*
X111336000Y-54272000D02*
X112406000Y-53202000D01*
X135636000Y-60960000D02*
X135890000Y-61214000D01*
X139700000Y-91186000D02*
X139192000Y-90932000D01*
X139192000Y-90932000D02*
X133604000Y-90932000D01*
X133604000Y-90932000D02*
X132080000Y-89408000D01*
X132080000Y-89408000D02*
X132080000Y-88138000D01*
X132080000Y-88138000D02*
X135890000Y-61214000D01*
X135636000Y-60960000D02*
X134366000Y-60960000D01*
X134366000Y-60960000D02*
X129286000Y-56642000D01*
X129286000Y-56642000D02*
X118872000Y-56642000D01*
X118872000Y-56642000D02*
X117983000Y-57531000D01*
X117983000Y-57531000D02*
X107360000Y-57542000D01*
X105664000Y-57404000D02*
X107222000Y-57404000D01*
X105410000Y-57658000D02*
X105664000Y-57404000D01*
X107222000Y-57404000D02*
X107360000Y-57542000D01*
X151130000Y-53782000D02*
X152410000Y-53782000D01*
X152410000Y-53782000D02*
X154260000Y-51932000D01*
X144272000Y-89916000D02*
X143764000Y-90170000D01*
X144272000Y-89916000D02*
X147828000Y-89916000D01*
X147828000Y-89916000D02*
X148844000Y-88900000D01*
X148844000Y-88900000D02*
X148844000Y-88138000D01*
X148844000Y-88138000D02*
X144526000Y-57404000D01*
X144526000Y-57404000D02*
X144526000Y-56642000D01*
X144526000Y-56642000D02*
X145542000Y-55626000D01*
X145542000Y-55626000D02*
X156464000Y-55626000D01*
X156464000Y-55626000D02*
X158160000Y-53732000D01*
X158160000Y-55200000D02*
X158160000Y-53732000D01*
X157988000Y-55372000D02*
X158160000Y-55200000D01*
X144526000Y-90678000D02*
X145034000Y-90424000D01*
X145034000Y-90424000D02*
X148082000Y-90424000D01*
X148082000Y-90424000D02*
X149352000Y-89154000D01*
X149352000Y-89154000D02*
X149352000Y-88138000D01*
X149352000Y-88138000D02*
X145034000Y-57404000D01*
X145034000Y-57404000D02*
X145034000Y-56896000D01*
X145034000Y-56896000D02*
X145796000Y-56134000D01*
X145796000Y-56134000D02*
X167132000Y-56134000D01*
X167132000Y-56134000D02*
X168320000Y-55002000D01*
X168320000Y-56470000D02*
X168320000Y-55002000D01*
X168148000Y-56642000D02*
X168320000Y-56470000D01*
X147066000Y-92456000D02*
X149860000Y-89408000D01*
X149860000Y-89408000D02*
X149860000Y-88138000D01*
X149860000Y-88138000D02*
X145542000Y-57404000D01*
X145542000Y-57404000D02*
X145542000Y-57150000D01*
X145542000Y-57150000D02*
X146050000Y-56642000D01*
X146050000Y-56642000D02*
X167132000Y-56642000D01*
X167132000Y-56642000D02*
X167894000Y-57404000D01*
X167894000Y-57404000D02*
X172466000Y-57404000D01*
X172466000Y-57404000D02*
X173990000Y-58928000D01*
X173990000Y-58928000D02*
X177546000Y-58928000D01*
X177546000Y-58928000D02*
X178480000Y-57542000D01*
X177408000Y-57542000D02*
X178480000Y-57542000D01*
X177292000Y-57658000D02*
X177408000Y-57542000D01*
X178562000Y-57624000D02*
X178480000Y-57542000D01*
X123814000Y-51932000D02*
X123780000Y-51932000D01*
X107360000Y-55742000D02*
X108828000Y-55742000D01*
X109558000Y-56472000D02*
X110490000Y-56472000D01*
X108828000Y-55742000D02*
X109558000Y-56472000D01*
X127680000Y-51932000D02*
X128132000Y-51932000D01*
X128132000Y-51932000D02*
X130132000Y-53932000D01*
X130132000Y-53932000D02*
X130810000Y-53932000D01*
X130810000Y-51732000D02*
X131656000Y-51732000D01*
X132726000Y-50662000D02*
X133940000Y-50662000D01*
X131656000Y-51732000D02*
X132726000Y-50662000D01*
X148000000Y-50662000D02*
X149214000Y-50662000D01*
X150284000Y-51732000D02*
X151130000Y-51732000D01*
X149214000Y-50662000D02*
X150284000Y-51732000D01*
X168320000Y-53202000D02*
X169534000Y-53202000D01*
X170604000Y-54272000D02*
X171450000Y-54272000D01*
X169534000Y-53202000D02*
X170604000Y-54272000D01*
X174580000Y-55742000D02*
X173620000Y-55742000D01*
X172890000Y-56472000D02*
X171450000Y-56472000D01*
X173620000Y-55742000D02*
X172890000Y-56472000D01*
D28*
G36*
X134073263Y-61304397D02*
X134134629Y-61338573D01*
X134193027Y-61377594D01*
X134211175Y-61381204D01*
X134227341Y-61390207D01*
X134297110Y-61398297D01*
X134366000Y-61412000D01*
X135405478Y-61412000D01*
X131632459Y-88074669D01*
X131634243Y-88106616D01*
X131628000Y-88138000D01*
X131628000Y-89408000D01*
X131662406Y-89580973D01*
X131760388Y-89727612D01*
X133194055Y-91161280D01*
X132967265Y-91067109D01*
X132717829Y-91066891D01*
X132487297Y-91162145D01*
X132310765Y-91338369D01*
X132215109Y-91568735D01*
X132214891Y-91818171D01*
X132310145Y-92048703D01*
X132486369Y-92225235D01*
X132716735Y-92320891D01*
X132966171Y-92321109D01*
X133196703Y-92225855D01*
X133276698Y-92146000D01*
X139004776Y-92146000D01*
X140756555Y-93897779D01*
X140615297Y-93956145D01*
X140438765Y-94132369D01*
X140343109Y-94362735D01*
X140342891Y-94612171D01*
X140438145Y-94842703D01*
X140591287Y-94996113D01*
X140438765Y-95148369D01*
X140343109Y-95378735D01*
X140342891Y-95628171D01*
X140438145Y-95858703D01*
X140591287Y-96012113D01*
X140438765Y-96164369D01*
X140343109Y-96394735D01*
X140342891Y-96644171D01*
X140419674Y-96830000D01*
X139954000Y-96830000D01*
X139781027Y-96864406D01*
X139634388Y-96962388D01*
X138163787Y-98432989D01*
X138051829Y-98432891D01*
X137821297Y-98528145D01*
X137644765Y-98704369D01*
X137549109Y-98934735D01*
X137548891Y-99184171D01*
X137644145Y-99414703D01*
X137820369Y-99591235D01*
X138050735Y-99686891D01*
X138300171Y-99687109D01*
X138530703Y-99591855D01*
X138707235Y-99415631D01*
X138802891Y-99185265D01*
X138802990Y-99072234D01*
X140141224Y-97734000D01*
X140782776Y-97734000D01*
X142296000Y-99247224D01*
X142296000Y-99314000D01*
X142330406Y-99486973D01*
X142428388Y-99633612D01*
X142672776Y-99878000D01*
X141404728Y-99878000D01*
X141325631Y-99798765D01*
X141095265Y-99703109D01*
X140845829Y-99702891D01*
X140615297Y-99798145D01*
X140438765Y-99974369D01*
X140343109Y-100204735D01*
X140342891Y-100454171D01*
X140438145Y-100684703D01*
X140614369Y-100861235D01*
X140844735Y-100956891D01*
X141094171Y-100957109D01*
X141324703Y-100861855D01*
X141404698Y-100782000D01*
X142560776Y-100782000D01*
X143312000Y-101533224D01*
X143312000Y-102827817D01*
X143127265Y-102751109D01*
X142877829Y-102750891D01*
X142647297Y-102846145D01*
X142578135Y-102915186D01*
X142517855Y-102769297D01*
X142341631Y-102592765D01*
X142111265Y-102497109D01*
X141861829Y-102496891D01*
X141631297Y-102592145D01*
X141454765Y-102768369D01*
X141359109Y-102998735D01*
X141358891Y-103248171D01*
X141366340Y-103266199D01*
X141349265Y-103259109D01*
X141099829Y-103258891D01*
X140869297Y-103354145D01*
X140692765Y-103530369D01*
X140633740Y-103672516D01*
X140463026Y-103501802D01*
X140485235Y-103479631D01*
X140580891Y-103249265D01*
X140581109Y-102999829D01*
X140485855Y-102769297D01*
X140309631Y-102592765D01*
X140079265Y-102497109D01*
X139829829Y-102496891D01*
X139599297Y-102592145D01*
X139422765Y-102768369D01*
X139327109Y-102998735D01*
X139327100Y-103009193D01*
X139317265Y-103005109D01*
X139067829Y-103004891D01*
X139057101Y-103009324D01*
X139057109Y-102999829D01*
X138961855Y-102769297D01*
X138785631Y-102592765D01*
X138555265Y-102497109D01*
X138305829Y-102496891D01*
X138075297Y-102592145D01*
X137898765Y-102768369D01*
X137803109Y-102998735D01*
X137802891Y-103248171D01*
X137898145Y-103478703D01*
X137978000Y-103558698D01*
X137978000Y-104140000D01*
X138012406Y-104312973D01*
X138110388Y-104459612D01*
X138267279Y-104616503D01*
X138021434Y-104665404D01*
X137591090Y-104952951D01*
X137358000Y-105301794D01*
X137358000Y-102295224D01*
X140220213Y-99433011D01*
X140332171Y-99433109D01*
X140562703Y-99337855D01*
X140739235Y-99161631D01*
X140834891Y-98931265D01*
X140835109Y-98681829D01*
X140739855Y-98451297D01*
X140563631Y-98274765D01*
X140333265Y-98179109D01*
X140083829Y-98178891D01*
X139853297Y-98274145D01*
X139676765Y-98450369D01*
X139581109Y-98680735D01*
X139581010Y-98793766D01*
X136586388Y-101788388D01*
X136488406Y-101935027D01*
X136454000Y-102108000D01*
X136454000Y-106934000D01*
X136488406Y-107106973D01*
X136586388Y-107253612D01*
X139756000Y-110423224D01*
X139756000Y-113096775D01*
X138121388Y-114731388D01*
X138023406Y-114878027D01*
X137989000Y-115051000D01*
X137989000Y-117117494D01*
X137395661Y-117117494D01*
X137366000Y-117111594D01*
X136916000Y-117111594D01*
X136788411Y-117136973D01*
X136680246Y-117209246D01*
X136630966Y-117283000D01*
X119540173Y-117283000D01*
X119440644Y-117134045D01*
X119119415Y-116919406D01*
X119507000Y-116919406D01*
X119634589Y-116894027D01*
X119742754Y-116821754D01*
X119815027Y-116713589D01*
X119840406Y-116586000D01*
X119840406Y-114554000D01*
X119815027Y-114426411D01*
X119742754Y-114318246D01*
X119634589Y-114245973D01*
X119507000Y-114220594D01*
X117475000Y-114220594D01*
X117347411Y-114245973D01*
X117239246Y-114318246D01*
X117166973Y-114426411D01*
X117141594Y-114554000D01*
X117141594Y-116586000D01*
X117166973Y-116713589D01*
X117239246Y-116821754D01*
X117347411Y-116894027D01*
X117475000Y-116919406D01*
X117862585Y-116919406D01*
X117541356Y-117134045D01*
X117250230Y-117569745D01*
X117148000Y-118083689D01*
X117148000Y-118136311D01*
X117250230Y-118650255D01*
X117541356Y-119085955D01*
X117977056Y-119377081D01*
X118491000Y-119479311D01*
X118732799Y-119431214D01*
X132969000Y-119431214D01*
X132969000Y-120148350D01*
X133064250Y-120243600D01*
X134340600Y-120243600D01*
X134340600Y-119221250D01*
X134391400Y-119221250D01*
X134391400Y-120243600D01*
X135667750Y-120243600D01*
X135763000Y-120148350D01*
X135763000Y-119431214D01*
X135704996Y-119291180D01*
X135597819Y-119184004D01*
X135457785Y-119126000D01*
X134486650Y-119126000D01*
X134391400Y-119221250D01*
X134340600Y-119221250D01*
X134245350Y-119126000D01*
X133274215Y-119126000D01*
X133134181Y-119184004D01*
X133027004Y-119291180D01*
X132969000Y-119431214D01*
X118732799Y-119431214D01*
X119004944Y-119377081D01*
X119440644Y-119085955D01*
X119540173Y-118937000D01*
X136581394Y-118937000D01*
X136581394Y-119200900D01*
X136606773Y-119328489D01*
X136679046Y-119436654D01*
X136787211Y-119508927D01*
X136914800Y-119534306D01*
X138014800Y-119534306D01*
X138130231Y-119511345D01*
X138216000Y-119528406D01*
X138666000Y-119528406D01*
X138766000Y-119508515D01*
X138866000Y-119528406D01*
X139316000Y-119528406D01*
X139416000Y-119508515D01*
X139516000Y-119528406D01*
X139939000Y-119528406D01*
X139939000Y-119574733D01*
X139853297Y-119610145D01*
X139676765Y-119786369D01*
X139581109Y-120016735D01*
X139580891Y-120266171D01*
X139676145Y-120496703D01*
X139852369Y-120673235D01*
X140082735Y-120768891D01*
X140332171Y-120769109D01*
X140562703Y-120673855D01*
X140739235Y-120497631D01*
X140834891Y-120267265D01*
X140835109Y-120017829D01*
X140832537Y-120011603D01*
X140843000Y-119959000D01*
X140843000Y-119528406D01*
X141266000Y-119528406D01*
X141272292Y-119527155D01*
X141390215Y-119576000D01*
X141570350Y-119576000D01*
X141665600Y-119480750D01*
X141665600Y-118345400D01*
X141645600Y-118345400D01*
X141645600Y-118294600D01*
X141665600Y-118294600D01*
X141665600Y-117159250D01*
X141570350Y-117064000D01*
X141493000Y-117064000D01*
X141493000Y-114924224D01*
X141889000Y-114528225D01*
X141889000Y-117064000D01*
X141811650Y-117064000D01*
X141716400Y-117159250D01*
X141716400Y-118294600D01*
X141736400Y-118294600D01*
X141736400Y-118345400D01*
X141716400Y-118345400D01*
X141716400Y-119480750D01*
X141811650Y-119576000D01*
X141991785Y-119576000D01*
X142109708Y-119527155D01*
X142116000Y-119528406D01*
X142566000Y-119528406D01*
X142666000Y-119508515D01*
X142766000Y-119528406D01*
X143216000Y-119528406D01*
X143316000Y-119508515D01*
X143416000Y-119528406D01*
X143866000Y-119528406D01*
X143966000Y-119508515D01*
X144066000Y-119528406D01*
X144516000Y-119528406D01*
X144643589Y-119503027D01*
X144751754Y-119430754D01*
X144824027Y-119322589D01*
X144849406Y-119195000D01*
X144849406Y-118772000D01*
X144929776Y-118772000D01*
X145716594Y-119558818D01*
X145716594Y-121031000D01*
X145741973Y-121158589D01*
X145814246Y-121266754D01*
X145922411Y-121339027D01*
X146050000Y-121364406D01*
X148082000Y-121364406D01*
X148209589Y-121339027D01*
X148317754Y-121266754D01*
X148390027Y-121158589D01*
X148415406Y-121031000D01*
X148415406Y-120721000D01*
X148717776Y-120721000D01*
X148897594Y-120900818D01*
X148897594Y-121570000D01*
X148922973Y-121697589D01*
X148995246Y-121805754D01*
X149103411Y-121878027D01*
X149231000Y-121903406D01*
X149981000Y-121903406D01*
X150108589Y-121878027D01*
X150216754Y-121805754D01*
X150289027Y-121697589D01*
X150314406Y-121570000D01*
X150314406Y-121422000D01*
X150500776Y-121422000D01*
X150756989Y-121678213D01*
X150756891Y-121790171D01*
X150852145Y-122020703D01*
X151028369Y-122197235D01*
X151258735Y-122292891D01*
X151508171Y-122293109D01*
X151738703Y-122197855D01*
X151915235Y-122021631D01*
X152010891Y-121791265D01*
X152011109Y-121541829D01*
X151915855Y-121311297D01*
X151739631Y-121134765D01*
X151509265Y-121039109D01*
X151396235Y-121039010D01*
X151007612Y-120650388D01*
X150860973Y-120552406D01*
X150688000Y-120518000D01*
X150314406Y-120518000D01*
X150314406Y-120370000D01*
X150289027Y-120242411D01*
X150216754Y-120134246D01*
X150108589Y-120061973D01*
X149981000Y-120036594D01*
X149311818Y-120036594D01*
X149224612Y-119949388D01*
X149077973Y-119851406D01*
X148905000Y-119817000D01*
X148415406Y-119817000D01*
X148415406Y-119507000D01*
X148390027Y-119379411D01*
X148317754Y-119271246D01*
X148209589Y-119198973D01*
X148082000Y-119173594D01*
X146609818Y-119173594D01*
X145436612Y-118000388D01*
X145289973Y-117902406D01*
X145117000Y-117868000D01*
X144849406Y-117868000D01*
X144849406Y-117445000D01*
X144824027Y-117317411D01*
X144751754Y-117209246D01*
X144643589Y-117136973D01*
X144516000Y-117111594D01*
X144093000Y-117111594D01*
X144093000Y-108514224D01*
X145099612Y-107507612D01*
X145197594Y-107360973D01*
X145214017Y-107278406D01*
X145232000Y-107188000D01*
X145232000Y-105156000D01*
X145197594Y-104983027D01*
X145116624Y-104861848D01*
X146106000Y-105851224D01*
X146106000Y-113284000D01*
X146140406Y-113456973D01*
X146238388Y-113603612D01*
X152202000Y-119567224D01*
X152202000Y-125542776D01*
X151625787Y-126118989D01*
X151513829Y-126118891D01*
X151283297Y-126214145D01*
X151106765Y-126390369D01*
X151011109Y-126620735D01*
X151010891Y-126870171D01*
X151106145Y-127100703D01*
X151282369Y-127277235D01*
X151512735Y-127372891D01*
X151762171Y-127373109D01*
X151992703Y-127277855D01*
X152169235Y-127101631D01*
X152264891Y-126871265D01*
X152264990Y-126758234D01*
X152973612Y-126049612D01*
X153071594Y-125902973D01*
X153106000Y-125730000D01*
X153106000Y-123601328D01*
X166832640Y-123601328D01*
X167148178Y-124364989D01*
X167731938Y-124949768D01*
X168495047Y-125266639D01*
X169321328Y-125267360D01*
X170084989Y-124951822D01*
X170669768Y-124368062D01*
X170986639Y-123604953D01*
X170987360Y-122778672D01*
X170671822Y-122015011D01*
X170088062Y-121430232D01*
X169324953Y-121113361D01*
X168498672Y-121112640D01*
X167735011Y-121428178D01*
X167150232Y-122011938D01*
X166833361Y-122775047D01*
X166832640Y-123601328D01*
X153106000Y-123601328D01*
X153106000Y-119455225D01*
X153296989Y-119646214D01*
X153296891Y-119758171D01*
X153392145Y-119988703D01*
X153568369Y-120165235D01*
X153798735Y-120260891D01*
X154048171Y-120261109D01*
X154278703Y-120165855D01*
X154455235Y-119989631D01*
X154550891Y-119759265D01*
X154551109Y-119509829D01*
X154455855Y-119279297D01*
X154279631Y-119102765D01*
X154049265Y-119007109D01*
X153936235Y-119007010D01*
X153375446Y-118446221D01*
X153516703Y-118387855D01*
X153693235Y-118211631D01*
X153788891Y-117981265D01*
X153789109Y-117731829D01*
X153693855Y-117501297D01*
X153517631Y-117324765D01*
X153287265Y-117229109D01*
X153174235Y-117229010D01*
X148026000Y-112080776D01*
X148026000Y-102108000D01*
X147991594Y-101935027D01*
X147900035Y-101798000D01*
X147893612Y-101788387D01*
X141597011Y-95491787D01*
X141597109Y-95379829D01*
X141501855Y-95149297D01*
X141348713Y-94995887D01*
X141478655Y-94866171D01*
X148470891Y-94866171D01*
X148566145Y-95096703D01*
X148646000Y-95176698D01*
X148646000Y-95758000D01*
X148680406Y-95930973D01*
X148778388Y-96077612D01*
X151440000Y-98739224D01*
X151440000Y-100149272D01*
X151360765Y-100228369D01*
X151265109Y-100458735D01*
X151264891Y-100708171D01*
X151360145Y-100938703D01*
X151536369Y-101115235D01*
X151766735Y-101210891D01*
X152016171Y-101211109D01*
X152246703Y-101115855D01*
X152423235Y-100939631D01*
X152518891Y-100709265D01*
X152519109Y-100459829D01*
X152423855Y-100229297D01*
X152344000Y-100149302D01*
X152344000Y-98552000D01*
X152309594Y-98379027D01*
X152211612Y-98232388D01*
X149550000Y-95570776D01*
X149550000Y-95176728D01*
X149629235Y-95097631D01*
X149724891Y-94867265D01*
X149725109Y-94617829D01*
X149629855Y-94387297D01*
X149453631Y-94210765D01*
X149223265Y-94115109D01*
X148973829Y-94114891D01*
X148743297Y-94210145D01*
X148566765Y-94386369D01*
X148471109Y-94616735D01*
X148470891Y-94866171D01*
X141478655Y-94866171D01*
X141501235Y-94843631D01*
X141596891Y-94613265D01*
X141597013Y-94473693D01*
X141641594Y-94406973D01*
X141658017Y-94324406D01*
X141676000Y-94234000D01*
X141676000Y-93726000D01*
X141641594Y-93553027D01*
X141543612Y-93406388D01*
X139913445Y-91776221D01*
X140054703Y-91717855D01*
X140231235Y-91541631D01*
X140326891Y-91311265D01*
X140326900Y-91300807D01*
X140336735Y-91304891D01*
X140586171Y-91305109D01*
X140816703Y-91209855D01*
X140993235Y-91033631D01*
X141088891Y-90803265D01*
X141088900Y-90792807D01*
X141098735Y-90796891D01*
X141348171Y-90797109D01*
X141578703Y-90701855D01*
X141755235Y-90525631D01*
X141849199Y-90299341D01*
X141860735Y-90304131D01*
X142110171Y-90304349D01*
X142340703Y-90209095D01*
X142501733Y-90048346D01*
X142646369Y-90193235D01*
X142876735Y-90288891D01*
X143126171Y-90289109D01*
X143136899Y-90284676D01*
X143136891Y-90294171D01*
X143232145Y-90524703D01*
X143408369Y-90701235D01*
X143638735Y-90796891D01*
X143888171Y-90797109D01*
X143898899Y-90792676D01*
X143898891Y-90802171D01*
X143994145Y-91032703D01*
X144170369Y-91209235D01*
X144400735Y-91304891D01*
X144650171Y-91305109D01*
X144880703Y-91209855D01*
X145057235Y-91033631D01*
X145117969Y-90887367D01*
X145140702Y-90876000D01*
X147901164Y-90876000D01*
X147027612Y-91828966D01*
X146941829Y-91828891D01*
X146711297Y-91924145D01*
X146534765Y-92100369D01*
X146439109Y-92330735D01*
X146438891Y-92580171D01*
X146534145Y-92810703D01*
X146710369Y-92987235D01*
X146940735Y-93082891D01*
X147190171Y-93083109D01*
X147420703Y-92987855D01*
X147597235Y-92811631D01*
X147692891Y-92581265D01*
X147693014Y-92440897D01*
X150193193Y-89713428D01*
X150233953Y-89646285D01*
X150277594Y-89580973D01*
X150279539Y-89571194D01*
X150284713Y-89562671D01*
X150296675Y-89485044D01*
X150312000Y-89408000D01*
X150312000Y-88138000D01*
X150305801Y-88106836D01*
X150307604Y-88075113D01*
X145994000Y-57372402D01*
X145994000Y-57337224D01*
X146237225Y-57094000D01*
X166944776Y-57094000D01*
X167574388Y-57723612D01*
X167721027Y-57821594D01*
X167894000Y-57856000D01*
X172278776Y-57856000D01*
X172399682Y-57976906D01*
X152949456Y-57976906D01*
X152938867Y-57979012D01*
X152928155Y-57977653D01*
X152788365Y-57987472D01*
X152749325Y-57998129D01*
X152709261Y-58003785D01*
X152340977Y-58132652D01*
X152318861Y-58145698D01*
X152238811Y-58192918D01*
X151947876Y-58452914D01*
X151876551Y-58547689D01*
X151876550Y-58547691D01*
X151707259Y-58899228D01*
X151677631Y-59014083D01*
X151655753Y-59403650D01*
X151659939Y-59433298D01*
X151658260Y-59463192D01*
X158668985Y-109122496D01*
X158670257Y-109126131D01*
X158670137Y-109129977D01*
X158689789Y-109181952D01*
X158708161Y-109234455D01*
X158710728Y-109237327D01*
X158712088Y-109240925D01*
X158750142Y-109281432D01*
X158787200Y-109322899D01*
X158790668Y-109324569D01*
X158793304Y-109327375D01*
X172666000Y-119236444D01*
X172666000Y-144776000D01*
X160667421Y-144776000D01*
X155146696Y-140832625D01*
X155115130Y-140818381D01*
X155086336Y-140799141D01*
X155061582Y-140794217D01*
X155038579Y-140783837D01*
X155003968Y-140782757D01*
X154970000Y-140776000D01*
X150428084Y-140776000D01*
X150468104Y-140750425D01*
X150746140Y-140352154D01*
X150850600Y-139877800D01*
X150850600Y-139725400D01*
X149631400Y-139725400D01*
X149631400Y-139745400D01*
X149580600Y-139745400D01*
X149580600Y-139725400D01*
X148361400Y-139725400D01*
X148361400Y-139877800D01*
X148465860Y-140352154D01*
X148743896Y-140750425D01*
X148783916Y-140776000D01*
X147824957Y-140776000D01*
X147907881Y-140720592D01*
X148165971Y-140334334D01*
X148256600Y-139878711D01*
X148256600Y-139522200D01*
X148361400Y-139522200D01*
X148361400Y-139674600D01*
X149580600Y-139674600D01*
X149580600Y-138398531D01*
X149631400Y-138398531D01*
X149631400Y-139674600D01*
X150850600Y-139674600D01*
X150850600Y-139522200D01*
X150746140Y-139047846D01*
X150468104Y-138649575D01*
X150058821Y-138388020D01*
X149825745Y-138322552D01*
X149631400Y-138398531D01*
X149580600Y-138398531D01*
X149386255Y-138322552D01*
X149153179Y-138388020D01*
X148743896Y-138649575D01*
X148465860Y-139047846D01*
X148361400Y-139522200D01*
X148256600Y-139522200D01*
X148256600Y-139521289D01*
X148165971Y-139065666D01*
X147907881Y-138679408D01*
X147521623Y-138421318D01*
X147066000Y-138330689D01*
X146610377Y-138421318D01*
X146224119Y-138679408D01*
X145966029Y-139065666D01*
X145875400Y-139521289D01*
X145875400Y-139878711D01*
X145966029Y-140334334D01*
X146224119Y-140720592D01*
X146307043Y-140776000D01*
X145284957Y-140776000D01*
X145367881Y-140720592D01*
X145625971Y-140334334D01*
X145716600Y-139878711D01*
X145716600Y-139521289D01*
X145625971Y-139065666D01*
X145367881Y-138679408D01*
X144981623Y-138421318D01*
X144526000Y-138330689D01*
X144070377Y-138421318D01*
X143684119Y-138679408D01*
X143426029Y-139065666D01*
X143335400Y-139521289D01*
X143335400Y-139878711D01*
X143426029Y-140334334D01*
X143684119Y-140720592D01*
X143767043Y-140776000D01*
X142744957Y-140776000D01*
X142827881Y-140720592D01*
X143085971Y-140334334D01*
X143176600Y-139878711D01*
X143176600Y-139521289D01*
X143085971Y-139065666D01*
X142827881Y-138679408D01*
X142441623Y-138421318D01*
X141986000Y-138330689D01*
X141530377Y-138421318D01*
X141144119Y-138679408D01*
X140886029Y-139065666D01*
X140795400Y-139521289D01*
X140795400Y-139878711D01*
X140886029Y-140334334D01*
X141144119Y-140720592D01*
X141227043Y-140776000D01*
X140268084Y-140776000D01*
X140308104Y-140750425D01*
X140586140Y-140352154D01*
X140690600Y-139877800D01*
X140690600Y-139725400D01*
X139471400Y-139725400D01*
X139471400Y-139745400D01*
X139420600Y-139745400D01*
X139420600Y-139725400D01*
X138201400Y-139725400D01*
X138201400Y-139877800D01*
X138305860Y-140352154D01*
X138583896Y-140750425D01*
X138623916Y-140776000D01*
X137664957Y-140776000D01*
X137747881Y-140720592D01*
X138005971Y-140334334D01*
X138096600Y-139878711D01*
X138096600Y-139522200D01*
X138201400Y-139522200D01*
X138201400Y-139674600D01*
X139420600Y-139674600D01*
X139420600Y-138398531D01*
X139471400Y-138398531D01*
X139471400Y-139674600D01*
X140690600Y-139674600D01*
X140690600Y-139522200D01*
X140586140Y-139047846D01*
X140308104Y-138649575D01*
X139898821Y-138388020D01*
X139665745Y-138322552D01*
X139471400Y-138398531D01*
X139420600Y-138398531D01*
X139226255Y-138322552D01*
X138993179Y-138388020D01*
X138583896Y-138649575D01*
X138305860Y-139047846D01*
X138201400Y-139522200D01*
X138096600Y-139522200D01*
X138096600Y-139521289D01*
X138005971Y-139065666D01*
X137747881Y-138679408D01*
X137361623Y-138421318D01*
X136906000Y-138330689D01*
X136450377Y-138421318D01*
X136064119Y-138679408D01*
X135806029Y-139065666D01*
X135715400Y-139521289D01*
X135715400Y-139878711D01*
X135806029Y-140334334D01*
X136064119Y-140720592D01*
X136147043Y-140776000D01*
X135124957Y-140776000D01*
X135207881Y-140720592D01*
X135465971Y-140334334D01*
X135556600Y-139878711D01*
X135556600Y-139521289D01*
X135465971Y-139065666D01*
X135207881Y-138679408D01*
X134821623Y-138421318D01*
X134366000Y-138330689D01*
X133910377Y-138421318D01*
X133524119Y-138679408D01*
X133266029Y-139065666D01*
X133175400Y-139521289D01*
X133175400Y-139878711D01*
X133266029Y-140334334D01*
X133524119Y-140720592D01*
X133607043Y-140776000D01*
X133011071Y-140776000D01*
X133023006Y-140716000D01*
X133023006Y-138684000D01*
X132997627Y-138556411D01*
X132925354Y-138448246D01*
X132817189Y-138375973D01*
X132689600Y-138350594D01*
X130962400Y-138350594D01*
X130834811Y-138375973D01*
X130726646Y-138448246D01*
X130654373Y-138556411D01*
X130628994Y-138684000D01*
X130628994Y-140716000D01*
X130640929Y-140776000D01*
X126970000Y-140776000D01*
X126936032Y-140782757D01*
X126901420Y-140783837D01*
X126878417Y-140794217D01*
X126853664Y-140799141D01*
X126824872Y-140818380D01*
X126793303Y-140832625D01*
X121272579Y-144776000D01*
X109274000Y-144776000D01*
X109274000Y-141635328D01*
X110952640Y-141635328D01*
X111268178Y-142398989D01*
X111851938Y-142983768D01*
X112615047Y-143300639D01*
X113441328Y-143301360D01*
X114204989Y-142985822D01*
X114685681Y-142505967D01*
X120322767Y-142505967D01*
X120526796Y-142999755D01*
X120904258Y-143377876D01*
X121397689Y-143582766D01*
X121931967Y-143583233D01*
X122425755Y-143379204D01*
X122803876Y-143001742D01*
X123008766Y-142508311D01*
X123009233Y-141974033D01*
X122983491Y-141911733D01*
X123003480Y-141930869D01*
X123491860Y-142120799D01*
X124015748Y-142109378D01*
X124495387Y-141898342D01*
X124538492Y-141868160D01*
X124900861Y-141489638D01*
X125090791Y-141001258D01*
X125079370Y-140477370D01*
X124868334Y-139997732D01*
X124573646Y-139715619D01*
X124573646Y-139231908D01*
X134144904Y-129660650D01*
X141240000Y-129660650D01*
X141240000Y-130615786D01*
X141298004Y-130755820D01*
X141405181Y-130862996D01*
X141545215Y-130921000D01*
X141951056Y-130921000D01*
X141870297Y-130954369D01*
X141496681Y-131327334D01*
X141294231Y-131814885D01*
X141293771Y-132342798D01*
X141495369Y-132830703D01*
X141868334Y-133204319D01*
X142219433Y-133350109D01*
X141870297Y-133494369D01*
X141496681Y-133867334D01*
X141294231Y-134354885D01*
X141293771Y-134882798D01*
X141495369Y-135370703D01*
X141868334Y-135744319D01*
X142355885Y-135946769D01*
X142883798Y-135947229D01*
X143371703Y-135745631D01*
X143745319Y-135372666D01*
X143947769Y-134885115D01*
X143948229Y-134357202D01*
X143746631Y-133869297D01*
X143373666Y-133495681D01*
X143022567Y-133349891D01*
X143371703Y-133205631D01*
X143745319Y-132832666D01*
X143947769Y-132345115D01*
X143948229Y-131817202D01*
X143746631Y-131329297D01*
X143373666Y-130955681D01*
X143290145Y-130921000D01*
X143696785Y-130921000D01*
X143836819Y-130862996D01*
X143943996Y-130755820D01*
X144002000Y-130615786D01*
X144002000Y-129660650D01*
X143906750Y-129565400D01*
X142646400Y-129565400D01*
X142646400Y-129585400D01*
X142595600Y-129585400D01*
X142595600Y-129565400D01*
X141335250Y-129565400D01*
X141240000Y-129660650D01*
X134144904Y-129660650D01*
X134708555Y-129097000D01*
X139446000Y-129097000D01*
X139762479Y-129034048D01*
X140030777Y-128854777D01*
X140655617Y-128229937D01*
X140834888Y-127961639D01*
X140862171Y-127824479D01*
X140864951Y-127810505D01*
X141147223Y-128092777D01*
X141376326Y-128245859D01*
X141298004Y-128324180D01*
X141240000Y-128464214D01*
X141240000Y-129419350D01*
X141335250Y-129514600D01*
X142595600Y-129514600D01*
X142595600Y-129494600D01*
X142646400Y-129494600D01*
X142646400Y-129514600D01*
X143906750Y-129514600D01*
X144002000Y-129419350D01*
X144002000Y-128464214D01*
X143948478Y-128335000D01*
X147485446Y-128335000D01*
X157669000Y-138518555D01*
X157669000Y-139897924D01*
X157358124Y-140208258D01*
X157153234Y-140701689D01*
X157152767Y-141235967D01*
X157356796Y-141729755D01*
X157734258Y-142107876D01*
X158227689Y-142312766D01*
X158761967Y-142313233D01*
X159247710Y-142112528D01*
X159243922Y-142121138D01*
X159232501Y-142645026D01*
X159422431Y-143133406D01*
X159784799Y-143511928D01*
X159827905Y-143542110D01*
X160307544Y-143753146D01*
X160831432Y-143764567D01*
X161319812Y-143574637D01*
X161698334Y-143212268D01*
X161909370Y-142732630D01*
X161920791Y-142208742D01*
X161730861Y-141720362D01*
X161649456Y-141635328D01*
X166832640Y-141635328D01*
X167148178Y-142398989D01*
X167731938Y-142983768D01*
X168495047Y-143300639D01*
X169321328Y-143301360D01*
X170084989Y-142985822D01*
X170669768Y-142402062D01*
X170986639Y-141638953D01*
X170987360Y-140812672D01*
X170671822Y-140049011D01*
X170088062Y-139464232D01*
X169324953Y-139147361D01*
X168498672Y-139146640D01*
X167735011Y-139462178D01*
X167150232Y-140045938D01*
X166833361Y-140809047D01*
X166832640Y-141635328D01*
X161649456Y-141635328D01*
X161403646Y-141378561D01*
X161403646Y-137970646D01*
X161340694Y-137654167D01*
X161161423Y-137385869D01*
X149073247Y-125297693D01*
X149198703Y-125245855D01*
X149375235Y-125069631D01*
X149470891Y-124839265D01*
X149471109Y-124589829D01*
X149375855Y-124359297D01*
X149199631Y-124182765D01*
X148969265Y-124087109D01*
X148856234Y-124087010D01*
X148792224Y-124023000D01*
X148905000Y-124023000D01*
X149077973Y-123988594D01*
X149224612Y-123890612D01*
X149311818Y-123803406D01*
X149981000Y-123803406D01*
X150108589Y-123778027D01*
X150216754Y-123705754D01*
X150289027Y-123597589D01*
X150314406Y-123470000D01*
X150314406Y-122270000D01*
X150289027Y-122142411D01*
X150216754Y-122034246D01*
X150108589Y-121961973D01*
X149981000Y-121936594D01*
X149231000Y-121936594D01*
X149103411Y-121961973D01*
X148995246Y-122034246D01*
X148922973Y-122142411D01*
X148897594Y-122270000D01*
X148897594Y-122939182D01*
X148717776Y-123119000D01*
X148415406Y-123119000D01*
X148415406Y-122809000D01*
X148390027Y-122681411D01*
X148317754Y-122573246D01*
X148209589Y-122500973D01*
X148082000Y-122475594D01*
X146050000Y-122475594D01*
X145922411Y-122500973D01*
X145814246Y-122573246D01*
X145741973Y-122681411D01*
X145716594Y-122809000D01*
X145716594Y-124333000D01*
X145741973Y-124460589D01*
X145814246Y-124568754D01*
X145922411Y-124641027D01*
X146050000Y-124666406D01*
X148082000Y-124666406D01*
X148144709Y-124653933D01*
X148199842Y-124709066D01*
X148127720Y-124694720D01*
X144850606Y-124694720D01*
X144850606Y-124646720D01*
X144825227Y-124519131D01*
X144752954Y-124410966D01*
X144752862Y-124410905D01*
X144751754Y-124409246D01*
X144643589Y-124336973D01*
X144516000Y-124311594D01*
X144066000Y-124311594D01*
X144057353Y-124313314D01*
X143417200Y-124313314D01*
X143320924Y-124332465D01*
X143216000Y-124311594D01*
X142792760Y-124311594D01*
X142792760Y-124252970D01*
X142848703Y-124229855D01*
X143025235Y-124053631D01*
X143120891Y-123823265D01*
X143121109Y-123573829D01*
X143025855Y-123343297D01*
X142849631Y-123166765D01*
X142619265Y-123071109D01*
X142369829Y-123070891D01*
X142139297Y-123166145D01*
X141962765Y-123342369D01*
X141867109Y-123572735D01*
X141866891Y-123822171D01*
X141888760Y-123875098D01*
X141888760Y-124311594D01*
X141466000Y-124311594D01*
X141457353Y-124313314D01*
X140816240Y-124313314D01*
X140720444Y-124332369D01*
X140616000Y-124311594D01*
X140166000Y-124311594D01*
X140157353Y-124313314D01*
X139543000Y-124313314D01*
X139543000Y-123875985D01*
X139564891Y-123823265D01*
X139565109Y-123573829D01*
X139469855Y-123343297D01*
X139293631Y-123166765D01*
X139063265Y-123071109D01*
X138813829Y-123070891D01*
X138583297Y-123166145D01*
X138406765Y-123342369D01*
X138311109Y-123572735D01*
X138310891Y-123822171D01*
X138406145Y-124052703D01*
X138582369Y-124229235D01*
X138639000Y-124252750D01*
X138639000Y-124321754D01*
X138215760Y-124321754D01*
X138141419Y-124336541D01*
X138016000Y-124311594D01*
X137566000Y-124311594D01*
X137531814Y-124318394D01*
X136914800Y-124318394D01*
X136787211Y-124343773D01*
X136679046Y-124416046D01*
X136606773Y-124524211D01*
X136581394Y-124651800D01*
X136581394Y-124699800D01*
X134569200Y-124699800D01*
X134278260Y-124757672D01*
X134252721Y-124762752D01*
X133984422Y-124942023D01*
X121081223Y-137845223D01*
X120901952Y-138113521D01*
X120839000Y-138430000D01*
X120839000Y-141167924D01*
X120528124Y-141478258D01*
X120323234Y-141971689D01*
X120322767Y-142505967D01*
X114685681Y-142505967D01*
X114789768Y-142402062D01*
X115106639Y-141638953D01*
X115107360Y-140812672D01*
X114791822Y-140049011D01*
X114208062Y-139464232D01*
X113444953Y-139147361D01*
X112618672Y-139146640D01*
X111855011Y-139462178D01*
X111270232Y-140045938D01*
X110953361Y-140809047D01*
X110952640Y-141635328D01*
X109274000Y-141635328D01*
X109274000Y-123601328D01*
X110952640Y-123601328D01*
X111268178Y-124364989D01*
X111851938Y-124949768D01*
X112615047Y-125266639D01*
X113441328Y-125267360D01*
X114204989Y-124951822D01*
X114789768Y-124368062D01*
X115106639Y-123604953D01*
X115107360Y-122778672D01*
X114791822Y-122015011D01*
X114208062Y-121430232D01*
X113444953Y-121113361D01*
X112618672Y-121112640D01*
X111855011Y-121428178D01*
X111270232Y-122011938D01*
X110953361Y-122775047D01*
X110952640Y-123601328D01*
X109274000Y-123601328D01*
X109274000Y-121090650D01*
X131070000Y-121090650D01*
X131070000Y-121645786D01*
X131128004Y-121785820D01*
X131235181Y-121892996D01*
X131375215Y-121951000D01*
X131378576Y-121951000D01*
X131323411Y-121961973D01*
X131215246Y-122034246D01*
X131142973Y-122142411D01*
X131117594Y-122270000D01*
X131117594Y-123470000D01*
X131142973Y-123597589D01*
X131215246Y-123705754D01*
X131323411Y-123778027D01*
X131451000Y-123803406D01*
X132120182Y-123803406D01*
X132207388Y-123890612D01*
X132354027Y-123988594D01*
X132527000Y-124023000D01*
X132893776Y-124023000D01*
X132575787Y-124340989D01*
X132463829Y-124340891D01*
X132233297Y-124436145D01*
X132056765Y-124612369D01*
X131961109Y-124842735D01*
X131960891Y-125092171D01*
X132056145Y-125322703D01*
X132232369Y-125499235D01*
X132462735Y-125594891D01*
X132712171Y-125595109D01*
X132942703Y-125499855D01*
X133119235Y-125323631D01*
X133214891Y-125093265D01*
X133214990Y-124980234D01*
X133528818Y-124666406D01*
X135382000Y-124666406D01*
X135509589Y-124641027D01*
X135617754Y-124568754D01*
X135690027Y-124460589D01*
X135715406Y-124333000D01*
X135715406Y-122809000D01*
X135690027Y-122681411D01*
X135617754Y-122573246D01*
X135509589Y-122500973D01*
X135382000Y-122475594D01*
X133350000Y-122475594D01*
X133222411Y-122500973D01*
X133114246Y-122573246D01*
X133041973Y-122681411D01*
X133016594Y-122809000D01*
X133016594Y-123119000D01*
X132714224Y-123119000D01*
X132534406Y-122939182D01*
X132534406Y-122270000D01*
X132509027Y-122142411D01*
X132436754Y-122034246D01*
X132328589Y-121961973D01*
X132273424Y-121951000D01*
X132276785Y-121951000D01*
X132416819Y-121892996D01*
X132523996Y-121785820D01*
X132582000Y-121645786D01*
X132582000Y-121090650D01*
X132486750Y-120995400D01*
X131851400Y-120995400D01*
X131851400Y-121015400D01*
X131800600Y-121015400D01*
X131800600Y-120995400D01*
X131165250Y-120995400D01*
X131070000Y-121090650D01*
X109274000Y-121090650D01*
X109274000Y-120294214D01*
X131070000Y-120294214D01*
X131070000Y-120849350D01*
X131165250Y-120944600D01*
X131800600Y-120944600D01*
X131800600Y-120084250D01*
X131851400Y-120084250D01*
X131851400Y-120944600D01*
X132486750Y-120944600D01*
X132582000Y-120849350D01*
X132582000Y-120389650D01*
X132969000Y-120389650D01*
X132969000Y-121106786D01*
X133027004Y-121246820D01*
X133134181Y-121353996D01*
X133274215Y-121412000D01*
X134245350Y-121412000D01*
X134340600Y-121316750D01*
X134340600Y-120294400D01*
X134391400Y-120294400D01*
X134391400Y-121316750D01*
X134486650Y-121412000D01*
X135457785Y-121412000D01*
X135597819Y-121353996D01*
X135704996Y-121246820D01*
X135763000Y-121106786D01*
X135763000Y-120389650D01*
X135667750Y-120294400D01*
X134391400Y-120294400D01*
X134340600Y-120294400D01*
X133064250Y-120294400D01*
X132969000Y-120389650D01*
X132582000Y-120389650D01*
X132582000Y-120294214D01*
X132523996Y-120154180D01*
X132416819Y-120047004D01*
X132276785Y-119989000D01*
X131946650Y-119989000D01*
X131851400Y-120084250D01*
X131800600Y-120084250D01*
X131705350Y-119989000D01*
X131375215Y-119989000D01*
X131235181Y-120047004D01*
X131128004Y-120154180D01*
X131070000Y-120294214D01*
X109274000Y-120294214D01*
X109274000Y-119236444D01*
X123146697Y-109327375D01*
X123149334Y-109324568D01*
X123152800Y-109322899D01*
X123189838Y-109281453D01*
X123227913Y-109240925D01*
X123229274Y-109237325D01*
X123231839Y-109234455D01*
X123250205Y-109181968D01*
X123269863Y-109129977D01*
X123269743Y-109126131D01*
X123271015Y-109122496D01*
X130281740Y-59463192D01*
X130281135Y-59452413D01*
X130283978Y-59441997D01*
X130293797Y-59302207D01*
X130288703Y-59262064D01*
X130288703Y-59221599D01*
X130212583Y-58838916D01*
X130167191Y-58729330D01*
X130167191Y-58729329D01*
X129950418Y-58404906D01*
X129866544Y-58321032D01*
X129542120Y-58104259D01*
X129432534Y-58058867D01*
X129049851Y-57982747D01*
X129019910Y-57982747D01*
X128990544Y-57976906D01*
X118013940Y-57976906D01*
X118070038Y-57965687D01*
X118155973Y-57948594D01*
X118156170Y-57948462D01*
X118156406Y-57948415D01*
X118229839Y-57899238D01*
X118302612Y-57850612D01*
X119059224Y-57094000D01*
X129119855Y-57094000D01*
X134073263Y-61304397D01*
X134073263Y-61304397D01*
G37*
X134073263Y-61304397D02*
X134134629Y-61338573D01*
X134193027Y-61377594D01*
X134211175Y-61381204D01*
X134227341Y-61390207D01*
X134297110Y-61398297D01*
X134366000Y-61412000D01*
X135405478Y-61412000D01*
X131632459Y-88074669D01*
X131634243Y-88106616D01*
X131628000Y-88138000D01*
X131628000Y-89408000D01*
X131662406Y-89580973D01*
X131760388Y-89727612D01*
X133194055Y-91161280D01*
X132967265Y-91067109D01*
X132717829Y-91066891D01*
X132487297Y-91162145D01*
X132310765Y-91338369D01*
X132215109Y-91568735D01*
X132214891Y-91818171D01*
X132310145Y-92048703D01*
X132486369Y-92225235D01*
X132716735Y-92320891D01*
X132966171Y-92321109D01*
X133196703Y-92225855D01*
X133276698Y-92146000D01*
X139004776Y-92146000D01*
X140756555Y-93897779D01*
X140615297Y-93956145D01*
X140438765Y-94132369D01*
X140343109Y-94362735D01*
X140342891Y-94612171D01*
X140438145Y-94842703D01*
X140591287Y-94996113D01*
X140438765Y-95148369D01*
X140343109Y-95378735D01*
X140342891Y-95628171D01*
X140438145Y-95858703D01*
X140591287Y-96012113D01*
X140438765Y-96164369D01*
X140343109Y-96394735D01*
X140342891Y-96644171D01*
X140419674Y-96830000D01*
X139954000Y-96830000D01*
X139781027Y-96864406D01*
X139634388Y-96962388D01*
X138163787Y-98432989D01*
X138051829Y-98432891D01*
X137821297Y-98528145D01*
X137644765Y-98704369D01*
X137549109Y-98934735D01*
X137548891Y-99184171D01*
X137644145Y-99414703D01*
X137820369Y-99591235D01*
X138050735Y-99686891D01*
X138300171Y-99687109D01*
X138530703Y-99591855D01*
X138707235Y-99415631D01*
X138802891Y-99185265D01*
X138802990Y-99072234D01*
X140141224Y-97734000D01*
X140782776Y-97734000D01*
X142296000Y-99247224D01*
X142296000Y-99314000D01*
X142330406Y-99486973D01*
X142428388Y-99633612D01*
X142672776Y-99878000D01*
X141404728Y-99878000D01*
X141325631Y-99798765D01*
X141095265Y-99703109D01*
X140845829Y-99702891D01*
X140615297Y-99798145D01*
X140438765Y-99974369D01*
X140343109Y-100204735D01*
X140342891Y-100454171D01*
X140438145Y-100684703D01*
X140614369Y-100861235D01*
X140844735Y-100956891D01*
X141094171Y-100957109D01*
X141324703Y-100861855D01*
X141404698Y-100782000D01*
X142560776Y-100782000D01*
X143312000Y-101533224D01*
X143312000Y-102827817D01*
X143127265Y-102751109D01*
X142877829Y-102750891D01*
X142647297Y-102846145D01*
X142578135Y-102915186D01*
X142517855Y-102769297D01*
X142341631Y-102592765D01*
X142111265Y-102497109D01*
X141861829Y-102496891D01*
X141631297Y-102592145D01*
X141454765Y-102768369D01*
X141359109Y-102998735D01*
X141358891Y-103248171D01*
X141366340Y-103266199D01*
X141349265Y-103259109D01*
X141099829Y-103258891D01*
X140869297Y-103354145D01*
X140692765Y-103530369D01*
X140633740Y-103672516D01*
X140463026Y-103501802D01*
X140485235Y-103479631D01*
X140580891Y-103249265D01*
X140581109Y-102999829D01*
X140485855Y-102769297D01*
X140309631Y-102592765D01*
X140079265Y-102497109D01*
X139829829Y-102496891D01*
X139599297Y-102592145D01*
X139422765Y-102768369D01*
X139327109Y-102998735D01*
X139327100Y-103009193D01*
X139317265Y-103005109D01*
X139067829Y-103004891D01*
X139057101Y-103009324D01*
X139057109Y-102999829D01*
X138961855Y-102769297D01*
X138785631Y-102592765D01*
X138555265Y-102497109D01*
X138305829Y-102496891D01*
X138075297Y-102592145D01*
X137898765Y-102768369D01*
X137803109Y-102998735D01*
X137802891Y-103248171D01*
X137898145Y-103478703D01*
X137978000Y-103558698D01*
X137978000Y-104140000D01*
X138012406Y-104312973D01*
X138110388Y-104459612D01*
X138267279Y-104616503D01*
X138021434Y-104665404D01*
X137591090Y-104952951D01*
X137358000Y-105301794D01*
X137358000Y-102295224D01*
X140220213Y-99433011D01*
X140332171Y-99433109D01*
X140562703Y-99337855D01*
X140739235Y-99161631D01*
X140834891Y-98931265D01*
X140835109Y-98681829D01*
X140739855Y-98451297D01*
X140563631Y-98274765D01*
X140333265Y-98179109D01*
X140083829Y-98178891D01*
X139853297Y-98274145D01*
X139676765Y-98450369D01*
X139581109Y-98680735D01*
X139581010Y-98793766D01*
X136586388Y-101788388D01*
X136488406Y-101935027D01*
X136454000Y-102108000D01*
X136454000Y-106934000D01*
X136488406Y-107106973D01*
X136586388Y-107253612D01*
X139756000Y-110423224D01*
X139756000Y-113096775D01*
X138121388Y-114731388D01*
X138023406Y-114878027D01*
X137989000Y-115051000D01*
X137989000Y-117117494D01*
X137395661Y-117117494D01*
X137366000Y-117111594D01*
X136916000Y-117111594D01*
X136788411Y-117136973D01*
X136680246Y-117209246D01*
X136630966Y-117283000D01*
X119540173Y-117283000D01*
X119440644Y-117134045D01*
X119119415Y-116919406D01*
X119507000Y-116919406D01*
X119634589Y-116894027D01*
X119742754Y-116821754D01*
X119815027Y-116713589D01*
X119840406Y-116586000D01*
X119840406Y-114554000D01*
X119815027Y-114426411D01*
X119742754Y-114318246D01*
X119634589Y-114245973D01*
X119507000Y-114220594D01*
X117475000Y-114220594D01*
X117347411Y-114245973D01*
X117239246Y-114318246D01*
X117166973Y-114426411D01*
X117141594Y-114554000D01*
X117141594Y-116586000D01*
X117166973Y-116713589D01*
X117239246Y-116821754D01*
X117347411Y-116894027D01*
X117475000Y-116919406D01*
X117862585Y-116919406D01*
X117541356Y-117134045D01*
X117250230Y-117569745D01*
X117148000Y-118083689D01*
X117148000Y-118136311D01*
X117250230Y-118650255D01*
X117541356Y-119085955D01*
X117977056Y-119377081D01*
X118491000Y-119479311D01*
X118732799Y-119431214D01*
X132969000Y-119431214D01*
X132969000Y-120148350D01*
X133064250Y-120243600D01*
X134340600Y-120243600D01*
X134340600Y-119221250D01*
X134391400Y-119221250D01*
X134391400Y-120243600D01*
X135667750Y-120243600D01*
X135763000Y-120148350D01*
X135763000Y-119431214D01*
X135704996Y-119291180D01*
X135597819Y-119184004D01*
X135457785Y-119126000D01*
X134486650Y-119126000D01*
X134391400Y-119221250D01*
X134340600Y-119221250D01*
X134245350Y-119126000D01*
X133274215Y-119126000D01*
X133134181Y-119184004D01*
X133027004Y-119291180D01*
X132969000Y-119431214D01*
X118732799Y-119431214D01*
X119004944Y-119377081D01*
X119440644Y-119085955D01*
X119540173Y-118937000D01*
X136581394Y-118937000D01*
X136581394Y-119200900D01*
X136606773Y-119328489D01*
X136679046Y-119436654D01*
X136787211Y-119508927D01*
X136914800Y-119534306D01*
X138014800Y-119534306D01*
X138130231Y-119511345D01*
X138216000Y-119528406D01*
X138666000Y-119528406D01*
X138766000Y-119508515D01*
X138866000Y-119528406D01*
X139316000Y-119528406D01*
X139416000Y-119508515D01*
X139516000Y-119528406D01*
X139939000Y-119528406D01*
X139939000Y-119574733D01*
X139853297Y-119610145D01*
X139676765Y-119786369D01*
X139581109Y-120016735D01*
X139580891Y-120266171D01*
X139676145Y-120496703D01*
X139852369Y-120673235D01*
X140082735Y-120768891D01*
X140332171Y-120769109D01*
X140562703Y-120673855D01*
X140739235Y-120497631D01*
X140834891Y-120267265D01*
X140835109Y-120017829D01*
X140832537Y-120011603D01*
X140843000Y-119959000D01*
X140843000Y-119528406D01*
X141266000Y-119528406D01*
X141272292Y-119527155D01*
X141390215Y-119576000D01*
X141570350Y-119576000D01*
X141665600Y-119480750D01*
X141665600Y-118345400D01*
X141645600Y-118345400D01*
X141645600Y-118294600D01*
X141665600Y-118294600D01*
X141665600Y-117159250D01*
X141570350Y-117064000D01*
X141493000Y-117064000D01*
X141493000Y-114924224D01*
X141889000Y-114528225D01*
X141889000Y-117064000D01*
X141811650Y-117064000D01*
X141716400Y-117159250D01*
X141716400Y-118294600D01*
X141736400Y-118294600D01*
X141736400Y-118345400D01*
X141716400Y-118345400D01*
X141716400Y-119480750D01*
X141811650Y-119576000D01*
X141991785Y-119576000D01*
X142109708Y-119527155D01*
X142116000Y-119528406D01*
X142566000Y-119528406D01*
X142666000Y-119508515D01*
X142766000Y-119528406D01*
X143216000Y-119528406D01*
X143316000Y-119508515D01*
X143416000Y-119528406D01*
X143866000Y-119528406D01*
X143966000Y-119508515D01*
X144066000Y-119528406D01*
X144516000Y-119528406D01*
X144643589Y-119503027D01*
X144751754Y-119430754D01*
X144824027Y-119322589D01*
X144849406Y-119195000D01*
X144849406Y-118772000D01*
X144929776Y-118772000D01*
X145716594Y-119558818D01*
X145716594Y-121031000D01*
X145741973Y-121158589D01*
X145814246Y-121266754D01*
X145922411Y-121339027D01*
X146050000Y-121364406D01*
X148082000Y-121364406D01*
X148209589Y-121339027D01*
X148317754Y-121266754D01*
X148390027Y-121158589D01*
X148415406Y-121031000D01*
X148415406Y-120721000D01*
X148717776Y-120721000D01*
X148897594Y-120900818D01*
X148897594Y-121570000D01*
X148922973Y-121697589D01*
X148995246Y-121805754D01*
X149103411Y-121878027D01*
X149231000Y-121903406D01*
X149981000Y-121903406D01*
X150108589Y-121878027D01*
X150216754Y-121805754D01*
X150289027Y-121697589D01*
X150314406Y-121570000D01*
X150314406Y-121422000D01*
X150500776Y-121422000D01*
X150756989Y-121678213D01*
X150756891Y-121790171D01*
X150852145Y-122020703D01*
X151028369Y-122197235D01*
X151258735Y-122292891D01*
X151508171Y-122293109D01*
X151738703Y-122197855D01*
X151915235Y-122021631D01*
X152010891Y-121791265D01*
X152011109Y-121541829D01*
X151915855Y-121311297D01*
X151739631Y-121134765D01*
X151509265Y-121039109D01*
X151396235Y-121039010D01*
X151007612Y-120650388D01*
X150860973Y-120552406D01*
X150688000Y-120518000D01*
X150314406Y-120518000D01*
X150314406Y-120370000D01*
X150289027Y-120242411D01*
X150216754Y-120134246D01*
X150108589Y-120061973D01*
X149981000Y-120036594D01*
X149311818Y-120036594D01*
X149224612Y-119949388D01*
X149077973Y-119851406D01*
X148905000Y-119817000D01*
X148415406Y-119817000D01*
X148415406Y-119507000D01*
X148390027Y-119379411D01*
X148317754Y-119271246D01*
X148209589Y-119198973D01*
X148082000Y-119173594D01*
X146609818Y-119173594D01*
X145436612Y-118000388D01*
X145289973Y-117902406D01*
X145117000Y-117868000D01*
X144849406Y-117868000D01*
X144849406Y-117445000D01*
X144824027Y-117317411D01*
X144751754Y-117209246D01*
X144643589Y-117136973D01*
X144516000Y-117111594D01*
X144093000Y-117111594D01*
X144093000Y-108514224D01*
X145099612Y-107507612D01*
X145197594Y-107360973D01*
X145214017Y-107278406D01*
X145232000Y-107188000D01*
X145232000Y-105156000D01*
X145197594Y-104983027D01*
X145116624Y-104861848D01*
X146106000Y-105851224D01*
X146106000Y-113284000D01*
X146140406Y-113456973D01*
X146238388Y-113603612D01*
X152202000Y-119567224D01*
X152202000Y-125542776D01*
X151625787Y-126118989D01*
X151513829Y-126118891D01*
X151283297Y-126214145D01*
X151106765Y-126390369D01*
X151011109Y-126620735D01*
X151010891Y-126870171D01*
X151106145Y-127100703D01*
X151282369Y-127277235D01*
X151512735Y-127372891D01*
X151762171Y-127373109D01*
X151992703Y-127277855D01*
X152169235Y-127101631D01*
X152264891Y-126871265D01*
X152264990Y-126758234D01*
X152973612Y-126049612D01*
X153071594Y-125902973D01*
X153106000Y-125730000D01*
X153106000Y-123601328D01*
X166832640Y-123601328D01*
X167148178Y-124364989D01*
X167731938Y-124949768D01*
X168495047Y-125266639D01*
X169321328Y-125267360D01*
X170084989Y-124951822D01*
X170669768Y-124368062D01*
X170986639Y-123604953D01*
X170987360Y-122778672D01*
X170671822Y-122015011D01*
X170088062Y-121430232D01*
X169324953Y-121113361D01*
X168498672Y-121112640D01*
X167735011Y-121428178D01*
X167150232Y-122011938D01*
X166833361Y-122775047D01*
X166832640Y-123601328D01*
X153106000Y-123601328D01*
X153106000Y-119455225D01*
X153296989Y-119646214D01*
X153296891Y-119758171D01*
X153392145Y-119988703D01*
X153568369Y-120165235D01*
X153798735Y-120260891D01*
X154048171Y-120261109D01*
X154278703Y-120165855D01*
X154455235Y-119989631D01*
X154550891Y-119759265D01*
X154551109Y-119509829D01*
X154455855Y-119279297D01*
X154279631Y-119102765D01*
X154049265Y-119007109D01*
X153936235Y-119007010D01*
X153375446Y-118446221D01*
X153516703Y-118387855D01*
X153693235Y-118211631D01*
X153788891Y-117981265D01*
X153789109Y-117731829D01*
X153693855Y-117501297D01*
X153517631Y-117324765D01*
X153287265Y-117229109D01*
X153174235Y-117229010D01*
X148026000Y-112080776D01*
X148026000Y-102108000D01*
X147991594Y-101935027D01*
X147900035Y-101798000D01*
X147893612Y-101788387D01*
X141597011Y-95491787D01*
X141597109Y-95379829D01*
X141501855Y-95149297D01*
X141348713Y-94995887D01*
X141478655Y-94866171D01*
X148470891Y-94866171D01*
X148566145Y-95096703D01*
X148646000Y-95176698D01*
X148646000Y-95758000D01*
X148680406Y-95930973D01*
X148778388Y-96077612D01*
X151440000Y-98739224D01*
X151440000Y-100149272D01*
X151360765Y-100228369D01*
X151265109Y-100458735D01*
X151264891Y-100708171D01*
X151360145Y-100938703D01*
X151536369Y-101115235D01*
X151766735Y-101210891D01*
X152016171Y-101211109D01*
X152246703Y-101115855D01*
X152423235Y-100939631D01*
X152518891Y-100709265D01*
X152519109Y-100459829D01*
X152423855Y-100229297D01*
X152344000Y-100149302D01*
X152344000Y-98552000D01*
X152309594Y-98379027D01*
X152211612Y-98232388D01*
X149550000Y-95570776D01*
X149550000Y-95176728D01*
X149629235Y-95097631D01*
X149724891Y-94867265D01*
X149725109Y-94617829D01*
X149629855Y-94387297D01*
X149453631Y-94210765D01*
X149223265Y-94115109D01*
X148973829Y-94114891D01*
X148743297Y-94210145D01*
X148566765Y-94386369D01*
X148471109Y-94616735D01*
X148470891Y-94866171D01*
X141478655Y-94866171D01*
X141501235Y-94843631D01*
X141596891Y-94613265D01*
X141597013Y-94473693D01*
X141641594Y-94406973D01*
X141658017Y-94324406D01*
X141676000Y-94234000D01*
X141676000Y-93726000D01*
X141641594Y-93553027D01*
X141543612Y-93406388D01*
X139913445Y-91776221D01*
X140054703Y-91717855D01*
X140231235Y-91541631D01*
X140326891Y-91311265D01*
X140326900Y-91300807D01*
X140336735Y-91304891D01*
X140586171Y-91305109D01*
X140816703Y-91209855D01*
X140993235Y-91033631D01*
X141088891Y-90803265D01*
X141088900Y-90792807D01*
X141098735Y-90796891D01*
X141348171Y-90797109D01*
X141578703Y-90701855D01*
X141755235Y-90525631D01*
X141849199Y-90299341D01*
X141860735Y-90304131D01*
X142110171Y-90304349D01*
X142340703Y-90209095D01*
X142501733Y-90048346D01*
X142646369Y-90193235D01*
X142876735Y-90288891D01*
X143126171Y-90289109D01*
X143136899Y-90284676D01*
X143136891Y-90294171D01*
X143232145Y-90524703D01*
X143408369Y-90701235D01*
X143638735Y-90796891D01*
X143888171Y-90797109D01*
X143898899Y-90792676D01*
X143898891Y-90802171D01*
X143994145Y-91032703D01*
X144170369Y-91209235D01*
X144400735Y-91304891D01*
X144650171Y-91305109D01*
X144880703Y-91209855D01*
X145057235Y-91033631D01*
X145117969Y-90887367D01*
X145140702Y-90876000D01*
X147901164Y-90876000D01*
X147027612Y-91828966D01*
X146941829Y-91828891D01*
X146711297Y-91924145D01*
X146534765Y-92100369D01*
X146439109Y-92330735D01*
X146438891Y-92580171D01*
X146534145Y-92810703D01*
X146710369Y-92987235D01*
X146940735Y-93082891D01*
X147190171Y-93083109D01*
X147420703Y-92987855D01*
X147597235Y-92811631D01*
X147692891Y-92581265D01*
X147693014Y-92440897D01*
X150193193Y-89713428D01*
X150233953Y-89646285D01*
X150277594Y-89580973D01*
X150279539Y-89571194D01*
X150284713Y-89562671D01*
X150296675Y-89485044D01*
X150312000Y-89408000D01*
X150312000Y-88138000D01*
X150305801Y-88106836D01*
X150307604Y-88075113D01*
X145994000Y-57372402D01*
X145994000Y-57337224D01*
X146237225Y-57094000D01*
X166944776Y-57094000D01*
X167574388Y-57723612D01*
X167721027Y-57821594D01*
X167894000Y-57856000D01*
X172278776Y-57856000D01*
X172399682Y-57976906D01*
X152949456Y-57976906D01*
X152938867Y-57979012D01*
X152928155Y-57977653D01*
X152788365Y-57987472D01*
X152749325Y-57998129D01*
X152709261Y-58003785D01*
X152340977Y-58132652D01*
X152318861Y-58145698D01*
X152238811Y-58192918D01*
X151947876Y-58452914D01*
X151876551Y-58547689D01*
X151876550Y-58547691D01*
X151707259Y-58899228D01*
X151677631Y-59014083D01*
X151655753Y-59403650D01*
X151659939Y-59433298D01*
X151658260Y-59463192D01*
X158668985Y-109122496D01*
X158670257Y-109126131D01*
X158670137Y-109129977D01*
X158689789Y-109181952D01*
X158708161Y-109234455D01*
X158710728Y-109237327D01*
X158712088Y-109240925D01*
X158750142Y-109281432D01*
X158787200Y-109322899D01*
X158790668Y-109324569D01*
X158793304Y-109327375D01*
X172666000Y-119236444D01*
X172666000Y-144776000D01*
X160667421Y-144776000D01*
X155146696Y-140832625D01*
X155115130Y-140818381D01*
X155086336Y-140799141D01*
X155061582Y-140794217D01*
X155038579Y-140783837D01*
X155003968Y-140782757D01*
X154970000Y-140776000D01*
X150428084Y-140776000D01*
X150468104Y-140750425D01*
X150746140Y-140352154D01*
X150850600Y-139877800D01*
X150850600Y-139725400D01*
X149631400Y-139725400D01*
X149631400Y-139745400D01*
X149580600Y-139745400D01*
X149580600Y-139725400D01*
X148361400Y-139725400D01*
X148361400Y-139877800D01*
X148465860Y-140352154D01*
X148743896Y-140750425D01*
X148783916Y-140776000D01*
X147824957Y-140776000D01*
X147907881Y-140720592D01*
X148165971Y-140334334D01*
X148256600Y-139878711D01*
X148256600Y-139522200D01*
X148361400Y-139522200D01*
X148361400Y-139674600D01*
X149580600Y-139674600D01*
X149580600Y-138398531D01*
X149631400Y-138398531D01*
X149631400Y-139674600D01*
X150850600Y-139674600D01*
X150850600Y-139522200D01*
X150746140Y-139047846D01*
X150468104Y-138649575D01*
X150058821Y-138388020D01*
X149825745Y-138322552D01*
X149631400Y-138398531D01*
X149580600Y-138398531D01*
X149386255Y-138322552D01*
X149153179Y-138388020D01*
X148743896Y-138649575D01*
X148465860Y-139047846D01*
X148361400Y-139522200D01*
X148256600Y-139522200D01*
X148256600Y-139521289D01*
X148165971Y-139065666D01*
X147907881Y-138679408D01*
X147521623Y-138421318D01*
X147066000Y-138330689D01*
X146610377Y-138421318D01*
X146224119Y-138679408D01*
X145966029Y-139065666D01*
X145875400Y-139521289D01*
X145875400Y-139878711D01*
X145966029Y-140334334D01*
X146224119Y-140720592D01*
X146307043Y-140776000D01*
X145284957Y-140776000D01*
X145367881Y-140720592D01*
X145625971Y-140334334D01*
X145716600Y-139878711D01*
X145716600Y-139521289D01*
X145625971Y-139065666D01*
X145367881Y-138679408D01*
X144981623Y-138421318D01*
X144526000Y-138330689D01*
X144070377Y-138421318D01*
X143684119Y-138679408D01*
X143426029Y-139065666D01*
X143335400Y-139521289D01*
X143335400Y-139878711D01*
X143426029Y-140334334D01*
X143684119Y-140720592D01*
X143767043Y-140776000D01*
X142744957Y-140776000D01*
X142827881Y-140720592D01*
X143085971Y-140334334D01*
X143176600Y-139878711D01*
X143176600Y-139521289D01*
X143085971Y-139065666D01*
X142827881Y-138679408D01*
X142441623Y-138421318D01*
X141986000Y-138330689D01*
X141530377Y-138421318D01*
X141144119Y-138679408D01*
X140886029Y-139065666D01*
X140795400Y-139521289D01*
X140795400Y-139878711D01*
X140886029Y-140334334D01*
X141144119Y-140720592D01*
X141227043Y-140776000D01*
X140268084Y-140776000D01*
X140308104Y-140750425D01*
X140586140Y-140352154D01*
X140690600Y-139877800D01*
X140690600Y-139725400D01*
X139471400Y-139725400D01*
X139471400Y-139745400D01*
X139420600Y-139745400D01*
X139420600Y-139725400D01*
X138201400Y-139725400D01*
X138201400Y-139877800D01*
X138305860Y-140352154D01*
X138583896Y-140750425D01*
X138623916Y-140776000D01*
X137664957Y-140776000D01*
X137747881Y-140720592D01*
X138005971Y-140334334D01*
X138096600Y-139878711D01*
X138096600Y-139522200D01*
X138201400Y-139522200D01*
X138201400Y-139674600D01*
X139420600Y-139674600D01*
X139420600Y-138398531D01*
X139471400Y-138398531D01*
X139471400Y-139674600D01*
X140690600Y-139674600D01*
X140690600Y-139522200D01*
X140586140Y-139047846D01*
X140308104Y-138649575D01*
X139898821Y-138388020D01*
X139665745Y-138322552D01*
X139471400Y-138398531D01*
X139420600Y-138398531D01*
X139226255Y-138322552D01*
X138993179Y-138388020D01*
X138583896Y-138649575D01*
X138305860Y-139047846D01*
X138201400Y-139522200D01*
X138096600Y-139522200D01*
X138096600Y-139521289D01*
X138005971Y-139065666D01*
X137747881Y-138679408D01*
X137361623Y-138421318D01*
X136906000Y-138330689D01*
X136450377Y-138421318D01*
X136064119Y-138679408D01*
X135806029Y-139065666D01*
X135715400Y-139521289D01*
X135715400Y-139878711D01*
X135806029Y-140334334D01*
X136064119Y-140720592D01*
X136147043Y-140776000D01*
X135124957Y-140776000D01*
X135207881Y-140720592D01*
X135465971Y-140334334D01*
X135556600Y-139878711D01*
X135556600Y-139521289D01*
X135465971Y-139065666D01*
X135207881Y-138679408D01*
X134821623Y-138421318D01*
X134366000Y-138330689D01*
X133910377Y-138421318D01*
X133524119Y-138679408D01*
X133266029Y-139065666D01*
X133175400Y-139521289D01*
X133175400Y-139878711D01*
X133266029Y-140334334D01*
X133524119Y-140720592D01*
X133607043Y-140776000D01*
X133011071Y-140776000D01*
X133023006Y-140716000D01*
X133023006Y-138684000D01*
X132997627Y-138556411D01*
X132925354Y-138448246D01*
X132817189Y-138375973D01*
X132689600Y-138350594D01*
X130962400Y-138350594D01*
X130834811Y-138375973D01*
X130726646Y-138448246D01*
X130654373Y-138556411D01*
X130628994Y-138684000D01*
X130628994Y-140716000D01*
X130640929Y-140776000D01*
X126970000Y-140776000D01*
X126936032Y-140782757D01*
X126901420Y-140783837D01*
X126878417Y-140794217D01*
X126853664Y-140799141D01*
X126824872Y-140818380D01*
X126793303Y-140832625D01*
X121272579Y-144776000D01*
X109274000Y-144776000D01*
X109274000Y-141635328D01*
X110952640Y-141635328D01*
X111268178Y-142398989D01*
X111851938Y-142983768D01*
X112615047Y-143300639D01*
X113441328Y-143301360D01*
X114204989Y-142985822D01*
X114685681Y-142505967D01*
X120322767Y-142505967D01*
X120526796Y-142999755D01*
X120904258Y-143377876D01*
X121397689Y-143582766D01*
X121931967Y-143583233D01*
X122425755Y-143379204D01*
X122803876Y-143001742D01*
X123008766Y-142508311D01*
X123009233Y-141974033D01*
X122983491Y-141911733D01*
X123003480Y-141930869D01*
X123491860Y-142120799D01*
X124015748Y-142109378D01*
X124495387Y-141898342D01*
X124538492Y-141868160D01*
X124900861Y-141489638D01*
X125090791Y-141001258D01*
X125079370Y-140477370D01*
X124868334Y-139997732D01*
X124573646Y-139715619D01*
X124573646Y-139231908D01*
X134144904Y-129660650D01*
X141240000Y-129660650D01*
X141240000Y-130615786D01*
X141298004Y-130755820D01*
X141405181Y-130862996D01*
X141545215Y-130921000D01*
X141951056Y-130921000D01*
X141870297Y-130954369D01*
X141496681Y-131327334D01*
X141294231Y-131814885D01*
X141293771Y-132342798D01*
X141495369Y-132830703D01*
X141868334Y-133204319D01*
X142219433Y-133350109D01*
X141870297Y-133494369D01*
X141496681Y-133867334D01*
X141294231Y-134354885D01*
X141293771Y-134882798D01*
X141495369Y-135370703D01*
X141868334Y-135744319D01*
X142355885Y-135946769D01*
X142883798Y-135947229D01*
X143371703Y-135745631D01*
X143745319Y-135372666D01*
X143947769Y-134885115D01*
X143948229Y-134357202D01*
X143746631Y-133869297D01*
X143373666Y-133495681D01*
X143022567Y-133349891D01*
X143371703Y-133205631D01*
X143745319Y-132832666D01*
X143947769Y-132345115D01*
X143948229Y-131817202D01*
X143746631Y-131329297D01*
X143373666Y-130955681D01*
X143290145Y-130921000D01*
X143696785Y-130921000D01*
X143836819Y-130862996D01*
X143943996Y-130755820D01*
X144002000Y-130615786D01*
X144002000Y-129660650D01*
X143906750Y-129565400D01*
X142646400Y-129565400D01*
X142646400Y-129585400D01*
X142595600Y-129585400D01*
X142595600Y-129565400D01*
X141335250Y-129565400D01*
X141240000Y-129660650D01*
X134144904Y-129660650D01*
X134708555Y-129097000D01*
X139446000Y-129097000D01*
X139762479Y-129034048D01*
X140030777Y-128854777D01*
X140655617Y-128229937D01*
X140834888Y-127961639D01*
X140862171Y-127824479D01*
X140864951Y-127810505D01*
X141147223Y-128092777D01*
X141376326Y-128245859D01*
X141298004Y-128324180D01*
X141240000Y-128464214D01*
X141240000Y-129419350D01*
X141335250Y-129514600D01*
X142595600Y-129514600D01*
X142595600Y-129494600D01*
X142646400Y-129494600D01*
X142646400Y-129514600D01*
X143906750Y-129514600D01*
X144002000Y-129419350D01*
X144002000Y-128464214D01*
X143948478Y-128335000D01*
X147485446Y-128335000D01*
X157669000Y-138518555D01*
X157669000Y-139897924D01*
X157358124Y-140208258D01*
X157153234Y-140701689D01*
X157152767Y-141235967D01*
X157356796Y-141729755D01*
X157734258Y-142107876D01*
X158227689Y-142312766D01*
X158761967Y-142313233D01*
X159247710Y-142112528D01*
X159243922Y-142121138D01*
X159232501Y-142645026D01*
X159422431Y-143133406D01*
X159784799Y-143511928D01*
X159827905Y-143542110D01*
X160307544Y-143753146D01*
X160831432Y-143764567D01*
X161319812Y-143574637D01*
X161698334Y-143212268D01*
X161909370Y-142732630D01*
X161920791Y-142208742D01*
X161730861Y-141720362D01*
X161649456Y-141635328D01*
X166832640Y-141635328D01*
X167148178Y-142398989D01*
X167731938Y-142983768D01*
X168495047Y-143300639D01*
X169321328Y-143301360D01*
X170084989Y-142985822D01*
X170669768Y-142402062D01*
X170986639Y-141638953D01*
X170987360Y-140812672D01*
X170671822Y-140049011D01*
X170088062Y-139464232D01*
X169324953Y-139147361D01*
X168498672Y-139146640D01*
X167735011Y-139462178D01*
X167150232Y-140045938D01*
X166833361Y-140809047D01*
X166832640Y-141635328D01*
X161649456Y-141635328D01*
X161403646Y-141378561D01*
X161403646Y-137970646D01*
X161340694Y-137654167D01*
X161161423Y-137385869D01*
X149073247Y-125297693D01*
X149198703Y-125245855D01*
X149375235Y-125069631D01*
X149470891Y-124839265D01*
X149471109Y-124589829D01*
X149375855Y-124359297D01*
X149199631Y-124182765D01*
X148969265Y-124087109D01*
X148856234Y-124087010D01*
X148792224Y-124023000D01*
X148905000Y-124023000D01*
X149077973Y-123988594D01*
X149224612Y-123890612D01*
X149311818Y-123803406D01*
X149981000Y-123803406D01*
X150108589Y-123778027D01*
X150216754Y-123705754D01*
X150289027Y-123597589D01*
X150314406Y-123470000D01*
X150314406Y-122270000D01*
X150289027Y-122142411D01*
X150216754Y-122034246D01*
X150108589Y-121961973D01*
X149981000Y-121936594D01*
X149231000Y-121936594D01*
X149103411Y-121961973D01*
X148995246Y-122034246D01*
X148922973Y-122142411D01*
X148897594Y-122270000D01*
X148897594Y-122939182D01*
X148717776Y-123119000D01*
X148415406Y-123119000D01*
X148415406Y-122809000D01*
X148390027Y-122681411D01*
X148317754Y-122573246D01*
X148209589Y-122500973D01*
X148082000Y-122475594D01*
X146050000Y-122475594D01*
X145922411Y-122500973D01*
X145814246Y-122573246D01*
X145741973Y-122681411D01*
X145716594Y-122809000D01*
X145716594Y-124333000D01*
X145741973Y-124460589D01*
X145814246Y-124568754D01*
X145922411Y-124641027D01*
X146050000Y-124666406D01*
X148082000Y-124666406D01*
X148144709Y-124653933D01*
X148199842Y-124709066D01*
X148127720Y-124694720D01*
X144850606Y-124694720D01*
X144850606Y-124646720D01*
X144825227Y-124519131D01*
X144752954Y-124410966D01*
X144752862Y-124410905D01*
X144751754Y-124409246D01*
X144643589Y-124336973D01*
X144516000Y-124311594D01*
X144066000Y-124311594D01*
X144057353Y-124313314D01*
X143417200Y-124313314D01*
X143320924Y-124332465D01*
X143216000Y-124311594D01*
X142792760Y-124311594D01*
X142792760Y-124252970D01*
X142848703Y-124229855D01*
X143025235Y-124053631D01*
X143120891Y-123823265D01*
X143121109Y-123573829D01*
X143025855Y-123343297D01*
X142849631Y-123166765D01*
X142619265Y-123071109D01*
X142369829Y-123070891D01*
X142139297Y-123166145D01*
X141962765Y-123342369D01*
X141867109Y-123572735D01*
X141866891Y-123822171D01*
X141888760Y-123875098D01*
X141888760Y-124311594D01*
X141466000Y-124311594D01*
X141457353Y-124313314D01*
X140816240Y-124313314D01*
X140720444Y-124332369D01*
X140616000Y-124311594D01*
X140166000Y-124311594D01*
X140157353Y-124313314D01*
X139543000Y-124313314D01*
X139543000Y-123875985D01*
X139564891Y-123823265D01*
X139565109Y-123573829D01*
X139469855Y-123343297D01*
X139293631Y-123166765D01*
X139063265Y-123071109D01*
X138813829Y-123070891D01*
X138583297Y-123166145D01*
X138406765Y-123342369D01*
X138311109Y-123572735D01*
X138310891Y-123822171D01*
X138406145Y-124052703D01*
X138582369Y-124229235D01*
X138639000Y-124252750D01*
X138639000Y-124321754D01*
X138215760Y-124321754D01*
X138141419Y-124336541D01*
X138016000Y-124311594D01*
X137566000Y-124311594D01*
X137531814Y-124318394D01*
X136914800Y-124318394D01*
X136787211Y-124343773D01*
X136679046Y-124416046D01*
X136606773Y-124524211D01*
X136581394Y-124651800D01*
X136581394Y-124699800D01*
X134569200Y-124699800D01*
X134278260Y-124757672D01*
X134252721Y-124762752D01*
X133984422Y-124942023D01*
X121081223Y-137845223D01*
X120901952Y-138113521D01*
X120839000Y-138430000D01*
X120839000Y-141167924D01*
X120528124Y-141478258D01*
X120323234Y-141971689D01*
X120322767Y-142505967D01*
X114685681Y-142505967D01*
X114789768Y-142402062D01*
X115106639Y-141638953D01*
X115107360Y-140812672D01*
X114791822Y-140049011D01*
X114208062Y-139464232D01*
X113444953Y-139147361D01*
X112618672Y-139146640D01*
X111855011Y-139462178D01*
X111270232Y-140045938D01*
X110953361Y-140809047D01*
X110952640Y-141635328D01*
X109274000Y-141635328D01*
X109274000Y-123601328D01*
X110952640Y-123601328D01*
X111268178Y-124364989D01*
X111851938Y-124949768D01*
X112615047Y-125266639D01*
X113441328Y-125267360D01*
X114204989Y-124951822D01*
X114789768Y-124368062D01*
X115106639Y-123604953D01*
X115107360Y-122778672D01*
X114791822Y-122015011D01*
X114208062Y-121430232D01*
X113444953Y-121113361D01*
X112618672Y-121112640D01*
X111855011Y-121428178D01*
X111270232Y-122011938D01*
X110953361Y-122775047D01*
X110952640Y-123601328D01*
X109274000Y-123601328D01*
X109274000Y-121090650D01*
X131070000Y-121090650D01*
X131070000Y-121645786D01*
X131128004Y-121785820D01*
X131235181Y-121892996D01*
X131375215Y-121951000D01*
X131378576Y-121951000D01*
X131323411Y-121961973D01*
X131215246Y-122034246D01*
X131142973Y-122142411D01*
X131117594Y-122270000D01*
X131117594Y-123470000D01*
X131142973Y-123597589D01*
X131215246Y-123705754D01*
X131323411Y-123778027D01*
X131451000Y-123803406D01*
X132120182Y-123803406D01*
X132207388Y-123890612D01*
X132354027Y-123988594D01*
X132527000Y-124023000D01*
X132893776Y-124023000D01*
X132575787Y-124340989D01*
X132463829Y-124340891D01*
X132233297Y-124436145D01*
X132056765Y-124612369D01*
X131961109Y-124842735D01*
X131960891Y-125092171D01*
X132056145Y-125322703D01*
X132232369Y-125499235D01*
X132462735Y-125594891D01*
X132712171Y-125595109D01*
X132942703Y-125499855D01*
X133119235Y-125323631D01*
X133214891Y-125093265D01*
X133214990Y-124980234D01*
X133528818Y-124666406D01*
X135382000Y-124666406D01*
X135509589Y-124641027D01*
X135617754Y-124568754D01*
X135690027Y-124460589D01*
X135715406Y-124333000D01*
X135715406Y-122809000D01*
X135690027Y-122681411D01*
X135617754Y-122573246D01*
X135509589Y-122500973D01*
X135382000Y-122475594D01*
X133350000Y-122475594D01*
X133222411Y-122500973D01*
X133114246Y-122573246D01*
X133041973Y-122681411D01*
X133016594Y-122809000D01*
X133016594Y-123119000D01*
X132714224Y-123119000D01*
X132534406Y-122939182D01*
X132534406Y-122270000D01*
X132509027Y-122142411D01*
X132436754Y-122034246D01*
X132328589Y-121961973D01*
X132273424Y-121951000D01*
X132276785Y-121951000D01*
X132416819Y-121892996D01*
X132523996Y-121785820D01*
X132582000Y-121645786D01*
X132582000Y-121090650D01*
X132486750Y-120995400D01*
X131851400Y-120995400D01*
X131851400Y-121015400D01*
X131800600Y-121015400D01*
X131800600Y-120995400D01*
X131165250Y-120995400D01*
X131070000Y-121090650D01*
X109274000Y-121090650D01*
X109274000Y-120294214D01*
X131070000Y-120294214D01*
X131070000Y-120849350D01*
X131165250Y-120944600D01*
X131800600Y-120944600D01*
X131800600Y-120084250D01*
X131851400Y-120084250D01*
X131851400Y-120944600D01*
X132486750Y-120944600D01*
X132582000Y-120849350D01*
X132582000Y-120389650D01*
X132969000Y-120389650D01*
X132969000Y-121106786D01*
X133027004Y-121246820D01*
X133134181Y-121353996D01*
X133274215Y-121412000D01*
X134245350Y-121412000D01*
X134340600Y-121316750D01*
X134340600Y-120294400D01*
X134391400Y-120294400D01*
X134391400Y-121316750D01*
X134486650Y-121412000D01*
X135457785Y-121412000D01*
X135597819Y-121353996D01*
X135704996Y-121246820D01*
X135763000Y-121106786D01*
X135763000Y-120389650D01*
X135667750Y-120294400D01*
X134391400Y-120294400D01*
X134340600Y-120294400D01*
X133064250Y-120294400D01*
X132969000Y-120389650D01*
X132582000Y-120389650D01*
X132582000Y-120294214D01*
X132523996Y-120154180D01*
X132416819Y-120047004D01*
X132276785Y-119989000D01*
X131946650Y-119989000D01*
X131851400Y-120084250D01*
X131800600Y-120084250D01*
X131705350Y-119989000D01*
X131375215Y-119989000D01*
X131235181Y-120047004D01*
X131128004Y-120154180D01*
X131070000Y-120294214D01*
X109274000Y-120294214D01*
X109274000Y-119236444D01*
X123146697Y-109327375D01*
X123149334Y-109324568D01*
X123152800Y-109322899D01*
X123189838Y-109281453D01*
X123227913Y-109240925D01*
X123229274Y-109237325D01*
X123231839Y-109234455D01*
X123250205Y-109181968D01*
X123269863Y-109129977D01*
X123269743Y-109126131D01*
X123271015Y-109122496D01*
X130281740Y-59463192D01*
X130281135Y-59452413D01*
X130283978Y-59441997D01*
X130293797Y-59302207D01*
X130288703Y-59262064D01*
X130288703Y-59221599D01*
X130212583Y-58838916D01*
X130167191Y-58729330D01*
X130167191Y-58729329D01*
X129950418Y-58404906D01*
X129866544Y-58321032D01*
X129542120Y-58104259D01*
X129432534Y-58058867D01*
X129049851Y-57982747D01*
X129019910Y-57982747D01*
X128990544Y-57976906D01*
X118013940Y-57976906D01*
X118070038Y-57965687D01*
X118155973Y-57948594D01*
X118156170Y-57948462D01*
X118156406Y-57948415D01*
X118229839Y-57899238D01*
X118302612Y-57850612D01*
X119059224Y-57094000D01*
X129119855Y-57094000D01*
X134073263Y-61304397D01*
G36*
X148393216Y-45844723D02*
X149265929Y-46427851D01*
X149855175Y-47309719D01*
X150035995Y-47972151D01*
X150246495Y-49463192D01*
X150252884Y-49481450D01*
X150254239Y-49500748D01*
X150320540Y-49743641D01*
X150342350Y-49787351D01*
X150361044Y-49832482D01*
X150577817Y-50156906D01*
X150661691Y-50240780D01*
X150986114Y-50457553D01*
X151018211Y-50470848D01*
X151095701Y-50502945D01*
X151478384Y-50579065D01*
X151508325Y-50579065D01*
X151537691Y-50584906D01*
X176597729Y-50584906D01*
X177657106Y-50795629D01*
X178529819Y-51378757D01*
X179123584Y-52267389D01*
X179245899Y-52637924D01*
X182580644Y-65976906D01*
X180101702Y-65976906D01*
X176498348Y-62133328D01*
X176992640Y-62133328D01*
X177308178Y-62896989D01*
X177891938Y-63481768D01*
X178655047Y-63798639D01*
X179481328Y-63799360D01*
X180244989Y-63483822D01*
X180829768Y-62900062D01*
X181146639Y-62136953D01*
X181147360Y-61310672D01*
X180831822Y-60547011D01*
X180248062Y-59962232D01*
X179484953Y-59645361D01*
X178658672Y-59644640D01*
X177895011Y-59960178D01*
X177310232Y-60543938D01*
X176993361Y-61307047D01*
X176992640Y-62133328D01*
X176498348Y-62133328D01*
X173900393Y-59362176D01*
X173990000Y-59380000D01*
X177546000Y-59380000D01*
X177588801Y-59371487D01*
X177632437Y-59371658D01*
X177674445Y-59354451D01*
X177718973Y-59345594D01*
X177755257Y-59321349D01*
X177795638Y-59304809D01*
X177827867Y-59272833D01*
X177865612Y-59247612D01*
X177889855Y-59211330D01*
X177920834Y-59180594D01*
X178463435Y-58375406D01*
X179030000Y-58375406D01*
X179157589Y-58350027D01*
X179265754Y-58277754D01*
X179338027Y-58169589D01*
X179363406Y-58042000D01*
X179363406Y-57042000D01*
X179338027Y-56914411D01*
X179265754Y-56806246D01*
X179157589Y-56733973D01*
X179030000Y-56708594D01*
X177930000Y-56708594D01*
X177802411Y-56733973D01*
X177694246Y-56806246D01*
X177621973Y-56914411D01*
X177596594Y-57042000D01*
X177596594Y-57090000D01*
X177559091Y-57090000D01*
X177417265Y-57031109D01*
X177167829Y-57030891D01*
X176937297Y-57126145D01*
X176760765Y-57302369D01*
X176665109Y-57532735D01*
X176664891Y-57782171D01*
X176760145Y-58012703D01*
X176936369Y-58189235D01*
X177166735Y-58284891D01*
X177416171Y-58285109D01*
X177441130Y-58274796D01*
X177305542Y-58476000D01*
X174177225Y-58476000D01*
X174076631Y-58375406D01*
X175130000Y-58375406D01*
X175257589Y-58350027D01*
X175365754Y-58277754D01*
X175438027Y-58169589D01*
X175463406Y-58042000D01*
X175463406Y-57976614D01*
X175548973Y-57959594D01*
X175695612Y-57861612D01*
X177363225Y-56194000D01*
X177596594Y-56194000D01*
X177596594Y-56242000D01*
X177621973Y-56369589D01*
X177694246Y-56477754D01*
X177802411Y-56550027D01*
X177930000Y-56575406D01*
X179030000Y-56575406D01*
X179157589Y-56550027D01*
X179265754Y-56477754D01*
X179338027Y-56369589D01*
X179363406Y-56242000D01*
X179363406Y-55242000D01*
X179338027Y-55114411D01*
X179265754Y-55006246D01*
X179157589Y-54933973D01*
X179030000Y-54908594D01*
X178737818Y-54908594D01*
X177919011Y-54089787D01*
X177919109Y-53977829D01*
X177823855Y-53747297D01*
X177647631Y-53570765D01*
X177417265Y-53475109D01*
X177167829Y-53474891D01*
X176937297Y-53570145D01*
X176760765Y-53746369D01*
X176665109Y-53976735D01*
X176664891Y-54226171D01*
X176760145Y-54456703D01*
X176936369Y-54633235D01*
X177166735Y-54728891D01*
X177279766Y-54728990D01*
X177639282Y-55088506D01*
X177621973Y-55114411D01*
X177596594Y-55242000D01*
X177596594Y-55290000D01*
X177176000Y-55290000D01*
X177017074Y-55321612D01*
X177003027Y-55324406D01*
X176856387Y-55422388D01*
X175408522Y-56870254D01*
X175365754Y-56806246D01*
X175257589Y-56733973D01*
X175130000Y-56708594D01*
X174030000Y-56708594D01*
X173902411Y-56733973D01*
X173794246Y-56806246D01*
X173721973Y-56914411D01*
X173696594Y-57042000D01*
X173696594Y-57995369D01*
X172785612Y-57084388D01*
X172638973Y-56986406D01*
X172466000Y-56952000D01*
X172152439Y-56952000D01*
X172158008Y-56924000D01*
X172890000Y-56924000D01*
X173062973Y-56889594D01*
X173209612Y-56791612D01*
X173706985Y-56294239D01*
X173721973Y-56369589D01*
X173794246Y-56477754D01*
X173902411Y-56550027D01*
X174030000Y-56575406D01*
X175130000Y-56575406D01*
X175257589Y-56550027D01*
X175365754Y-56477754D01*
X175438027Y-56369589D01*
X175463406Y-56242000D01*
X175463406Y-55242000D01*
X175438027Y-55114411D01*
X175365754Y-55006246D01*
X175257589Y-54933973D01*
X175130000Y-54908594D01*
X174030000Y-54908594D01*
X173902411Y-54933973D01*
X173794246Y-55006246D01*
X173721973Y-55114411D01*
X173696594Y-55242000D01*
X173696594Y-55290000D01*
X173620000Y-55290000D01*
X173447027Y-55324406D01*
X173300388Y-55422388D01*
X172702776Y-56020000D01*
X172158406Y-56020000D01*
X172158406Y-55722000D01*
X172133027Y-55594411D01*
X172060754Y-55486246D01*
X171952589Y-55413973D01*
X171825000Y-55388594D01*
X171075000Y-55388594D01*
X170947411Y-55413973D01*
X170839246Y-55486246D01*
X170766973Y-55594411D01*
X170741594Y-55722000D01*
X170741594Y-56922000D01*
X170747561Y-56952000D01*
X168698183Y-56952000D01*
X168774891Y-56767265D01*
X168775109Y-56517829D01*
X168766588Y-56497207D01*
X168772000Y-56470000D01*
X168772000Y-55835406D01*
X168870000Y-55835406D01*
X168997589Y-55810027D01*
X169105754Y-55737754D01*
X169178027Y-55629589D01*
X169203406Y-55502000D01*
X169203406Y-54502000D01*
X169178027Y-54374411D01*
X169105754Y-54266246D01*
X168997589Y-54193973D01*
X168870000Y-54168594D01*
X167770000Y-54168594D01*
X167642411Y-54193973D01*
X167534246Y-54266246D01*
X167461973Y-54374411D01*
X167436594Y-54502000D01*
X167436594Y-55219423D01*
X166951133Y-55682000D01*
X165243007Y-55682000D01*
X165278027Y-55629589D01*
X165303406Y-55502000D01*
X165303406Y-55454000D01*
X165978000Y-55454000D01*
X166150973Y-55419594D01*
X166297612Y-55321612D01*
X166382213Y-55237011D01*
X166494171Y-55237109D01*
X166724703Y-55141855D01*
X166901235Y-54965631D01*
X166996891Y-54735265D01*
X166997109Y-54485829D01*
X166901855Y-54255297D01*
X166725631Y-54078765D01*
X166495265Y-53983109D01*
X166245829Y-53982891D01*
X166015297Y-54078145D01*
X165838765Y-54254369D01*
X165743109Y-54484735D01*
X165743052Y-54550000D01*
X165303406Y-54550000D01*
X165303406Y-54502000D01*
X165278027Y-54374411D01*
X165205754Y-54266246D01*
X165097589Y-54193973D01*
X164970000Y-54168594D01*
X163870000Y-54168594D01*
X163742411Y-54193973D01*
X163634246Y-54266246D01*
X163561973Y-54374411D01*
X163536594Y-54502000D01*
X163536594Y-54550000D01*
X162631225Y-54550000D01*
X161403875Y-53322650D01*
X163489000Y-53322650D01*
X163489000Y-53777785D01*
X163547004Y-53917819D01*
X163654180Y-54024996D01*
X163794214Y-54083000D01*
X164299350Y-54083000D01*
X164394600Y-53987750D01*
X164394600Y-53227400D01*
X164445400Y-53227400D01*
X164445400Y-53987750D01*
X164540650Y-54083000D01*
X165045786Y-54083000D01*
X165185820Y-54024996D01*
X165292996Y-53917819D01*
X165351000Y-53777785D01*
X165351000Y-53322650D01*
X165255750Y-53227400D01*
X164445400Y-53227400D01*
X164394600Y-53227400D01*
X163584250Y-53227400D01*
X163489000Y-53322650D01*
X161403875Y-53322650D01*
X160707440Y-52626215D01*
X163489000Y-52626215D01*
X163489000Y-53081350D01*
X163584250Y-53176600D01*
X164394600Y-53176600D01*
X164394600Y-52416250D01*
X164445400Y-52416250D01*
X164445400Y-53176600D01*
X165255750Y-53176600D01*
X165351000Y-53081350D01*
X165351000Y-52702000D01*
X167436594Y-52702000D01*
X167436594Y-53702000D01*
X167461973Y-53829589D01*
X167534246Y-53937754D01*
X167642411Y-54010027D01*
X167770000Y-54035406D01*
X168870000Y-54035406D01*
X168997589Y-54010027D01*
X169105754Y-53937754D01*
X169178027Y-53829589D01*
X169203406Y-53702000D01*
X169203406Y-53654000D01*
X169346776Y-53654000D01*
X170284388Y-54591613D01*
X170431027Y-54689594D01*
X170604000Y-54724000D01*
X170741594Y-54724000D01*
X170741594Y-55022000D01*
X170766973Y-55149589D01*
X170839246Y-55257754D01*
X170947411Y-55330027D01*
X171075000Y-55355406D01*
X171825000Y-55355406D01*
X171952589Y-55330027D01*
X172060754Y-55257754D01*
X172133027Y-55149589D01*
X172158406Y-55022000D01*
X172158406Y-53822000D01*
X172133027Y-53694411D01*
X172060754Y-53586246D01*
X171952589Y-53513973D01*
X171825000Y-53488594D01*
X171075000Y-53488594D01*
X170947411Y-53513973D01*
X170839246Y-53586246D01*
X170766973Y-53694411D01*
X170750160Y-53778935D01*
X169853612Y-52882388D01*
X169706973Y-52784406D01*
X169534000Y-52750000D01*
X169203406Y-52750000D01*
X169203406Y-52702000D01*
X169178027Y-52574411D01*
X169105754Y-52466246D01*
X168997589Y-52393973D01*
X168870000Y-52368594D01*
X167770000Y-52368594D01*
X167642411Y-52393973D01*
X167534246Y-52466246D01*
X167461973Y-52574411D01*
X167436594Y-52702000D01*
X165351000Y-52702000D01*
X165351000Y-52626215D01*
X165292996Y-52486181D01*
X165185820Y-52379004D01*
X165045786Y-52321000D01*
X164540650Y-52321000D01*
X164445400Y-52416250D01*
X164394600Y-52416250D01*
X164299350Y-52321000D01*
X163794214Y-52321000D01*
X163654180Y-52379004D01*
X163547004Y-52486181D01*
X163489000Y-52626215D01*
X160707440Y-52626215D01*
X159693612Y-51612388D01*
X159546973Y-51514406D01*
X159374000Y-51480000D01*
X159043406Y-51480000D01*
X159043406Y-51432000D01*
X159018027Y-51304411D01*
X158945754Y-51196246D01*
X158837589Y-51123973D01*
X158710000Y-51098594D01*
X157610000Y-51098594D01*
X157482411Y-51123973D01*
X157374246Y-51196246D01*
X157301973Y-51304411D01*
X157276594Y-51432000D01*
X157276594Y-51480000D01*
X156856000Y-51480000D01*
X156683027Y-51514406D01*
X156536387Y-51612388D01*
X155088522Y-53060254D01*
X155045754Y-52996246D01*
X154937589Y-52923973D01*
X154810000Y-52898594D01*
X153932630Y-52898594D01*
X154065818Y-52765406D01*
X154810000Y-52765406D01*
X154937589Y-52740027D01*
X155045754Y-52667754D01*
X155118027Y-52559589D01*
X155143406Y-52432000D01*
X155143406Y-51432000D01*
X155118027Y-51304411D01*
X155045754Y-51196246D01*
X154937589Y-51123973D01*
X154810000Y-51098594D01*
X153710000Y-51098594D01*
X153582411Y-51123973D01*
X153474246Y-51196246D01*
X153401973Y-51304411D01*
X153376594Y-51432000D01*
X153376594Y-52176182D01*
X152222776Y-53330000D01*
X151838406Y-53330000D01*
X151838406Y-53182000D01*
X151813027Y-53054411D01*
X151740754Y-52946246D01*
X151632589Y-52873973D01*
X151505000Y-52848594D01*
X150755000Y-52848594D01*
X150627411Y-52873973D01*
X150519246Y-52946246D01*
X150446973Y-53054411D01*
X150421594Y-53182000D01*
X150421594Y-54382000D01*
X150446973Y-54509589D01*
X150519246Y-54617754D01*
X150627411Y-54690027D01*
X150755000Y-54715406D01*
X151505000Y-54715406D01*
X151632589Y-54690027D01*
X151740754Y-54617754D01*
X151813027Y-54509589D01*
X151838406Y-54382000D01*
X151838406Y-54234000D01*
X152410000Y-54234000D01*
X152582973Y-54199594D01*
X152729612Y-54101612D01*
X153376594Y-53454630D01*
X153376594Y-54232000D01*
X153401973Y-54359589D01*
X153474246Y-54467754D01*
X153582411Y-54540027D01*
X153710000Y-54565406D01*
X154810000Y-54565406D01*
X154937589Y-54540027D01*
X155045754Y-54467754D01*
X155118027Y-54359589D01*
X155143406Y-54232000D01*
X155143406Y-54166614D01*
X155228973Y-54149594D01*
X155375612Y-54051612D01*
X157043225Y-52384000D01*
X157276594Y-52384000D01*
X157276594Y-52432000D01*
X157301973Y-52559589D01*
X157374246Y-52667754D01*
X157482411Y-52740027D01*
X157610000Y-52765406D01*
X158710000Y-52765406D01*
X158837589Y-52740027D01*
X158945754Y-52667754D01*
X159018027Y-52559589D01*
X159043406Y-52432000D01*
X159043406Y-52384000D01*
X159186776Y-52384000D01*
X162124388Y-55321613D01*
X162262615Y-55413973D01*
X162271027Y-55419594D01*
X162444000Y-55454000D01*
X163536594Y-55454000D01*
X163536594Y-55502000D01*
X163561973Y-55629589D01*
X163596993Y-55682000D01*
X158538183Y-55682000D01*
X158614891Y-55497265D01*
X158615109Y-55247829D01*
X158606588Y-55227207D01*
X158612000Y-55200000D01*
X158612000Y-54565406D01*
X158710000Y-54565406D01*
X158837589Y-54540027D01*
X158945754Y-54467754D01*
X159018027Y-54359589D01*
X159043406Y-54232000D01*
X159043406Y-53232000D01*
X159018027Y-53104411D01*
X158945754Y-52996246D01*
X158837589Y-52923973D01*
X158710000Y-52898594D01*
X157610000Y-52898594D01*
X157482411Y-52923973D01*
X157374246Y-52996246D01*
X157301973Y-53104411D01*
X157276594Y-53232000D01*
X157276594Y-54040974D01*
X156262015Y-55174000D01*
X145542000Y-55174000D01*
X145369027Y-55208406D01*
X145222388Y-55306388D01*
X144335040Y-56193736D01*
X144216000Y-55340617D01*
X144216000Y-54797224D01*
X144531642Y-54481583D01*
X147307843Y-53260293D01*
X147322411Y-53270027D01*
X147450000Y-53295406D01*
X147548000Y-53295406D01*
X147548000Y-53753028D01*
X147455109Y-53976735D01*
X147454891Y-54226171D01*
X147550145Y-54456703D01*
X147726369Y-54633235D01*
X147956735Y-54728891D01*
X148206171Y-54729109D01*
X148436703Y-54633855D01*
X148613235Y-54457631D01*
X148708891Y-54227265D01*
X148709109Y-53977829D01*
X148613855Y-53747297D01*
X148452000Y-53585159D01*
X148452000Y-53295406D01*
X148550000Y-53295406D01*
X148677589Y-53270027D01*
X148785754Y-53197754D01*
X148858027Y-53089589D01*
X148883406Y-52962000D01*
X148883406Y-51962000D01*
X148858027Y-51834411D01*
X148785754Y-51726246D01*
X148677589Y-51653973D01*
X148550000Y-51628594D01*
X147450000Y-51628594D01*
X147322411Y-51653973D01*
X147214246Y-51726246D01*
X147141973Y-51834411D01*
X147116594Y-51962000D01*
X147116594Y-52356819D01*
X144089992Y-53688265D01*
X144021713Y-53736065D01*
X143952387Y-53782388D01*
X143460417Y-54274359D01*
X143442538Y-54147714D01*
X143436148Y-54129453D01*
X143434793Y-54110157D01*
X143368493Y-53867265D01*
X143346681Y-53823550D01*
X143327989Y-53778423D01*
X143111216Y-53454000D01*
X143027342Y-53370126D01*
X142702918Y-53153353D01*
X142593332Y-53107961D01*
X142210649Y-53031841D01*
X142180708Y-53031841D01*
X142151342Y-53026000D01*
X139788658Y-53026000D01*
X139769683Y-53029774D01*
X139750387Y-53028419D01*
X139500610Y-53060116D01*
X139454277Y-53075603D01*
X139406980Y-53087803D01*
X139055443Y-53257094D01*
X139055441Y-53257095D01*
X138960666Y-53328420D01*
X138833258Y-53470989D01*
X138877776Y-53147650D01*
X138876299Y-53122860D01*
X138881822Y-53098654D01*
X138871094Y-53035529D01*
X138867284Y-52971601D01*
X138856434Y-52949267D01*
X138852273Y-52924785D01*
X138818197Y-52870560D01*
X138790218Y-52812968D01*
X138771648Y-52796487D01*
X138758435Y-52775461D01*
X138723406Y-52738413D01*
X138723406Y-51962000D01*
X138698027Y-51834411D01*
X138625754Y-51726246D01*
X138517589Y-51653973D01*
X138390000Y-51628594D01*
X137290000Y-51628594D01*
X137162411Y-51653973D01*
X137054246Y-51726246D01*
X136981973Y-51834411D01*
X136956594Y-51962000D01*
X136956594Y-52962000D01*
X136981973Y-53089589D01*
X137054246Y-53197754D01*
X137162411Y-53270027D01*
X137290000Y-53295406D01*
X137388000Y-53295406D01*
X137388000Y-53474977D01*
X137289829Y-53474891D01*
X137059297Y-53570145D01*
X136882765Y-53746369D01*
X136787109Y-53976735D01*
X136786891Y-54226171D01*
X136882145Y-54456703D01*
X137058369Y-54633235D01*
X137288735Y-54728891D01*
X137538171Y-54729109D01*
X137760138Y-54637394D01*
X137056112Y-59750850D01*
X137022116Y-59699972D01*
X136975486Y-59628308D01*
X136973170Y-59626719D01*
X136971612Y-59624388D01*
X136900533Y-59576894D01*
X136830051Y-59528547D01*
X136827309Y-59527967D01*
X136824973Y-59526406D01*
X136741117Y-59509726D01*
X136657511Y-59492033D01*
X136654751Y-59492547D01*
X136652000Y-59492000D01*
X135042145Y-59492000D01*
X128563406Y-53897626D01*
X128563406Y-53232000D01*
X128538027Y-53104411D01*
X128465754Y-52996246D01*
X128357589Y-52923973D01*
X128230000Y-52898594D01*
X127130000Y-52898594D01*
X127002411Y-52923973D01*
X126894246Y-52996246D01*
X126821973Y-53104411D01*
X126796594Y-53232000D01*
X126796594Y-54232000D01*
X126821973Y-54359589D01*
X126894246Y-54467754D01*
X127002411Y-54540027D01*
X127130000Y-54565406D01*
X127228000Y-54565406D01*
X127228000Y-55023028D01*
X127135109Y-55246735D01*
X127134891Y-55496171D01*
X127211674Y-55682000D01*
X119036242Y-55682000D01*
X118403406Y-55152141D01*
X118403406Y-54502000D01*
X118378027Y-54374411D01*
X118305754Y-54266246D01*
X118197589Y-54193973D01*
X118070000Y-54168594D01*
X116970000Y-54168594D01*
X116842411Y-54193973D01*
X116734246Y-54266246D01*
X116661973Y-54374411D01*
X116636594Y-54502000D01*
X116636594Y-55502000D01*
X116661973Y-55629589D01*
X116734246Y-55737754D01*
X116842411Y-55810027D01*
X116970000Y-55835406D01*
X117068000Y-55835406D01*
X117068000Y-56293028D01*
X116975109Y-56516735D01*
X116974891Y-56766171D01*
X117070145Y-56996703D01*
X117153156Y-57079859D01*
X113475048Y-57083667D01*
X113561235Y-56997631D01*
X113656891Y-56767265D01*
X113656990Y-56654234D01*
X113939612Y-56371612D01*
X114037594Y-56224973D01*
X114072000Y-56052000D01*
X114072000Y-55835406D01*
X114170000Y-55835406D01*
X114297589Y-55810027D01*
X114405754Y-55737754D01*
X114478027Y-55629589D01*
X114503406Y-55502000D01*
X114503406Y-55454000D01*
X114924000Y-55454000D01*
X115096973Y-55419594D01*
X115243612Y-55321612D01*
X116691478Y-53873747D01*
X116734246Y-53937754D01*
X116842411Y-54010027D01*
X116970000Y-54035406D01*
X118070000Y-54035406D01*
X118197589Y-54010027D01*
X118305754Y-53937754D01*
X118378027Y-53829589D01*
X118400189Y-53718171D01*
X121292891Y-53718171D01*
X121388145Y-53948703D01*
X121564369Y-54125235D01*
X121794735Y-54220891D01*
X122044171Y-54221109D01*
X122133982Y-54184000D01*
X122896594Y-54184000D01*
X122896594Y-54232000D01*
X122921973Y-54359589D01*
X122994246Y-54467754D01*
X123102411Y-54540027D01*
X123230000Y-54565406D01*
X124330000Y-54565406D01*
X124457589Y-54540027D01*
X124565754Y-54467754D01*
X124638027Y-54359589D01*
X124663406Y-54232000D01*
X124663406Y-53232000D01*
X124638027Y-53104411D01*
X124565754Y-52996246D01*
X124457589Y-52923973D01*
X124330000Y-52898594D01*
X123230000Y-52898594D01*
X123102411Y-52923973D01*
X122994246Y-52996246D01*
X122921973Y-53104411D01*
X122896594Y-53232000D01*
X122896594Y-53280000D01*
X122468673Y-53280000D01*
X122451855Y-53239297D01*
X122275631Y-53062765D01*
X122045265Y-52967109D01*
X121795829Y-52966891D01*
X121565297Y-53062145D01*
X121388765Y-53238369D01*
X121293109Y-53468735D01*
X121292891Y-53718171D01*
X118400189Y-53718171D01*
X118403406Y-53702000D01*
X118403406Y-52702000D01*
X118378027Y-52574411D01*
X118305754Y-52466246D01*
X118197589Y-52393973D01*
X118070000Y-52368594D01*
X116970000Y-52368594D01*
X116842411Y-52393973D01*
X116734246Y-52466246D01*
X116661973Y-52574411D01*
X116636594Y-52702000D01*
X116636594Y-52767386D01*
X116565074Y-52781612D01*
X116551027Y-52784406D01*
X116404387Y-52882388D01*
X114736776Y-54550000D01*
X114503406Y-54550000D01*
X114503406Y-54502000D01*
X114478027Y-54374411D01*
X114405754Y-54266246D01*
X114297589Y-54193973D01*
X114170000Y-54168594D01*
X113070000Y-54168594D01*
X112942411Y-54193973D01*
X112834246Y-54266246D01*
X112761973Y-54374411D01*
X112736594Y-54502000D01*
X112736594Y-55502000D01*
X112761973Y-55629589D01*
X112834246Y-55737754D01*
X112942411Y-55810027D01*
X113070000Y-55835406D01*
X113168000Y-55835406D01*
X113168000Y-55864776D01*
X113017787Y-56014989D01*
X112905829Y-56014891D01*
X112675297Y-56110145D01*
X112498765Y-56286369D01*
X112403109Y-56516735D01*
X112402891Y-56766171D01*
X112498145Y-56996703D01*
X112585877Y-57084588D01*
X111148647Y-57086076D01*
X111173027Y-57049589D01*
X111198406Y-56922000D01*
X111198406Y-55722000D01*
X111173027Y-55594411D01*
X111100754Y-55486246D01*
X110992589Y-55413973D01*
X110865000Y-55388594D01*
X110115000Y-55388594D01*
X109987411Y-55413973D01*
X109879246Y-55486246D01*
X109806973Y-55594411D01*
X109781594Y-55722000D01*
X109781594Y-56020000D01*
X109745224Y-56020000D01*
X109147612Y-55422388D01*
X109000973Y-55324406D01*
X108828000Y-55290000D01*
X108243406Y-55290000D01*
X108243406Y-55242000D01*
X108218027Y-55114411D01*
X108145754Y-55006246D01*
X108037589Y-54933973D01*
X107910000Y-54908594D01*
X106810000Y-54908594D01*
X106682411Y-54933973D01*
X106574246Y-55006246D01*
X106501973Y-55114411D01*
X106476594Y-55242000D01*
X106476594Y-56242000D01*
X106501973Y-56369589D01*
X106574246Y-56477754D01*
X106682411Y-56550027D01*
X106810000Y-56575406D01*
X107910000Y-56575406D01*
X108037589Y-56550027D01*
X108145754Y-56477754D01*
X108218027Y-56369589D01*
X108243406Y-56242000D01*
X108243406Y-56194000D01*
X108640776Y-56194000D01*
X109238388Y-56791612D01*
X109385027Y-56889594D01*
X109558000Y-56924000D01*
X109781992Y-56924000D01*
X109806973Y-57049589D01*
X109832264Y-57087440D01*
X108243406Y-57089085D01*
X108243406Y-57042000D01*
X108218027Y-56914411D01*
X108145754Y-56806246D01*
X108037589Y-56733973D01*
X107910000Y-56708594D01*
X106810000Y-56708594D01*
X106682411Y-56733973D01*
X106574246Y-56806246D01*
X106501973Y-56914411D01*
X106494496Y-56952000D01*
X105664000Y-56952000D01*
X105491072Y-56986397D01*
X105491027Y-56986406D01*
X105424270Y-57031012D01*
X105285829Y-57030891D01*
X105055297Y-57126145D01*
X104878765Y-57302369D01*
X104783109Y-57532735D01*
X104782891Y-57782171D01*
X104878145Y-58012703D01*
X105054369Y-58189235D01*
X105284735Y-58284891D01*
X105534171Y-58285109D01*
X105764703Y-58189855D01*
X105941235Y-58013631D01*
X106006689Y-57856000D01*
X106476594Y-57856000D01*
X106476594Y-58042000D01*
X106501973Y-58169589D01*
X106574246Y-58277754D01*
X106682411Y-58350027D01*
X106810000Y-58375406D01*
X107910000Y-58375406D01*
X108037589Y-58350027D01*
X108145754Y-58277754D01*
X108218027Y-58169589D01*
X108243406Y-58042000D01*
X108243406Y-57993086D01*
X109394653Y-57991894D01*
X109353664Y-58000047D01*
X109349521Y-58002815D01*
X109344670Y-58003944D01*
X109300357Y-58035666D01*
X109255040Y-58065946D01*
X109252273Y-58070088D01*
X109248221Y-58072988D01*
X101838298Y-65976906D01*
X99359356Y-65976906D01*
X100320250Y-62133328D01*
X100792640Y-62133328D01*
X101108178Y-62896989D01*
X101691938Y-63481768D01*
X102455047Y-63798639D01*
X103281328Y-63799360D01*
X104044989Y-63483822D01*
X104629768Y-62900062D01*
X104946639Y-62136953D01*
X104947360Y-61310672D01*
X104631822Y-60547011D01*
X104048062Y-59962232D01*
X103829323Y-59871404D01*
X103909235Y-59791631D01*
X104004891Y-59561265D01*
X104005109Y-59311829D01*
X103912000Y-59086488D01*
X103912000Y-58375406D01*
X104010000Y-58375406D01*
X104137589Y-58350027D01*
X104245754Y-58277754D01*
X104318027Y-58169589D01*
X104343406Y-58042000D01*
X104343406Y-57042000D01*
X104318027Y-56914411D01*
X104245754Y-56806246D01*
X104137589Y-56733973D01*
X104010000Y-56708594D01*
X102910000Y-56708594D01*
X102782411Y-56733973D01*
X102674246Y-56806246D01*
X102601973Y-56914411D01*
X102576594Y-57042000D01*
X102576594Y-58042000D01*
X102601973Y-58169589D01*
X102674246Y-58277754D01*
X102782411Y-58350027D01*
X102910000Y-58375406D01*
X103008000Y-58375406D01*
X103008000Y-58919415D01*
X102846765Y-59080369D01*
X102751109Y-59310735D01*
X102750891Y-59560171D01*
X102785911Y-59644926D01*
X102458672Y-59644640D01*
X101695011Y-59960178D01*
X101110232Y-60543938D01*
X100793361Y-61307047D01*
X100792640Y-62133328D01*
X100320250Y-62133328D01*
X101887919Y-55862650D01*
X102529000Y-55862650D01*
X102529000Y-56317785D01*
X102587004Y-56457819D01*
X102694180Y-56564996D01*
X102834214Y-56623000D01*
X103339350Y-56623000D01*
X103434600Y-56527750D01*
X103434600Y-55767400D01*
X103485400Y-55767400D01*
X103485400Y-56527750D01*
X103580650Y-56623000D01*
X104085786Y-56623000D01*
X104225820Y-56564996D01*
X104332996Y-56457819D01*
X104391000Y-56317785D01*
X104391000Y-55862650D01*
X104295750Y-55767400D01*
X103485400Y-55767400D01*
X103434600Y-55767400D01*
X102624250Y-55767400D01*
X102529000Y-55862650D01*
X101887919Y-55862650D01*
X102062027Y-55166215D01*
X102529000Y-55166215D01*
X102529000Y-55621350D01*
X102624250Y-55716600D01*
X103434600Y-55716600D01*
X103434600Y-54956250D01*
X103485400Y-54956250D01*
X103485400Y-55716600D01*
X104295750Y-55716600D01*
X104391000Y-55621350D01*
X104391000Y-55166215D01*
X104332996Y-55026181D01*
X104225820Y-54919004D01*
X104085786Y-54861000D01*
X103580650Y-54861000D01*
X103485400Y-54956250D01*
X103434600Y-54956250D01*
X103339350Y-54861000D01*
X102834214Y-54861000D01*
X102694180Y-54919004D01*
X102587004Y-55026181D01*
X102529000Y-55166215D01*
X102062027Y-55166215D01*
X102398081Y-53822000D01*
X109781594Y-53822000D01*
X109781594Y-55022000D01*
X109806973Y-55149589D01*
X109879246Y-55257754D01*
X109987411Y-55330027D01*
X110115000Y-55355406D01*
X110865000Y-55355406D01*
X110992589Y-55330027D01*
X111100754Y-55257754D01*
X111173027Y-55149589D01*
X111198406Y-55022000D01*
X111198406Y-54724000D01*
X111336000Y-54724000D01*
X111508973Y-54689594D01*
X111655612Y-54591612D01*
X112593225Y-53654000D01*
X112736594Y-53654000D01*
X112736594Y-53702000D01*
X112761973Y-53829589D01*
X112834246Y-53937754D01*
X112942411Y-54010027D01*
X113070000Y-54035406D01*
X114170000Y-54035406D01*
X114297589Y-54010027D01*
X114405754Y-53937754D01*
X114478027Y-53829589D01*
X114503406Y-53702000D01*
X114503406Y-52702000D01*
X114478027Y-52574411D01*
X114405754Y-52466246D01*
X114297589Y-52393973D01*
X114170000Y-52368594D01*
X113070000Y-52368594D01*
X112942411Y-52393973D01*
X112834246Y-52466246D01*
X112761973Y-52574411D01*
X112736594Y-52702000D01*
X112736594Y-52750000D01*
X112406000Y-52750000D01*
X112233027Y-52784406D01*
X112086388Y-52882387D01*
X111189840Y-53778936D01*
X111173027Y-53694411D01*
X111100754Y-53586246D01*
X110992589Y-53513973D01*
X110865000Y-53488594D01*
X110115000Y-53488594D01*
X109987411Y-53513973D01*
X109879246Y-53586246D01*
X109806973Y-53694411D01*
X109781594Y-53822000D01*
X102398081Y-53822000D01*
X102689564Y-52656073D01*
X102974623Y-52052650D01*
X122849000Y-52052650D01*
X122849000Y-52507785D01*
X122907004Y-52647819D01*
X123014180Y-52754996D01*
X123154214Y-52813000D01*
X123659350Y-52813000D01*
X123754600Y-52717750D01*
X123754600Y-51957400D01*
X123805400Y-51957400D01*
X123805400Y-52717750D01*
X123900650Y-52813000D01*
X124405786Y-52813000D01*
X124545820Y-52754996D01*
X124652996Y-52647819D01*
X124711000Y-52507785D01*
X124711000Y-52052650D01*
X124615750Y-51957400D01*
X123805400Y-51957400D01*
X123754600Y-51957400D01*
X122944250Y-51957400D01*
X122849000Y-52052650D01*
X102974623Y-52052650D01*
X103150930Y-51679439D01*
X103507224Y-51356215D01*
X122849000Y-51356215D01*
X122849000Y-51811350D01*
X122944250Y-51906600D01*
X123754600Y-51906600D01*
X123754600Y-51146250D01*
X123805400Y-51146250D01*
X123805400Y-51906600D01*
X124615750Y-51906600D01*
X124711000Y-51811350D01*
X124711000Y-51432000D01*
X126796594Y-51432000D01*
X126796594Y-52432000D01*
X126821973Y-52559589D01*
X126894246Y-52667754D01*
X127002411Y-52740027D01*
X127130000Y-52765406D01*
X128230000Y-52765406D01*
X128310224Y-52749448D01*
X129812388Y-54251612D01*
X129959027Y-54349594D01*
X130101594Y-54377952D01*
X130101594Y-54382000D01*
X130126973Y-54509589D01*
X130199246Y-54617754D01*
X130307411Y-54690027D01*
X130435000Y-54715406D01*
X131185000Y-54715406D01*
X131312589Y-54690027D01*
X131420754Y-54617754D01*
X131493027Y-54509589D01*
X131518406Y-54382000D01*
X131518406Y-54226171D01*
X132468891Y-54226171D01*
X132564145Y-54456703D01*
X132740369Y-54633235D01*
X132970735Y-54728891D01*
X133220171Y-54729109D01*
X133450703Y-54633855D01*
X133627235Y-54457631D01*
X133722891Y-54227265D01*
X133722990Y-54114234D01*
X134259612Y-53577612D01*
X134357594Y-53430973D01*
X134359572Y-53421027D01*
X134384560Y-53295406D01*
X134490000Y-53295406D01*
X134617589Y-53270027D01*
X134725754Y-53197754D01*
X134798027Y-53089589D01*
X134823406Y-52962000D01*
X134823406Y-52914000D01*
X135244000Y-52914000D01*
X135416973Y-52879594D01*
X135563612Y-52781612D01*
X137011478Y-51333747D01*
X137054246Y-51397754D01*
X137162411Y-51470027D01*
X137290000Y-51495406D01*
X138390000Y-51495406D01*
X138517589Y-51470027D01*
X138625754Y-51397754D01*
X138698027Y-51289589D01*
X138723406Y-51162000D01*
X138723406Y-51114000D01*
X142112776Y-51114000D01*
X143216594Y-52217819D01*
X143216594Y-52962000D01*
X143241973Y-53089589D01*
X143314246Y-53197754D01*
X143422411Y-53270027D01*
X143550000Y-53295406D01*
X144650000Y-53295406D01*
X144777589Y-53270027D01*
X144885754Y-53197754D01*
X144958027Y-53089589D01*
X144983406Y-52962000D01*
X144983406Y-52914000D01*
X145658000Y-52914000D01*
X145830973Y-52879594D01*
X145977612Y-52781612D01*
X146062213Y-52697011D01*
X146174171Y-52697109D01*
X146404703Y-52601855D01*
X146581235Y-52425631D01*
X146676891Y-52195265D01*
X146677109Y-51945829D01*
X146581855Y-51715297D01*
X146405631Y-51538765D01*
X146175265Y-51443109D01*
X145925829Y-51442891D01*
X145695297Y-51538145D01*
X145518765Y-51714369D01*
X145423109Y-51944735D01*
X145423052Y-52010000D01*
X144983406Y-52010000D01*
X144983406Y-51962000D01*
X144958027Y-51834411D01*
X144885754Y-51726246D01*
X144777589Y-51653973D01*
X144650000Y-51628594D01*
X143905819Y-51628594D01*
X143820225Y-51543000D01*
X143979350Y-51543000D01*
X144074600Y-51447750D01*
X144074600Y-50687400D01*
X144125400Y-50687400D01*
X144125400Y-51447750D01*
X144220650Y-51543000D01*
X144725786Y-51543000D01*
X144865820Y-51484996D01*
X144972996Y-51377819D01*
X145031000Y-51237785D01*
X145031000Y-50782650D01*
X144935750Y-50687400D01*
X144125400Y-50687400D01*
X144074600Y-50687400D01*
X143264250Y-50687400D01*
X143169000Y-50782650D01*
X143169000Y-50891776D01*
X142619612Y-50342388D01*
X142472973Y-50244406D01*
X142300000Y-50210000D01*
X138723406Y-50210000D01*
X138723406Y-50162000D01*
X138708332Y-50086215D01*
X143169000Y-50086215D01*
X143169000Y-50541350D01*
X143264250Y-50636600D01*
X144074600Y-50636600D01*
X144074600Y-49876250D01*
X144125400Y-49876250D01*
X144125400Y-50636600D01*
X144935750Y-50636600D01*
X145031000Y-50541350D01*
X145031000Y-50162000D01*
X147116594Y-50162000D01*
X147116594Y-51162000D01*
X147141973Y-51289589D01*
X147214246Y-51397754D01*
X147322411Y-51470027D01*
X147450000Y-51495406D01*
X148550000Y-51495406D01*
X148677589Y-51470027D01*
X148785754Y-51397754D01*
X148858027Y-51289589D01*
X148883406Y-51162000D01*
X148883406Y-51114000D01*
X149026776Y-51114000D01*
X149964388Y-52051613D01*
X150111027Y-52149594D01*
X150284000Y-52184000D01*
X150421594Y-52184000D01*
X150421594Y-52482000D01*
X150446973Y-52609589D01*
X150519246Y-52717754D01*
X150627411Y-52790027D01*
X150755000Y-52815406D01*
X151505000Y-52815406D01*
X151632589Y-52790027D01*
X151740754Y-52717754D01*
X151813027Y-52609589D01*
X151838406Y-52482000D01*
X151838406Y-51282000D01*
X151813027Y-51154411D01*
X151740754Y-51046246D01*
X151632589Y-50973973D01*
X151505000Y-50948594D01*
X150755000Y-50948594D01*
X150627411Y-50973973D01*
X150519246Y-51046246D01*
X150446973Y-51154411D01*
X150430160Y-51238935D01*
X149533612Y-50342388D01*
X149386973Y-50244406D01*
X149214000Y-50210000D01*
X148883406Y-50210000D01*
X148883406Y-50162000D01*
X148858027Y-50034411D01*
X148785754Y-49926246D01*
X148677589Y-49853973D01*
X148550000Y-49828594D01*
X147450000Y-49828594D01*
X147322411Y-49853973D01*
X147214246Y-49926246D01*
X147141973Y-50034411D01*
X147116594Y-50162000D01*
X145031000Y-50162000D01*
X145031000Y-50086215D01*
X144972996Y-49946181D01*
X144865820Y-49839004D01*
X144725786Y-49781000D01*
X144220650Y-49781000D01*
X144125400Y-49876250D01*
X144074600Y-49876250D01*
X143979350Y-49781000D01*
X143474214Y-49781000D01*
X143334180Y-49839004D01*
X143227004Y-49946181D01*
X143169000Y-50086215D01*
X138708332Y-50086215D01*
X138698027Y-50034411D01*
X138625754Y-49926246D01*
X138517589Y-49853973D01*
X138390000Y-49828594D01*
X137290000Y-49828594D01*
X137162411Y-49853973D01*
X137054246Y-49926246D01*
X136981973Y-50034411D01*
X136956594Y-50162000D01*
X136956594Y-50227386D01*
X136871027Y-50244406D01*
X136724387Y-50342388D01*
X135056776Y-52010000D01*
X134823406Y-52010000D01*
X134823406Y-51962000D01*
X134798027Y-51834411D01*
X134725754Y-51726246D01*
X134617589Y-51653973D01*
X134490000Y-51628594D01*
X133390000Y-51628594D01*
X133262411Y-51653973D01*
X133154246Y-51726246D01*
X133081973Y-51834411D01*
X133056594Y-51962000D01*
X133056594Y-52962000D01*
X133081973Y-53089589D01*
X133154246Y-53197754D01*
X133262411Y-53270027D01*
X133284379Y-53274397D01*
X133083787Y-53474989D01*
X132971829Y-53474891D01*
X132741297Y-53570145D01*
X132564765Y-53746369D01*
X132469109Y-53976735D01*
X132468891Y-54226171D01*
X131518406Y-54226171D01*
X131518406Y-53182000D01*
X131493027Y-53054411D01*
X131420754Y-52946246D01*
X131312589Y-52873973D01*
X131185000Y-52848594D01*
X130435000Y-52848594D01*
X130307411Y-52873973D01*
X130199246Y-52946246D01*
X130126973Y-53054411D01*
X130101594Y-53182000D01*
X130101594Y-53262370D01*
X128563406Y-51724182D01*
X128563406Y-51432000D01*
X128538027Y-51304411D01*
X128523053Y-51282000D01*
X130101594Y-51282000D01*
X130101594Y-52482000D01*
X130126973Y-52609589D01*
X130199246Y-52717754D01*
X130307411Y-52790027D01*
X130435000Y-52815406D01*
X131185000Y-52815406D01*
X131312589Y-52790027D01*
X131420754Y-52717754D01*
X131493027Y-52609589D01*
X131518406Y-52482000D01*
X131518406Y-52184000D01*
X131656000Y-52184000D01*
X131828973Y-52149594D01*
X131975612Y-52051612D01*
X132913225Y-51114000D01*
X133056594Y-51114000D01*
X133056594Y-51162000D01*
X133081973Y-51289589D01*
X133154246Y-51397754D01*
X133262411Y-51470027D01*
X133390000Y-51495406D01*
X134490000Y-51495406D01*
X134617589Y-51470027D01*
X134725754Y-51397754D01*
X134798027Y-51289589D01*
X134823406Y-51162000D01*
X134823406Y-50162000D01*
X134798027Y-50034411D01*
X134725754Y-49926246D01*
X134617589Y-49853973D01*
X134490000Y-49828594D01*
X133390000Y-49828594D01*
X133262411Y-49853973D01*
X133154246Y-49926246D01*
X133081973Y-50034411D01*
X133056594Y-50162000D01*
X133056594Y-50210000D01*
X132726000Y-50210000D01*
X132553027Y-50244406D01*
X132406388Y-50342387D01*
X131509840Y-51238936D01*
X131493027Y-51154411D01*
X131420754Y-51046246D01*
X131312589Y-50973973D01*
X131185000Y-50948594D01*
X130435000Y-50948594D01*
X130307411Y-50973973D01*
X130199246Y-51046246D01*
X130126973Y-51154411D01*
X130101594Y-51282000D01*
X128523053Y-51282000D01*
X128465754Y-51196246D01*
X128357589Y-51123973D01*
X128230000Y-51098594D01*
X127130000Y-51098594D01*
X127002411Y-51123973D01*
X126894246Y-51196246D01*
X126821973Y-51304411D01*
X126796594Y-51432000D01*
X124711000Y-51432000D01*
X124711000Y-51356215D01*
X124652996Y-51216181D01*
X124545820Y-51109004D01*
X124405786Y-51051000D01*
X123900650Y-51051000D01*
X123805400Y-51146250D01*
X123754600Y-51146250D01*
X123659350Y-51051000D01*
X123154214Y-51051000D01*
X123014180Y-51109004D01*
X122907004Y-51216181D01*
X122849000Y-51356215D01*
X103507224Y-51356215D01*
X103928311Y-50974212D01*
X104934421Y-50613700D01*
X105323558Y-50584906D01*
X130402309Y-50584906D01*
X130421284Y-50581132D01*
X130440580Y-50582487D01*
X130690357Y-50550790D01*
X130736685Y-50535305D01*
X130783987Y-50523103D01*
X131135524Y-50353812D01*
X131135526Y-50353811D01*
X131230301Y-50282486D01*
X131490297Y-49991551D01*
X131531983Y-49920882D01*
X131550563Y-49889385D01*
X131679430Y-49521101D01*
X131683615Y-49491456D01*
X131693505Y-49463192D01*
X131902505Y-47982776D01*
X132259250Y-46963254D01*
X132958648Y-46180628D01*
X133914231Y-45720444D01*
X134595427Y-45634000D01*
X147333839Y-45634000D01*
X148393216Y-45844723D01*
X148393216Y-45844723D01*
G37*
X148393216Y-45844723D02*
X149265929Y-46427851D01*
X149855175Y-47309719D01*
X150035995Y-47972151D01*
X150246495Y-49463192D01*
X150252884Y-49481450D01*
X150254239Y-49500748D01*
X150320540Y-49743641D01*
X150342350Y-49787351D01*
X150361044Y-49832482D01*
X150577817Y-50156906D01*
X150661691Y-50240780D01*
X150986114Y-50457553D01*
X151018211Y-50470848D01*
X151095701Y-50502945D01*
X151478384Y-50579065D01*
X151508325Y-50579065D01*
X151537691Y-50584906D01*
X176597729Y-50584906D01*
X177657106Y-50795629D01*
X178529819Y-51378757D01*
X179123584Y-52267389D01*
X179245899Y-52637924D01*
X182580644Y-65976906D01*
X180101702Y-65976906D01*
X176498348Y-62133328D01*
X176992640Y-62133328D01*
X177308178Y-62896989D01*
X177891938Y-63481768D01*
X178655047Y-63798639D01*
X179481328Y-63799360D01*
X180244989Y-63483822D01*
X180829768Y-62900062D01*
X181146639Y-62136953D01*
X181147360Y-61310672D01*
X180831822Y-60547011D01*
X180248062Y-59962232D01*
X179484953Y-59645361D01*
X178658672Y-59644640D01*
X177895011Y-59960178D01*
X177310232Y-60543938D01*
X176993361Y-61307047D01*
X176992640Y-62133328D01*
X176498348Y-62133328D01*
X173900393Y-59362176D01*
X173990000Y-59380000D01*
X177546000Y-59380000D01*
X177588801Y-59371487D01*
X177632437Y-59371658D01*
X177674445Y-59354451D01*
X177718973Y-59345594D01*
X177755257Y-59321349D01*
X177795638Y-59304809D01*
X177827867Y-59272833D01*
X177865612Y-59247612D01*
X177889855Y-59211330D01*
X177920834Y-59180594D01*
X178463435Y-58375406D01*
X179030000Y-58375406D01*
X179157589Y-58350027D01*
X179265754Y-58277754D01*
X179338027Y-58169589D01*
X179363406Y-58042000D01*
X179363406Y-57042000D01*
X179338027Y-56914411D01*
X179265754Y-56806246D01*
X179157589Y-56733973D01*
X179030000Y-56708594D01*
X177930000Y-56708594D01*
X177802411Y-56733973D01*
X177694246Y-56806246D01*
X177621973Y-56914411D01*
X177596594Y-57042000D01*
X177596594Y-57090000D01*
X177559091Y-57090000D01*
X177417265Y-57031109D01*
X177167829Y-57030891D01*
X176937297Y-57126145D01*
X176760765Y-57302369D01*
X176665109Y-57532735D01*
X176664891Y-57782171D01*
X176760145Y-58012703D01*
X176936369Y-58189235D01*
X177166735Y-58284891D01*
X177416171Y-58285109D01*
X177441130Y-58274796D01*
X177305542Y-58476000D01*
X174177225Y-58476000D01*
X174076631Y-58375406D01*
X175130000Y-58375406D01*
X175257589Y-58350027D01*
X175365754Y-58277754D01*
X175438027Y-58169589D01*
X175463406Y-58042000D01*
X175463406Y-57976614D01*
X175548973Y-57959594D01*
X175695612Y-57861612D01*
X177363225Y-56194000D01*
X177596594Y-56194000D01*
X177596594Y-56242000D01*
X177621973Y-56369589D01*
X177694246Y-56477754D01*
X177802411Y-56550027D01*
X177930000Y-56575406D01*
X179030000Y-56575406D01*
X179157589Y-56550027D01*
X179265754Y-56477754D01*
X179338027Y-56369589D01*
X179363406Y-56242000D01*
X179363406Y-55242000D01*
X179338027Y-55114411D01*
X179265754Y-55006246D01*
X179157589Y-54933973D01*
X179030000Y-54908594D01*
X178737818Y-54908594D01*
X177919011Y-54089787D01*
X177919109Y-53977829D01*
X177823855Y-53747297D01*
X177647631Y-53570765D01*
X177417265Y-53475109D01*
X177167829Y-53474891D01*
X176937297Y-53570145D01*
X176760765Y-53746369D01*
X176665109Y-53976735D01*
X176664891Y-54226171D01*
X176760145Y-54456703D01*
X176936369Y-54633235D01*
X177166735Y-54728891D01*
X177279766Y-54728990D01*
X177639282Y-55088506D01*
X177621973Y-55114411D01*
X177596594Y-55242000D01*
X177596594Y-55290000D01*
X177176000Y-55290000D01*
X177017074Y-55321612D01*
X177003027Y-55324406D01*
X176856387Y-55422388D01*
X175408522Y-56870254D01*
X175365754Y-56806246D01*
X175257589Y-56733973D01*
X175130000Y-56708594D01*
X174030000Y-56708594D01*
X173902411Y-56733973D01*
X173794246Y-56806246D01*
X173721973Y-56914411D01*
X173696594Y-57042000D01*
X173696594Y-57995369D01*
X172785612Y-57084388D01*
X172638973Y-56986406D01*
X172466000Y-56952000D01*
X172152439Y-56952000D01*
X172158008Y-56924000D01*
X172890000Y-56924000D01*
X173062973Y-56889594D01*
X173209612Y-56791612D01*
X173706985Y-56294239D01*
X173721973Y-56369589D01*
X173794246Y-56477754D01*
X173902411Y-56550027D01*
X174030000Y-56575406D01*
X175130000Y-56575406D01*
X175257589Y-56550027D01*
X175365754Y-56477754D01*
X175438027Y-56369589D01*
X175463406Y-56242000D01*
X175463406Y-55242000D01*
X175438027Y-55114411D01*
X175365754Y-55006246D01*
X175257589Y-54933973D01*
X175130000Y-54908594D01*
X174030000Y-54908594D01*
X173902411Y-54933973D01*
X173794246Y-55006246D01*
X173721973Y-55114411D01*
X173696594Y-55242000D01*
X173696594Y-55290000D01*
X173620000Y-55290000D01*
X173447027Y-55324406D01*
X173300388Y-55422388D01*
X172702776Y-56020000D01*
X172158406Y-56020000D01*
X172158406Y-55722000D01*
X172133027Y-55594411D01*
X172060754Y-55486246D01*
X171952589Y-55413973D01*
X171825000Y-55388594D01*
X171075000Y-55388594D01*
X170947411Y-55413973D01*
X170839246Y-55486246D01*
X170766973Y-55594411D01*
X170741594Y-55722000D01*
X170741594Y-56922000D01*
X170747561Y-56952000D01*
X168698183Y-56952000D01*
X168774891Y-56767265D01*
X168775109Y-56517829D01*
X168766588Y-56497207D01*
X168772000Y-56470000D01*
X168772000Y-55835406D01*
X168870000Y-55835406D01*
X168997589Y-55810027D01*
X169105754Y-55737754D01*
X169178027Y-55629589D01*
X169203406Y-55502000D01*
X169203406Y-54502000D01*
X169178027Y-54374411D01*
X169105754Y-54266246D01*
X168997589Y-54193973D01*
X168870000Y-54168594D01*
X167770000Y-54168594D01*
X167642411Y-54193973D01*
X167534246Y-54266246D01*
X167461973Y-54374411D01*
X167436594Y-54502000D01*
X167436594Y-55219423D01*
X166951133Y-55682000D01*
X165243007Y-55682000D01*
X165278027Y-55629589D01*
X165303406Y-55502000D01*
X165303406Y-55454000D01*
X165978000Y-55454000D01*
X166150973Y-55419594D01*
X166297612Y-55321612D01*
X166382213Y-55237011D01*
X166494171Y-55237109D01*
X166724703Y-55141855D01*
X166901235Y-54965631D01*
X166996891Y-54735265D01*
X166997109Y-54485829D01*
X166901855Y-54255297D01*
X166725631Y-54078765D01*
X166495265Y-53983109D01*
X166245829Y-53982891D01*
X166015297Y-54078145D01*
X165838765Y-54254369D01*
X165743109Y-54484735D01*
X165743052Y-54550000D01*
X165303406Y-54550000D01*
X165303406Y-54502000D01*
X165278027Y-54374411D01*
X165205754Y-54266246D01*
X165097589Y-54193973D01*
X164970000Y-54168594D01*
X163870000Y-54168594D01*
X163742411Y-54193973D01*
X163634246Y-54266246D01*
X163561973Y-54374411D01*
X163536594Y-54502000D01*
X163536594Y-54550000D01*
X162631225Y-54550000D01*
X161403875Y-53322650D01*
X163489000Y-53322650D01*
X163489000Y-53777785D01*
X163547004Y-53917819D01*
X163654180Y-54024996D01*
X163794214Y-54083000D01*
X164299350Y-54083000D01*
X164394600Y-53987750D01*
X164394600Y-53227400D01*
X164445400Y-53227400D01*
X164445400Y-53987750D01*
X164540650Y-54083000D01*
X165045786Y-54083000D01*
X165185820Y-54024996D01*
X165292996Y-53917819D01*
X165351000Y-53777785D01*
X165351000Y-53322650D01*
X165255750Y-53227400D01*
X164445400Y-53227400D01*
X164394600Y-53227400D01*
X163584250Y-53227400D01*
X163489000Y-53322650D01*
X161403875Y-53322650D01*
X160707440Y-52626215D01*
X163489000Y-52626215D01*
X163489000Y-53081350D01*
X163584250Y-53176600D01*
X164394600Y-53176600D01*
X164394600Y-52416250D01*
X164445400Y-52416250D01*
X164445400Y-53176600D01*
X165255750Y-53176600D01*
X165351000Y-53081350D01*
X165351000Y-52702000D01*
X167436594Y-52702000D01*
X167436594Y-53702000D01*
X167461973Y-53829589D01*
X167534246Y-53937754D01*
X167642411Y-54010027D01*
X167770000Y-54035406D01*
X168870000Y-54035406D01*
X168997589Y-54010027D01*
X169105754Y-53937754D01*
X169178027Y-53829589D01*
X169203406Y-53702000D01*
X169203406Y-53654000D01*
X169346776Y-53654000D01*
X170284388Y-54591613D01*
X170431027Y-54689594D01*
X170604000Y-54724000D01*
X170741594Y-54724000D01*
X170741594Y-55022000D01*
X170766973Y-55149589D01*
X170839246Y-55257754D01*
X170947411Y-55330027D01*
X171075000Y-55355406D01*
X171825000Y-55355406D01*
X171952589Y-55330027D01*
X172060754Y-55257754D01*
X172133027Y-55149589D01*
X172158406Y-55022000D01*
X172158406Y-53822000D01*
X172133027Y-53694411D01*
X172060754Y-53586246D01*
X171952589Y-53513973D01*
X171825000Y-53488594D01*
X171075000Y-53488594D01*
X170947411Y-53513973D01*
X170839246Y-53586246D01*
X170766973Y-53694411D01*
X170750160Y-53778935D01*
X169853612Y-52882388D01*
X169706973Y-52784406D01*
X169534000Y-52750000D01*
X169203406Y-52750000D01*
X169203406Y-52702000D01*
X169178027Y-52574411D01*
X169105754Y-52466246D01*
X168997589Y-52393973D01*
X168870000Y-52368594D01*
X167770000Y-52368594D01*
X167642411Y-52393973D01*
X167534246Y-52466246D01*
X167461973Y-52574411D01*
X167436594Y-52702000D01*
X165351000Y-52702000D01*
X165351000Y-52626215D01*
X165292996Y-52486181D01*
X165185820Y-52379004D01*
X165045786Y-52321000D01*
X164540650Y-52321000D01*
X164445400Y-52416250D01*
X164394600Y-52416250D01*
X164299350Y-52321000D01*
X163794214Y-52321000D01*
X163654180Y-52379004D01*
X163547004Y-52486181D01*
X163489000Y-52626215D01*
X160707440Y-52626215D01*
X159693612Y-51612388D01*
X159546973Y-51514406D01*
X159374000Y-51480000D01*
X159043406Y-51480000D01*
X159043406Y-51432000D01*
X159018027Y-51304411D01*
X158945754Y-51196246D01*
X158837589Y-51123973D01*
X158710000Y-51098594D01*
X157610000Y-51098594D01*
X157482411Y-51123973D01*
X157374246Y-51196246D01*
X157301973Y-51304411D01*
X157276594Y-51432000D01*
X157276594Y-51480000D01*
X156856000Y-51480000D01*
X156683027Y-51514406D01*
X156536387Y-51612388D01*
X155088522Y-53060254D01*
X155045754Y-52996246D01*
X154937589Y-52923973D01*
X154810000Y-52898594D01*
X153932630Y-52898594D01*
X154065818Y-52765406D01*
X154810000Y-52765406D01*
X154937589Y-52740027D01*
X155045754Y-52667754D01*
X155118027Y-52559589D01*
X155143406Y-52432000D01*
X155143406Y-51432000D01*
X155118027Y-51304411D01*
X155045754Y-51196246D01*
X154937589Y-51123973D01*
X154810000Y-51098594D01*
X153710000Y-51098594D01*
X153582411Y-51123973D01*
X153474246Y-51196246D01*
X153401973Y-51304411D01*
X153376594Y-51432000D01*
X153376594Y-52176182D01*
X152222776Y-53330000D01*
X151838406Y-53330000D01*
X151838406Y-53182000D01*
X151813027Y-53054411D01*
X151740754Y-52946246D01*
X151632589Y-52873973D01*
X151505000Y-52848594D01*
X150755000Y-52848594D01*
X150627411Y-52873973D01*
X150519246Y-52946246D01*
X150446973Y-53054411D01*
X150421594Y-53182000D01*
X150421594Y-54382000D01*
X150446973Y-54509589D01*
X150519246Y-54617754D01*
X150627411Y-54690027D01*
X150755000Y-54715406D01*
X151505000Y-54715406D01*
X151632589Y-54690027D01*
X151740754Y-54617754D01*
X151813027Y-54509589D01*
X151838406Y-54382000D01*
X151838406Y-54234000D01*
X152410000Y-54234000D01*
X152582973Y-54199594D01*
X152729612Y-54101612D01*
X153376594Y-53454630D01*
X153376594Y-54232000D01*
X153401973Y-54359589D01*
X153474246Y-54467754D01*
X153582411Y-54540027D01*
X153710000Y-54565406D01*
X154810000Y-54565406D01*
X154937589Y-54540027D01*
X155045754Y-54467754D01*
X155118027Y-54359589D01*
X155143406Y-54232000D01*
X155143406Y-54166614D01*
X155228973Y-54149594D01*
X155375612Y-54051612D01*
X157043225Y-52384000D01*
X157276594Y-52384000D01*
X157276594Y-52432000D01*
X157301973Y-52559589D01*
X157374246Y-52667754D01*
X157482411Y-52740027D01*
X157610000Y-52765406D01*
X158710000Y-52765406D01*
X158837589Y-52740027D01*
X158945754Y-52667754D01*
X159018027Y-52559589D01*
X159043406Y-52432000D01*
X159043406Y-52384000D01*
X159186776Y-52384000D01*
X162124388Y-55321613D01*
X162262615Y-55413973D01*
X162271027Y-55419594D01*
X162444000Y-55454000D01*
X163536594Y-55454000D01*
X163536594Y-55502000D01*
X163561973Y-55629589D01*
X163596993Y-55682000D01*
X158538183Y-55682000D01*
X158614891Y-55497265D01*
X158615109Y-55247829D01*
X158606588Y-55227207D01*
X158612000Y-55200000D01*
X158612000Y-54565406D01*
X158710000Y-54565406D01*
X158837589Y-54540027D01*
X158945754Y-54467754D01*
X159018027Y-54359589D01*
X159043406Y-54232000D01*
X159043406Y-53232000D01*
X159018027Y-53104411D01*
X158945754Y-52996246D01*
X158837589Y-52923973D01*
X158710000Y-52898594D01*
X157610000Y-52898594D01*
X157482411Y-52923973D01*
X157374246Y-52996246D01*
X157301973Y-53104411D01*
X157276594Y-53232000D01*
X157276594Y-54040974D01*
X156262015Y-55174000D01*
X145542000Y-55174000D01*
X145369027Y-55208406D01*
X145222388Y-55306388D01*
X144335040Y-56193736D01*
X144216000Y-55340617D01*
X144216000Y-54797224D01*
X144531642Y-54481583D01*
X147307843Y-53260293D01*
X147322411Y-53270027D01*
X147450000Y-53295406D01*
X147548000Y-53295406D01*
X147548000Y-53753028D01*
X147455109Y-53976735D01*
X147454891Y-54226171D01*
X147550145Y-54456703D01*
X147726369Y-54633235D01*
X147956735Y-54728891D01*
X148206171Y-54729109D01*
X148436703Y-54633855D01*
X148613235Y-54457631D01*
X148708891Y-54227265D01*
X148709109Y-53977829D01*
X148613855Y-53747297D01*
X148452000Y-53585159D01*
X148452000Y-53295406D01*
X148550000Y-53295406D01*
X148677589Y-53270027D01*
X148785754Y-53197754D01*
X148858027Y-53089589D01*
X148883406Y-52962000D01*
X148883406Y-51962000D01*
X148858027Y-51834411D01*
X148785754Y-51726246D01*
X148677589Y-51653973D01*
X148550000Y-51628594D01*
X147450000Y-51628594D01*
X147322411Y-51653973D01*
X147214246Y-51726246D01*
X147141973Y-51834411D01*
X147116594Y-51962000D01*
X147116594Y-52356819D01*
X144089992Y-53688265D01*
X144021713Y-53736065D01*
X143952387Y-53782388D01*
X143460417Y-54274359D01*
X143442538Y-54147714D01*
X143436148Y-54129453D01*
X143434793Y-54110157D01*
X143368493Y-53867265D01*
X143346681Y-53823550D01*
X143327989Y-53778423D01*
X143111216Y-53454000D01*
X143027342Y-53370126D01*
X142702918Y-53153353D01*
X142593332Y-53107961D01*
X142210649Y-53031841D01*
X142180708Y-53031841D01*
X142151342Y-53026000D01*
X139788658Y-53026000D01*
X139769683Y-53029774D01*
X139750387Y-53028419D01*
X139500610Y-53060116D01*
X139454277Y-53075603D01*
X139406980Y-53087803D01*
X139055443Y-53257094D01*
X139055441Y-53257095D01*
X138960666Y-53328420D01*
X138833258Y-53470989D01*
X138877776Y-53147650D01*
X138876299Y-53122860D01*
X138881822Y-53098654D01*
X138871094Y-53035529D01*
X138867284Y-52971601D01*
X138856434Y-52949267D01*
X138852273Y-52924785D01*
X138818197Y-52870560D01*
X138790218Y-52812968D01*
X138771648Y-52796487D01*
X138758435Y-52775461D01*
X138723406Y-52738413D01*
X138723406Y-51962000D01*
X138698027Y-51834411D01*
X138625754Y-51726246D01*
X138517589Y-51653973D01*
X138390000Y-51628594D01*
X137290000Y-51628594D01*
X137162411Y-51653973D01*
X137054246Y-51726246D01*
X136981973Y-51834411D01*
X136956594Y-51962000D01*
X136956594Y-52962000D01*
X136981973Y-53089589D01*
X137054246Y-53197754D01*
X137162411Y-53270027D01*
X137290000Y-53295406D01*
X137388000Y-53295406D01*
X137388000Y-53474977D01*
X137289829Y-53474891D01*
X137059297Y-53570145D01*
X136882765Y-53746369D01*
X136787109Y-53976735D01*
X136786891Y-54226171D01*
X136882145Y-54456703D01*
X137058369Y-54633235D01*
X137288735Y-54728891D01*
X137538171Y-54729109D01*
X137760138Y-54637394D01*
X137056112Y-59750850D01*
X137022116Y-59699972D01*
X136975486Y-59628308D01*
X136973170Y-59626719D01*
X136971612Y-59624388D01*
X136900533Y-59576894D01*
X136830051Y-59528547D01*
X136827309Y-59527967D01*
X136824973Y-59526406D01*
X136741117Y-59509726D01*
X136657511Y-59492033D01*
X136654751Y-59492547D01*
X136652000Y-59492000D01*
X135042145Y-59492000D01*
X128563406Y-53897626D01*
X128563406Y-53232000D01*
X128538027Y-53104411D01*
X128465754Y-52996246D01*
X128357589Y-52923973D01*
X128230000Y-52898594D01*
X127130000Y-52898594D01*
X127002411Y-52923973D01*
X126894246Y-52996246D01*
X126821973Y-53104411D01*
X126796594Y-53232000D01*
X126796594Y-54232000D01*
X126821973Y-54359589D01*
X126894246Y-54467754D01*
X127002411Y-54540027D01*
X127130000Y-54565406D01*
X127228000Y-54565406D01*
X127228000Y-55023028D01*
X127135109Y-55246735D01*
X127134891Y-55496171D01*
X127211674Y-55682000D01*
X119036242Y-55682000D01*
X118403406Y-55152141D01*
X118403406Y-54502000D01*
X118378027Y-54374411D01*
X118305754Y-54266246D01*
X118197589Y-54193973D01*
X118070000Y-54168594D01*
X116970000Y-54168594D01*
X116842411Y-54193973D01*
X116734246Y-54266246D01*
X116661973Y-54374411D01*
X116636594Y-54502000D01*
X116636594Y-55502000D01*
X116661973Y-55629589D01*
X116734246Y-55737754D01*
X116842411Y-55810027D01*
X116970000Y-55835406D01*
X117068000Y-55835406D01*
X117068000Y-56293028D01*
X116975109Y-56516735D01*
X116974891Y-56766171D01*
X117070145Y-56996703D01*
X117153156Y-57079859D01*
X113475048Y-57083667D01*
X113561235Y-56997631D01*
X113656891Y-56767265D01*
X113656990Y-56654234D01*
X113939612Y-56371612D01*
X114037594Y-56224973D01*
X114072000Y-56052000D01*
X114072000Y-55835406D01*
X114170000Y-55835406D01*
X114297589Y-55810027D01*
X114405754Y-55737754D01*
X114478027Y-55629589D01*
X114503406Y-55502000D01*
X114503406Y-55454000D01*
X114924000Y-55454000D01*
X115096973Y-55419594D01*
X115243612Y-55321612D01*
X116691478Y-53873747D01*
X116734246Y-53937754D01*
X116842411Y-54010027D01*
X116970000Y-54035406D01*
X118070000Y-54035406D01*
X118197589Y-54010027D01*
X118305754Y-53937754D01*
X118378027Y-53829589D01*
X118400189Y-53718171D01*
X121292891Y-53718171D01*
X121388145Y-53948703D01*
X121564369Y-54125235D01*
X121794735Y-54220891D01*
X122044171Y-54221109D01*
X122133982Y-54184000D01*
X122896594Y-54184000D01*
X122896594Y-54232000D01*
X122921973Y-54359589D01*
X122994246Y-54467754D01*
X123102411Y-54540027D01*
X123230000Y-54565406D01*
X124330000Y-54565406D01*
X124457589Y-54540027D01*
X124565754Y-54467754D01*
X124638027Y-54359589D01*
X124663406Y-54232000D01*
X124663406Y-53232000D01*
X124638027Y-53104411D01*
X124565754Y-52996246D01*
X124457589Y-52923973D01*
X124330000Y-52898594D01*
X123230000Y-52898594D01*
X123102411Y-52923973D01*
X122994246Y-52996246D01*
X122921973Y-53104411D01*
X122896594Y-53232000D01*
X122896594Y-53280000D01*
X122468673Y-53280000D01*
X122451855Y-53239297D01*
X122275631Y-53062765D01*
X122045265Y-52967109D01*
X121795829Y-52966891D01*
X121565297Y-53062145D01*
X121388765Y-53238369D01*
X121293109Y-53468735D01*
X121292891Y-53718171D01*
X118400189Y-53718171D01*
X118403406Y-53702000D01*
X118403406Y-52702000D01*
X118378027Y-52574411D01*
X118305754Y-52466246D01*
X118197589Y-52393973D01*
X118070000Y-52368594D01*
X116970000Y-52368594D01*
X116842411Y-52393973D01*
X116734246Y-52466246D01*
X116661973Y-52574411D01*
X116636594Y-52702000D01*
X116636594Y-52767386D01*
X116565074Y-52781612D01*
X116551027Y-52784406D01*
X116404387Y-52882388D01*
X114736776Y-54550000D01*
X114503406Y-54550000D01*
X114503406Y-54502000D01*
X114478027Y-54374411D01*
X114405754Y-54266246D01*
X114297589Y-54193973D01*
X114170000Y-54168594D01*
X113070000Y-54168594D01*
X112942411Y-54193973D01*
X112834246Y-54266246D01*
X112761973Y-54374411D01*
X112736594Y-54502000D01*
X112736594Y-55502000D01*
X112761973Y-55629589D01*
X112834246Y-55737754D01*
X112942411Y-55810027D01*
X113070000Y-55835406D01*
X113168000Y-55835406D01*
X113168000Y-55864776D01*
X113017787Y-56014989D01*
X112905829Y-56014891D01*
X112675297Y-56110145D01*
X112498765Y-56286369D01*
X112403109Y-56516735D01*
X112402891Y-56766171D01*
X112498145Y-56996703D01*
X112585877Y-57084588D01*
X111148647Y-57086076D01*
X111173027Y-57049589D01*
X111198406Y-56922000D01*
X111198406Y-55722000D01*
X111173027Y-55594411D01*
X111100754Y-55486246D01*
X110992589Y-55413973D01*
X110865000Y-55388594D01*
X110115000Y-55388594D01*
X109987411Y-55413973D01*
X109879246Y-55486246D01*
X109806973Y-55594411D01*
X109781594Y-55722000D01*
X109781594Y-56020000D01*
X109745224Y-56020000D01*
X109147612Y-55422388D01*
X109000973Y-55324406D01*
X108828000Y-55290000D01*
X108243406Y-55290000D01*
X108243406Y-55242000D01*
X108218027Y-55114411D01*
X108145754Y-55006246D01*
X108037589Y-54933973D01*
X107910000Y-54908594D01*
X106810000Y-54908594D01*
X106682411Y-54933973D01*
X106574246Y-55006246D01*
X106501973Y-55114411D01*
X106476594Y-55242000D01*
X106476594Y-56242000D01*
X106501973Y-56369589D01*
X106574246Y-56477754D01*
X106682411Y-56550027D01*
X106810000Y-56575406D01*
X107910000Y-56575406D01*
X108037589Y-56550027D01*
X108145754Y-56477754D01*
X108218027Y-56369589D01*
X108243406Y-56242000D01*
X108243406Y-56194000D01*
X108640776Y-56194000D01*
X109238388Y-56791612D01*
X109385027Y-56889594D01*
X109558000Y-56924000D01*
X109781992Y-56924000D01*
X109806973Y-57049589D01*
X109832264Y-57087440D01*
X108243406Y-57089085D01*
X108243406Y-57042000D01*
X108218027Y-56914411D01*
X108145754Y-56806246D01*
X108037589Y-56733973D01*
X107910000Y-56708594D01*
X106810000Y-56708594D01*
X106682411Y-56733973D01*
X106574246Y-56806246D01*
X106501973Y-56914411D01*
X106494496Y-56952000D01*
X105664000Y-56952000D01*
X105491072Y-56986397D01*
X105491027Y-56986406D01*
X105424270Y-57031012D01*
X105285829Y-57030891D01*
X105055297Y-57126145D01*
X104878765Y-57302369D01*
X104783109Y-57532735D01*
X104782891Y-57782171D01*
X104878145Y-58012703D01*
X105054369Y-58189235D01*
X105284735Y-58284891D01*
X105534171Y-58285109D01*
X105764703Y-58189855D01*
X105941235Y-58013631D01*
X106006689Y-57856000D01*
X106476594Y-57856000D01*
X106476594Y-58042000D01*
X106501973Y-58169589D01*
X106574246Y-58277754D01*
X106682411Y-58350027D01*
X106810000Y-58375406D01*
X107910000Y-58375406D01*
X108037589Y-58350027D01*
X108145754Y-58277754D01*
X108218027Y-58169589D01*
X108243406Y-58042000D01*
X108243406Y-57993086D01*
X109394653Y-57991894D01*
X109353664Y-58000047D01*
X109349521Y-58002815D01*
X109344670Y-58003944D01*
X109300357Y-58035666D01*
X109255040Y-58065946D01*
X109252273Y-58070088D01*
X109248221Y-58072988D01*
X101838298Y-65976906D01*
X99359356Y-65976906D01*
X100320250Y-62133328D01*
X100792640Y-62133328D01*
X101108178Y-62896989D01*
X101691938Y-63481768D01*
X102455047Y-63798639D01*
X103281328Y-63799360D01*
X104044989Y-63483822D01*
X104629768Y-62900062D01*
X104946639Y-62136953D01*
X104947360Y-61310672D01*
X104631822Y-60547011D01*
X104048062Y-59962232D01*
X103829323Y-59871404D01*
X103909235Y-59791631D01*
X104004891Y-59561265D01*
X104005109Y-59311829D01*
X103912000Y-59086488D01*
X103912000Y-58375406D01*
X104010000Y-58375406D01*
X104137589Y-58350027D01*
X104245754Y-58277754D01*
X104318027Y-58169589D01*
X104343406Y-58042000D01*
X104343406Y-57042000D01*
X104318027Y-56914411D01*
X104245754Y-56806246D01*
X104137589Y-56733973D01*
X104010000Y-56708594D01*
X102910000Y-56708594D01*
X102782411Y-56733973D01*
X102674246Y-56806246D01*
X102601973Y-56914411D01*
X102576594Y-57042000D01*
X102576594Y-58042000D01*
X102601973Y-58169589D01*
X102674246Y-58277754D01*
X102782411Y-58350027D01*
X102910000Y-58375406D01*
X103008000Y-58375406D01*
X103008000Y-58919415D01*
X102846765Y-59080369D01*
X102751109Y-59310735D01*
X102750891Y-59560171D01*
X102785911Y-59644926D01*
X102458672Y-59644640D01*
X101695011Y-59960178D01*
X101110232Y-60543938D01*
X100793361Y-61307047D01*
X100792640Y-62133328D01*
X100320250Y-62133328D01*
X101887919Y-55862650D01*
X102529000Y-55862650D01*
X102529000Y-56317785D01*
X102587004Y-56457819D01*
X102694180Y-56564996D01*
X102834214Y-56623000D01*
X103339350Y-56623000D01*
X103434600Y-56527750D01*
X103434600Y-55767400D01*
X103485400Y-55767400D01*
X103485400Y-56527750D01*
X103580650Y-56623000D01*
X104085786Y-56623000D01*
X104225820Y-56564996D01*
X104332996Y-56457819D01*
X104391000Y-56317785D01*
X104391000Y-55862650D01*
X104295750Y-55767400D01*
X103485400Y-55767400D01*
X103434600Y-55767400D01*
X102624250Y-55767400D01*
X102529000Y-55862650D01*
X101887919Y-55862650D01*
X102062027Y-55166215D01*
X102529000Y-55166215D01*
X102529000Y-55621350D01*
X102624250Y-55716600D01*
X103434600Y-55716600D01*
X103434600Y-54956250D01*
X103485400Y-54956250D01*
X103485400Y-55716600D01*
X104295750Y-55716600D01*
X104391000Y-55621350D01*
X104391000Y-55166215D01*
X104332996Y-55026181D01*
X104225820Y-54919004D01*
X104085786Y-54861000D01*
X103580650Y-54861000D01*
X103485400Y-54956250D01*
X103434600Y-54956250D01*
X103339350Y-54861000D01*
X102834214Y-54861000D01*
X102694180Y-54919004D01*
X102587004Y-55026181D01*
X102529000Y-55166215D01*
X102062027Y-55166215D01*
X102398081Y-53822000D01*
X109781594Y-53822000D01*
X109781594Y-55022000D01*
X109806973Y-55149589D01*
X109879246Y-55257754D01*
X109987411Y-55330027D01*
X110115000Y-55355406D01*
X110865000Y-55355406D01*
X110992589Y-55330027D01*
X111100754Y-55257754D01*
X111173027Y-55149589D01*
X111198406Y-55022000D01*
X111198406Y-54724000D01*
X111336000Y-54724000D01*
X111508973Y-54689594D01*
X111655612Y-54591612D01*
X112593225Y-53654000D01*
X112736594Y-53654000D01*
X112736594Y-53702000D01*
X112761973Y-53829589D01*
X112834246Y-53937754D01*
X112942411Y-54010027D01*
X113070000Y-54035406D01*
X114170000Y-54035406D01*
X114297589Y-54010027D01*
X114405754Y-53937754D01*
X114478027Y-53829589D01*
X114503406Y-53702000D01*
X114503406Y-52702000D01*
X114478027Y-52574411D01*
X114405754Y-52466246D01*
X114297589Y-52393973D01*
X114170000Y-52368594D01*
X113070000Y-52368594D01*
X112942411Y-52393973D01*
X112834246Y-52466246D01*
X112761973Y-52574411D01*
X112736594Y-52702000D01*
X112736594Y-52750000D01*
X112406000Y-52750000D01*
X112233027Y-52784406D01*
X112086388Y-52882387D01*
X111189840Y-53778936D01*
X111173027Y-53694411D01*
X111100754Y-53586246D01*
X110992589Y-53513973D01*
X110865000Y-53488594D01*
X110115000Y-53488594D01*
X109987411Y-53513973D01*
X109879246Y-53586246D01*
X109806973Y-53694411D01*
X109781594Y-53822000D01*
X102398081Y-53822000D01*
X102689564Y-52656073D01*
X102974623Y-52052650D01*
X122849000Y-52052650D01*
X122849000Y-52507785D01*
X122907004Y-52647819D01*
X123014180Y-52754996D01*
X123154214Y-52813000D01*
X123659350Y-52813000D01*
X123754600Y-52717750D01*
X123754600Y-51957400D01*
X123805400Y-51957400D01*
X123805400Y-52717750D01*
X123900650Y-52813000D01*
X124405786Y-52813000D01*
X124545820Y-52754996D01*
X124652996Y-52647819D01*
X124711000Y-52507785D01*
X124711000Y-52052650D01*
X124615750Y-51957400D01*
X123805400Y-51957400D01*
X123754600Y-51957400D01*
X122944250Y-51957400D01*
X122849000Y-52052650D01*
X102974623Y-52052650D01*
X103150930Y-51679439D01*
X103507224Y-51356215D01*
X122849000Y-51356215D01*
X122849000Y-51811350D01*
X122944250Y-51906600D01*
X123754600Y-51906600D01*
X123754600Y-51146250D01*
X123805400Y-51146250D01*
X123805400Y-51906600D01*
X124615750Y-51906600D01*
X124711000Y-51811350D01*
X124711000Y-51432000D01*
X126796594Y-51432000D01*
X126796594Y-52432000D01*
X126821973Y-52559589D01*
X126894246Y-52667754D01*
X127002411Y-52740027D01*
X127130000Y-52765406D01*
X128230000Y-52765406D01*
X128310224Y-52749448D01*
X129812388Y-54251612D01*
X129959027Y-54349594D01*
X130101594Y-54377952D01*
X130101594Y-54382000D01*
X130126973Y-54509589D01*
X130199246Y-54617754D01*
X130307411Y-54690027D01*
X130435000Y-54715406D01*
X131185000Y-54715406D01*
X131312589Y-54690027D01*
X131420754Y-54617754D01*
X131493027Y-54509589D01*
X131518406Y-54382000D01*
X131518406Y-54226171D01*
X132468891Y-54226171D01*
X132564145Y-54456703D01*
X132740369Y-54633235D01*
X132970735Y-54728891D01*
X133220171Y-54729109D01*
X133450703Y-54633855D01*
X133627235Y-54457631D01*
X133722891Y-54227265D01*
X133722990Y-54114234D01*
X134259612Y-53577612D01*
X134357594Y-53430973D01*
X134359572Y-53421027D01*
X134384560Y-53295406D01*
X134490000Y-53295406D01*
X134617589Y-53270027D01*
X134725754Y-53197754D01*
X134798027Y-53089589D01*
X134823406Y-52962000D01*
X134823406Y-52914000D01*
X135244000Y-52914000D01*
X135416973Y-52879594D01*
X135563612Y-52781612D01*
X137011478Y-51333747D01*
X137054246Y-51397754D01*
X137162411Y-51470027D01*
X137290000Y-51495406D01*
X138390000Y-51495406D01*
X138517589Y-51470027D01*
X138625754Y-51397754D01*
X138698027Y-51289589D01*
X138723406Y-51162000D01*
X138723406Y-51114000D01*
X142112776Y-51114000D01*
X143216594Y-52217819D01*
X143216594Y-52962000D01*
X143241973Y-53089589D01*
X143314246Y-53197754D01*
X143422411Y-53270027D01*
X143550000Y-53295406D01*
X144650000Y-53295406D01*
X144777589Y-53270027D01*
X144885754Y-53197754D01*
X144958027Y-53089589D01*
X144983406Y-52962000D01*
X144983406Y-52914000D01*
X145658000Y-52914000D01*
X145830973Y-52879594D01*
X145977612Y-52781612D01*
X146062213Y-52697011D01*
X146174171Y-52697109D01*
X146404703Y-52601855D01*
X146581235Y-52425631D01*
X146676891Y-52195265D01*
X146677109Y-51945829D01*
X146581855Y-51715297D01*
X146405631Y-51538765D01*
X146175265Y-51443109D01*
X145925829Y-51442891D01*
X145695297Y-51538145D01*
X145518765Y-51714369D01*
X145423109Y-51944735D01*
X145423052Y-52010000D01*
X144983406Y-52010000D01*
X144983406Y-51962000D01*
X144958027Y-51834411D01*
X144885754Y-51726246D01*
X144777589Y-51653973D01*
X144650000Y-51628594D01*
X143905819Y-51628594D01*
X143820225Y-51543000D01*
X143979350Y-51543000D01*
X144074600Y-51447750D01*
X144074600Y-50687400D01*
X144125400Y-50687400D01*
X144125400Y-51447750D01*
X144220650Y-51543000D01*
X144725786Y-51543000D01*
X144865820Y-51484996D01*
X144972996Y-51377819D01*
X145031000Y-51237785D01*
X145031000Y-50782650D01*
X144935750Y-50687400D01*
X144125400Y-50687400D01*
X144074600Y-50687400D01*
X143264250Y-50687400D01*
X143169000Y-50782650D01*
X143169000Y-50891776D01*
X142619612Y-50342388D01*
X142472973Y-50244406D01*
X142300000Y-50210000D01*
X138723406Y-50210000D01*
X138723406Y-50162000D01*
X138708332Y-50086215D01*
X143169000Y-50086215D01*
X143169000Y-50541350D01*
X143264250Y-50636600D01*
X144074600Y-50636600D01*
X144074600Y-49876250D01*
X144125400Y-49876250D01*
X144125400Y-50636600D01*
X144935750Y-50636600D01*
X145031000Y-50541350D01*
X145031000Y-50162000D01*
X147116594Y-50162000D01*
X147116594Y-51162000D01*
X147141973Y-51289589D01*
X147214246Y-51397754D01*
X147322411Y-51470027D01*
X147450000Y-51495406D01*
X148550000Y-51495406D01*
X148677589Y-51470027D01*
X148785754Y-51397754D01*
X148858027Y-51289589D01*
X148883406Y-51162000D01*
X148883406Y-51114000D01*
X149026776Y-51114000D01*
X149964388Y-52051613D01*
X150111027Y-52149594D01*
X150284000Y-52184000D01*
X150421594Y-52184000D01*
X150421594Y-52482000D01*
X150446973Y-52609589D01*
X150519246Y-52717754D01*
X150627411Y-52790027D01*
X150755000Y-52815406D01*
X151505000Y-52815406D01*
X151632589Y-52790027D01*
X151740754Y-52717754D01*
X151813027Y-52609589D01*
X151838406Y-52482000D01*
X151838406Y-51282000D01*
X151813027Y-51154411D01*
X151740754Y-51046246D01*
X151632589Y-50973973D01*
X151505000Y-50948594D01*
X150755000Y-50948594D01*
X150627411Y-50973973D01*
X150519246Y-51046246D01*
X150446973Y-51154411D01*
X150430160Y-51238935D01*
X149533612Y-50342388D01*
X149386973Y-50244406D01*
X149214000Y-50210000D01*
X148883406Y-50210000D01*
X148883406Y-50162000D01*
X148858027Y-50034411D01*
X148785754Y-49926246D01*
X148677589Y-49853973D01*
X148550000Y-49828594D01*
X147450000Y-49828594D01*
X147322411Y-49853973D01*
X147214246Y-49926246D01*
X147141973Y-50034411D01*
X147116594Y-50162000D01*
X145031000Y-50162000D01*
X145031000Y-50086215D01*
X144972996Y-49946181D01*
X144865820Y-49839004D01*
X144725786Y-49781000D01*
X144220650Y-49781000D01*
X144125400Y-49876250D01*
X144074600Y-49876250D01*
X143979350Y-49781000D01*
X143474214Y-49781000D01*
X143334180Y-49839004D01*
X143227004Y-49946181D01*
X143169000Y-50086215D01*
X138708332Y-50086215D01*
X138698027Y-50034411D01*
X138625754Y-49926246D01*
X138517589Y-49853973D01*
X138390000Y-49828594D01*
X137290000Y-49828594D01*
X137162411Y-49853973D01*
X137054246Y-49926246D01*
X136981973Y-50034411D01*
X136956594Y-50162000D01*
X136956594Y-50227386D01*
X136871027Y-50244406D01*
X136724387Y-50342388D01*
X135056776Y-52010000D01*
X134823406Y-52010000D01*
X134823406Y-51962000D01*
X134798027Y-51834411D01*
X134725754Y-51726246D01*
X134617589Y-51653973D01*
X134490000Y-51628594D01*
X133390000Y-51628594D01*
X133262411Y-51653973D01*
X133154246Y-51726246D01*
X133081973Y-51834411D01*
X133056594Y-51962000D01*
X133056594Y-52962000D01*
X133081973Y-53089589D01*
X133154246Y-53197754D01*
X133262411Y-53270027D01*
X133284379Y-53274397D01*
X133083787Y-53474989D01*
X132971829Y-53474891D01*
X132741297Y-53570145D01*
X132564765Y-53746369D01*
X132469109Y-53976735D01*
X132468891Y-54226171D01*
X131518406Y-54226171D01*
X131518406Y-53182000D01*
X131493027Y-53054411D01*
X131420754Y-52946246D01*
X131312589Y-52873973D01*
X131185000Y-52848594D01*
X130435000Y-52848594D01*
X130307411Y-52873973D01*
X130199246Y-52946246D01*
X130126973Y-53054411D01*
X130101594Y-53182000D01*
X130101594Y-53262370D01*
X128563406Y-51724182D01*
X128563406Y-51432000D01*
X128538027Y-51304411D01*
X128523053Y-51282000D01*
X130101594Y-51282000D01*
X130101594Y-52482000D01*
X130126973Y-52609589D01*
X130199246Y-52717754D01*
X130307411Y-52790027D01*
X130435000Y-52815406D01*
X131185000Y-52815406D01*
X131312589Y-52790027D01*
X131420754Y-52717754D01*
X131493027Y-52609589D01*
X131518406Y-52482000D01*
X131518406Y-52184000D01*
X131656000Y-52184000D01*
X131828973Y-52149594D01*
X131975612Y-52051612D01*
X132913225Y-51114000D01*
X133056594Y-51114000D01*
X133056594Y-51162000D01*
X133081973Y-51289589D01*
X133154246Y-51397754D01*
X133262411Y-51470027D01*
X133390000Y-51495406D01*
X134490000Y-51495406D01*
X134617589Y-51470027D01*
X134725754Y-51397754D01*
X134798027Y-51289589D01*
X134823406Y-51162000D01*
X134823406Y-50162000D01*
X134798027Y-50034411D01*
X134725754Y-49926246D01*
X134617589Y-49853973D01*
X134490000Y-49828594D01*
X133390000Y-49828594D01*
X133262411Y-49853973D01*
X133154246Y-49926246D01*
X133081973Y-50034411D01*
X133056594Y-50162000D01*
X133056594Y-50210000D01*
X132726000Y-50210000D01*
X132553027Y-50244406D01*
X132406388Y-50342387D01*
X131509840Y-51238936D01*
X131493027Y-51154411D01*
X131420754Y-51046246D01*
X131312589Y-50973973D01*
X131185000Y-50948594D01*
X130435000Y-50948594D01*
X130307411Y-50973973D01*
X130199246Y-51046246D01*
X130126973Y-51154411D01*
X130101594Y-51282000D01*
X128523053Y-51282000D01*
X128465754Y-51196246D01*
X128357589Y-51123973D01*
X128230000Y-51098594D01*
X127130000Y-51098594D01*
X127002411Y-51123973D01*
X126894246Y-51196246D01*
X126821973Y-51304411D01*
X126796594Y-51432000D01*
X124711000Y-51432000D01*
X124711000Y-51356215D01*
X124652996Y-51216181D01*
X124545820Y-51109004D01*
X124405786Y-51051000D01*
X123900650Y-51051000D01*
X123805400Y-51146250D01*
X123754600Y-51146250D01*
X123659350Y-51051000D01*
X123154214Y-51051000D01*
X123014180Y-51109004D01*
X122907004Y-51216181D01*
X122849000Y-51356215D01*
X103507224Y-51356215D01*
X103928311Y-50974212D01*
X104934421Y-50613700D01*
X105323558Y-50584906D01*
X130402309Y-50584906D01*
X130421284Y-50581132D01*
X130440580Y-50582487D01*
X130690357Y-50550790D01*
X130736685Y-50535305D01*
X130783987Y-50523103D01*
X131135524Y-50353812D01*
X131135526Y-50353811D01*
X131230301Y-50282486D01*
X131490297Y-49991551D01*
X131531983Y-49920882D01*
X131550563Y-49889385D01*
X131679430Y-49521101D01*
X131683615Y-49491456D01*
X131693505Y-49463192D01*
X131902505Y-47982776D01*
X132259250Y-46963254D01*
X132958648Y-46180628D01*
X133914231Y-45720444D01*
X134595427Y-45634000D01*
X147333839Y-45634000D01*
X148393216Y-45844723D01*
M02*
